<svg xmlns="http://www.w3.org/2000/svg" width="300" height="168.84" xmlns:v="https://vecta.io/nano"><style><![CDATA[.B{fill:#fbfbfb}.C{fill:#dbdced}.D{fill:#e7e8f1}.E{fill:#f65767}.F{fill:#6864f1}.G{fill:#141d34}.H{fill:#9388f9}]]></style><svg><defs><clipPath id="A"><path transform="scale(.14648 .14644)" fill="none" d="M0 0h2048v1153H0z"/></clipPath><linearGradient x1="141.535" y1="128.745" x2="140.853" y2="147.624" gradientUnits="userSpaceOnUse" id="B"><stop offset="0" stop-color="#d0d3e9"/><stop offset="1" stop-color="#f3f3f6"/></linearGradient><linearGradient x1="168.441" y1="129.849" x2="168.784" y2="153.209" gradientUnits="userSpaceOnUse" id="C"><stop offset="0" stop-color="#f54f62"/><stop offset="1" stop-color="#fd8b95"/></linearGradient><linearGradient x1="208.458" y1="153.439" x2="179.219" y2="128.239" gradientUnits="userSpaceOnUse" id="D"><stop offset="0" stop-color="#d0d2e9"/><stop offset="1" stop-color="#edeff4"/></linearGradient></defs><g clip-path="url(#A)"><path d="M118.634 21.113c.077-2.499.173-4.717 2.097-6.562 2.292-2.196 4.725-1.967 7.565-1.969l6.64-.004 20.539.012c3.35-.153 6.344 2.042 7.102 5.326.445 1.933.195 3.836.272 5.777.166 4.13-.271 8.655-.01 12.739-1.428-1.077-2.839-2.304-4.573-2.85-1.767-.557-14.786-.48-16.865-.212.611 1.5.362 3.385.219 4.988 6.28.166 12.948-.022 19.272.027l55.688.01c.312-3.964 1.431-6.936 4.545-9.608a13.01 13.01 0 0 1 9.457-3.042c3.442.279 6.366 1.867 8.594 4.491a12.5 12.5 0 0 1 2.953 9.252 12.94 12.94 0 0 1-4.646 8.863c-2.952 2.463-6.321 3.054-10.065 2.721a22.48 22.48 0 0 1-1.355-.174l-.034 13.637c0 1.338-.072 5.42.11 6.48 3.935.002 10.843-.875 13.708 2.051a6.99 6.99 0 0 1 1.746 3.145c.593 2.264.277 7.418.385 9.996.044 1.052-.192 2.034-.678 2.974-.482 2.039-.877 2.443-2.616 3.689.469.004 1.487.04 1.912-.012l1.324.079c2.449.135 7.938-.625 9.299.955.977 1.133.467 3.919.643 5.579.898-.03 2.956-.223 3.42.551.869 1.45.74 7.673.098 9.005-.877.796-2.332.609-3.516.592-.325 1.698.579 4.963-1.033 5.901-1.903 1.109-5.375.464-7.601.61-6.111.193-13.141-.273-19.077.053-.4.349-.844.735-.914 1.313-.214 1.746-.456 4.116.154 5.772.396 1.072 1.828.942 2.76.929-.04.661-.132 1.477.021 2.105l.101.106c.42.439.516.504 1.062.755l.193.323c-.779 2.249-2.316 5.705-3.297 7.938-.429-.261-7.225-.208-8.156-.145-.023 4.554.817 8.538-2.263 12.217-4.323.124-9.271.012-13.635.012h-27.318c-.394.687.015 4.084-.157 4.863-.422 1.921-5.779 1.278-7.052.999-2.197-.483-.237-4.151-1.252-5.856l-1.576-.028c-.11 1.642.22 4.059-.341 5.425-.53.57-1.387.698-2.137.726-6.545.249-5.878-.384-5.805-6.153l-1.685.007c-.51 3.949 1.994 6.521-4.418 6.178-1.311-.069-2.489.12-3.553-.858-.488-.873-.301-4.058-.337-5.324l-11.622-.029c-2.053.003-6.484.157-8.263-.226a8.48 8.48 0 0 1-4.091-2.133c-2.998-2.847-2.686-6.597-2.805-10.436-2.011-.635-4.522.061-6.72.099-3.518.078-7.038.086-10.556.026-1.55-.04-3.03-.173-4.587-.239-.725-.031-1.724-.004-2.458.18-.036.009-.222-.178-.272-.236l-.083.055c.081-2.045-.038-2.996-.428-5.014l.177-.201c-.54-.322-1.679-3.334-2.617-4.364-1.725-1.896-2.751-2.487-5-3.625.154-2.387.03-6.029.013-8.459-.615-.229-4.721-.148-5.657-.146l-18.249.023c-2.396.002-4.795.015-7.187-.014-1.505-.018-2.659-.309-3.767-1.361-1.127-1.069-1.403-2.658-1.412-4.147l.004-11.467c.071-2.204-.144-4.393.132-6.586.168-1.332 1.114-2.767 2.352-3.37.404-.197 1.52-.467 1.951-.49 3.312-.177 6.676-.095 10-.093l21.872-.013-.021-21.489c-.028-3.538.114-7.557-.123-11.044-1.549 1.072-2.174 1.591-3.998 2.054-.21-1.668-.103-4.618-.106-6.39l-.027-11.037c.026-5.095.708-8.47 4.342-12.238 4.803-4.981 11.455-3.994 17.766-3.995z" class="B"/><path d="M98.144 85.22l-.001-15.711c-.002-2.579-.391-7.612.632-10.087.096-.232 1.157-.737 1.403-.673l9.292-.024 18.758.003 30.727.003 15.765-.017c1.954.001 2.744.772 2.81 2.724.075 2.166.054 4.312.054 6.477l-.006 12.06-.023 27.832-.019.379c-.374.511-.996 1.371-1.67 1.43-2.101.183-4.515.109-6.63.107l-13.365-.018-51.227-.01c.385-1.282.257-5.773.258-7.328l-.004-11.22c-.027-5.153-2.027-5.996-6.754-5.925z" class="E"/><path d="M136.24 72.12a12.07 12.07 0 0 1 13.591 10.238 12.07 12.07 0 0 1-23.894 3.428A12.07 12.07 0 0 1 136.24 72.12z" class="B"/><path d="M135.183 78.161c1.463.16 7.596 4.096 8.778 5.374 1.113 1.204-2.938 3.193-3.713 3.656-.931.554-4.044 2.787-5.188 2.676-.967-.094-.958-2.877-.935-3.74.058-2.221-.094-4.72.086-6.958.036-.445.658-.799.971-1.007z" fill="#e6293f"/><path d="M118.634 21.113c.077-2.499.173-4.717 2.097-6.562 2.292-2.196 4.725-1.967 7.565-1.969l6.64-.004 20.539.012c3.35-.153 6.344 2.042 7.102 5.326.445 1.933.195 3.836.272 5.777.166 4.13-.271 8.655-.01 12.739-1.428-1.077-2.839-2.304-4.573-2.85-1.767-.557-14.786-.48-16.865-.212.611 1.5.362 3.385.219 4.988 6.28.166 12.948-.022 19.272.027l55.688.01c.312-3.964 1.431-6.936 4.545-9.608a13.01 13.01 0 0 1 9.457-3.042c3.442.279 6.366 1.867 8.594 4.491a12.5 12.5 0 0 1 2.953 9.252 12.94 12.94 0 0 1-4.646 8.863c-2.952 2.463-6.321 3.054-10.065 2.721a22.48 22.48 0 0 1-1.355-.174c-2.423-.804-3.365-1.302-5.332-2.922l-36.812.024-69.34.001c-9.683 0-19.77-.14-29.426.004l-.022 4.686c-1.549 1.072-2.174 1.591-3.998 2.054-.21-1.668-.103-4.618-.106-6.39l-.027-11.037c.026-5.095.708-8.47 4.342-12.238 4.803-4.981 11.455-3.994 17.766-3.995z" class="G"/><path d="M118.634 21.113c.077-2.499.173-4.717 2.097-6.562 2.292-2.196 4.725-1.967 7.565-1.969l6.64-.004 20.539.012c3.35-.153 6.344 2.042 7.102 5.326.445 1.933.195 3.836.272 5.777.166 4.13-.271 8.655-.01 12.739-1.428-1.077-2.839-2.304-4.573-2.85-1.767-.557-14.786-.48-16.865-.212-5.05-.191-10.292.168-15.349-.011-7.924-.281-7.6-6.411-7.418-12.245z" class="F"/><g class="B"><path d="M140.448 23.634c1.613.052 2.551.228 3.853 1.255.789.59 2.51 2.694 1.558 3.672-.777.799-3.517.523-4.612.498-2.283-.011-8.379.978-4.964-3.326 1.079-1.36 2.462-1.963 4.164-2.099zm-.616-6.294a2.8 2.8 0 1 1-1.836 3.47 2.8 2.8 0 0 1 1.836-3.469z"/></g><path d="M81.134 54.743c-.21-1.668-.103-4.618-.106-6.39l-.027-11.037c.026-5.095.708-8.47 4.342-12.238 4.803-4.981 11.455-3.994 17.766-3.995l15.525.03c-.182 5.835-.506 11.965 7.418 12.245 5.057.179 10.299-.18 15.349.011.611 1.5.362 3.385.219 4.988l-35.029-.009-11.881-.008c-10.952-.001-9.466-1.064-9.561 9.585l91.27-.004 29.534.001 9.372-.001c1.626-.001 3.825-.06 5.405.053l-36.812.024-69.34.001c-9.683 0-19.77-.14-29.426.004l-.022 4.686c-1.549 1.072-2.174 1.591-3.998 2.054z" class="E"/><g class="B"><path d="M229.134 31.271l.548.085c.708.437 1.797 3.077 2.254 4.007 5.799.627 5.708.792 1.479 4.719.212 1.119 1.184 4.128.133 4.712-.987.035-2.884-1.216-3.831-1.761-1.293-.197-3.628 2.694-4.739 1.62-.363-1.002.294-3.391.535-4.544-.839-.925-2.514-2.181-2.977-3.254.042-1.366 3.368-1.349 4.487-1.481l2.109-4.102zM94.77 41.938a1.29 1.29 0 1 1-.353 2.231 1.29 1.29 0 0 1 .353-2.231zm4.872.01a1.29 1.29 0 0 1 1.658.746 1.29 1.29 0 0 1-.741 1.66 1.29 1.29 0 0 1-1.666-.743 1.29 1.29 0 0 1 .749-1.663zm-9.839.007a1.28 1.28 0 1 1-.811 1.031 1.28 1.28 0 0 1 .811-1.031z"/></g><path d="M85.275 85.222l12.868-.002c4.727-.071 6.727.772 6.754 5.925l.004 11.22c-.002 1.555.126 6.046-.258 7.328-.479 1.103-1.492 2.556-2.636 2.795-4.545.946-12.292-.096-16.769.398-.615-.229-4.721-.148-5.657-.146l-18.249.023c-2.396.002-4.795.015-7.187-.014-1.505-.018-2.659-.309-3.767-1.361-1.127-1.069-1.403-2.658-1.412-4.147l.004-11.467c.071-2.204-.144-4.393.132-6.586.168-1.332 1.114-2.767 2.352-3.37.404-.197 1.52-.467 1.951-.49 3.312-.177 6.676-.095 10-.093z" class="G"/><path d="M58.002 105.156a8 8 0 0 1 4.994-14.152 8 8 0 0 1 5.411 13.998 8.01 8.01 0 0 1-1.182.864c-2.52 1.508-5.663 1.515-8.19.018a8.01 8.01 0 0 1-1.033-.728z" class="B"/><path d="M58.002 105.156c.089-.558.193-1.311.409-1.838 1.481-3.614 6.879-3.967 9.063-.836.554.795.52 1.661.933 2.519a8.01 8.01 0 0 1-1.182.864c-2.52 1.508-5.663 1.515-8.19.018a8.01 8.01 0 0 1-1.033-.728z" class="C"/><path d="M59.034 105.883c.613-.392 7.626-.387 8.19-.018-2.52 1.508-5.663 1.515-8.19.018z" class="B"/><path d="M62.426 94.394a2.69 2.69 0 0 1 2.615.692c.683.684.946 1.683.688 2.615s-.997 1.653-1.935 1.889a2.69 2.69 0 0 1-3.254-1.922c-.375-1.424.467-2.884 1.886-3.274z" class="C"/><g fill="#6d76a4"><path d="M75.111 103.966l15.712-.018 6.877.116c.804.61.631 1.11.099 1.871-4.414.163-9.341-.076-13.812.037-1.346.034-7.817.086-8.847-.134-.745-.624-.6-1.145-.03-1.872zm.277-4.315c2.341-.109 21.726-.143 22.46.183.595.648.478 1.143-.103 1.801l-14.364.007c-1.182.003-7.868.227-8.523-.308-.38-.748-.229-1.283.53-1.683z"/></g><path d="M75.303 93.881c1.621.003 9.582-.345 10.424.224a1.08 1.08 0 0 1 .5.791c.083.544-.218.92-.532 1.317-2.795.254-7.861.183-10.668-.231-.745-.11-.26-1.535.277-2.101z" class="E"/><path d="M226.14 71.014c3.935.002 10.843-.875 13.708 2.051a6.99 6.99 0 0 1 1.746 3.145c.593 2.264.277 7.418.385 9.996.044 1.052-.192 2.034-.678 2.974-.482 2.039-.877 2.443-2.616 3.689.469.004 1.487.04 1.912-.012l1.324.079c2.449.135 7.938-.625 9.299.955.977 1.133.467 3.919.643 5.579.898-.03 2.956-.223 3.42.551.869 1.45.74 7.673.098 9.005-.877.796-2.332.609-3.516.592-.325 1.698.579 4.963-1.033 5.901-1.903 1.109-5.375.464-7.601.61-6.111.193-13.141-.273-19.077.053-2.039-.233-7.578.938-7.625-2.287l.007-18.066c.048-2.932 1.884-3.019 4.295-2.957 1.159.031 2.379.027 3.565-.026a9.62 9.62 0 0 1-.855-.578 4.36 4.36 0 0 1-1.708-2.928 4.2 4.2 0 0 1 .866-3.141c.882-1.108 1.954-1.489 3.303-1.647.293-.458.144-12.019.136-13.539z" fill="#1d294d"/><path d="M226.14 71.014c3.935.002 10.843-.875 13.708 2.051a6.99 6.99 0 0 1 1.746 3.145c.593 2.264.277 7.418.385 9.996.044 1.052-.192 2.034-.678 2.974-.25-2.904-2.043-5.171-5.186-4.467a4.52 4.52 0 0 0-2.823 2.023c-1.581 2.549-.16 4.706 2.065 6.123a194.95 194.95 0 0 1-7.676.023c1.414-.88 2.445-1.958 2.607-3.699a4.23 4.23 0 0 0-.946-3.083c-.917-1.097-1.983-1.421-3.34-1.546.293-.458.144-12.019.136-13.539z" class="D"/><path d="M251.862 99.47c.898-.03 2.956-.223 3.42.551.869 1.45.74 7.673.098 9.005-.877.796-2.332.609-3.516.592.188-1.663.064-8.293-.003-10.148z" class="G"/><path d="M243.958 96.256c1.16-.059 2.795.125 2.855 1.668.164 4.194.094 8.442.053 12.643-.028 2.881-3.57 2.199-5.621 2.202l-7.118.004-7.354-.004c-1.165-.001-3.952.201-4.699-.453-1.304-1.139-.637-5.613-.712-7.267-.088-2.136.022-4.31-.037-6.438-.086-3.125 4.229-2.398 6.473-2.384l7.506.022 8.653.006z" class="F"/><path d="M235.305 96.25l8.653.006c.71.152.694.026 1.083.474-.13.731-.992 1.116-1.037 1.738-.059.806.615 1.709.107 2.57-.416-.136-.272-.023-.508-.446l.083-1.11c-.624.21-.406 1.392-.885 1.99l-.91-.385c.056.394.11 1.002-.208 1.301l-.294-.168c-.117-.507-.145-.842-.539-1.19l-.447.698c-1.617.696-.668.831-1.384 1.423l-.586-.14c-.015.304.101.537.404.663l-.125.905-.157.118c-.253-.252-.293-.265-.369-.598-.215.043-.167-.006-.303.11-.105.39-.237.734-.583.965-1.069.718-4.021 2.869-5.262 2.855-.384-.16-.422-.19-.659-.531-.076-.466-.062-1.54-.069-2.055-1.061.142-1.343 1.166-1.581.98-.107-.084-.145-.133-.207-.251-.372-.36.072-.376-.562-.881-.413.184-.65.659-.92 1.058-.259-.312-.376-.532-.762-.624-.631.423-.144 1-.705.963l-.341-.472c-.366-.006-.207-.053-.504.118l-.393-.764.111-.17.488.136c.828-.571-.315-1.038.154-2.382l.407-.155.019-.225-.214-.247-.633.089c-.33-.218-1.216-1.321-1.228-1.704l.615.066.06-.118c-.4-.227-.751-.317-.879-.662a5.98 5.98 0 0 0 .812-.341l.057-.261a3.12 3.12 0 0 1-.816-.381c-.048-.749-.198-2.119.158-2.732.984-.208 9.316-.108 10.822-.106z" class="H"/><path d="M231.379 107.498c.192-1.478-.354-5.719.647-6.532.917-.066 4.86 2.585 5.856 3.243-.105.39-.237.734-.583.965-1.069.718-4.021 2.869-5.262 2.855-.384-.16-.422-.19-.659-.531z" class="B"/><g fill="#7a73f8"><path d="M235.305 96.25l8.653.006c.71.152.694.026 1.083.474-.13.731-.992 1.116-1.037 1.738-.059.806.615 1.709.107 2.57-.416-.136-.272-.023-.508-.446l.083-1.11c-.624.21-.406 1.392-.885 1.99l-.91-.385c.056.394.11 1.002-.208 1.301l-.294-.168c-.117-.507-.145-.842-.539-1.19l-.042-.36c.574-.557.546-.963.732-1.709l.139-.032c.231.438.429.914.831 1.192.458-.015.283.044.659-.239.006-.739-.437-.764-.617-1.55l.25-.098c.081.321.149.531.259.843 1.031-.512.53-1.731.29-2.655l-8.08-.044zm-5.782 9.923c.28-.702-.176-.972.076-1.495 1.45.781.889.069 1.579.177l.132.588c-1.061.142-1.343 1.166-1.581.98-.107-.084-.145-.133-.207-.251zm-3.794.162c.297-.171.138-.123.504-.118l.341.472c.561.037.073-.54.705-.963.385.092.502.312.762.624-.589.138-.365.034-.854.493.006.289 0 .28.095.551-.344.346-.792.374-1.299.661-.353-.839.539-1.195-.253-1.719zm13.108-2.66c-.303-.126-.419-.359-.404-.663l.586.14c.716-.592-.233-.727 1.384-1.423.122.611.185.492.01 1.03-.324.08-.376.055-.715.007-.517.45-.242.819-.031 1.414l-.073-.013-.133-.217-.354.031c-.089-.132-.142-.207-.27-.307z"/></g><path d="M105.57 129.332c1.072-.086 2.179-.08 3.255-.072l27.568.114 19.596.003c2.281-.002 8.262-.17 10.27.222-2.561.664-1.711 3.538-1.746 5.682-.58.011-2.499-.054-2.852.281l.174.168c.686.691.917 1.027.964 2.019.149 3.224-.028 6.515.025 9.739-.11 1.642.22 4.059-.341 5.425-.53.57-1.387.698-2.137.726-6.545.249-5.878-.384-5.805-6.153l-1.685.007c-.51 3.949 1.994 6.521-4.418 6.178-1.311-.069-2.489.12-3.553-.858-.488-.873-.301-4.058-.337-5.324l-11.622-.029c-2.053.003-6.484.157-8.263-.226a8.48 8.48 0 0 1-4.091-2.133c-2.998-2.847-2.686-6.597-2.805-10.436-2.011-.635-4.522.061-6.72.099-3.518.078-7.038.086-10.556.026-1.55-.04-3.03-.173-4.587-.239-.725-.031-1.724-.004-2.458.18-.036.009-.222-.178-.272-.236l-.083.055c.081-2.045-.038-2.996-.428-5.014l.177-.201c2.669.195 9.978.077 12.728-.004z" fill="url(#B)"/><path d="M154.541 147.485c-.006-1.963-.473-9.707.683-11.354.445-.635 5.19-.388 6.612-.403.686.691.917 1.027.964 2.019.149 3.224-.028 6.515.025 9.739-.11 1.642.22 4.059-.341 5.425-.53.57-1.387.698-2.137.726-6.545.249-5.878-.384-5.805-6.153z" class="H"/><path d="M105.57 129.332c3.709.194 8.401.068 12.198.058l-.001 5.274c-2.011-.635-4.522.061-6.72.099-3.518.078-7.038.086-10.556.026-1.55-.04-3.03-.173-4.587-.239-.725-.031-1.724-.004-2.458.18-.036.009-.222-.178-.272-.236l-.083.055c.081-2.045-.038-2.996-.428-5.014l.177-.201c2.669.195 9.978.077 12.728-.004z" fill="#e6293f"/><path d="M144.548 147.488c-.009-1.415-.211-5.282.127-6.074.732-1.715 6.706-1.616 7.831-.361.716.8.343 5.489.35 6.439-.51 3.949 1.994 6.521-4.418 6.178-1.311-.069-2.489.12-3.553-.858-.488-.873-.301-4.058-.337-5.324z" class="F"/><path d="M166.26 129.598l4.92-.035c2.427.877 1.583 3.479 1.635 5.632l.047 12.313c-.394.687.015 4.084-.157 4.863-.422 1.921-5.779 1.278-7.052.999-2.197-.483-.237-4.151-1.252-5.856l-1.576-.028-.025-9.739c-.047-.993-.278-1.329-.964-2.019l-.174-.168c.353-.334 2.272-.27 2.852-.281.035-2.144-.814-5.018 1.746-5.682z" fill="url(#C)"/><path d="M161.836 135.728l-.174-.168c.353-.334 2.272-.27 2.852-.281 0 1.199.119 11.754-.113 12.235l-1.576-.028c-.053-3.223.125-6.515-.025-9.739-.047-.993-.278-1.329-.964-2.019z" class="D"/><path d="M210.665 130.856l.11.039.042 4.387 5.205-.093.056.091c-.023 4.554.817 8.538-2.263 12.217-4.323.124-9.271.012-13.635.012h-27.318c-.173-.4-.034-11.051-.047-12.313 1.969.085 3.939.101 5.908.048.07 2.758-.869 8.158 1.758 9.606l.092.05c.602.332 1.03.362 1.715.359l25.686-.04c.517-.053 1.519-.568 1.824-.958 1.26-1.613.933-4.486.914-6.455l-.047-6.95z" fill="url(#D)"/><path d="M226.175 126.302l.101.106c.42.439.516.504 1.062.755l.193.323c-.779 2.249-2.316 5.705-3.297 7.938-.429-.261-7.225-.208-8.156-.145l-.056-.091c-1.132.159-3.974.096-5.205.093l-.042-4.387.004-1.553c.508-.131 4.487-.024 5.269-.011l6.023.051c2.376.076 4.088-.437 4.103-3.08z" class="C"/><path d="M210.779 129.342c1.245.225 3.97.125 5.3.103l-.057 5.744c-1.132.159-3.974.096-5.205.093l-.042-4.387z" fill="#c6c9e3"/><path d="M171.18 129.563c1.676-.265 5.741-.224 7.541-.229l.001 5.91c-1.969.053-3.939.037-5.908-.048-.051-2.153.792-4.756-1.635-5.632z" class="C"/><g class="D"><path d="M210.665 130.856l-.148-9.655c4.506 1.409 5.477 3.69 5.531 8.13-.782-.013-4.761-.12-5.269.011l-.004 1.553zm-25.564-57.772c4.241-.291 8.624-.063 12.882-.071 2.109-.004 9.401-.311 11.008.14.479.135.916.547 1.132.987.431.879.489 12.028.083 13.073-.277.712-.785 1.001-1.456 1.281-7.384.198-14.918-.028-22.312.001-.627.002-1.705-.264-2.227-.635-1.036-1.678-.325-10.735-.415-13.168-.023-.642.779-1.29 1.304-1.608z"/></g><g class="E"><path d="M193.462 125.426a6.95 6.95 0 0 1 8.102 5.526 6.95 6.95 0 0 1-5.498 8.121 6.95 6.95 0 0 1-8.153-5.516 6.95 6.95 0 0 1 5.549-8.131zm-57.01-9.272c1.394-1.712 2.871-1.618 4.316-.025.366 1.045.394 1.288.063 2.338-1.427 1.907-2.979 1.749-4.466.028l-22.154.001c-1.972 0-3.946.002-5.915-.001-.837-.001-1.732.168-2.08-.78-.168-.457-.117-.512.03-.922.798-.784 2.142-.696 3.192-.672l7.178.037z"/></g><g class="C"><path d="M184.055 59.755c7.866-.159 15.825.069 23.703-.02 2.53-.029 5.679-.136 8.128.078.768.686.479 1.575.085 2.406l-21.082.018c-1.96.003-9.439.138-10.77-.185-.624-.64-.495-1.572-.064-2.297zm-43.287 56.374l19.522.002 9.817.009c.4.019 1.576.052 1.862.336a1 1 0 0 1 .319.778c-.003.401-.18.826-.507 1.07-.428.318-28.007.276-30.951.144.331-1.05.303-1.293-.063-2.338zm43.41-17.704c2.858-.008 23.682-.2 24.387.213.602.674.388 1.592-.123 2.247-2.556.088-23.569.276-24.366-.196-.617-.685-.4-1.586.103-2.264zm.05-6.033c2.635-.058 23.474-.337 24.439.231.41.668.283 1.604-.249 2.17-2.73.144-23.388.306-24.381-.222-.583-.765-.33-1.466.19-2.18zm-.107 11.309c2.537-.035 23.6-.211 24.447.249.554.653.297 1.537-.123 2.184-3.158.04-22.9.299-24.366-.2-.536-.656-.476-1.573.042-2.232z"/></g><path d="M184.277 108.992c2.656.003 20.253-.337 21.267.273.432.652.299 1.604-.201 2.186l-13.23.009c-1.166.003-7.386.206-8.061-.283-.543-.666-.365-1.615.226-2.185z" class="D"/><path d="M183.88 66.028c5.291-.132 11.229-.074 16.529-.013.075.868.047 1.521.018 2.383-2.089.043-15.92.172-16.481-.204-.388-.692-.204-1.409-.066-2.167z" class="C"/><path d="M52.043 48.109c2.417-.284 7.373-.08 10.108-.117 4.011.055 7.986-.169 11.985.171 3.255.276 6.617 3.679 6.732 6.938.087 2.434.119 5.368.002 7.828-.324 6.825 2.376 17.229-7.458 18.282-.675.139-7.278.065-8.299.062l-7.709.006c-2.843.003-6.457.255-9.078-1.485-5.066-3.364-3.015-11.367-3.406-16.601-.152-2.034-.161-6.4.111-8.24.184-1.244.644-2.43 1.345-3.473 1.434-2.111 3.268-2.922 5.666-3.371z" class="E"/><path d="M58.981 56.686c1.847-.035 10.082 5.502 12.258 6.56.464.225 1.016 1.37.748 1.841-.849 1.489-3.439 2.581-4.976 3.435-2.179 1.241-5.551 3.537-7.987 3.91-.53.081-1.209-.952-1.216-1.556-.049-4.326-.198-8.734.077-13.047.032-.502.714-.905 1.096-1.143z" class="B"/><path d="M224.155 116.183c5.936-.326 12.965.14 19.077-.053 1.403 1.068 1.14 2.666 1.165 4.316.044 2.948-.144 3.66-3.186 3.755.044.441.107 1.277.208 1.672.756 1.24.601 3.998.04 5.305.667 2.076 1.756 4.53 2.604 6.583l4.024 9.813c.633 1.545 2.851 5.954 2.187 7.396-.127.278-.36.495-.647.602-2.268.836-2.949-2.653-3.497-3.828-1.367-2.939-2.448-6.613-4.002-9.411-1.02 6.839.731 5.043-6.667 5.179-.117 1.702.605 6.414-1.179 7.032-3.39 1.176-1.758-5.395-2.366-7.042l-8.818-.009c-.754 1.415-2.634 7.061-3.359 7.714-.357.318-.832.47-1.307.422a1.68 1.68 0 0 1-1.189-.684c-.99-1.385 1.611-5.491 1.982-7.266l-.198-.135c-1.424-.117-3.725-.048-5.212-.048 3.081-3.679 2.24-7.664 2.263-12.217.932-.063 7.727-.116 8.156.145.981-2.233 2.518-5.689 3.297-7.938l-.193-.323c-.546-.252-.642-.316-1.062-.755l-.101-.106c-.152-.628-.06-1.444-.021-2.105-.932.013-2.364.143-2.76-.929-.609-1.656-.368-4.026-.154-5.772.07-.578.514-.964.914-1.313zm12.688 13.092c-.224-.627-.447-1.427-.88-1.907h-.249c-.3.519-.19 1.4-.192 2.055.356-.122.929-.125 1.321-.148z" class="G"/><path d="M236.843 129.275l2.5 6.286 2.271 5.353.513 1.42c-1.02 6.839.731 5.043-6.667 5.179l.032-1.05c.111-5.616-.035-11.393.029-17.04.356-.122.929-.125 1.321-.148z" class="D"/><path d="M241.614 140.914l.513 1.42c-1.02 6.839.731 5.043-6.667 5.179l.032-1.05c.06.284.001.155.211.387 1.102-.025 2.769-1.464 3.526-2.239 1.277-1.158 1.759-2.153 2.385-3.697z" class="E"/><path d="M239.344 135.561l2.271 5.353c-.625 1.544-1.107 2.539-2.385 3.697l.114-9.05z" fill="#f18c9a"/><g class="D"><path d="M228.075 135.421c1.153-.319 2.537-.14 3.751-.158 0 1.607-.123 10.523.16 11.405.003.264.037.611-.07.835l-8.818-.009c.586-1.194 1.295-3.113 1.818-4.402l3.16-7.671zm-11.997-.142c.932-.063 7.727-.116 8.156.145l-4.907 11.974-.3.146c-1.424-.117-3.725-.048-5.212-.048 3.081-3.679 2.24-7.664 2.263-12.217z"/></g><path d="M228.075 135.421l3.816-8.957c.223 1.921.144 6.504.113 8.658-.056 3.69.119 7.912-.018 11.545-.283-.882-.16-9.798-.16-11.405-1.214.018-2.599-.161-3.751.158z" class="C"/><path d="M241.458 131.178c-1.233-3.021-2.039-2.679-.04-5.305.756 1.24.601 3.998.04 5.305z" fill="#f18c9a"/><path d="M93.092 134.55c-1.002 4-2.246 6.942-5.943 9.21-2.851 1.73-6.272 2.257-9.511 1.466-3.184-.81-5.918-2.848-7.601-5.669a12.49 12.49 0 0 1-1.462-9.414c1.111-4.441 4.518-7.912 8.93-9.084 2.883-.766 4.904-.408 7.719.287 2.249 1.138 3.275 1.73 5 3.625.938 1.031 2.078 4.042 2.617 4.365l-.177.201c.39 2.017.508 2.968.428 5.014z" class="F"/><path d="M80.434 126.309c1.207.338 4.125 3.886 5.141 4.906.476.477.64 1.124.313 1.764-.846.679-2.054.457-3.179.424-.055 1.6.271 4.977-.27 6.201-.458.381-.299.271-.957.342-1.45.046-3.076.235-2.945-1.948l.117-4.58c-.901.016-2.511.154-3.248-.27-.821-1.508 3.868-5.737 5.028-6.838z" class="B"/><path d="M251.575 65.125c-1.216.018-5.275.478-6.334-.677-1.307-1.425-1.371-5.883 1.094-6.249 1.625-.241 4.409-.071 6.264-.023 2.051-.022 6.579-.55 8.105.728.938.784.81 4.293.272 5.261-.976.921-1.704.998-3.048 1.01-2.115.019-4.236-.024-6.353-.05z" class="H"/><path d="M252.599 58.177c2.051-.022 6.579-.55 8.105.728.938.784.81 4.293.272 5.261-.437-.5-1.397-2.461-2.027-3.086-.101-.099-1.147-.286-1.525-.679-.064-.717.022-.767-.623-.956.064-1.577-2.098-1.141-3.176-1.087-.324-.031-.702-.117-1.027-.18z" class="F"/><path d="M253.626 58.357c1.078-.053 3.24-.49 3.176 1.087.645.189.558.239.623.956.378.394 1.424.58 1.525.679.63.626 1.591 2.587 2.027 3.086-.976.921-1.704.998-3.048 1.01-2.115.019-4.236-.024-6.353-.05 1.458-.444 5.533.141 7.182-.322-.057-.634-.913-1.167-1.348-1.693.094-.398.127-.471.098-.871-.287.01-.416-.011-.694-.049.36-.247.245-.148.379-.694l-.223-.214c-.4-.074-.545-.068-.869-.293l.004-.277.236-.153a1.53 1.53 0 0 0 .501.534l.327-.087c-.208-.11-.337-.144-.431-.356.337-.263.322-.373.437-.815-.271.417-.39.474-.798.74-1.036-.046-.39-1.489-1.337-2.124a3.37 3.37 0 0 1-1.273-.068z" fill="#7a73f8"/><g class="D"><path d="M240.81 91.716l.303.142c.166-.1.391-.269.561-.285l.246 1.362-1.324-.079-.308-.483c.094-.465.004-.291.521-.658z"/><path d="M240.81 91.716c.142-.524.256-1.163.608-1.547l.158.085c.098.575.116.734.098 1.32-.17.015-.396.185-.561.285z" fill-opacity=".929"/></g></g></svg></svg>