<svg xmlns="http://www.w3.org/2000/svg" width="300" height="300" xmlns:v="https://vecta.io/nano"><svg><defs><clipPath id="A"><path transform="scale(.22727)" fill="none" d="M0 0h1320v1320H0z"/></clipPath><linearGradient x1="96.52" y1="269.868" x2="135.365" y2="23.803" id="B" href="#X"><stop offset="0" stop-color="#000034"/><stop offset="1" stop-color="#000054"/></linearGradient><linearGradient x1="305.109" y1="172.955" x2="204.31" y2="141.353" id="C" href="#X"><stop offset="0" stop-color="#00013a"/><stop offset="1" stop-color="#00006e"/></linearGradient><linearGradient x1="151.708" y1="102.095" x2="149.189" y2="211.394" id="D" href="#X"><stop offset="0" stop-color="#f2e516" stop-opacity=".867"/><stop offset="1" stop-color="#f6e619"/></linearGradient><linearGradient x1="152.434" y1="280.134" x2="148.277" y2="204.257" id="E" href="#X"><stop offset="0" stop-color="#f2e617" stop-opacity=".882"/><stop offset="1" stop-color="#f7e618"/></linearGradient><linearGradient x1="141.126" y1="239.534" x2="158.816" y2="250.855" id="F" href="#X"><stop offset="0" stop-color="#ff6100"/><stop offset="1" stop-color="#ff8b00"/></linearGradient><linearGradient x1="139.248" y1="237.5" x2="131.172" y2="239.752" id="G" href="#X"><stop offset="0" stop-color="#ff5900"/><stop offset="1" stop-color="#ff8001"/></linearGradient><linearGradient x1="156.671" y1="229.07" x2="176.955" y2="244.907" id="H" href="#X"><stop offset="0" stop-color="#ff5c01"/><stop offset="1" stop-color="#ff8d00"/></linearGradient><linearGradient x1="82.969" y1="196.115" x2="83.129" y2="182.762" id="I" href="#X"><stop offset="0" stop-color="#ff6101"/><stop offset="1" stop-color="#ff8b00"/></linearGradient><linearGradient x1="67.756" y1="261.989" x2="65.481" y2="249.086" id="J" href="#X"><stop offset="0"/><stop offset="1" stop-color="#01013c"/></linearGradient><linearGradient x1="161.099" y1="98.913" x2="148.362" y2="176.283" id="K" href="#X"><stop offset="0" stop-color="#f2e215" stop-opacity=".659"/><stop offset="1" stop-color="#f2e315" stop-opacity=".69"/></linearGradient><linearGradient x1="246.182" y1="201.996" x2="238.191" y2="202.196" id="L" href="#X"><stop offset="0" stop-color="#f6e716" stop-opacity="0"/><stop offset="1" stop-color="#f5e815" stop-opacity=".047"/></linearGradient><linearGradient x1="54.337" y1="207.663" x2="60.717" y2="207.607" id="M" href="#X"><stop offset="0" stop-color="#f6e918" stop-opacity="0"/><stop offset="1" stop-color="#f6e512" stop-opacity=".082"/></linearGradient><linearGradient x1="105.075" y1="168.783" x2="141.459" y2="137.79" id="N" href="#X"><stop offset="0" stop-color="#ff5601"/><stop offset="1" stop-color="#ff9600"/></linearGradient><linearGradient x1="161.475" y1="154.351" x2="134.462" y2="143.607" id="O" href="#X"><stop offset="0" stop-color="#f50"/><stop offset="1" stop-color="#ff9601"/></linearGradient><linearGradient x1="170.924" y1="161.155" x2="201.512" y2="146.243" id="P" href="#X"><stop offset="0" stop-color="#ff5c01"/><stop offset="1" stop-color="#ff8f00"/></linearGradient><linearGradient x1="152.448" y1="178.942" x2="178.825" y2="142.708" id="Q" href="#X"><stop offset="0" stop-color="#ff5902"/><stop offset="1" stop-color="#ff9100"/></linearGradient><linearGradient x1="101.597" y1="219.629" x2="124.593" y2="244.23" id="R" href="#X"><stop offset="0" stop-color="#ff5c01"/><stop offset="1" stop-color="#ff8f00"/></linearGradient><linearGradient x1="187.203" y1="220.214" x2="186.823" y2="262.25" id="S" href="#X"><stop offset="0" stop-color="#ff6200"/><stop offset="1" stop-color="#ff8d00"/></linearGradient><linearGradient x1="195.214" y1="175.864" x2="214.918" y2="167.367" id="T" href="#X"><stop offset="0" stop-color="#ff5901"/><stop offset="1" stop-color="#ff8e00"/></linearGradient><linearGradient x1="106.15" y1="228.455" x2="93.96" y2="247.918" id="U" href="#X"><stop offset="0" stop-color="#ff6800"/><stop offset="1" stop-color="#fe9001"/></linearGradient><linearGradient x1="81.878" y1="226.237" x2="75.678" y2="245.607" id="V" href="#X"><stop offset="0" stop-color="#ff6d00"/><stop offset="1" stop-color="#ff8b01"/></linearGradient></defs><g clip-path="url(#A)"><path d="M35.005 117.473c-.929-19.68 2.362-35.529 13.353-52.224 16.333-24.808 44.122-39.96 72.759-45.798 26.391-5.38 55.007-3.252 80.126 6.635 3.459 1.361 10.388 4.349 13.315 6.285 1.761.578 6.289 3.508 8.039 4.654 14.227 9.313 26.084 21.341 33.854 36.581 7.298 14.313 9.064 28.115 8.473 43.949 14.405 7.227 25.014 23.04 29.895 37.989.25.762.92 2.768 1.045 3.5 1.859 5.612 2.723 11.452 3.555 17.284.155 1.094.255 2.206.58 3.266v17.088l-.066.204a13.7 13.7 0 0 0-.543 2.732c-2.502 27.886-21.184 63.515-53.282 63.588a247.93 247.93 0 0 1-.241-8.22c-.234-3.989-.134-8.2-.416-12.014l.218.057.002-59.053-.011-23.164c.089-1.872-.005-4.169.03-6.105l.107-24.27-.059-23.901c-.484-20.582-11.605-35.939-26.813-48.761l-.165-.1c-1.929-1.193-3.713-2.783-5.619-4.04-26.645-17.536-60.826-21.821-91.645-14.728-23.344 5.373-45.156 17.957-58.321 38.446-9.571 14.895-9.015 26.104-9.026 42.863l.306 39.261-.473 103.86c-14.8-.886-24.457-6.166-34.576-17.186-1.195-1.302-4.373-5.268-5.133-6.782-4.477-5.955-8.057-14.937-10.167-22.026-1.303-3.637-2.065-8.369-2.772-12.171-.322-1.731-.722-6.437-1.336-7.767v-19.081c.476-1.155 1.153-6.296 1.42-7.889.617-3.673 1.204-6.42 2.228-10.019.119-.557.414-1.53.59-2.092 5.508-17.539 14.453-31.945 30.768-40.852z" fill="#0000ad"/><path d="M85.945 42.151c2.416-.96 5.936-3.836 8.487-5.135 29.797-15.166 69.465-12.943 99.665.079 7.02 3.027 14.791 7.449 20.019 12.952 1.98 2.138 3.183 5.854 4.832 7.373l-.022.353-.165-.1c-1.929-1.193-3.713-2.783-5.619-4.04-26.645-17.536-60.826-21.821-91.645-14.728-23.344 5.373-45.156 17.957-58.321 38.446-9.571 14.895-9.015 26.104-9.026 42.863l.306 39.261-.473 103.86c-14.8-.886-24.457-6.166-34.576-17.186-1.195-1.302-4.373-5.268-5.133-6.782l.302-.086-.237-.898.304-.395c.634-.125 3.191.466 3.9.655 19.18 5.109 17.225-10.298 17.494-23.812.168-8.432-.179-17.491-.258-25.991-.026-2.754.124-5.721.201-8.493-.515-10.07.168-20.115.043-30.175-.025-1.976-1.046-8.305-2.062-9.841-.328.024-.361.052-.632.227l-.24.158-.293-.492c1.873-2.755 3.261-4.995 4.359-8.149 1.439-1.869.677-6.687 1.21-8.367 1.553-5.223 3.44-10.435 4.728-15.738 1.645-6.776 2.848-13.925 4.061-20.805.214-1.216.522-2.367.721-3.55 3.039-3.445 7.295-9.896 10.203-13.835 4.369-5.915 9.133-11.529 14.258-16.802 2.334-1.926 4.287-3.81 6.768-5.74 2.158-1.233 4.889-3.506 6.84-5.084z" fill="url(#B)"/><path d="M214.559 32.371c1.761.578 6.289 3.508 8.039 4.654 14.227 9.313 26.084 21.341 33.854 36.581 7.298 14.313 9.064 28.115 8.473 43.949 14.405 7.227 25.014 23.04 29.895 37.989.25.762.92 2.768 1.045 3.5 1.859 5.612 2.723 11.452 3.555 17.284.155 1.094.255 2.206.58 3.266v17.088l-.066.204a13.7 13.7 0 0 0-.543 2.732c-2.502 27.886-21.184 63.515-53.282 63.588a247.93 247.93 0 0 1-.241-8.22c-.234-3.989-.134-8.2-.416-12.014l.218.057c.143 1.325.089 2.95 1.245 3.773 8.818-.777 14.577-5.945 20.623-11.982 3.705-3.639 6.005-7.902 8.536-12.309 7.925-13.593 10.145-30.203 10.214-45.706.009-1.815-.307-3.253-.357-5.016-.38-13.557-3.566-27.458-12.366-38.138-2.364-2.87-5.909-5.877-8.684-8.447l-.127-.05c-2.116-2.778-3.205-2.562-5.3-6.614-.723-1.214-1.516-2.21-2.086-3.541-4.398-10.252-3.127-21.722-6.08-32.374-2.625-9.476-5.87-19.953-13.368-26.769a48.59 48.59 0 0 1-4.966-5.304l.23-.095c2.095.445 1.698 1.731 3.432 2.511-.032-.285-1.316-1.774-1.643-2.43-.507-.727-.582-3.792-1.077-4.259-5.661-5.33-12.447-9.47-19.119-13.421l-.218-.484z" fill="url(#C)"/><path d="M295.866 159.043c1.859 5.612 2.723 11.452 3.555 17.284.155 1.094.255 2.206.58 3.266v17.088l-.066.204a13.7 13.7 0 0 0-.543 2.732c-2.502 27.886-21.184 63.515-53.282 63.588a247.93 247.93 0 0 1-.241-8.22c.709 1.364.6 3.611.902 3.955 1.655.473 5.255-.8 6.925-1.427 3.718-1.402 7.068-3.511 10.455-5.555.9-.541 4.341-2.405 4.97-2.97 8.932-8.009 16.007-18.243 20.734-29.113 2.911-6.595 5.025-13.513 6.298-20.609.766-4.312 1.139-8.935 1.852-13.287.141-.864 1.014-4.337.793-4.781-.943-1.897-.257-3.912-.384-6.091-.164-2.528-.498-5.361-1.102-7.807-.634-2.564-1.811-5.604-1.445-8.255z" fill="#000008"/><g fill="#010089"><path d="M259.455 118.538l1.036.017c1.68 1.565 3.936 3.475 4.916 5.555-.118.638-.098.61-.525 1.092l-.127-.05c-2.116-2.778-3.205-2.562-5.3-6.614zM3.648 160.416c.548 1.552-.869 4.348-.544 5.165.842 2.117 1.626 1.385 1.601 4.25l.243.102.096-3.501.374-.235c.467 1.519.097 13.12.096 15.632l.122 18.268c.012 3.596.103 7.906-.268 11.435-.79-.531.024-3.635-.244-4.866l-.319-.049-.257-.578c-.496 1.24-.047 2.417-.544 3.136-.476.689-.662 1.389-.946 2.167.231.866.325 1.396.816 2.164l.288.116c-.007.952.061 2.92-.053 3.718-1.303-3.637-2.065-8.369-2.772-12.171-.322-1.731-.722-6.437-1.336-7.767v-19.081c.476-1.155 1.153-6.296 1.42-7.889.617-3.673 1.204-6.42 2.228-10.019z"/></g><path d="M14.421 169.978a23.73 23.73 0 0 0 .51-2.434c1.693-10.715 5.295-22.061 13.188-29.865 1.82-1.799 6.492-5.35 9.038-5.606-1.098 3.154-2.486 5.394-4.359 8.149-2.277 2.977-11.038 15.149-12.024 18.026-1.565 2.796-4.346 9.942-5.668 11.796-.441.055-.278.084-.683-.067z" fill="#eae6fe"/><path d="M70.444 51.199c.866-.148 1.025-.201 1.841.095.597.801.511.702.051 1.682-5.125 5.274-9.889 10.887-14.258 16.803-2.908 3.939-7.163 10.39-10.203 13.835-.189-.378-.149-.365-.225-.794.484-1.708 1.614-3.619 2.364-5.348 4.589-10.592 11.398-19.08 20.429-26.272z" fill="#c5c1ee"/><path d="M77.417 46.056c.829-.196 1.485-.446 2.289-.242l.125.412-.726 1.009-6.768 5.74c.46-.98.546-.881-.051-1.682-.817-.295-.975-.243-1.841-.095 1.995-1.787 4.743-3.667 6.972-5.143z" fill="#9893d2"/><path d="M77.417 46.056c1.07-1.128 5.367-3.552 6.921-4.058.862-.281.965-.172 1.608.154l-6.84 5.084a11.07 11.07 0 0 0 .726-1.009l-.125-.412c-.805-.204-1.46.046-2.289.242z" fill="#4340aa"/><path d="M255.905 120.647c1.607.481 8.759 11.148 9.202 13.29-.082.731-.391.918-.918 1.452-.693.502-1.618 1.009-2.373 1.451-2.236-3.495-4.575-11.94-5.911-16.193z" fill="#c5c1ee"/><path d="M72.695 166.537c.255 1.031.476 2.475.981 3.342.561-1.432-.362-2.541.881-3.727l.285.213c.276.976-.017 2.142.046 3.35 1.46-.844.745-3.38.851-4.844.621-1.214 2.214-1.908 3.052-3.286 4.744-7.799 8.621-16.218 14.706-23.122.287-.326 1.685-.92 2.124-1.106-.302-.079-.559-.124-.865-.182.085-.649-.016-.406.548-.923.517-.09.953-.094 1.321-.439l-.531-.191c.008-.897 6.607-6.589 7.642-7.565.941-.888.302-1.792 1.901-2.575 1.114-.545 2.202-2.522 3.006-3.501 3.547-4.312 8.677-13.269 15.388-9.98 2.217.996 4.212 2.565 6.577 3.221 8.461 2.343 10.444-12.076 16.971-13.13 6.451.043 10.456 10.613 14 14.792 3.508 4.138 6.188 6.772 11.436 6.121 6.149-.763 8.758-12.229 13.455-13.072 6.677-1.198 8.333 15.202 9.333 19.839a28.28 28.28 0 0 0 1.692 5.175c3.335 7.643 11.349 8.368 17.392 13.112 1.646 1.292 4.247 4.26 5.917 5.767.952 1.012 1.704 2.042 2.795 2.922 1.256 1.013 1.542.005 2.946.716.158.978-.822 3.171-.07 3.916.398-.968.59-2.22.792-3.267.057 10.182.3 21.556-.052 31.633-.07 1.213-3.741 10.051-4.365 11.592-.566-3.406-.919-11.085-1.211-14.808.09-2.815-.446-8.412-.569-11.459-.135-3.344-.186-9.321-.631-12.332-.843 3.176-1.303 6.972-1.795 10.252l-1.947 12.055c-.2 2.234-.756 5.059-1.188 7.293-.674-1.304-2.8-5.192-3.249-6.382-1.505-3.328-1.61-5.398-1.834-9.028-.466-7.541-1.146-15.083-1.366-22.637-.026-.883-.04-1.717-.327-2.561l-.264-.037c-.813 1.417-1.943 6.943-2.472 8.932l-6.937 25.7c-.463 2.482-1.55 6.101-2.248 8.618-1.398-5.828-2.116-8.584-2.769-14.508.094-.626-.777-7.616-.9-8.721l-3.928-39.752c-.306-3.256-.944-13.794-1.543-16.168-1.22 4.898-1.83 13.397-2.393 18.644l-3.114 27.342c-.697 5.679-1.451 12.387-2.605 17.925l-3.74 15.063c-1-4.991-1.82-12.124-2.596-17.383-.732-6.963-2.455-15.833-3.505-23.036l-2.05-14.337c-.326-2.372-.672-5.734-1.119-7.967-.817 2.16-1.339 6.177-1.737 8.6l-2.138 12.792-4.701 26.164c-1.099 7.545-3.076 12.51-5.595 19.67l-.384-16.154c.073-1.925-.013-3.885-.058-5.812l-.933-30.167-.515-24.927c-.086-5.585.112-13.608-.882-18.9l-6.971 56.655-2.443 18.63c-.381 2.755-1.271 7.816-1.377 10.319-1.173 7.026-1.747 14.672-2.833 21.765-.653-2.664-1.071-6.691-1.46-9.488l-2.2-14.968c-.059-1.236-.577-4.072-.777-5.386l-1.382-9.466-4.873-34.368-1.884-13.662c-.246-1.943-.644-7.331-1.209-8.779l-.252-.019c-.83 1.823-1.436 14.424-1.637 17.039l-1.938 23.786-.999 12.028c-.265 2.742-.745 6.49-.798 9.157l-1.732 20.544c-1.137-2.094-3.493-6.323-4.245-8.419l-.074-.275c-1.847-7.084-3.797-52.325-5.072-53.619-.422 2.576-.566 9.881-.69 12.789l-1.086 27.469c-.183 4.49-.064 11.248-1.618 15.29-.703 2.26-4.879 11.467-5.968 13.783l-1.609-19.192c.096-1.681-.975-11.117-1.164-13.328l-1.047-13.192c-.236-3.047-.421-6.623-1.049-9.562l-4.35 42.558-.318.458c-1.341-.777-5.435-8.821-6.994-10.822.254 7.607-.117 15.135-.057 22.736.012 1.493-.08 6.654.246 7.849l-.119.726c-.35-.479-6.51-22.053-6.864-23.97-.422-5.376-.124-16.242-.071-21.841z" fill="url(#D)"/><path d="M120.078 216.78c.521-4.622 1.172-9.227 1.952-13.812l3.423 13.76 7.782 30.034c1.079 4.261 2.765 12.08 4.067 15.927.444-8.141.419-16.461.79-24.62.2-4.389-.074-9.266.672-13.588 1.041-3.184 2.967-9.588 4.299-12.322.05 4.216.882 15.296 1.456 19.533-.088 3.22.924 11.82 1.24 15.28.715 7.825 1.176 15.457 1.73 23.277.989-2.943 1.785-6.677 2.508-9.734l3.328-14.032 3.104-12.807c.703-2.768 1.675-6.13 2.213-8.885.85-4.172 1.97-8.506 2.857-12.774.251 1.533.385 2.89.535 4.43.3 6.273 1.67 15.602 2.23 22.043.385 4.434 1.465 18.939 2.44 22.159.521-3.745 1.543-7.939 2.384-11.673l3.703-16.241c.482-2.082 1.358-5.25 1.704-7.23.364-1.45.747-2.881.995-4.357.837-3.633 1.947-7.997 2.571-11.605l2.318 11.144c.202.967.869 4.402 1.136 5.151.249 2.615 1.84 8.419 2.426 11.412 1.838 9.398 4.145 18.914 5.632 28.377.658-4.173.81-9.118 1.023-13.38l.972-18.143c.201-3.323.353-7.534.967-10.778.146-.771 1.753-4.067 2.187-5.14.553-.778 3.714-7.449 4.41-8.792.132 1.114.128 2.292.149 3.418l.027 1.854 2.118 48.037c1.428-3.725 3.812-15.85 4.866-20.498l3.31-14.395c.515-2.208 1.413-5.58 1.768-7.737l.875-3.564.982-4.834 2.272 7.423c.783 2.972 3.905 13.436 5.058 15.802.069-3.807.652-7.605 1.045-11.383.145-1.391.508-3.61.494-4.938.221-.931.529-3.591.682-4.667l1.226 2.771c.474.944 3.098 5.575 3.261 6.129.032 6.796-.196 15.002.059 21.632l-.06 1.359c-.22-.923-.327-1.8-.896-2.53l-.195.082c-.25 1.011.07 1.73.15 2.768l-1.358.173c-2.824.286-5.447 3.727-7.115 5.807-3.255 4.057-6.726 13.402-9.715 16.136-.701.641-1.636 1.066-2.423 1.602-2 1.364-3.248 2.036-5.7 2.316-7.363.839-13.661-4.045-20.819-3.414-3.91.343-7.656 3.102-11.102 4.855-3.341 1.7-7.132 2.682-10.679 3.884-3.014 1.02-5.961 2.305-9.11 2.859-1.374.241-2.716.216-4.093.018-3.238-.466-5.696-2.189-8.175-4.189-4.365-3.525-8.134-6.43-14.118-5.825-3.21.325-6.334 1.386-9.534 1.818-7.672 1.039-17.192-1.657-23.202-6.648-.58-.482-2.798-2.055-2.986-2.355-.027-.739.046-1.614-.34-2.182.043.68.143 1.266-.063 1.905-1.454-.348-1.753-3.543-2.669-4.793-.624 1.061.679 2.034.463 2.925-1.468-1.077-.605-3.489-1.957-3.955-.078.764.026.945.242 1.707l-.125.439-.27-.111c-.982-2.659-.794-3.714-3.869-5.209l-.305.009.225 1.132-.301.093c-2.703-2.366-.68-5.718-2.169-6.357-.545.789.006 2.473-.397 2.959l-.216-.036c-.057-.602.025-1.086-.338-1.395l-.012.002-.442-.593c.027.35.006.345.167.655-.271-.73-.239-1.57-.271-2.35-.381.236-.744 2.586-.824 3.184-.135-5.416-.072-11.043-.082-16.475l.085-11.151.806.567c3.357 3.94 5.931 18.979 8.642 24.935.455-7.191.953-16.205 1.932-23.253.612-.02.71-.123 1.178.117l.128.204.022.189c.013.675 1.408 7.393 1.683 8.539 1.453 6.048 2.435 14.757 4.379 20.466.105-4.666-.062-9.739-.097-14.445l.015-16.594c-.191-2.667.118-8.984.151-11.998 1.067 2.77 2.271 5.589 3.406 8.34 3.769 9.982 4.903 24.923 8.394 35.457-.22-7.477-.293-14.957-.222-22.436.013-2.743.233-7.837.08-10.365-.115-3.64-.015-7.838-.039-11.542l3.623 3.627c1.47 1.993 2.183 7.983 2.677 10.698l3.01 17.039c.724 4.218 1.396 8.836 2.549 12.916 1.212-12.427 3.119-24.909 4.776-37.287.087-.65.217-1.302.256-1.956z" fill="url(#E)"/><path d="M157.974 179.603l.281-.338c2.022 1.195 3.781 7.704 5.852 7.807 4.415.221 5.276-8.729 7.817-10.635l.106.361-.613.757c.68.047.754-.013 1.416-.246-.095-.451-.119-.491-.098-.969l.074.018.415 1.028c.776 5.26 1.596 12.392 2.596 17.383l3.74-15.063c2.892-.09 3.443 13.37 8.37 8.399 2.079-2.097 2.848-5.952 4.934-7.748l.132.334c-.345.418-.525.593-.924.963l.116.426c.862-.201.551-.559 1.632-.653-.166-.669-.243-.558-.077-1.129l.299.138c.653 5.924 1.371 8.68 2.769 14.508.698-2.518 1.785-6.136 2.248-8.618l.649-.057c1.303.578 1.909 2.079 2.951 2.986 3.476 3.027 5.748-.406 7.956-2.767.538-.575.951-.542 1.644-.531.449 1.191 2.575 5.079 3.249 6.382.432-2.235.988-5.06 1.188-7.293l.466-.843c1.383-.338 3.329 1.482 4.476 2.326.292 3.723.645 11.402 1.211 14.808.624-1.54 4.296-10.379 4.365-11.592.314 8.362.1 17.851.089 26.297-1.083.179-2.249.342-3.297.639l-1.226-2.771c-.153 1.076-.462 3.735-.682 4.667-.136.333-.305.943-.418 1.308-1.773-.286-4.682-.055-6.179-.789l-2.272-7.423c-.355 1.516-.67 3.289-.982 4.834-.307.347-.22.238-.663.465-1.988-.39-11.27-3.143-12.3-4.161-.021-1.127-.017-2.304-.149-3.418-.697 1.343-3.857 8.014-4.41 8.792-1.818 1.162-1.613 4.083-2.924 3.917-2.058-1.914-3.215-2.779-5.436-.26l-.121.14c.415-1.562 1.118-3.932 1.407-5.459-1.569 2.375-4.046 9.335-5.6 10.049-.153-.222-.356-.545-.533-.734-.267-.749-.933-4.184-1.136-5.151l-2.318-11.144c-.624 3.608-1.735 7.972-2.571 11.605-.248 1.476-.63 2.906-.995 4.357-.346 1.98-1.222 5.148-1.704 7.23l-3.703 16.241c-.841 3.734-1.863 7.927-2.384 11.673-.976-3.22-2.055-17.725-2.44-22.159-.56-6.441-1.93-15.769-2.23-22.043-.15-1.54-.284-2.897-.535-4.43l-2.857 12.774c-.538 2.756-1.51 6.117-2.213 8.885l-3.104 12.807-3.328 14.032c-.723 3.057-1.519 6.791-2.508 9.734l-1.73-23.277c-.316-3.459-1.328-12.059-1.24-15.28-.573-4.236-1.406-15.316-1.456-19.532-1.332 2.734-3.258 9.138-4.299 12.322-.746 4.322-.473 9.199-.672 13.588l-.79 24.62c-1.303-3.848-2.989-11.666-4.067-15.927l-7.782-30.034c-1.034-4.569-2.345-9.157-3.423-13.76-.78 4.585-1.431 9.191-1.952 13.813a7.76 7.76 0 0 1-.49.974c-3.062.444-4.67-6.572-7.397-7.385-3.371-1.005-3.097 4.193-5.383 5.001l-3.623-3.627.039 11.542c-1.734 1.44-4.827-2.176-6.869-2.308-.483-.031-.932-.195-1.383-.347l-3.406-8.34c-.033 3.014-.342 9.331-.151 11.998-.656 1.877-1.196 1.967-2.976 3.037-.946.016-1.763.132-2.583-.28l-.421-.722-.022-.189-.128-.204c-.468-.24-.566-.137-1.178-.117l-.013-2.219-.515.829c-1.462.053-3.919-.662-5.491-.709-1.164-.035-3.572.646-4.555.417l-.806-.567c-.308-3.467-.11-10.606-.085-14.447.044-6.64-.2-14.21.121-20.738.354 1.917 6.514 23.491 6.864 23.97l.119-.726c-.325-1.195-.234-6.356-.246-7.849-.06-7.602.311-15.13.057-22.736 1.558 2.001 5.653 10.045 6.994 10.822l.318-.458c.319-.162.149-.106.532-.086.391.923.085 2.028-.037 3.146l.218.141c1.685-1.583.033-2.605 2.413-3.785.665-1.553 1.15-4.43 2.091-5.83l.88.396c.565-.348.62-.484 1.035-1.033l.128-.172c.089.27.211.498.348.747.635 6.388 1.172 12.787 1.609 19.192 1.089-2.316 5.265-11.523 5.968-13.783 1.029-.642 3.017-.215 4.297-.786 1.254-.559 1.797-1.79 3.183-2.006.662.334.611.475 1.058 1.139.752 2.096 3.109 6.325 4.245 8.419.341-6.601 1.096-13.954 1.732-20.544 6.944-.968 2.608 13.546 8.177 14.222 2.017-.488 2.354-3.728 4.418-4.57.894-.365 1.765-.132 2.713-.372l.44.39 2.2 14.968c.389 2.798.806 6.825 1.46 9.488 1.087-7.093 1.66-14.739 2.833-21.765l.41-1.088.192.938c.644.763 1.726.465 2.001.762 6.995 7.572 6.458-8.534 10.252-9.731.01.828-.098 2.706.324 3.321l.384 16.154c2.519-7.16 4.497-12.125 5.595-19.67z" fill="#fe0700"/><path d="M144.521 231.691c.441.916.711 3.711.87 4.916l.67.041c1.709-1.58.05-2.53.48-3.711 1.145-3.145 2.448-7.201 4.073-10.133.452-.705.905-.952 1.708-1.05 2.434-.295 4.122 3.388 6.322 3.036-.538 2.756-1.51 6.117-2.213 8.885l-3.104 12.807-3.328 14.032c-.723 3.057-1.519 6.791-2.508 9.734l-1.73-23.277c-.316-3.459-1.328-12.059-1.24-15.28z" fill="url(#F)"/><path d="M125.454 216.728c.246.218.39.487.699.391 5.433-1.69 8.648-3.851 9.842 3.688.272 1.718 1.51 4.075-.058 5.971-1.002 1.222.169 4.475 1.294 5.331 2.22-.209-.9-5.848 1.535-7.628-.746 4.322-.473 9.199-.672 13.588l-.79 24.62c-1.303-3.848-2.989-11.666-4.067-15.927l-7.782-30.034z" fill="url(#G)"/><path d="M165.415 220.208c.529-.981 1.751-2.748 1.357-3.798l.454-.345c.203.099 1.002.763.783.752 3.892.208 2.48 8.126 6.49 8.688-.346 1.98-1.222 5.148-1.704 7.23l-3.703 16.241c-.841 3.734-1.863 7.927-2.384 11.673-.976-3.22-2.055-17.725-2.44-22.159-.56-6.441-1.93-15.769-2.23-22.043l.051.132c.835 2.209.885 6.369 1.609 7.201 1.191-.94 1.693-2.011 1.785-3.513z" fill="url(#H)"/><path d="M79.56 181.037c1.558 2.001 5.653 10.045 6.994 10.822l.318-.458c.319-.162.149-.106.532-.086.391.923.085 2.028-.037 3.146l.218.141c1.685-1.583.033-2.605 2.413-3.785-1.318 6.737-3.201 9.251-10.103 6.292-.22 4.119.205 11.083-.147 14.513-.325-1.195-.234-6.356-.246-7.849-.06-7.602.311-15.13.057-22.736z" fill="url(#I)"/><path d="M165.415 220.208l-.025-.203c-.13-1.009-.902-2.914-.305-3.663 4.198-5.27 7.175 3.798 10.409 4.807-.248 1.476-.63 2.906-.995 4.357-4.01-.562-2.598-8.481-6.49-8.688.218.012-.58-.653-.783-.752l-.454.345c.394 1.05-.828 2.817-1.357 3.798z" fill="#ff5400"/><path d="M84.096 223.594c.029-.748-.097-.736.267-1.226.61.57.922 2.906 1.052 3.766l-.128-.204c-.468-.24-.566-.137-1.178-.117z" fill="#ffa614"/><path d="M227.256 144.654l-.025-15.683c-.015-1.885-.258-6.935.162-8.554.916-3.515 9.3-4.937 11.932-5.192-.457 4.392-.136 14.841-.134 19.831l-.032 36.374-.005 65.301c-.018 1.664.05 4.545-.077 6.105.109 5.659.282 15.141-.036 20.623-5.87-1.039-11.566-2.366-11.803-9.491.055-1.452.041-3.1.057-4.568.03-1.2.02-2.398-.028-3.598l.06-1.359c-.255-6.63-.027-14.836-.059-21.632-.163-.554-2.787-5.184-3.261-6.129 1.048-.297 2.214-.46 3.297-.639.011-8.446.225-17.935-.089-26.297.352-10.077.109-21.451.052-31.633.18-1.855.018-5.972-.014-7.969.066-1.88.037-3.611.002-5.491z" fill="#010089"/><path d="M227.327 244.443c1.732 10.05-1.633 9.332 10.175 8.359.6-.884-.173-2.905.555-3.602.709.98-.177 1 .48 2.289l-.023.002.564-8.655c.109 5.659.282 15.141-.036 20.623-5.87-1.039-11.566-2.366-11.803-9.491.055-1.452.041-3.1.057-4.568.03-1.2.02-2.398-.028-3.598z" fill="#000036"/><path d="M227.305 216.044l-.036 6.768c-.163-.554-2.787-5.184-3.261-6.129 1.048-.297 2.214-.46 3.297-.639z" fill="#ff5400"/><path d="M60.778 115.27c2.477.094 3.91.32 6.217 1.162a13.18 13.18 0 0 1 5.787 3.657c.037 10.307-.369 21.73-.053 31.866-.103 2.066-.169 6.149-.023 8.215-.046 1.42-.205 5.005-.011 6.367-.053 5.599-.351 16.465.071 21.841-.321 6.528-.077 14.098-.121 20.738-.026 3.841-.224 10.979.085 14.447l-.085 11.151.082 16.475a78.85 78.85 0 0 0-.067 4.318c-.242.811-.45 1.661-.843 2.4-2.271 3.716-6.668 5.311-10.801 5.664-.29-4.664-.035-10.355-.13-15.105-.043-2.152-.143-8.125.106-9.993l-.252-.375c.236-1.65.123-5.609.113-7.409l-.05-13.264.04-45.312c.22-9.572-.007-19.558.022-29.154l.004-20.677c-.127-2.439-.121-4.565-.091-7.011z" fill="#010089"/><path d="M60.991 238.473c.281.475.783 6.541.89 7.595l-.009-1.248c.309 1.85.635 4.498.413 6.361l-.027.214.357.373c1.827.5 7.152-.75 8.561-2.234.269-.284.174-2.986.233-3.65.313-3.514-.627-7.505.223-10.875.054-.216.803-.261 1.013-.295l.082 16.475a78.85 78.85 0 0 0-.067 4.318c-.242.811-.45 1.661-.843 2.4-2.271 3.716-6.668 5.311-10.801 5.664-.29-4.664-.035-10.355-.13-15.105-.043-2.152-.143-8.125.106-9.993z" fill="url(#J)"/><path d="M60.778 115.27c2.477.094 3.91.32 6.217 1.162-.159 5.706-.597 5.745-6.126 5.849l-.091-7.011z" fill="#6c6aad"/><path d="M139.204 102.167c3.673-4.963 7.249-8.056 13.345-4.019 6.537 4.336 9.888 20.455 18.951 19.995 6.19-.314 8.005-15.756 14.952-16.394 8.324-.764 10.063 11.551 11.085 17.529 1.111 6.493 1.185 14.633 7.218 18.856 6.238 3.84 12.512 6.113 17.612 11.804.649.724 2.59.987 3.109 1.987.304.462.605.573 1.066.673.643-.662.593-1.467.71-2.455.032 1.997.194 6.114.014 7.969-.201 1.047-.394 2.299-.792 3.267-.752-.744.228-2.938.07-3.916-1.404-.711-1.691.297-2.946-.716-1.091-.88-1.843-1.909-2.795-2.922-1.67-1.507-4.271-4.475-5.917-5.767-6.042-4.744-14.057-5.469-17.392-13.112a28.28 28.28 0 0 1-1.692-5.175c-1-4.638-2.656-21.037-9.333-19.839-4.697.843-7.307 12.309-13.455 13.072-5.248.651-7.928-1.983-11.436-6.121-3.543-4.18-7.549-14.749-14-14.792-6.527 1.054-8.51 15.473-16.971 13.13-2.365-.655-4.36-2.225-6.577-3.221-6.712-3.289-11.841 5.668-15.388 9.98-.805.978-1.892 2.955-3.006 3.501-1.599.783-.96 1.687-1.901 2.575-1.035.976-7.635 6.668-7.642 7.565l.531.191c-.368.345-.804.349-1.321.439-.564.516-.463.273-.548.923.306.057.563.103.865.182-.439.187-1.837.78-2.124 1.106-6.085 6.905-9.961 15.323-14.706 23.122-.838 1.378-2.432 2.072-3.052 3.286-.107 1.464.609 4-.851 4.844-.062-1.208.23-2.374-.046-3.35l-.285-.213c-1.243 1.186-.32 2.295-.881 3.727-.505-.867-.726-2.31-.981-3.342-.195-1.363-.035-4.947.011-6.367.121.934.173 2.7.985 3.221.924-.687 1.135-2.403 1.839-3.256 3.489-4.405 6.094-9.567 9.042-14.358 5.578-9.062 12.971-15.946 20.12-23.658 3.066-3.331 5.322-7.414 8.35-10.759 3.94-4.352 6.959-4.885 12.304-3.474 1.65 1.61 3.451 3.644 5.712 4.332 5.909 1.799 7.029-5.983 8.146-10.052z" fill="url(#K)"/><g fill="#f2e414"><path d="M72.948 156.516l.518.957c.339-.288 1.243-3.166 1.566-3.877 5.938-13.08 15.201-23.767 25.459-33.63 4.934-4.743 7.358-11.192 12.762-15.469 4.637-3.669 9.602-2.981 15.007-1.963 6.487 1.222 8.192-6.127 12.688-9.085 2.71-1.863 4.777-2.507 8.17-2.053 8.332 1.116 11.262 10.519 15.617 16.398 1.631 2.202 3.284 3.739 6.183 4.2.622.099.791-.031 1.191-.363l-.344-.462c4.605-3.174 4.776-9.716 10.142-13.102 2.652-1.674 5.622-2.221 8.617-1.569 11.277 2.457 9.67 24.467 13.215 33.119 2.715 6.626 8.009 7.147 13.608 10.672 2.158 1.359 3.533 2.768 5.339 4.538.895.877 2.019 1.196 2.605 2.13.368.588.421.632.948 1.087l.378-.029c.553-.716.553-2.375.639-3.361.035 1.88.065 3.611-.002 5.491-.117.988-.067 1.792-.71 2.455-.462-.1-.763-.212-1.066-.673-.52-1-2.46-1.263-3.109-1.987-5.1-5.691-11.374-7.963-17.612-11.804-6.034-4.223-6.107-12.363-7.218-18.856-1.023-5.978-2.761-18.293-11.085-17.529-6.947.638-8.762 16.08-14.952 16.394-9.064.46-12.414-15.659-18.951-19.995-6.096-4.038-9.672-.945-13.345 4.019-.56.171-.604.203-1.109.427-1.076.479-2.89.65-3.976 1.028-.564.196-.731.991-1.834 1.493l-.148.11c-.702.733-2.35.581-3.359.372-5.45-1.127-8.89-2.956-14.009.672-4.847 3.436-7.072 8.576-11.017 13.064-4.215 4.795-8.867 9.246-13.084 13.993-3.029 3.409-6.125 7.946-8.713 11.691-1.858 2.69-3.332 5.407-4.835 8.298-.48.923-1.316 1.929-1.846 2.883-.611 1.099-.903 2.777-1.73 3.617-.743-.397-.588-2.46-.595-3.3z" fill-opacity=".212"/><path d="M72.659 255.507c.195-.47.635-1.691.951-1.986.802.725.87 1.405 1.413 2.264 1.968 3.116 5.209 5.509 7.912 7.939 7.225 6.489 16.274 11.184 26.163 11.18 5.631-.002 11.446-3.066 17.02-1.652 5.511 1.398 8.868 6.373 14.089 8.643 6.761 2.941 12.027-.35 18.373-2.416 3.032-1.005 6.454-1.92 9.359-3.189 3.802-1.659 7.213-4.566 11.535-4.82 4.777-.352 9.163 1.811 13.771 2.83 7.808 1.727 15.498-1.252 19.358-8.432 3.308-6.155 5.428-13.33 12.415-16.407.371-.161 1.088-.95 1.662-1.264l.327.164.286 1.041-.057 4.568c-.074-.582-.24-2.57-.537-2.902-.212.234-.252.38-.341.666-.616 2-3.657 3.275-4.915 4.977-5.199 7.025-5.559 15.18-14.385 19.586-11.3 5.641-20.102-2.391-28.514-.673-3.508.716-6.697 2.864-9.958 4.282-2.943 1.28-6.128 2.109-9.174 3.111-6.229 2.052-12.564 5.152-19.234 2.927-5.875-1.961-9.716-7.643-15.727-8.966-3.451-.759-6.968.427-10.37.975-11.05 1.78-21.623-2.364-30.404-8.825-2.371-1.743-8.188-6.314-9.473-8.739-.545-1.027-1.242-1.991-1.564-3.12l-.825.639c.392-.739.6-1.589.843-2.4z" fill-opacity=".451"/></g><path d="M239.159 171.43c.343.391.298.631.332 1.157l.011.198.116-24.79c.457.381 1.714 1.474 1.92 1.95 1.027 2.369.768 1.935 2.832 3.145l.057.428-.28.21-1.15-.611c-.305.826-.352.604-.227 1.371 1.355.106 1.139.656 1.936.857-.202-1.06-.343-.883.07-1.657l.198.083c.559 2.405.075 4.337.62 6.763l.066.277c.168 7.563.011 15.554.011 23.164l-.002 59.053-.218-.057c-.136-.773-.009-2.67-.2-3.157-.145.555-.261 11.205-.252 12.345-1.041 1.077-4.032 4.257-5.377 4.327l-.045-.389c.22-.325.855-1.284.668-1.486-.864-.936-.63-2.241-.62-3.605l-.011-13.168c-.002-1.568.289-2.95.093-4.43-.239 1.011-.2 1.918-.552 3.323z" fill="url(#L)"/><path d="M60.455 260.341c-.024.889.124 2.168.165 3.13l-.278-.143.249-.007-.006-.286-.398.091c-1.29-1.866-5.081-5.009-5.282-6.02.643-.675 1.423-.107 1.608-.72.153-.507-.167-1.189.362-1.818.946-.405 1.402.277 1.977-.02-.314-.848-.986-1.2-1.813-1.416-.909-.236-.518-1.557-1.171-2.248-.303.193-.339.209-.675.334-.369-.684.08-7.284.049-8.939l-.098-70.669.107-15.609c.535-.088.57-.059 1.033-.373l.09-.671c-.365-.757-.672-.743-1.54-1.186l.141-.424c1.436-.229 3.908-1.783 5.06-1.639l.306.397-.073 22.967c.28-.496.046-2.32.574-2.959l-.04 45.312.05 13.264-.113 7.409c-.215-.795-.209-3.464-.426-4.725-.06.195.013 3.505.016 3.968l.092 11.693-.107 8.695c-.778.441-.476-.373-1.574-.232-.297 1.343.775 1.927 1.714 2.843z" fill="url(#M)"/><path d="M116.575 176.555c.053-2.667.533-6.415.798-9.157l.999-12.028 1.938-23.786c.2-2.616.807-15.216 1.637-17.039l.252.019c.565 1.448.963 6.835 1.209 8.779l1.884 13.662 4.873 34.368 1.382 9.466c.2 1.314.718 4.15.777 5.386l-.44-.39c-.948.24-1.819.007-2.713.372-2.064.842-2.401 4.082-4.418 4.57-5.569-.676-1.233-15.19-8.177-14.222z" fill="url(#N)"/><path d="M149.606 103.312c.995 5.292.797 13.315.882 18.9l.515 24.927.933 30.167c.045 1.927.13 3.887.058 5.812-.422-.615-.314-2.493-.324-3.321-3.794 1.198-3.257 17.303-10.252 9.731-.275-.298-1.357.001-2.001-.762l-.192-.937-.41 1.088c.106-2.503.996-7.564 1.377-10.319l2.443-18.63z" fill="url(#O)"/><path d="M187.672 115.795c.599 2.373 1.237 12.912 1.543 16.167l3.928 39.752c.123 1.105.994 8.095.9 8.721l-.299-.138c-.167.57-.089.459.077 1.129-1.081.094-.77.452-1.632.653l-.116-.426c.399-.37.579-.544.924-.963l-.132-.334c-2.086 1.795-2.855 5.65-4.934 7.748-4.927 4.972-5.478-8.489-8.37-8.399 1.154-5.538 1.908-12.246 2.605-17.925l3.114-27.342c.563-5.248 1.172-13.746 2.393-18.644z" fill="url(#P)"/><path d="M72.727 251.189c.08-.598.442-2.948.824-3.184.032.78 0 1.62.271 2.35-.16-.309-.14-.305-.167-.655l.442.593.012-.002c.363.309.281.793.338 1.395l.216.036c.403-.486-.148-2.17.397-2.959 1.488.639-.534 3.991 2.169 6.357l.301-.093-.225-1.132.305-.009c3.075 1.495 2.888 2.55 3.869 5.209l.27.111.125-.439c-.217-.761-.32-.943-.242-1.707 1.353.466.49 2.877 1.957 3.955.217-.891-1.086-1.864-.463-2.925.916 1.25 1.216 4.445 2.669 4.793.206-.639.106-1.225.063-1.905.386.568.313 1.443.34 2.182.188.3 2.406 1.873 2.986 2.355 6.011 4.991 15.531 7.686 23.202 6.648 3.199-.432 6.324-1.493 9.534-1.818 5.984-.605 9.753 2.3 14.118 5.825 2.479 2 4.936 3.723 8.175 4.189 1.377.198 2.72.223 4.093-.018 3.149-.555 6.096-1.839 9.11-2.859 3.546-1.202 7.337-2.184 10.679-3.884 3.446-1.752 7.192-4.511 11.102-4.855 7.158-.632 13.456 4.252 20.819 3.414 2.452-.28 3.7-.952 5.7-2.316.787-.536 1.722-.961 2.423-1.602 2.989-2.734 6.46-12.08 9.715-16.136 1.668-2.08 4.29-5.52 7.115-5.807.455-.045.905-.111 1.358-.173-.08-1.039-.4-1.757-.15-2.768l.195-.082c.569.73.676 1.607.896 2.53.048 1.2.057 2.398.028 3.598l-.286-1.041-.327-.164c-.574.314-1.292 1.102-1.662 1.264-6.987 3.077-9.107 10.252-12.415 16.407-3.86 7.18-11.551 10.159-19.358 8.432-4.608-1.018-8.994-3.182-13.771-2.83-4.322.255-7.733 3.161-11.535 4.82-2.905 1.268-6.327 2.184-9.359 3.189-6.345 2.066-11.611 5.357-18.373 2.416-5.221-2.27-8.578-7.245-14.089-8.643-5.575-1.414-11.39 1.65-17.02 1.652-9.89.005-18.939-4.691-26.163-11.18-2.703-2.43-5.944-4.823-7.912-7.939-.543-.859-.611-1.539-1.413-2.264-.316.295-.756 1.516-.951 1.986a78.85 78.85 0 0 1 .067-4.318z" fill-opacity=".682" fill="#f2e414"/><path d="M166.55 132.046c.447 2.233.793 5.595 1.119 7.967l2.05 14.337c1.05 7.203 2.773 16.074 3.505 23.036l-.415-1.028-.074-.018c-.02.478.004.518.098.969-.662.233-.735.292-1.416.246l.613-.757-.106-.361c-2.541 1.905-3.403 10.855-7.817 10.635-2.071-.104-3.83-6.613-5.852-7.807l-.281.338c1.205-8.33 3.249-17.65 4.701-26.164l2.138-12.792c.398-2.424.921-6.44 1.737-8.6z" fill="url(#Q)"/><path d="M199.286 212.812c1.03 1.018 10.312 3.77 12.3 4.161.443-.226.356-.118.663-.465l-.875 3.564c-.355 2.157-1.252 5.529-1.768 7.737l-3.31 14.395c-1.053 4.648-3.438 16.773-4.866 20.498l-2.118-48.037z" fill="#fe7600"/><path d="M199.286 212.812c1.03 1.018 10.312 3.77 12.3 4.161.443-.226.356-.118.663-.465l-.875 3.564c-2.92-1.051-6.495-1.704-8.843-3.847-.803-.733-1.787-.482-2.761-.36l-.457-1.199z" fill="#ff5400"/><path d="M106.809 215.37c2.286-.808 2.012-6.006 5.383-5.001 2.726.813 4.335 7.829 7.397 7.385a7.76 7.76 0 0 0 .49-.974c-.039.654-.169 1.306-.256 1.956-1.657 12.378-3.564 24.86-4.776 37.287-1.153-4.08-1.825-8.698-2.549-12.916l-3.01-17.039c-.495-2.715-1.208-8.705-2.677-10.698z" fill="url(#R)"/><path d="M187.652 216.523c-.289 1.528-.992 3.897-1.407 5.459l.121-.14c2.221-2.518 3.378-1.654 5.436.26 1.311.166 1.105-2.755 2.924-3.917l-2.187 5.14c-.614 3.244-.765 7.456-.967 10.778l-.972 18.143c-.213 4.261-.366 9.207-1.023 13.38-1.487-9.464-3.794-18.98-5.632-28.377-.585-2.993-2.177-8.798-2.426-11.412.177.189.38.511.533.734 1.554-.714 4.031-7.673 5.6-10.049z" fill="url(#S)"/><path d="M199.06 186.326l6.937-25.7c.529-1.988 1.66-7.515 2.472-8.932l.264.037c.287.845.301 1.678.327 2.561.219 7.554.9 15.096 1.366 22.637.224 3.63.33 5.7 1.834 9.028-.693-.011-1.106-.045-1.644.531-2.209 2.361-4.48 5.793-7.956 2.767-1.042-.907-1.648-2.408-2.951-2.986z" fill="url(#T)"/><path d="M72.948 156.516c.008.84-.148 2.903.595 3.3.827-.84 1.119-2.518 1.73-3.617.53-.954 1.366-1.96 1.846-2.883l4.835-8.298c2.587-3.745 5.684-8.282 8.713-11.691 4.217-4.746 8.869-9.198 13.084-13.993 3.945-4.487 6.169-9.627 11.017-13.064 5.119-3.629 8.56-1.8 14.009-.672 1.009.209 2.657.361 3.359-.372l.148-.11c.715.166.856.056 1.178.499-.561.164-.587.17-1.17.202.953.539 1.188-.112 1.683.655.04.8.111 1.131-.264 1.862-.595.276-2.117.023-2.899-.042l-.077-.255 1-.336c-2.721-.218-3.969.172-6.39.188-5.345-1.412-8.364-.878-12.304 3.474-3.028 3.344-5.284 7.427-8.35 10.759-7.149 7.713-14.542 14.596-20.12 23.658-2.949 4.79-5.554 9.952-9.042 14.358-.703.853-.915 2.569-1.839 3.256-.812-.522-.864-2.288-.985-3.221-.145-2.066-.079-6.149.023-8.215.205 1.717.213 2.849.219 4.562z" fill-opacity=".337" fill="#f2e414"/><g fill="#fe7600"><path d="M102.06 190.333c1.554-4.042 1.435-10.8 1.618-15.29l1.086-27.469c.124-2.908.267-10.213.69-12.789 1.275 1.294 3.225 46.535 5.072 53.619l.074.275c-.447-.664-.395-.805-1.058-1.139-1.387.216-1.929 1.447-3.183 2.006-1.281.571-3.268.143-4.297.786zm-10.838-41.49c.628 2.938.813 6.515 1.049 9.562l1.047 13.192c.189 2.211 1.26 11.647 1.164 13.328-.137-.248-.259-.477-.348-.747l-.128.172c-.416.549-.47.685-1.035 1.033l-.88-.396c-.941 1.4-1.427 4.277-2.091 5.83-2.38 1.18-.728 2.202-2.413 3.785l-.218-.141c.122-1.118.428-2.223.037-3.146-.383-.02-.213-.076-.532.086 1.66-14.073 2.882-28.451 4.35-42.558z"/></g><path d="M94.974 220.629c.451.152.9.316 1.383.347 2.043.132 5.135 3.748 6.869 2.308.154 2.528-.066 7.622-.08 10.365-.072 7.48.002 14.959.222 22.436-3.491-10.534-4.625-25.475-8.394-35.457z" fill="url(#U)"/><path d="M73.536 224.13c.983.229 3.391-.452 4.555-.417 1.572.048 4.029.762 5.491.709l.515-.829.013 2.219c-.979 7.048-1.477 16.062-1.932 23.253-2.71-5.957-5.285-20.995-8.642-24.935z" fill="url(#V)"/><path d="M91.417 224.288l-.015 16.594.097 14.445c-1.944-5.709-2.926-14.418-4.379-20.466-.275-1.145-1.67-7.864-1.683-8.539l.421.722c.82.412 1.638.296 2.583.28 1.78-1.07 2.319-1.16 2.976-3.037z" fill="#fe7600"/><path d="M132.285 105.115c1.103-.502 1.27-1.296 1.834-1.493 1.086-.378 2.9-.549 3.976-1.028.505-.225.549-.256 1.109-.427-1.117 4.069-2.237 11.851-8.146 10.052-2.261-.688-4.062-2.722-5.712-4.332 2.421-.015 3.668-.406 6.39-.188l-1 .336.077.255c.782.065 2.304.318 2.899.042.375-.73.304-1.061.264-1.862-.495-.767-.729-.116-1.683-.655.583-.032.609-.037 1.17-.202-.322-.443-.463-.332-1.178-.499z" fill-opacity=".549" fill="#f2e414"/><g fill="#fe7600"><path d="M220.439 162.74c.445 3.011.496 8.988.631 12.332.123 3.047.659 8.643.569 11.459-1.147-.845-3.093-2.664-4.476-2.326l-.466.843 1.947-12.055c.491-3.28.952-7.075 1.795-10.252zm-4.936 56.358c1.497.734 4.406.502 6.179.789l.418-1.308c.014 1.329-.35 3.547-.494 4.938-.393 3.779-.975 7.576-1.045 11.383-1.153-2.366-4.274-12.83-5.058-15.802z"/></g></g></svg><defs ><linearGradient id="X" gradientUnits="userSpaceOnUse"/></defs></svg>