<svg xmlns="http://www.w3.org/2000/svg" width="300" height="168.75" xmlns:v="https://vecta.io/nano"><style><![CDATA[.B{fill:#fd852d}.C{fill:#7316b1}.D{fill:#6f40ea}.E{fill:#f7f3fb}.F{fill:#fc5726}.G{fill:#4d25e4}.H{fill:#feab3e}.I{fill:#df7aa9}.J{fill:#8d7bef}.K{fill:#ffe485}.L{fill:#b64ac0}.M{fill:#fdbe8f}.N{fill:#fcbb40}.O{fill:#c07fd5}.P{fill:#fb835c}.Q{fill:#fd7a65}.R{fill:#50a3e4}.S{fill:#5c8fdf}.T{fill:#fef685}.U{fill:#e74642}.V{fill:#f9829c}.W{fill:#fe9c40}.X{fill:#9739b9}.Y{fill:#45ddab}.Z{fill:#fec361}.a{fill:#ab9ffd}.b{fill:#6565fd}.c{fill:#9247d9}.d{fill:#e2ddfc}.e{fill:#c9bdfc}.f{fill:#c9afe7}.g{fill:#2e1ba6}.h{fill:#ba338f}.i{fill:#66e8d5}]]></style><svg><defs><clipPath id="A"><path transform="scale(.14648)" fill="none" d="M0 0h2048v1152H0z"/></clipPath><linearGradient x1="158.077" y1="137.583" x2="141.986" y2="50.415" id="B" href="#f"><stop offset="0" stop-color="#c5cafe"/><stop offset="1" stop-color="#e4e6fc"/></linearGradient><linearGradient x1="150.57" y1="158.952" x2="151.844" y2="125.19" id="C" href="#f"><stop offset="0" stop-color="#cfcffe"/><stop offset="1" stop-color="#ede7fe"/></linearGradient><linearGradient x1="49.823" y1="130.435" x2="51.485" y2="141.386" id="D" href="#f"><stop offset="0" stop-color="#6ddbbc"/><stop offset="1" stop-color="#6f96e4"/></linearGradient><linearGradient x1="50.515" y1="140.845" x2="53.17" y2="159.92" id="E" href="#f"><stop offset="0" stop-color="#6e92e3"/><stop offset="1" stop-color="#5536ff"/></linearGradient><linearGradient x1="52.911" y1="140.893" x2="62.336" y2="142.613" id="F" href="#f"><stop offset="0" stop-color="#ffa074"/><stop offset="1" stop-color="#f17c88"/></linearGradient><linearGradient x1="42.079" y1="147.951" x2="43.977" y2="137.758" id="G" href="#f"><stop offset="0" stop-color="#f89c89"/><stop offset="1" stop-color="#f1b0ae"/></linearGradient><linearGradient x1="237.337" y1="144.008" x2="232.264" y2="152.175" id="H" href="#f"><stop offset="0" stop-color="#788efe"/><stop offset="1" stop-color="#acb2fe"/></linearGradient><linearGradient x1="173.949" y1="147.757" x2="169.786" y2="136.392" id="I" href="#f"><stop offset="0" stop-color="#ff8076"/><stop offset="1" stop-color="#e26ad9"/></linearGradient><linearGradient x1="173.845" y1="146.192" x2="173.622" y2="139.31" id="J" href="#f"><stop offset="0" stop-color="#fa6d9a"/><stop offset="1" stop-color="#ca7ee3"/></linearGradient><linearGradient x1="53.966" y1="49.128" x2="89.184" y2="17.447" id="K" href="#f"><stop offset="0" stop-color="#a4a2fe"/><stop offset="1" stop-color="#d4d2fe"/></linearGradient><linearGradient x1="222.076" y1="13.677" x2="203.297" y2="30.556" id="L" href="#f"><stop offset="0" stop-color="#ef536e"/><stop offset="1" stop-color="#a23cac"/></linearGradient><linearGradient x1="205.216" y1="24.201" x2="189.037" y2="28.834" id="M" href="#f"><stop offset="0" stop-color="#933aae"/><stop offset="1" stop-color="#442ceb"/></linearGradient><linearGradient x1="224.345" y1="25.254" x2="231.022" y2="27.011" id="N" href="#f"><stop offset="0" stop-color="#c94b8b"/><stop offset="1" stop-color="#b6449f"/></linearGradient><linearGradient x1="225.498" y1="45.624" x2="223.582" y2="42.826" id="O" href="#f"><stop offset="0" stop-color="#b6b3fd"/><stop offset="1" stop-color="#e7ecff"/></linearGradient><linearGradient x1="239.813" y1="96.222" x2="252.371" y2="136.388" id="P" href="#f"><stop offset="0" stop-color="#ff7963"/><stop offset="1" stop-color="#b833ba"/></linearGradient><linearGradient x1="158.511" y1="98.588" x2="134.581" y2="89.243" id="Q" href="#f"><stop offset="0" stop-color="#2a0fa5"/><stop offset="1" stop-color="#7040f1"/></linearGradient><linearGradient x1="160.349" y1="102.681" x2="133.904" y2="81.624" id="R" href="#f"><stop offset="0" stop-color="#e8e7fe"/><stop offset="1" stop-color="#fff"/></linearGradient><linearGradient x1="161.75" y1="74.64" x2="134.641" y2="58.957" id="S" href="#f"><stop offset="0" stop-color="#280076"/><stop offset="1" stop-color="#5022e3"/></linearGradient><linearGradient x1="161.728" y1="83.19" x2="139.167" y2="83.269" id="T" href="#f"><stop offset="0" stop-color="#33209d"/><stop offset="1" stop-color="#7655d9"/></linearGradient><linearGradient x1="146.517" y1="81.653" x2="135.465" y2="75.818" id="U" href="#f"><stop offset="0" stop-color="#7359c8"/><stop offset="1" stop-color="#a78ef8"/></linearGradient><linearGradient x1="238.178" y1="102.883" x2="231.741" y2="92.525" id="V" href="#f"><stop offset="0" stop-color="#889bfe"/><stop offset="1" stop-color="#a3bafe"/></linearGradient><linearGradient x1="77.187" y1="71.859" x2="78.024" y2="77.707" id="W" href="#f"><stop offset="0" stop-color="#6a88fb"/><stop offset="1" stop-color="#a6b8fd"/></linearGradient><linearGradient x1="202.611" y1="89.505" x2="170.848" y2="84.229" id="X" href="#f"><stop offset="0" stop-color="#44eca1"/><stop offset="1" stop-color="#4bcbff"/></linearGradient><linearGradient x1="103.96" y1="74.018" x2="112.921" y2="101.943" id="Y" href="#f"><stop offset="0" stop-color="#76a1f9"/><stop offset="1" stop-color="#9956fd"/></linearGradient><linearGradient x1="258.028" y1="43.641" x2="251.049" y2="38.471" id="Z" href="#f"><stop offset="0" stop-color="#d4ccfe"/><stop offset="1" stop-color="#fff"/></linearGradient><linearGradient x1="263.367" y1="48.23" x2="264.954" y2="38.149" id="a" href="#f"><stop offset="0" stop-color="#d8defd"/><stop offset="1" stop-color="#fff"/></linearGradient><linearGradient x1="245.666" y1="132.328" x2="259.472" y2="156.016" id="b" href="#f"><stop offset="0" stop-color="#ba40c1"/><stop offset="1" stop-color="#8339e4"/></linearGradient><linearGradient x1="238.179" y1="3.49" x2="251.089" y2="29.076" id="c" href="#f"><stop offset="0" stop-color="#e3e8fc"/><stop offset="1" stop-color="#fff"/></linearGradient><linearGradient x1="240.703" y1="11.197" x2="238.644" y2="6.216" id="d" href="#f"><stop offset="0" stop-color="#d8b5f9"/><stop offset="1" stop-color="#ab95fd"/></linearGradient></defs><g clip-path="url(#A)"><path d="M26.37 22.737c-.033-4.153-1.044-9.491 4.767-9.693.963-.034 1.919-.041 2.883-.047l44.846-.123 15.338-.131c1.933-.001 8.451-.417 9.793 1.057 1.428 1.57.902 6.706 1.065 8.993l.013 8.187c0 .504.024 3.104-.04 3.5l.08 1.677c1.243.115 2.807.068 3.818.178 5.316-.243 12.071-.016 17.511-.031l41.031-.013c7.494.005 15.983.19 23.376-.112.089-1.185-.202-2.467-.229-3.672-.085-3.892-.57-8.376.341-12.161.151-.628.763-1.805 1.062-2.397-.028-.241-.119-.903-.094-1.112.303-2.423 3.898-2.347 5.603-2.317 1.298-.029 2.7-.088 3.987-.013 4.668-.113 9.527-.032 14.212-.046 1.881-.006 6.144-.12 7.806.032-.419.774-.921 1.767-1.364 2.506l.609.317 1.767.684.154.17 1.244.944c.116.666-.088 1.109-.338 1.741l.144.012c2.099.155 5.728-4.587 5.708 2.3l-.007 3.254.174.478.35.1c3.712.193 5.169 4.879 5.943 7.919.984 3.867 3.505 12.623 1.134 15.993l1.519.08c5.2-.112 8.049.425 7.74 6.678-.183 3.711.901 10.799-1.422 13.975-1.405 1.921-4.373 1.273-6.105 1.698l-.006 4.987.037 13.795c0 3.087.078 6.622-.042 9.684 8.503.23 17.41.143 25.941.135l7.191-.019c2.669-.006 7.172-.444 7.235 3.239l.059 15.335-.003 10.601.021 3.037c-.001 1.071.048 2.644-.01 3.673l.026 1.881c-1.317.235-.627.613-1.55.946-.391-.36-.305-.254-.929-.328l-.183-.349c.144-.548.152-.419.674-.848l-.207-.145.201.111-.047.055c-.473-.319-.473-.238-1.107-.188l.107.304-.354.216c-.378-.089-.444-.127-.794-.302-.319 1.343-.666 1.687-1.885 2.319-4.074.061-8.149.029-12.221-.097-3.168.003-6.888.146-9.998.005-7.077-.19-14.654.147-21.819.074.293.333.289.405.318.852-.753 1.586-4.217 1.473-5.789 1.688-.445.348-1.556 1.048-1.701 1.431l.702.161c5.187.039 10.997.176 16.167.005-.009 2.591.054 5.531-.148 8.103-.292 3.727-4.961 3.157-7.866 3.144l-8.039-.032-120.504.009c-1.927.091-4.159-.04-6.134.006-6.888.16-14.43-.258-21.24.091-1.342.554-13.41 1.039-15.293 1.083l-22.112.192c-3.325.006-6.929.11-10.222-.075-4.269-.239-3.821-5.254-3.756-8.291l.071-6.19c-.007-.564.019-1.19.031-1.759-.25-3.417-.571-8.31 3.985-8.491 2.946-.117 5.823-.111 8.771-.11l16.839-.061c1.164.014 6.139.134 7.036-.174-.317-8.996-.017-18.597-.139-27.742-.137-1.032-.152-1.533-.04-2.567.118-1.582.063-3.947.081-5.623l.037-11.81-.04-6.778c.007-1.15.106-3.494-.053-4.549-.415-.2-1.03-.164-1.515-.179-10.248.201-20.827-.381-31.107-.196-1.559.028-2.977-.393-3.065-2.171-.093-1.882-.053-3.771-.043-5.668l.016-9.591z" fill="url(#B)"/><path d="M134.16 78.488l1.255.034c-.859.509-.52.084-1.361.273l-.03.138c2.008.67 5.688.009 6.921.427-.67.082-1.043.124-1.713.11-.03 1.333.325 6.37.57 7.724.438.222.812.1 1.316.234-.977.012-6.173-.037-6.538.173-.47.049-.671-.151-.973-.438-.276-.591-.2-1.11-.176-1.765.082-1.332.028-3.191.029-4.562-1.083.021-1.997.058-3.077-.055.74-.079 2.282-.053 3.086-.06-.092-1.09-.379-1.732.691-2.232z" class="J"/><path d="M62.475 127.66l81.884-.447 52.091.19 12.161.085 6.853.173c-.196 2.85-.034 6.046-.05 8.935-.032 5.584-1.15 9.08 5.818 9.362.328.013.658.007.984-.02l-.132-.327 2.568-.014c5.187.039 10.997.176 16.167.005-.009 2.591.054 5.531-.148 8.103-.292 3.727-4.961 3.157-7.866 3.144l-8.039-.032-120.504.009c-1.927.091-4.159-.04-6.134.006-6.888.16-14.43-.258-21.24.091-1.342.554-13.41 1.039-15.293 1.083l-22.112.192c-3.325.006-6.929.11-10.222-.075-4.269-.239-3.821-5.254-3.756-8.291l.071-6.19c-.007-.564.019-1.19.031-1.759-.25-3.417-.571-8.31 3.985-8.491 2.946-.117 5.823-.111 8.771-.11l16.839-.061c1.164.014 6.139.134 7.036-.174l.222-.004.014-5.381z" fill="url(#C)"/><path d="M62.239 133.044l.222-.004c2.353.13 4.837-.055 7.198.015 2.373.071 4.598-.4 6.512 1.291.572.821.819 1.301.929 2.306l-.068.873-.004.75.048 11.817-.186 6.826c-1.342.554-13.41 1.039-15.293 1.083l-22.112.192c-3.325.006-6.929.11-10.222-.075-4.269-.239-3.821-5.254-3.756-8.291l.071-6.19c-.007-.564.019-1.19.031-1.759-.25-3.417-.571-8.31 3.985-8.491 2.946-.117 5.823-.111 8.771-.11l16.839-.061c1.164.014 6.139.134 7.036-.174z" fill="url(#D)"/><path d="M77.031 137.527l-.004.75.048 11.817-.186 6.826c-1.342.554-13.41 1.039-15.293 1.083l-22.112.192c-3.325.006-6.929.11-10.222-.075-4.269-.239-3.821-5.254-3.756-8.291l.071-6.19c-.007-.564.019-1.19.031-1.759a6.98 6.98 0 0 1 .275 1.857c2.032.072 4.186-.114 6.242-.103.626.003 1.257-.181 1.921-.14.047.336.098.832.201 1.14.024.89.134 6.819-.009 7.38.042.413.077.973.186 1.361 1.358.817 20.03.022 22.811.303.446.045 2.896-.016 3.477-.031 1.424-.362 3.302.129 4.894-.529.306-.366.205-.93.36-1.564l.027-.105.045-.127c-.14-.11-.335-.305-.471-.431-.287-.589-.212-1.282-.199-1.942l.03-1.011.074-.042-.061-1.021-.112-.511c1.414-.193 3.273.237 4.367.013.563-.618.457-5.913.115-6.898-.156-.448-.565-.514-.941-.653.658-.068 1.025-.161 1.658-.327 2.118-.557 4.364-.803 6.535-.969z" fill="url(#E)"/><path d="M65.297 146.361c1.414-.193 3.273.237 4.367.013.454.116.431.027.631.318l-.14.354c-.095.538-.133.668-.027 1.228.252.401.193 1.377.201 1.909l-.1 1.2c-.119.715-.143 1.343-.18 2.061l-9.339.202c1.424-.362 3.302.129 4.894-.529.306-.366.205-.93.36-1.564l.027-.105.045-.127c-.14-.11-.335-.305-.471-.431-.287-.589-.212-1.282-.199-1.942l.03-1.011.074-.042-.061-1.021z" fill="#dc5086"/><path d="M65.297 146.361c1.414-.193 3.273.237 4.367.013.454.116.431.027.631.318l-.14.354c-.095.538-.133.668-.027 1.228l-.741.127-2.014-.417c-.785-.104-1.113-.117-1.904-.091l-.061-1.021z" class="E"/><path d="M67.42 146.884l2.736.163c-.095.538-.133.668-.027 1.228l-.741.127-2.014-.417z" class="L"/><path d="M65.409 146.873l2.011.012-.046 1.1c-.785-.104-1.113-.117-1.904-.091z" class="O"/><path d="M65.47 147.894c.792-.026 1.12-.013 1.904.091l.008.87c.032 1.493.33 2.159-1.346 2.465-.14-.11-.335-.305-.471-.431-.287-.589-.212-1.282-.199-1.942l.03-1.011z" fill="#f9d3e6"/><path d="M70.129 148.274c.252.401.193 1.377.201 1.909l-.1 1.2a4.31 4.31 0 0 1-.855-.593l.014-2.388z" class="E"/><path d="M67.374 147.984l2.014.417-.014 2.388c-.092-.612-.075-1.364-.441-1.764-.481-.237-.997-.173-1.551-.171z" class="O"/><g class="S"><path d="M77.031 137.527l-.004.75c-.134-.028-5.94.953-6.306 1.188-.584 1.548-.028 8.511-.391 10.719-.007-.532.052-1.507-.201-1.909-.106-.56-.068-.69.027-1.228l.14-.354c-.201-.291-.177-.202-.631-.318.563-.618.457-5.913.115-6.898-.156-.448-.565-.514-.941-.653.658-.068 1.025-.161 1.658-.327 2.118-.557 4.364-.803 6.535-.969zm-51.424 4.353a6.98 6.98 0 0 1 .275 1.857c2.032.072 4.186-.114 6.242-.103.626.003 1.257-.181 1.921-.14.047.336.098.832.201 1.14l-.009 7.38c-.379-.472.03-6.625-.32-7.345-.382-.787-6.627.34-7.859-.208-.246-.109-.368-.555-.481-.821l.031-1.759z"/></g><path d="M42.92 145.004l1.803-.007 1.879.323c.701.276 1.199.367 1.927.52l.157-.598 1.692.539.021.685c.606.221 1.219.463 1.85.592l.068-.695 1.732.234.094-.724.092-.088c.677-.088 1.154-.231 1.813-.415l.067.642-.087.512.076.4c.786.335 1.319.188 1.755.598l.013-.86 1.928.056.089 1.28.016.277c.404.779.509.602 1.331.365.393.24.265.114.433.659l.015-.949c.769-.299 1.036-.379 1.848-.432l.032 1.033 1.803-.003c-.013.661-.088 1.354.199 1.942l.471.431-.045.127-.027.105c-.155.634-.054 1.198-.36 1.564-1.592.658-3.471.167-4.894.529l-3.477.031c-2.781-.281-21.452.514-22.811-.303l.065-.658c.296-1.354-.363-2.25.773-3.164l.065-.338 1.882-.281.022-.173c.586-.437.728-.262 1.47-1.018.895-.942 1.954-.894 2.46-1.765l1.663-.827z" class="B"/><path d="M42.92 145.004l1.803-.007 1.879.323-.038 2.656-1.717.456c-.012 1.084.186 2.511-1.119 2.862-1.195-.466-.959-2.027-.922-3.054.064-.763.057-1.987.076-2.785l-.063-.306z" class="K"/><path d="M44.723 144.998l1.879.323-.038 2.656-1.717.456-.058-.289c.076-1.046-.01-2.098-.067-3.146z" class="P"/><path d="M42.92 145.004l1.803-.007.067 3.146c-.142-.658-.152-1.782-.18-2.487-.512-.033-1.202-.138-1.726-.202l-.063-.306z" class="M"/><path d="M42.821 145.149l.063.306-.076 2.785c-.763.032-1.038.004-1.8-.103.027 1.006.172 2.212-.462 3.021-.601.292-1.051.122-1.493-.419l-.355-2.999c.895-.942 1.954-.894 2.46-1.765z" class="P"/><g class="K"><path d="M39.083 147.656c.921-.101 1.553-.42 1.925.482.027 1.006.172 2.212-.462 3.021-.601.292-1.051.122-1.493-.419zm7.519-2.335c.701.276 1.199.367 1.927.52l.082.111-.034 3.316c.023 1.058-.006 1.988-1.289 2.089-.961-.731-.754-2.272-.724-3.379l.038-2.656zm7.541.552l.092-.088c.677-.088 1.154-.231 1.813-.415l.067.642-.087.512.076.4c.016 1.147.261 3.396-.466 4.2-.778.248-1.276.038-1.474-.768-.101-.76-.087-2.462-.1-3.296l-.016-.463z"/></g><path d="M54.143 145.873l.092-.088c.677-.088 1.154-.231 1.813-.415l.067.642-.087.512c-.614-.055-1.29.185-1.894.354l.031 3.478c-.101-.76-.087-2.462-.1-3.296l-.016-.463z" class="T"/><path d="M57.872 146.662l1.928.056.089 1.28.016.277-.098 2.358c-.402.587-.91.794-1.565.454-.593-.79-.404-2.553-.383-3.565z" fill="#fdd1c1"/><path d="M50.399 146.467c.606.221 1.219.463 1.85.592l.048.173c.023 1.097.42 3.853-.949 4.053-1.153-.391-.993-1.039-1.017-2.108l.019-2.575z" class="K"/><path d="M61.684 148.349c.769-.299 1.036-.379 1.848-.432l.032 1.033c.026.927.186 2.032-.993 2.31-1.062-.306-.944-1.018-.902-1.961z" fill="#fdd1c1"/><path d="M59.905 148.274c.404.779.509.602 1.331.365.393.24.265.114.433.659-.042.943-.16 1.655.902 1.961 1.178-.278 1.019-1.383.993-2.31l1.803-.003c-.013.661-.088 1.354.199 1.942l.471.431-.045.127c-.18-.113-.299-.083-.516-.081l-.09.003c-.281-.498-.175-1.447-.431-2.224-2.052-.286-.571 1.167-1.708 2.254-1.591.495-1.567-1.02-2.644-1.417-.616.237-.4.075-.795.649z" class="U"/><g class="K"><path d="M35.325 149.213l1.882-.281c.038 1.025.217 1.998-1.048 2.332-.967-.306-.918-.806-.899-1.712zm13.362-3.97l1.692.539.021.685-.049.135c-.338-.081-1.362-.504-1.738-.65l-.082-.111z"/></g><path d="M52.317 146.364l1.732.234.016.463c-.69.375-.946.368-1.767.171l-.048-.173z" class="N"/><path d="M68.838 138.823c.376.14.786.205.941.653.342.986.448 6.28-.115 6.898-1.093.224-2.953-.206-4.367-.013l.112.511.061 1.021-.074.042-.03 1.011-1.803.003-.032-1.033c-.812.053-1.079.133-1.848.432l-.015.949c-.168-.545-.04-.419-.433-.659-.822.237-.928.415-1.331-.365l-.016-.277c-.05-.394-.065-.876-.089-1.28-.729-.072-1.192-.07-1.928-.056l-.013.86c-.436-.41-.968-.262-1.755-.598l-.076-.4.087-.512-.067-.642c-.659.183-1.136.327-1.813.415l-.092.088-.094.724-1.732-.234-.041-.158.059-3.486-.073-1.497c.029-.702.235-1.023.544-1.661l.053-.235c.521-.347 7.464-.283 8.697-.342l2.352-.018c1.235-.182 3.623.127 4.929-.144z" fill="url(#F)"/><path d="M68.838 138.823c.376.14.786.205.941.653.342.986.448 6.28-.115 6.898-1.093.224-2.953-.206-4.367-.013l-.139-.047c-.47-.241-.652-.063-1.295.093-.154-.304-.187-.546-.26-.878-.554-.378-1.201-.025-1.417-.187-.553-.412-.848-5.547-.717-5.868.988-.792 1.663.036 2.571-.251l-.131-.257c1.235-.182 3.623.127 4.929-.144z" class="I"/><path d="M61.393 146.063c.564-.35.649-.395 1.294-.541.526.168.34.049.714.449l.203.909c.349-.196 1.143-.431 1.555-.566l.139.047.112.511.061 1.021-.074.042-.03 1.011-1.803.003-.032-1.033c-.812.053-1.079.133-1.848.432l-.057-.105c-.124-.268-.17-1.676-.235-2.18z" class="P"/><path d="M63.577 147.844c.702.107 1.104.098 1.819.092l-.03 1.011-1.803.003-.032-1.033z" class="V"/><path d="M61.628 148.244c.027-.705-.089-.669.268-1.131.468-.167.898-.047 1.405.025l.231.393.045.313-.045.073c-.812.053-1.079.133-1.848.432z" class="K"/><path d="M63.532 147.53a10.71 10.71 0 0 1 1.877-.658l.061 1.021-.074.042c-.715.006-1.118.015-1.819-.092z" class="I"/><path d="M54.058 142.719l.085 3.155-.094.724-1.732-.234-.041-.158.059-3.486z" class="P"/><path d="M54.116 142.306l1.845-.041.146 2.935-.059.17c-.659.183-1.136.327-1.813.415l-.092.088c-.116-.386-.086-2.62-.085-3.155z" class="M"/><path d="M59.889 147.998c.101-.794-.105-2.146.167-2.524.614.008.835.273 1.337.59l.235 2.18.057.105-.015.949c-.168-.545-.04-.419-.433-.659-.822.237-.928.415-1.331-.365z" class="Q"/><path d="M52.263 141.223c.029-.702.235-1.023.544-1.661.575.926 1.162 1.674 1.309 2.744l-.057.413h-1.723z" class="V"/><path d="M56.115 146.012c.724-.32.965-.426 1.732-.586l.025 1.235-.013.86c-.436-.41-.968-.262-1.755-.598l-.076-.4z" class="Q"/><path d="M57.871 145.35c.749-.017 1.167-.039 1.9.079l.028 1.288c-.729-.072-1.192-.07-1.928-.056l-.025-1.235z" class="M"/><path d="M57.868 144.465c.543-.051 1.341-.205 1.77.08.197.344.152.468.133.885-.733-.118-1.151-.096-1.9-.079z" class="N"/><path d="M56.106 145.2l1.761-.736.004.886-.025.076c-.767.159-1.008.266-1.732.586l-.067-.642z" class="H"/><path d="M34.245 144.633c.041-1.182-.13-4.65.272-5.521 1.124-.298 8.782-.283 10.661-.235 5.136.133 11.326-.188 16.379.108-1.234.059-8.176-.005-8.697.342l-.053.235c-.309.638-.515.959-.544 1.661l.073 1.497-.059 3.486.041.158-.068.695c-.63-.129-1.244-.371-1.85-.592l-.021-.685-1.692-.539-.157.598c-.728-.153-1.226-.244-1.927-.52-.359-.138-1.441-.261-1.879-.323l-1.803.007-.099.145-1.663.827c-.506.871-1.565.823-2.46 1.765-.743.756-.884.582-1.47 1.018l-.022.173-1.882.281-.065.338c-1.136.914-.477 1.811-.773 3.164l-.065.658c-.109-.388-.144-.948-.186-1.361.143-.561.033-6.49.009-7.38z" fill="url(#G)"/><path d="M50.378 145.782c-.006-1.259-.386-4.452.854-4.922a1.63 1.63 0 0 1 1.03.363l.073 1.497-.059 3.486.041.158-.068.695c-.63-.129-1.244-.371-1.85-.592z" class="M"/><path d="M50.378 145.782l1.898.423.041.158-.068.695c-.63-.129-1.244-.371-1.85-.592z" class="T"/><path d="M35.315 145.281c.369-.5.851-.492 1.451-.328.766.687.507 1.596.473 2.6l-.068.132.058 1.075-.022.173-1.882.281-.038-.935c-.046-.785.015-2.168.028-2.998z" class="Z"/><path d="M35.287 148.279c.83-.139 1.098-.264 1.884-.595l.058 1.075-.022.173-1.882.281z" class="T"/><path d="M46.424 144.681c.447-1.56-.628-2.745 1.424-2.652 1.182.708.427 2.038.838 3.214l-.157.598c-.728-.153-1.226-.244-1.927-.52l.088-.535z" class="M"/><path d="M46.69 144.786l1.996.457-.157.598c-.728-.153-1.226-.244-1.927-.52z" class="T"/><path d="M39.188 146.311c.496-.336 1.405-.628 1.97-.335-.506.871-1.565.823-2.46 1.765-.743.756-.884.582-1.47 1.018l-.058-1.075.068-.132c.859-.708 1.513-.612 1.949-1.241z" class="N"/><path d="M38.975 145.673c.274-.918-.111-1.695.79-2.401 1.091.058 1.233.998 1.285 1.838-.705.233-1.335.468-2.075.563z" class="M"/><path d="M34.487 152.716l.166-6.597c.051-.538.228-.538.662-.838l-.028 2.998.038.935-.065.338c-1.136.914-.477 1.811-.773 3.164z" class="P"/><path d="M42.79 144.308c.945-.6 2.563.225 3.634.373l.266.105-.088.535c-.359-.138-1.441-.261-1.879-.323l-1.803.007z" class="T"/><path d="M42.79 144.308l.13.696-.099.145-1.663.827c-.565-.293-1.474-.002-1.97.335l-.213-.637c.74-.095 1.37-.33 2.075-.563l1.74-.803z" class="Z"/><path d="M62.239 133.044l.222-.004c2.353.13 4.837-.055 7.198.015 2.373.071 4.598-.4 6.512 1.291-3.499-.667-8.141-.3-11.79-.507-2.983-.169-6.222.536-9.178-.622 1.164.014 6.139.134 7.036-.174z" class="J"/><path d="M224.653 145.595c5.187.039 10.997.176 16.167.005-.009 2.591.054 5.531-.148 8.103-.292 3.727-4.961 3.157-7.866 3.144l-8.039-.032c1.458-.439 7.868-.249 9.586-.261.867-.042 2.098.208 2.915.016.794-.185 3.199-1 2.861-2.092-.36-.245-1.737-.127-2.524-.297-1.373-.294-2.184-.646-3.435-1.113-4.238-1.585-5.099-3.728-7.381-7.137-1.479.032-3.101.054-4.572.006l-.132-.327z" fill="url(#H)"/><path d="M77.099 136.653c.382 2.487.037 6.375.103 9.006l.217 3.39c5.224 3.188 3.986 2.399 6.919 7.471 1.603-.004 19.85.252 19.925.303-1.927.091-4.159-.04-6.134.006-6.888.16-14.43-.258-21.24.091.267-1.239.192-5.411.186-6.826l-.048-11.817.004-.75z" class="a"/><path d="M144.813 133.23a7.63 7.63 0 0 1 1.163-.122c4.441-.128 8.911.037 13.33.081l19.137.054 15.737.051h6.749c7.957-.282 5.755 6.35 6.152 11.679.205 2.732-1.08 5.67-4.198 5.912-3.439.268-6.927.152-10.359.154l-21.246.004-39.333.007-12.484-.003c-2.618 0-7.316.539-9.246-1.288-2.511-2.32-1.293-6.123-1.576-9.028-.275-2.816.203-6.924 3.752-7.297 3.245-.341 7.128-.167 10.468-.173z" class="E"/><path d="M153.387 138.235a4.27 4.27 0 0 1 5.133 5.39c-.451 1.475-1.661 2.592-3.167 2.924a4.27 4.27 0 0 1-5.074-3.19 4.27 4.27 0 0 1 3.108-5.124z" class="F"/><path d="M154.727 139.748c-2.905.29-2.615 2.229-3.587 3.216-.212-.364-.202-1.264-.095-1.666.476-1.79 2.55-2.671 4.239-2.298z" class="P"/><path d="M155.284 139.001c.571.16.885.211 1.349.583l-.009.197c-.469.235-1.31.026-1.897-.033z" class="Q"/><path d="M171.48 135.397c.252.021.976.156.964.466-.1 2.609.586 10.985-.12 13.083-.52-.108-.615-.113-.88-.458-.183-1.591-.268-11.89.037-13.09z" fill="url(#I)"/><path d="M133.81 135.235c.646.155.457.03.881.422.11.656.156 3.513.103 4.114-.136 1.537.295 8.317-.346 9.222-.557-.201-.399-.064-.702-.478-.23-2.233-.298-11.334.064-13.281z" class="B"/><path d="M191.251 136.283c.246.049.431.132.662.223.546.781.19 8.852.243 10.193.009.226-.171.623-.299.825-.27-.045-.804-.255-.809-.543-.023-1.661-.393-9.674.202-10.698z" class="S"/><path d="M169.564 137.284l.579.102c.229.199.347.263.328.611-.082 1.55.375 8.713-.306 9.58-.25-.104-.346-.182-.564-.331-.412-.864-.272-8.738-.037-9.962z" class="I"/><path d="M122.049 144.073c0-1.554-.189-4.972.387-6.242l.236-.127c.818.75.519 5.115.501 6.317.038.769.311 2.323-.664 2.492-.716-.535-.497-1.623-.46-2.44z" class="O"/><path d="M122.049 144.073c.062-.588.054-1.221.423-1.655l.236-.052c.426.441.399 1.026.465 1.656.038.769.311 2.323-.664 2.492-.716-.535-.497-1.623-.46-2.44z" class="L"/><path d="M173.194 138.403c.532-.284.331-.262.842-.227.319.424.294.503.308 1.113-.004 1.426.313 6.661-.548 7.46l-.261-.157c-.606-.755-.352-6.801-.341-8.189z" fill="url(#J)"/><path d="M173.194 138.403c.532-.284.331-.262.842-.227.319.424.294.503.308 1.113-.258.058-.458.063-.721.084-.374-.307-.293-.409-.429-.97z" class="O"/><path d="M195.035 138.038c.221.018.873.087.91.311.256 1.587.439 6.233.073 7.701-.432.015-.573.063-.92-.151-.357-.704-.227-6.894-.063-7.86z" class="R"/><path d="M124.14 138.351c.204.033.643.172.682.38.289 1.565.467 6.409.068 7.704-.498-.027-.687-.002-.955-.417-.105-1.008-.179-6.968.205-7.668z" class="L"/><g class="S"><path d="M113.319 138.19c.131.023.479.082.536.156.748.956.523 7.038.071 7.714l-.455-.163c-.212-.257-.331-.832-.29-1.136.162-1.213-.388-5.674.138-6.571zm79.807 1.774c.237.025.438.07.671.115.955.854.488 4.51-.053 5.6l-.464-.035c-.873-.639-.562-4.784-.154-5.68z"/></g><path d="M115.183 139.23c.141.012.401.034.499.116.836.697.59 4.855.184 5.558-.443-.025-.747-.153-.824-.619-.159-.976-.296-4.26.141-5.055z" class="D"/><path d="M200.187 139.655c.296.081.374.158.617.332.375.83.406 4.704-.155 5.384-.415-.148-.696-.256-.759-.739-.146-1.097-.243-4.101.297-4.977z" class="b"/><path d="M167.811 139.665c.385.035.422.025.759.197.555.749.271 4.209.227 5.37a1.93 1.93 0 0 1-.806-.141c-.592-.841-.292-4.284-.18-5.426z" class="I"/><path d="M182.725 141.205c.284-.194.831-.24 1.194-.299.045 1.445.236 3.202-.338 4.498l-.23.177c-.809-.717-.628-3.338-.625-4.376z" class="R"/><path d="M132.052 140.089c.404.017.439.002.768.212.495.959.276 3.7.213 4.876-.606-.003-.431.077-.846-.2-.479-.952-.229-3.74-.136-4.888z" class="B"/><path d="M135.534 140.231c.41.034.545.003.85.246.526.919.282 3.469.142 4.555-.636-.043-.557.067-.91-.292-.354-1.183-.21-3.25-.082-4.508z" class="W"/><path d="M120.259 142.135c-.019-.807-.081-1.341.224-2.102l.363-.211c.771.915.576 2.817.541 3.963-.005.485-.002.555-.269.955l-.311.047-.296-.28c-.371-.777-.277-1.514-.252-2.372z" class="L"/><path d="M120.259 142.135c-.019-.807-.081-1.341.224-2.102l.363-.211c.771.915.576 2.817.541 3.963-.134-.486-.067-.948-.198-1.548-.364-.279-.356-.174-.929-.102z" class="O"/><path d="M127.971 140.116c.323.058.387.102.686.247.571.807.586 3.746-.018 4.546-.302-.111-.646-.231-.729-.537-.257-.944-.237-3.414.062-4.257z" class="Q"/><path d="M162.945 140.258c.376.019.74.078.857.49.267.939.29 3.214-.086 4.052-1.49-.068-.933-1.839-1.021-2.915a4.13 4.13 0 0 1 .25-1.627z" class="I"/><path d="M143.152 140.551c1.499.242 1.245 3.292.816 4.228-.162-.005-.388-.013-.529-.081-.914-.442-.625-3.469-.287-4.147z" class="B"/><path d="M118.718 140.388c.301.051.659.094.766.41.359 1.064.329 3.182-.066 4.194-.387-.08-.411-.075-.706-.322-.452-.85-.226-3.346.007-4.282z" class="c"/><path d="M139.5 140.556c.332.046.377.068.69.195.534.621.622 3.213.241 3.899-.481-.118-.846-.274-1.01-.753-.28-.819-.238-2.575.079-3.341z" class="B"/><path d="M201.813 140.401c.242.041.409.121.633.211.533.668.415 3.144.072 3.906-.374-.022-.36-.012-.697-.165-.483-.726-.374-3.18-.007-3.953z" class="b"/><path d="M189.611 140.399c.227.05.363.105.58.181.476.658.451 3.461-.086 4.076l-.073-.038c-1.097-.252-.894-3.433-.42-4.22z" class="R"/><path d="M145.604 140.584c1.171.463.923 3.294.376 4.032l-.564-.286c-.616-.796-.436-2.956.188-3.746z" class="H"/><path d="M116.809 140.108c.286.049.65.05.793.24.509.674.223 2.782.173 3.643-.377.018-.806.053-.948-.359-.331-.962-.163-2.54-.018-3.524z" class="c"/><path d="M184.789 140.396c1.434.325 1.121 2.849.719 3.843-.324-.022-.375-.054-.684-.171-.482-.7-.438-2.954-.035-3.671z" class="R"/><path d="M175.107 140.366c.338.028.391.058.713.179.526.735.429 2.89.053 3.68-.338-.009-.335-.019-.661-.135-.51-.759-.204-2.787-.105-3.725z" class="L"/><path d="M111.369 143.2c.072-.381.079-.506.244-.851l.79-.185.014 1.646c.028.598.121 1.409-.072 1.948-.388.309-.499.306-.939-.005-.094-.644-.044-1.862-.036-2.553z" class="D"/><path d="M111.369 143.2c.072-.381.079-.506.244-.851l.79-.185.014 1.646-.712.108c-.341.516-.248 1.112-.299 1.835-.094-.644-.044-1.862-.036-2.553z" class="J"/><path d="M166.179 141.106c.24.045.658.073.768.227.451.632.176 2.544.117 3.345-.149-.019-.621-.084-.7-.17-.542-.587-.242-2.563-.185-3.402z" class="I"/><path d="M177.025 141.265c.252.035.466.101.709.167.7.637.47 1.978.107 2.739-1.55-.189-1.091-1.776-.816-2.906z" class="c"/><path d="M179.098 142.192l1.222-.165c.025.791.289 2.512-.79 2.588-.691-.59-.473-1.579-.432-2.423z" class="J"/><path d="M137.467 141.135c.407.133.686.134.867.535.29.64.132 1.79-.127 2.414l-.575-.119c-.666-.571-.491-2.124-.165-2.83z" class="B"/><path d="M164.58 141.255c.316.016.401.046.71.131.533.631.353 2.009.318 2.85-1.632-.097-1.131-1.721-1.028-2.981z" class="I"/><path d="M130.128 141.547c.408.014.522-.021.83.211.453.752.232 1.692.133 2.569-.557.004-.642-.04-.976-.415-.249-.671-.066-1.627.013-2.365z" class="B"/><path d="M196.923 140.845c1.313.342.948 2.055.636 3.108l-.543-.111c-.545-.497-.403-2.379-.092-2.998z" class="S"/><path d="M141.315 141.286c1.274.42 1.15 1.707.76 2.799l-.647-.083c-.656-.602-.456-1.992-.113-2.716z" class="B"/><path d="M179.098 142.192c-.038-.802-.271-2.093.729-2.315.719.506.521 1.345.492 2.151z" fill="#51c7f2"/><path d="M125.769 141.413l.569.13c.672.62.448 2.105.243 2.908-.38-.008-.397-.003-.698-.215-.431-.748-.2-1.947-.113-2.823z" class="L"/><path d="M111.369 143.2c-.013-1.244-.154-2.438.515-3.503l.228.006c.396.628.313 1.728.29 2.46l-.79.185c-.165.346-.172.47-.244.851z" class="S"/><path d="M182.725 141.205c-.004-.853-.199-1.923.683-2.319l.293.232c.308.513.229 1.177.218 1.787-.363.059-.91.105-1.194.299z" fill="#51c7f2"/><g class="R"><path d="M181.131 141.259c.642.115.541-.004.917.399.224.582.059 1.36-.022 2.001-1.474-.183-1.061-1.238-.895-2.4zm6.766.144c1.17.338.926 1.56.615 2.457l-.505-.153c-.602-.61-.456-1.589-.11-2.305zm-1.31-.215c1.147.254.93 1.68.472 2.431l-.319-.117c-.601-.516-.577-1.694-.152-2.314z"/></g><path d="M161.193 141.546c1.352.112 1.14 1.125.775 2.083-.587-.099-.615-.106-.927-.576-.107-.532.035-.975.152-1.507z" class="I"/><path d="M198.423 141.151c.412.079.482.084.795.354.267.506.1 1.243.029 1.836-.39-.023-.406-.023-.754-.19-.425-.675-.214-1.193-.07-2z" class="b"/><path d="M203.6 141.316c.977.334.771 1.542.262 2.191-.883-.475-.853-1.514-.262-2.191z" class="R"/><path d="M147.157 141.71c.53.162.576.286.792.734.003.545-.076.656-.312 1.123-1.087-.153-.803-1.147-.48-1.857z" class="N"/><path d="M90.85 133.334c11.945-.202 14.513-1.517 13.767 12.066-.161 2.94-1.157 4.732-4.032 5.533-2.297.321-7.283.091-9.796-.016-5.887-.252-3.903-9.769-4.06-13.57-.087-2.125 2.219-3.617 4.119-4.012z" class="E"/><path d="M92.442 137.914c1.476.717 5.91 3.284 7.219 4.172l-2.609 1.542-4.596 2.601-.013-8.314z" class="g"/><path d="M26.37 22.737c-.033-4.153-1.044-9.491 4.767-9.693.963-.034 1.919-.041 2.883-.047l44.846-.123 15.338-.131c1.933-.001 8.451-.417 9.793 1.057 1.428 1.57.902 6.706 1.065 8.993l.013 8.187c0 .504.024 3.104-.04 3.5l.08 1.677c1.243.115 2.807.068 3.818.178-.473.378-2.975.224-3.708.211.017 2.219.217 15.961-.206 17.289-.097.73-.058 1.173-.019 1.914-.065 3.517.181 6.956.15 10.469-.014 1.575.05 3.249-.216 4.8-.857 1.488-1.256 2-2.959 2.696-.112.046-.088.039-.197.12-2.691.16-7.566-.006-10.431-.017l-20.643-.082c-2.961-.015-7.275-.156-10.134.062-10.248.201-20.827-.381-31.107-.196-1.559.028-2.977-.393-3.065-2.171-.093-1.882-.053-3.771-.043-5.668l.016-9.591z" class="E"/><path d="M26.37 22.737c-.033-4.153-1.044-9.491 4.767-9.693.963-.034 1.919-.041 2.883-.047l44.846-.123 15.338-.131c1.933-.001 8.451-.417 9.793 1.057 1.428 1.57.902 6.706 1.065 8.993-9.791-.132-20.025.005-29.862-.001z" class="b"/><g class="E"><path d="M41.413 16.913c.443-.204.961-.149 1.351.144a1.32 1.32 0 0 1 .513 1.258c-.074.482-.406.884-.865 1.047-.667.237-1.402-.092-1.67-.748s.029-1.405.671-1.702zm-5.571.007a1.31 1.31 0 1 1-.664 1.689 1.31 1.31 0 0 1 .664-1.689z"/></g><path d="M47.043 16.911c.643-.282 1.394 0 1.693.636s.038 1.394-.589 1.71c-.421.212-.924.179-1.314-.086s-.604-.722-.561-1.192.339-.878.771-1.068z" class="d"/><path d="M41.851 36.43c.204-1.739-.16-5.205.634-6.413.45-.685 6.941-.439 8.055-.435l12.789.01 21.856-.013c3.035-.013 12.117-.281 15.402.206.809.12.985 5.34.998 6.69l2.599-.006c.842-.467.53-1.091.85-1.988l.08 1.677c1.243.115 2.807.068 3.818.178-.473.378-2.975.224-3.708.211.017 2.219.217 15.961-.206 17.289-.148-1.036-.07-4.455-.068-5.643l.044-11.647c-2.575.137-5.651.083-8.26.089H82.582z" fill="url(#K)"/><path d="M44.211 54.901c.023-1.266-.244-3.333 1.346-3.502 1.501.47 1.336 4.096 3.304 3.211.672-.302.67-1.691 2.119-1.547.963.518.949 1.721 2.057 1.466.876-.116 1.54-3.676 2.784-2.805 2.067 1.448 2.646 1.611 3.471-1.202.322-1.352 1.61-9.055 3.867-4.434 1.432 2.932.917 6.877 4.843 8.221 2.68.918 1.807-1.843 3.868-1.762 1.185.607 1.06 2.687 2.717 2.173.537-.167.931-2.021 1.991-1.487 1.023.516.518 1.687 2.03 1.75.865-.284 1.398-2.628 2.975-.514.382.511.588.524 1.152.464 1.172-1.14.742-5.33 2.337-6.126 2.573.228.235 5.215 2.556 6.396.186-1.121.22-1.521 1.37-1.883.896.145 1.114.603 1.269 1.482-.224.351-.314 1.234-.008 1.537-.185.762-.47 1.446-1.278 1.561-1.426-.565-.891-1.296-1.754-1.861l-.497.582c-.555 1.477.383 5.385-1.739 5.565-1.956-1.001-.607-6.332-2.996-5.864-.499.429-.987 1.102-1.495 1.237-1.448-.134-.797-.975-1.883-1.303-1.233-.373-1.255 1.782-2.388 1.612-1.021-.064-.946-1.505-1.846-1.617-1.793-.224-1.279 2-2.826 2.339-.351-.105-.602-.167-.803-.507-.325-.55-.557-1.614-1.236-1.796-.709-.19-1.884.383-2.473.752-3.666 2.292-2.796 9.204-5.48 9.263-1.723-.651-1.83-5.355-2.722-6.975-1.836-3.333-2.777 2.385-4.649-1.098-.514-1.04-.633-1.81-1.861-1.608-1.129.795-.538 1.424-1.939 1.37-.955-.429-1.293-2.134-2.445-1.641-1.521.651-.939 3.7-2.977 3.137-.854-.691-.779-1.944-.781-2.96.031-.446.016-1.155.02-1.624z" class="B"/><path d="M87.628 55.203c.186-1.121.22-1.521 1.37-1.883.896.145 1.114.603 1.269 1.482-.224.351-.314 1.234-.008 1.537-.185.762-.47 1.446-1.278 1.561-1.426-.565-.891-1.296-1.754-1.861.523-.065 1.889.689 2.565.208.003-.732.092-2.055-.402-2.574-1.441-.158-1.02 1.007-1.586 1.578z" class="N"/><path d="M37.27 36.934l.007.114c-.409.65-.512 1.376-.509 2.133l.096 9.259v19.775c-1.563-.064-3.169.04-4.693-.177-.74-.105-.972-.472-1.36-1.049l-.034-19.998.162-9.733c.12.096.102.788.229 1.216 1.142.8 3.555.24 4.512-.634.457-.417.913-.306 1.498-.822z" class="e"/><path d="M97.408 52.66c.039-.958-.068-1.804 1.018-2.035 1.078.353 1.157 1.295 1.242 2.278.226 2.48.267 3.263.001 5.698-.128.936-.155 1.668-1.133 2.009-1.179-.283-1.08-1.352-1.138-2.34-.683-.077-.97-.129-1.32-.742-.09-.53-.087-.595.059-1.113l-.738-.17c-.011-.44.063-1.009.106-1.457l1.779.064c.118-.83.118-1.361.125-2.192z" fill="#c14067"/><path d="M97.458 57.712l2.211.888c-.128.936-.155 1.668-1.133 2.009-1.179-.283-1.08-1.352-1.138-2.34z" class="a"/><path d="M97.408 52.66c.039-.958-.068-1.804 1.018-2.035 1.078.353 1.157 1.295 1.242 2.278-.909-.175-1.316-.271-2.26-.242z" class="O"/><path d="M96.136 56.414c.664-.096.617-.201 1.098.06.202.416.193.78.224 1.237l-.061.557c-.683-.077-.97-.129-1.32-.742-.09-.53-.087-.595.059-1.113z" class="e"/><path d="M32.354 29.834c2.518-1.931 4.926.356 4.425 2.922-.786 4.026-7.006 1.833-5.177-2.016.247-.444.397-.564.752-.905z" class="U"/><path d="M32.999 29.844c.418-.039.877-.142 1.226.037-.08.857-1.289 2.979-2.255 3.063-.657-.473-.414-1.182-.185-1.928.4-.52.709-.752 1.214-1.173z" class="H"/><path d="M92.443 53.846c.03-.821.084-1.47.99-1.57 1.133.547 1.174 1.349 1.213 2.491l.857.02-.106 1.457-.787.162-.141 1.909c-.388.514-.55.576-1.143.642-.914-.332-1.037-1.041-.974-1.914-.56-.937-1.137-.883-2.095-.705-.306-.303-.216-1.187.008-1.537 1.236.422 1.603.133 2.176-.955z" class="U"/><path d="M92.443 53.846c.03-.821.084-1.47.99-1.57 1.133.547 1.174 1.349 1.213 2.491l.857.02-.106 1.457-.787.162-.104.034c.071-2.124-.373-1.556-2.064-2.595z" class="I"/><path d="M94.647 54.767l.857.02-.106 1.457-.787.162z" fill="#fefdf4"/><path d="M94.507 56.441l.104-.034-.141 1.909c-.388.514-.55.576-1.143.642-.914-.332-1.037-1.041-.974-1.914l.138-.068c.356-.352 1.315-.358 2.016-.535z" class="f"/><path d="M92.353 57.044l.138-.068c.298 1.214.845 1.134 1.98 1.339-.388.514-.55.576-1.143.642-.914-.332-1.037-1.041-.974-1.914z" class="O"/><path d="M101.67 52.748c.631-.016.855-.057 1.31.275.108.549.16 6.385.1 7.127-.366.025-1.471.051-1.518-.41-.13-1.28-.326-6.015.108-6.993z" class="f"/><path d="M41.131 56.281c-.19.945-.208 2.169-1.46 2.028-.832-.731-.57-3.89.101-4.779.862-.298 1.144.776 1.366 1.445z" class="N"/><path d="M81.52 67.898c.878-.199 17.156.084 18.031.302-5.126.19-11.085.046-16.274.045-5.42-.045-10.827.024-16.248-.064.335-.291 14.597.208 16.594-.14-.091-.091-1.61-.045-2.102-.144z" class="d"/><g class="K"><path d="M44.211 54.901l-.02 1.624c-.491-.26-1.673-.223-2.29-.243h-.77l.006-1.306.775-.065c.766-.19 1.529-.099 2.3-.01z"/><path d="M41.137 54.976l.775-.065-.011 1.371h-.77z"/></g><path d="M201.521 14.507c4.668-.113 9.527-.032 14.212-.046 1.881-.006 6.144-.12 7.806.032-.419.774-.921 1.767-1.364 2.506l.609.317 1.767.684.154.17 1.244.944c.116.666-.088 1.109-.338 1.741l.144.012c2.099.155 5.728-4.587 5.708 2.3l-.007 3.254.174.478.35.1c3.712.193 5.169 4.879 5.943 7.919.984 3.867 3.505 12.623 1.134 15.993-.791.148-1.689.937-2.194.716-1.191.223-1.79.349-2.997.357-.668.068-1.178.11-1.847.121l-.091.293-.456.152c-.628-.265-1.516-.547-2.178-.781-3.047-.415-6.646-.179-9.775-.116-3.151.033-12.149.165-14.679-.693-3.636-.08-7.389-.791-9.986 2.212-1.14 2.193-.68 3.984-.776 6.388-.511-.781-.283-1.243-.17-2.28-.971-.222-2.531-.04-3.659-.117-4.815-.33-9.772-.215-14.615-.216a1000.69 1000.69 0 0 0-15.776.053l-.281-.396c-.075-.217-.593-.989-.749-1.232l-.404-.477c-1.494-2.096-3.792-3.606-6.13-4.595-.661-.248-1.428-.418-2.12-.59l-.838-.164c-1.028-.033-1.8-.057-2.832.012-.875.14-1.42.23-2.285.481-1.005.239-1.76.499-2.67 1.014-1.933 1.128-3.07 2.036-4.525 3.755l-.905 1.446-.497.753c-2.041.038-4.236.189-6.244.188-1.932-.001-3.96-.15-5.941-.17l-13.91-.061c-.804-.684-1.096-.855-2.121-1.106-.219.021-.739-.115-.984-.167-.397.133-.983.07-1.421.056-.039-.741-.078-1.183.019-1.914.423-1.328.223-15.07.206-17.289.733.013 3.235.167 3.708-.211 5.316-.243 12.071-.016 17.511-.031l41.031-.013c7.494.005 15.983.19 23.376-.112.089-1.185-.202-2.467-.229-3.672-.085-3.892-.57-8.376.341-12.161.151-.628.763-1.805 1.062-2.397-.028-.241-.119-.903-.094-1.112.303-2.423 3.898-2.347 5.603-2.317 1.298-.029 2.7-.088 3.987-.013z" class="d"/><path d="M201.521 14.507c4.668-.113 9.527-.032 14.212-.046 1.881-.006 6.144-.12 7.806.032-.419.774-.921 1.767-1.364 2.506l.609.317 1.767.684.154.17 1.244.944c.116.666-.088 1.109-.338 1.741l.144.012c2.099.155 5.728-4.587 5.708 2.3l-.007 3.254.174.478.35.1-.431.119c-.816-.061-2.363.454-3.242.697-.822.221-1.017.326-1.768.742l-.4.207c-1.252 1.145-1.686 1.687-1.794 3.451-.029.466.026 1.932-.076 2.248l.044.119c-.631.601-1.26.875-2.029 1.268-.226.086-.48.202-.716.231l-.417.088c-.804.13-.996.139-1.805.076-.463-.05-1.288-.055-1.781-.074a148 148 0 0 1-6.078.003c-.608.07-2.542.033-3.248.038-5.703.022-11.706.089-17.389-.032.089-1.185-.202-2.467-.229-3.672-.085-3.892-.57-8.376.341-12.161.151-.628.763-1.805 1.062-2.397-.028-.241-.119-.903-.094-1.112.303-2.423 3.898-2.347 5.603-2.317 1.298-.029 2.7-.088 3.987-.013z" fill="url(#L)"/><path d="M192.025 17.949l-.094-1.112c.303-2.423 3.898-2.347 5.603-2.317 1.314.355 1.201-.029 1.96 1.233.467.779.642 1.408 1.342 2.021l.082.072c.453.395 2.796 1.724 3.381 1.896l.029 2.053-.187-.024c-.614 1.933-1.616 7.705-.664 9.599.168.335.385.642.643.914.044.047 4.459 4.08 4.119 3.926-5.703.022-11.706.089-17.389-.032.089-1.185-.202-2.467-.229-3.672-.085-3.892-.57-8.376.341-12.161.151-.628.763-1.805 1.062-2.397z" fill="url(#M)"/><path d="M218.911 31.951c.661-.881.728-3.786.917-5.075.224-1.533 1.9-8.779 2.958-9.56l1.767.684.154.17 1.244.944c.116.666-.088 1.109-.338 1.741l.144.012c2.099.155 5.728-4.587 5.708 2.3l-.007 3.254.174.478.35.1-.431.119c-.816-.061-2.363.454-3.242.697-.822.221-1.017.326-1.768.742l-.4.207c-1.252 1.145-1.686 1.687-1.794 3.451-.029.466.026 1.932-.076 2.248l.044.119c-.631.601-1.26.875-2.029 1.268-.226.086-.48.202-.716.231l-.417.088c-.804.13-.996.139-1.805.076-.044-1.203-.308-3.035-.435-4.294z" class="B"/><path d="M225.611 20.856l.144.012c2.099.155 5.728-4.587 5.708 2.3l-.007 3.254.174.478.35.1-.431.119c-.816-.061-2.363.454-3.242.697-.822.221-1.017.326-1.768.742l-.4.207c-1.252 1.145-1.686 1.687-1.794 3.451l-.076 2.248c-.478-.508-.46-2.101-.508-2.812-.258-3.813.385-7.273 1.85-10.796z" fill="url(#N)"/><g class="h"><path d="M231.463 23.168l-.007 3.254-.242-.64-.256.024c-.025.278.031.161-.18.356-.59-.282-.416-.117-.757-.601.007-.442.082-.429.324-.839l.284.156c.438-.796-.18-1.12.835-1.71zm-5.912 4.416c.554-.384.772-.682 1.354-.751-.097.245-.192.287-.4.446l.311.464-.246.125-.029.69-.4.207c-.069-.101-.488-.425-.615-.541zm1.889-2.07l.132.017c-.248.277-.687.386-1.055.521l-.117-.2.072-.207a2.89 2.89 0 0 0 .883-.108z"/></g><path d="M222.284 35.851c-.012-1.562-.311-3.39-.46-4.914-.261-2.68 1.154-10.848 2.881-12.766l1.244.944c.116.666-.088 1.109-.338 1.741-1.465 3.523-2.108 6.983-1.85 10.796.048.711.031 2.303.508 2.812l.044.119c-.631.601-1.26.875-2.029 1.268z" class="F"/><path d="M208.239 36.211c.34.154-4.075-3.879-4.119-3.926-.258-.271-.475-.579-.643-.914-.952-1.894.05-7.666.664-9.599l.188.024.029 1.509.04.758-.045 2.539c-.007.299.021 1.129-.12 1.325l.057.077-.05.226-.042-2.801c-.647 2.175-.693 3.113-.658 5.406 1.131 1.143 4.913 4.815 6.63 5.163.306.062.879-.16 1.318.175-.608.07-2.542.033-3.248.038z" class="X"/><path d="M222.176 16.999l.609.317c-1.058.78-2.733 8.027-2.958 9.56-.189 1.289-.256 4.194-.917 5.075l-.092-1.081a31.24 31.24 0 0 1 .107-2.282c.189-2.167 1.699-10.283 3.25-11.589z" class="H"/><path d="M197.534 14.521l3.987-.013c-.425.244-1.479.156-2.038.133.51 1.039 1.291 2.909 2.416 3.284 1.702.569 2.259-.936 2.399 1.819-.584-.173-2.928-1.501-3.381-1.896l-.082-.072c-.7-.613-.875-1.243-1.342-2.021-.759-1.261-.646-.878-1.96-1.233z" class="X"/><g class="h"><path d="M217.564 36.171c.406-.262.746-.024 1.43-.22l.108-.287c-.256-.807-.019-1.132-.116-1.459-.34.16-.466.287-.759.527l-.157-.08c-.103-.571-.448-1.973-.133-2.395l.488.097.133-.116c-.333-.592-.606-.001-1.058-.531l.517-.371-.294-.31c.25-.219.519-.499.816-.62.056.167.057.219.086.392l-.085.001.277.071.092 1.081.435 4.294c-.463-.05-1.288-.055-1.781-.074zm-13.167-12.107c.407.082.352.006.592.253-.029-.276.743 2.803.625 2.554l.215-.044.299-.519.13.096c.051.81-.794 1.111-1.481 1.235l-.227-.109c-.108-.366-.144-.548-.199-.927l.045-2.539z"/><path d="M204.357 23.306l.511-.279c.334.47.292.456.453.985l-.333.306c-.24-.247-.185-.171-.592-.253zm9.793 2.58c.498.263.728.61.804 1.149l-.296.326c-.204.008-.359-.044-.555-.091-.031-.196-.193-.613-.259-.88zm-5.108.422c.48.062.712.067 1.157.29-.199.518-.152-.143-.781.146l.324.693c-.113.36-.126.399-.325.717l-.142-.098c-.224-.763-.289-.972-.233-1.748z"/></g><g class="B"><path d="M231.98 26.999c3.712.193 5.169 4.879 5.943 7.919.984 3.867 3.505 12.623 1.134 15.993-.791.148-1.689.937-2.194.716-1.191.223-1.79.349-2.997.357-.668.068-1.178.11-1.847.121l-.091.293-.456.152c-.628-.265-1.516-.547-2.178-.781-.907-.466-1.178-.558-2.172-.779 1.094-.015 1.652.117 2.527.132-.527-.477-.999-1.161-1.433-1.737-.327-.519-.891-1.764-1.184-2.368-.684-1.95-1.263-3.644-1.679-5.665-.33-1.725-.661-5.498-1.04-6.77l-.044-.119c.103-.316.047-1.782.076-2.248.108-1.764.542-2.306 1.794-3.451l.4-.207c.751-.417.946-.521 1.768-.742.879-.243 2.426-.758 3.242-.697z"/><path d="M226.54 28.557c.751-.417.946-.521 1.768-.742-1.393 5.215 1.033 15.105 3.012 20.157.596 1.286 1.497 3.041 2.546 4.013-.668.068-1.178.11-1.847.121l-.091.293-.456.152c-.628-.265-1.516-.547-2.178-.781-.907-.466-1.178-.558-2.172-.779 1.094-.015 1.652.117 2.527.132-.527-.477-.999-1.161-1.433-1.737-.327-.519-.891-1.764-1.184-2.368-.684-1.95-1.263-3.644-1.679-5.665-.33-1.725-.661-5.498-1.04-6.77l-.044-.119c.103-.316.047-1.782.076-2.248.108-1.764.542-2.306 1.794-3.451z"/></g><path d="M227.121 50.991c1.094-.015 1.652.117 2.527.132.92.48 1.349.732 2.37.983l-.091.293-.456.152c-.628-.265-1.516-.547-2.178-.781-.907-.466-1.178-.558-2.172-.779z" class="M"/><path d="M228.308 27.815c.879-.243 2.426-.758 3.242-.697-.201 1.605-.428 2.275-.453 4.076-.057 4.185 1.4 12.192 3.177 15.961-.617.733-2.03.884-2.955.818-1.979-5.052-4.405-14.941-3.012-20.157z" class="E"/><path d="M234.274 47.154c.435 1.022.703 1.6 1.301 2.533l1.288 1.94c-1.191.223-1.79.349-2.997.357-1.049-.972-1.95-2.726-2.546-4.013.924.067 2.338-.085 2.955-.818z" class="a"/><path d="M234.981 31.224c.075.021.41.116.439.194 1.887 4.828 2.476 9.713 3.195 14.794-2.142-.962-4.087-12.408-3.634-14.988z" class="F"/><path d="M158.827 55.374c1.915-.139 5.899-.008 7.932-.006l14.852.005c3.933.002 8.249.059 12.155-.277.62-.586-.081-1.107 1.087-1.923-1.14 2.193-.68 3.984-.776 6.388-.511-.781-.283-1.243-.17-2.28-.971-.222-2.531-.04-3.659-.117-4.815-.33-9.772-.215-14.615-.216a1000.69 1000.69 0 0 0-15.776.053l-.281-.396c-.075-.217-.593-.989-.749-1.232z" fill="#fefdf4"/><g class="E"><path d="M106.422 55.693c1.862-.818 25.76-.19 30.093-.573l.22-.379.288.07-.905 1.446-.497.753-6.244.188c-1.932-.001-3.96-.15-5.941-.17l-13.91-.061c-.804-.684-1.096-.855-2.121-1.106-.219.021-.739-.115-.984-.167zm117.891-21.11c.379 1.272.71 5.045 1.04 6.77-1.515.718-1.664 1.699-3.107 1.746-.248-.824-.454-2.357-.612-3.266-.354-.47-.369-.553-.489-1.122.045-.752.009-1.768.006-2.54l.417-.088c.236-.029.491-.145.716-.231.769-.393 1.397-.667 2.029-1.268z"/></g><path d="M221.15 36.17l.417-.088.066 3.75c-.354-.47-.369-.553-.489-1.122.045-.752.009-1.768.006-2.54z" class="F"/><path d="M225.353 41.353c.416 2.021.995 3.715 1.679 5.665-1.184.068-2.534-.696-3.826-.793-.35-.846-.694-2.106-.968-3.016l.009-.111c1.443-.047 1.592-1.028 3.107-1.746z" fill="url(#O)"/><path d="M223.206 46.225c1.292.096 2.643.861 3.826.793l1.184 2.368c-1.852.047-4.065.019-4.711-2.085-.016-.353-.179-.733-.299-1.075z" class="J"/><g class="H"><path d="M204.839 50.961c3.652-.046 7.938-.088 11.569.034 1.068.417 2.342-.032 2.963.399l-1.188.07c.379.044.984.093 1.334.19-3.151.033-12.149.165-14.679-.693zm16.306-12.251c.12.569.135.652.489 1.122l.612 3.266-.009.111c-.602.171-1.339.199-1.594.559l-.293-1.163c-.161-.682-.242-2.185-.302-2.948.287-.623.51-.727 1.096-.947z"/></g><path d="M220.049 39.657c.372-.059.488-.079.795-.297l.214.06c.356.709.495 1.718.467 2.508-.494.612-.649.027-1.175.677-.161-.682-.242-2.185-.302-2.948z" class="K"/><path d="M216.409 50.995l10.712-.004c.995.221 1.266.313 2.172.779-3.047-.415-6.646-.179-9.775-.116-.35-.096-.955-.146-1.334-.19l1.188-.07c-.621-.431-1.896.018-2.963-.399z" class="Z"/><path d="M222.237 43.209l.968 3.016c.12.342.283.722.299 1.075-2.13-.326-2.29-1.69-2.861-3.532.255-.36.992-.388 1.594-.559z" class="F"/><path d="M225.935 101.771l9.246.055 5.596-.017c8.503.23 17.41.143 25.941.135l7.191-.019c2.669-.006 7.172-.444 7.235 3.239l.059 15.335-.003 10.601.021 3.037c-.001 1.071.048 2.644-.01 3.673l.026 1.881c-1.317.235-.627.613-1.55.946-.391-.36-.305-.254-.929-.328l-.183-.349c.144-.548.152-.419.674-.848l-.207-.145.201.111-.047.055c-.473-.319-.473-.238-1.107-.188l.107.304-.354.216c-.378-.089-.444-.127-.794-.302-.319 1.343-.666 1.687-1.885 2.319-4.074.061-8.149.029-12.221-.097-3.168.003-6.888.146-9.998.005-7.077-.19-14.654.147-21.819.074.293.333.289.405.318.852-.753 1.586-4.217 1.473-5.789 1.688-.445.348-1.556 1.048-1.701 1.431l.702.161-2.568.014c-3.041.042-5.597.116-6.376-3.42-.202-.629-.073-7.764-.072-9.068l.009-19.585c-.092-1.808.01-4.498.023-6.371.201-2.276 2.458-4.74 4.68-5.353z" class="P"/><path d="M251.963 106.238c.838.091 3.22-.234 4.313-.231 3.747.008 7.976-.265 11.695-.078l1.478-.01c7.605-.055 7.605-.889 7.585 6.678v9.051c.315 1.343-.338 4.339.574 5.095.483-.149 1.887-2.007 2.187-2.53l.066-.117c.649-.208.287.25 1.009.203.312-.813-.092-4.073.144-4.606l.188.805-.003 10.601.021 3.037c-.001 1.071.048 2.644-.01 3.673l.026 1.881c-1.317.235-.627.613-1.55.946-.391-.36-.305-.254-.929-.328l-.183-.349c.144-.548.152-.419.674-.848l-.207-.145.201.111-.047.055c-.473-.319-.473-.238-1.107-.188l.107.304-.354.216c-.378-.089-.444-.127-.794-.302-.319 1.343-.666 1.687-1.885 2.319-4.074.061-8.149.029-12.221-.097-3.168.003-6.888.146-9.998.005l.192-.184-.025-.149c-.412-2.427.807-3.605.933-5.932.05-.913-.645-1.912-.037-2.78 3.177.874 2.512-2.96 2.508-4.95l-.023-7.267.023-3.71c.001-.134-.025-.308-.086-.43a1.44 1.44 0 0 0-.916-.753c-.942-.249-1.487.043-2.251.48-.64-1.449-.378-5.071-.593-6.734-.119-.907-.57-1.791-.703-2.742z" class="C"/><path d="M251.963 106.238c.838.091 3.22-.234 4.313-.231 3.747.008 7.976-.265 11.695-.078-.923.075-4.545.095-4.922.432.133.905.305 1.8.406 2.719.123 1.122-.645 4.277-.116 5.057.396.01.413-.012.773-.207l.617.048c.369.207 1.238.68 1.273 1.165.3 4.201.176 8.514.142 12.733-.006.781-.653 1.217-1.226 1.592-.863.229-1.723.565-1.581 1.743-.346 1.668-.1 5.066-.255 6.986l-.327 3.003.183.184c-3.168.003-6.888.146-9.998.005l.192-.184-.025-.149c-.412-2.427.807-3.605.933-5.932.05-.913-.645-1.912-.037-2.78 3.177.874 2.512-2.96 2.508-4.95l-.023-7.267.023-3.71c.001-.134-.025-.308-.086-.43a1.44 1.44 0 0 0-.916-.753c-.942-.249-1.487.043-2.251.48-.64-1.449-.378-5.071-.593-6.734-.119-.907-.57-1.791-.703-2.742z" class="h"/><path d="M264.729 113.98c.369.207 1.238.68 1.273 1.165.3 4.201.176 8.514.142 12.733-.006.781-.653 1.217-1.226 1.592-.346-.046-.669-.106-.992-.245a1.63 1.63 0 0 1-.889-.918c-.258-.692-.171-12.859.081-13.33.325-.61 1.005-.796 1.611-.997z" class="U"/><path d="M263.338 131.212c-.346 1.668-.1 5.066-.255 6.986-.39-.28-.456-.355-.486-.87l-.252-3.002c0-.002-.438-.48-.48-.525-.038-.971.734-2.022 1.474-2.589z" fill="#9a1b81"/><path d="M258.243 118.77c1.242-1.365 2.811-.352 3.237 1.076l.029 8.897c-.209 1.564.814 5.692-1.633 5.862-2.295.16-1.667-4.818-1.66-6.246z" class="B"/><path d="M258.243 118.77c-.028-1.656-.926-10.187 2.81-6.934.763.664.401 6.666.428 8.01-.426-1.428-1.995-2.441-3.237-1.076z" class="V"/><path d="M277.034 121.648c.315 1.343-.338 4.339.574 5.095.483-.149 1.887-2.007 2.187-2.53l.066-.117c.649-.208.287.25 1.009.203.312-.813-.092-4.073.144-4.606l.188.805-.003 10.601.021 3.037-.01 3.673.026 1.881c-1.317.235-.627.613-1.55.946-.391-.36-.305-.254-.929-.328l-.183-.349c.144-.548.152-.419.674-.848l-.207-.145.201.111-.047.055c-.473-.319-.473-.238-1.107-.188l.107.304-.354.216c-.378-.089-.444-.127-.794-.302l-.016-3.868.004-13.647z" class="L"/><path d="M277.723 136.132c.042-.62 1.232-3.062 1.742-3.575.07-.071.792-.066 1.137-.399-.084-.372-.095-.393-.037-.763.255-.205.312-.203.634-.296l.021 3.037-.01 3.673.026 1.881c-1.317.235-.627.613-1.55.946-.391-.36-.305-.254-.929-.328l-.183-.349c.144-.548.152-.419.674-.848l-.207-.145.201.111-.047.055c-.473-.319-.473-.238-1.107-.188l.107.304-.354.216c-.378-.089-.444-.127-.794-.302l-.016-3.868.236.71c.167.064.309.153.457.127z" class="c"/><path d="M277.723 136.132c.042-.62 1.232-3.062 1.742-3.575.07-.071.792-.066 1.137-.399-.084-.372-.095-.393-.037-.763.255-.205.312-.203.634-.296l.021 3.037-.479.211-.297.769c-.265-.271-.457-.481-.76-.715l-.082.166c.255.526.602 1.058.454 1.621-.362-.184-.545-.357-.895-.319l.136.571-.58.346-.164.129c.056-.445.177-.862-.038-1.218-.489.084-.354.076-.791.434z" class="X"/><path d="M268.692 119.055c2.5.301 1.954 3.879 1.584 5.657-.097.463-.706.722-1.106.893l-.397-.085c-2.046-.492-1.699-3.327-1.386-4.916.164-.835.604-1.14 1.305-1.549z" fill="#c14067"/><path d="M272.621 122.164c2.43-.018 2.7 2.931.863 4.175-2.515-.091-2.616-2.95-.863-4.175z" class="Q"/><path d="M225.935 101.771l9.246.055 5.596-.017c8.503.23 17.41.143 25.941.135l7.191-.019c2.669-.006 7.172-.444 7.235 3.239l.059 15.335-.187-.805c-.236.533.168 3.793-.144 4.606-.722.047-.36-.411-1.009-.203l-.066.117c-.3.523-1.704 2.381-2.187 2.53-.913-.756-.259-3.752-.574-5.095v-9.051c.021-7.567.021-6.733-7.585-6.678l-1.478.01c-3.719-.188-7.948.085-11.695.078-1.093-.002-3.475.322-4.312.231-4.443-.175-9.628.103-14.046-.375-2.31-.25-15.562-.077-16.913.497-.343.359-.936.937-.97 1.416-.179 2.546-.069 5.379-.101 7.931l-.044 15.702c.006 2.356-.192 5.967.04 8.233.431.755.913 1.468 1.834 1.609 2.776.425 6.519.196 9.36.212.293.333.289.405.318.852-.753 1.586-4.217 1.473-5.789 1.688-.445.348-1.556 1.048-1.701 1.431l.702.161-2.568.014c-3.041.042-5.597.116-6.376-3.42-.202-.629-.073-7.764-.072-9.068l.009-19.585c-.092-1.808.01-4.498.023-6.371.201-2.276 2.458-4.74 4.68-5.353z" fill="url(#P)"/><path d="M225.935 101.771l9.246.055-.141.015c-1.393.142-2.807.045-4.21.133-3.979.251-7.961.18-11.892.956-.376.074-.839.561-1.077.845-2.776 3.306-1.583 6.438-2.216 9.762-.092-1.808.01-4.498.023-6.371.201-2.276 2.458-4.74 4.68-5.353z" class="V"/><path d="M215.709 142.19c.612 1.038 3.072 1.055 3.16 2.871 1.595.527 3.548.182 5.083.374l.702.161-2.568.014c-3.041.042-5.597.116-6.376-3.42z" class="L"/><path d="M253.26 115.714c.765-.436 1.31-.729 2.251-.48a1.44 1.44 0 0 1 .916.753c.062.122.088.296.086.43l-.023 3.71.023 7.267c.004 1.991.669 5.824-2.508 4.95-.608.868.086 1.867.037 2.78-.126 2.327-1.345 3.505-.933 5.932l.025.149-.192.184c-7.077-.19-14.654.147-21.819.074-2.842-.016-6.584.212-9.36-.212-.921-.141-1.403-.853-1.834-1.609.064-.526.103-1.11.148-1.643.237 3.106 1.153 2.255 3.365 2.01.876-.097.882-.586 1.455-1.009 1.677-1.24 2.439-3.327 3.567-4.791l.211.144c.384-.42.46-2.463 1.31-3.476.019.494.535 1.794.933 1.993 3.891 1.947 2.807-4.679 2.763-6.957.504.595.593.68 1.245 1.104.123-1.165.022-4.731.018-6.065l.205-.096-.125-.306-.066.171.12-.094-.067-.097.116.19-.166.054.198.138.075.657.054 6.969c.803.867 1.727 1.611 2.78.564.516-.512.419-1.22.429-1.89.048-.611.135-3.181.261-3.515.029 1.46.081 2.945.004 4.402 1.86-1.105.246-2.231 1.015-3.537l.01 1.036.123-.047.023-.889c.586-.632.779-.876 1.51-1.313.652-.008.977.133 1.595.337.031-.688.004-1.481 0-2.178.275 1.199-.022 2.121.193 3.335l.737.004c.28-1.053-.125-2.425.207-3.626.149-1.051.17-1.438 1.081-2.079.831-.584 1.342-.307 1.849.492.45.711.212 1.602.337 2.434.119-.407.142-.971.179-1.406.051.728-.105 1.207.504 1.735l.302-.027c.23-.479.18-1.097.185-1.647-.289-.74-.141-1.398.212-2.081l.318-.616c1.485-.815 2.272.859 3.612-.014.258-.397.457-1.807.507-2.299z" class="U"/><path d="M254.949 119.075l1.541 1.054.023 7.267c.004 1.991.669 5.824-2.508 4.95-.057-.154-.432-.534-.546-.863-.309-.883-.223-2.355-.22-3.295l-.009-7.905 1.718-1.207z" class="Z"/><path d="M234.924 127.019c.123-1.165.022-4.731.018-6.065l.205-.096-.125-.306-.066.171.12-.094-.067-.097.116.19-.166.054.198.138.075.657.054 6.969c.803.867 1.727 1.611 2.78.564.516-.512.419-1.22.429-1.89l.261-3.515.004 4.402c-.359 1.943.883 12.618-3.725 7.92l-.029-6.259-.082-2.741z" class="F"/><g class="B"><path d="M248.706 121.906c1.014-.38 2.065-.653 3.136-.814l.152 7.323c-.051.163-.245.737-.354.839-3.161 2.926-2.996-2.765-2.908-4.498.048-.953-.006-1.961-.026-2.85zm-7.263 1.444c.652-.008.977.133 1.595.337l-.026 1.893.029 3.723c-.135 2.459-3.277 2.308-3.287-.331l.032-3.373.123-.047.023-.889c.586-.632.779-.876 1.51-1.313z"/></g><path d="M241.443 123.35c.652-.008.977.133 1.595.337l-.026 1.893c-1.102 1.085-1.73 1.403-3.057 2.15l-.045-2.178.023-.889c.586-.632.779-.876 1.51-1.313z" class="H"/><path d="M244.175 121.222c.149-1.051.17-1.438 1.081-2.079.831-.584 1.342-.307 1.849.492.45.711.212 1.602.337 2.434l-.009 1.253c-.754.52-2.186.929-3.094 1.233l-.144-2.137z" class="B"/><path d="M244.195 122.419l.144 2.137c.908-.304 2.339-.713 3.094-1.233-.053 1.147.305 4.125-.457 4.623-3.45 2.254-2.824-4.568-2.78-5.527z" class="F"/><path d="M253.23 120.282c-.037-1.286-.526-4.597 1.206-4.924 1.025-.193 1.409.572 2.077 1.061l-.023 3.71c-.485-.386-1.02-.717-1.541-1.054-.535.315-1.201.831-1.718 1.207z" class="V"/><path d="M248.823 118.643c2.477-1.736 3.248.227 3.019 2.449-1.071.161-2.123.433-3.136.814-.01-.46-.038-.733-.095-1.182-.289-.74-.141-1.398.212-2.081z" class="Q"/><path d="M253.26 115.714c.765-.436 1.31-.729 2.251-.48a1.44 1.44 0 0 1 .916.753c.062.122.088.296.086.43-.668-.489-1.052-1.254-2.077-1.061-1.731.327-1.242 3.638-1.206 4.924l.009 7.905-.193.054c-.299-1.259.209-6.456-.283-7.031-.475.006-.305-.065-.639.261-.113 1.101.157 6.448-.13 6.945-.171-1.16-.138-5.875-.152-7.323.229-2.222-.542-4.186-3.019-2.449l.318-.616c1.485-.815 2.272.859 3.612-.014.258-.397.457-1.807.507-2.299z" fill="#dc5086"/><path d="M235.232 121.57l-.062-6.272.004-3.89c.114-1.231 2.02-1.995 2.805-.918.907 1.246.495 3.837.539 5.439.101 3.714-.19 7.581-.023 11.284-.01.67.086 1.378-.429 1.89-1.053 1.048-1.978.304-2.78-.564z" class="N"/><path d="M230.389 114.915c-.044-2.259 2.046-2.798 3.193-.712.289 1.181-.198 7.68-.076 9.467l.003.693c-1.638.638-2.18.162-3.113-1.175.021-1.142-.091-2.786-.132-3.967.141-.745.001-3.154.125-4.307z" class="H"/><path d="M230.389 114.915c-.044-2.259 2.046-2.798 3.193-.712-.18.718-.12 2.564-.117 3.396l-2.982.957-.094-3.641z" class="K"/><path d="M230.396 123.188c.933 1.336 1.475 1.812 3.113 1.175.018 1.717.426 7.199-.628 8.339-.245.263-.541.419-.907.381-.412-.042-.863-.358-1.137-.66-.873-.965-.479-7.649-.441-9.235z" class="Q"/><path d="M239.776 124.563c.261-1.608-.872-8.76 2.369-6.984 1.471.806.533 2.546.894 3.93v2.178c-.618-.204-.943-.345-1.595-.337-.731.437-.924.681-1.51 1.313l-.023.889-.123.047z" class="B"/><path d="M239.933 124.663c-.016-.518-.076-.871.144-1.334.543-.218.693-.082 1.367.021-.731.437-.924.681-1.51 1.313z" class="W"/><path d="M230.265 119.222l.132 3.967c-.038 1.586-.432 8.27.441 9.235.274.302.725.618 1.137.66.366.037.662-.119.907-.381 1.055-1.14.646-6.622.628-8.339l-.003-.693c.139-1.05.182-2.065.239-3.122l-.066 5.367c.044 2.277 1.128 8.903-2.763 6.957-.398-.199-.914-1.499-.933-1.993l-.264-.151-.062-.358c1.167-2.242-.015-8.927.606-11.147z" class="F"/><path d="M227.31 119.135c2.6.311 2.262 3.468 1.856 5.346-.136.633-.574.864-1.097 1.126-.892.02-1.56.038-2.007-.907-.604-1.278-.425-3.009-.073-4.332.185-.697.735-.94 1.321-1.234z" class="W"/><path d="M227.001 119.539c1.969-.194 2.584 1.992 1.876 2.822l-.24-.062c-.778-.032-1.721.001-2.512.007-.111-1.402-.284-1.859.876-2.768z" class="N"/><path d="M222.675 122.515c.841.049 1.562.023 2.035.83.841 1.434.75 3.332-.713 4.272-1.701.185-2.539-.785-2.502-2.443.029-1.36.212-1.741 1.181-2.659z" class="W"/><path d="M236.862 51.627c.505.221 1.403-.568 2.194-.716l1.519.08c5.2-.112 8.049.425 7.74 6.678-.183 3.711.901 10.799-1.422 13.975-1.405 1.921-4.373 1.273-6.105 1.698-9.627.211-19.575-.043-29.247.062-3.461-.147-7.1-.01-10.583-.048-4.088-.045-6.967-1.452-6.835-6.047-.117-2.334-.021-5.325-.045-7.748.097-2.404-.363-4.194.776-6.388 2.597-3.003 6.35-2.292 9.986-2.212 2.53.858 11.528.726 14.679.693 3.129-.063 6.728-.299 9.775.116.662.233 1.55.516 2.178.781l.456-.152.091-.293c.669-.011 1.179-.053 1.847-.121 1.207-.008 1.806-.134 2.997-.357z" class="F"/><path d="M236.862 51.627c.505.221 1.403-.568 2.194-.716l1.519.08c-.792 1.823-1.548 2.119-3.517 2.189-1.018.248-4.742.322-5.757-.014-4.355-1.443-7.714-1.242-12.272-1.241h-12.639c-1.339-.001-2.952.034-4.274-.021-3.56-.147-4.419-.392-7.006 2.3-.123.561.009 3.479.123 3.901.264-.153.479-.279.754-.41-.028 1.103-1.182 2.419-1.463 3.497-.428 1.642-.139 4.729-.401 6.116-.117-2.334-.021-5.325-.045-7.748.097-2.404-.363-4.194.776-6.388 2.597-3.003 6.35-2.292 9.986-2.212 2.53.858 11.528.726 14.679.693 3.129-.063 6.728-.299 9.775.116.662.233 1.55.516 2.178.781l.456-.152.091-.293c.669-.011 1.179-.053 1.847-.121 1.207-.008 1.806-.134 2.997-.357z" class="B"/><g class="H"><path d="M236.862 51.627c.505.221 1.403-.568 2.194-.716l1.519.08c-.792 1.823-1.548 2.119-3.517 2.189-2.2-.002-3.457-.02-5.587-.63l.456-.152.091-.293 1.847-.121c1.207-.008 1.806-.134 2.997-.357zm-36.508 6.437c1.033-.011 5.481-.299 6.431.454.52.687.548 2.492.495 3.239-.105 1.452.278 2.986-1.059 3.831-1.942-.01-4.141.259-6.019-.186-1.061-.293-.949-2.476-.932-3.364.026-1.285-.372-3.505 1.084-3.974z"/></g><path d="M201.394 61.127c1.094.013 3.952-.407 4.393.727-.1.44-.196.5-.532.814-1.115.043-3.766.397-4.296-.68.04-.448.132-.516.435-.86z" class="E"/><path d="M233.889 58.083c1.39-.017 3.779-.163 4.994.288.998.921 1.03 5.75.218 6.94-.243.356-.863.384-1.247.409-1.985-.232-5.979.925-5.878-2.105.062-1.883-.759-5.427 1.913-5.533z" class="B"/><path d="M233.893 59.173c.891-.013 3.872-.271 4.381.509.62.947.447 2.773.302 3.865-.083.635-.255.735-.725 1.097l-2.467.087c-2.328.054-2.492-.844-2.417-3.101.038-1.156.013-1.667.926-2.457z" class="E"/><path d="M234.265 59.915c.647-.033 2.629-.229 3.059.104.86.666.798 3.192.204 3.98-1.122-.057-2.515.248-3.315-.275-.683-.819-.645-2.994.053-3.809z" class="F"/><g class="E"><path d="M222.409 58.357c.93.045 5.849 2.745 5.701 3.794-.457.555-1.286.936-1.934 1.293-.787.476-2.493 1.612-3.324 1.729l-.262-.201c-.467-1.182-.328-5.256-.182-6.614zm-10.212-.003c.823.159 5.524 2.758 5.432 3.856-.46.535-1.474 1.022-2.121 1.383-.768.461-2.316 1.489-3.135 1.557-.858-.647-.672-5.97-.176-6.795z"/></g><path d="M223.963 69.552c-3.059.169-23.651.175-25.701-.485 1.872-.531 22.557-.577 25.346-.381z" class="B"/><path d="M223.608 68.686c1.1-.022 3.148-.167 4.04.413-.337.616-3.012.469-3.686.453z" class="E"/><g class="B"><path d="M243.962 58.384a.9.9 0 0 1 1.061.641c.129.461-.125.942-.577 1.097a.9.9 0 0 1-1.163-1.097c.09-.323.352-.57.68-.641zm-.128 5.409a.87.87 0 1 1-.478 1.123.87.87 0 0 1 .478-1.123zm.007-2.621a.86.86 0 1 1-.437 1.111.86.86 0 0 1 .437-1.111z"/></g><path d="M143.935 111.435c-8.476-1.861-15.115-7.459-16.61-16.398-.501-2.999-.087-6.404-.22-9.456-.079-1.801-.041-3.727.011-5.531.138-1.713 1.143-3.219 2.779-1.646.588.565.484 1.625.487 2.376 1.08.113 1.994.076 3.077.055-.001 1.371.053 3.23-.029 4.562-.024.654-.1 1.174.176 1.765.302.287.503.487.973.438.365-.21 5.561-.161 6.538-.173 3.049.201 6.684-.111 9.782-.062.945.015 3.101-.065 3.955.094 1.428-.242 3.68.123 5.353.048l.624.195c.466-.176.554-.205.942-.512.319-.456.255-1.216.265-1.799.01-1.068-.063-3.709.088-4.566l2.952-.012c-.016-.618-.141-1.9.337-2.326 1.644-1.413 2.685-.408 2.865 1.438.179 1.817-.1 3.886-.004 5.627.479 8.717-.224 16.449-7.906 21.987-2.984 2.152-5.21 3.065-8.912 3.867l-.021 3.111c-.22 1.324-.086 4.8-.154 6.388-.473-.502-.028-5.383-.245-6.898-.516-.576-3.924-1.268-4.938-1.575-.618-.212-1.268-.17-1.923-.17.047.609.047.741-.045 1.349a48.14 48.14 0 0 0-.198-2.177z" class="g"/><path d="M154.854 87.458c1.428-.242 3.68.123 5.353.048l.624.195c-.012 3.796.313 7.242-1.57 10.693-2.402 4.402-6.741 6.926-11.764 6.912-3.438.013-6.738-1.357-9.155-3.802-3.745-3.815-3.796-7.573-3.733-12.512l.006-.441-.035-.951c.365-.21 5.561-.161 6.538-.173 3.049.201 6.684-.111 9.782-.062.945.015 3.101-.065 3.955.094z" fill="url(#Q)"/><path d="M141.117 87.427c3.049.201 6.684-.111 9.782-.062l3.955.094c-1.244.215-2.76.409-4.02.381l.048.08.256.05-.649.085-.098.155 7.05.198c-1.254.594-19.742.132-22.829.143l-.035-.951c.365-.21 5.561-.161 6.538-.173z" class="C"/><path d="M130.416 85.37l3.014.027c-.024.654-.1 1.174.176 1.765.302.287.503.487.973.438l.035.951-.006.441c-.063 4.939-.012 8.697 3.733 12.512 2.418 2.445 5.717 3.815 9.155 3.802 5.023.014 9.362-2.51 11.764-6.912 1.884-3.451 1.559-6.897 1.57-10.693.466-.176.554-.205.942-.512.319-.456.255-1.216.265-1.799l2.934.005c.105 6.793.681 12.293-4.494 17.627-3.331 3.429-7.898 5.379-12.678 5.414a17.56 17.56 0 0 1-12.525-5.024c-5.54-5.444-4.811-10.957-4.858-18.041z" fill="url(#R)"/><path d="M146.503 49.56c1.031-.07 1.803-.046 2.832-.012l.838.164 2.12.59c2.338.989 4.636 2.499 6.13 4.595l.404.477.749 1.232.281.396-.01.145c.513.951.779 1.901.996 2.956l.029.377c.423 1.158.236 4.54.201 5.827l.007 5.65c-.139.337-.127.568-.127.93-.303.056-.154.074-.454-.115l-1.107 1.006c.64.97 2.02 2.282.901 3.117-.366.204-.441.238-.722.547-.031.819.265.562.36 1.061.406.035.773.08 1.181.056.584.271.447.12.813.615.04.369.067 1.437.202 1.652-.151.857-.078 3.498-.088 4.566-.01.584.054 1.343-.265 1.799-.388.307-.476.336-.942.512l-.624-.195c-1.673.075-3.924-.29-5.353-.048-.854-.159-3.01-.079-3.955-.094-3.098-.049-6.733.263-9.782.062-.503-.134-.878-.012-1.316-.234-.245-1.353-.6-6.391-.57-7.724.671.013 1.043-.029 1.713-.11-1.233-.418-4.913.243-6.921-.427l.03-.138c.842-.19.502.235 1.361-.273l-1.255-.034c.242-3.799.013-8.013.064-11.846.031-2.316-.084-4.52.351-6.819.228-.84.553-1.959 1.04-2.672l.007-.142.497-.753.905-1.446c1.456-1.72 2.592-2.627 4.525-3.755.91-.515 1.665-.775 2.67-1.014.864-.251 1.409-.341 2.285-.481z" fill="url(#S)"/><path d="M158.392 78.524c.58-.188.951-.001 1.538-.022.406.035.773.08 1.181.056.584.271.447.12.813.615.04.369.067 1.437.202 1.652-.151.857-.078 3.498-.088 4.566-.01.584.054 1.343-.265 1.799-.388.307-.476.336-.942.512l-.624-.195c-1.673.075-3.924-.29-5.353-.048-.854-.159-3.01-.079-3.955-.094-3.098-.049-6.733.263-9.782.062-.503-.134-.878-.012-1.316-.234-.245-1.353-.6-6.391-.57-7.724.671.013 1.043-.029 1.713-.11 1.167-.296 8.059-.283 9.562-.285-.454-.113-1.444-.125-2.123-.257l2.292-.279.12-.027c.609-.054.744-.013 1.333.108l.488-.075.177-.013 3.876.064.467-.072z" fill="url(#T)"/><g class="C"><path d="M158.392 78.524c.58-.188.951-.001 1.538-.022.406.035.773.08 1.181.056.584.271.447.12.813.615.04.369.067 1.437.202 1.652-.151.857-.078 3.498-.088 4.566-.01.584.054 1.343-.265 1.799-.388.307-.476.336-.942.512l-.624-.195.158-.115c.292-.793-.472-1.026.22-1.633l.391.644-.163-.286.083.178.163-.266c-.015-.487-.132-.905.404-1.06.428.797-.031 1.685.053 2.111.398-.902.385-5.332.248-6.401l-.287.26-.277-.07c-.34-.402-.258-.205-.292-.752l.281-.305c-.086-.223-.015-.127-.275-.247l-.015.199-.149.11c-.768-.255-3.053-.745-3.527-.959.306-.275.744-.306 1.169-.391zm-7.595-.012c.609-.054.744-.013 1.333.108 1.371.218 2.615.087 3.744.262l-5.367.192c-.454-.113-1.444-.125-2.123-.257l2.292-.279zm-14.679-22.256l.206.469c.193.275.434.728.692.829-.829 1.202-1.35 1.759-2.346 2.797-.055.421-.12.763-.093 1.189l.325-.282c.468.173.893.694 1.253 1.072-.426.576-.922 1.188-1.21 1.837-.317.406-.531.892-.365 1.427l.087-.222c.812.406 1.5.989 1.017 1.94l-.067.128c-.646.539-1.087 1.539-1.031 2.382.398-.78 1.555-2.15 2.228-2.731.628.617.937.929 1.668 1.442-1.484 1.443-2.872 3.5-4.101 4.637l.166.432c.64-.201 1.069-1.082 1.447-1.692l.113.288-.752 1.041c.355.416.727.961 1.221 1.116l.365-.178-.066.11c-.639 1.035-2.23 2.313-2.341 3.336.203.284.718.324 1.178.658l.448-.09.443.311-1.189.02-1.255-.034c.242-3.799.013-8.013.064-11.846.031-2.316-.084-4.52.351-6.819.228-.84.553-1.959 1.04-2.672l.007-.142z"/></g><g class="D"><path d="M134.575 59.823c.228-.84.553-1.959 1.04-2.672.477.515.546.422.627 1-.207.764-.926 1.435-1.667 1.672zm2.166 7.483c.271.165 1.118 1.031 1.391 1.3a12.94 12.94 0 0 0-1.468 1.669c-.338-.056-.951-.929-1.194-1.234l1.271-1.735z"/></g><path d="M160.872 60.479c.423 1.158.236 4.54.201 5.827l.007 5.65c-.139.337-.127.568-.127.93-.303.056-.154.074-.454-.115.231-.03.127.012.296-.163.101-.828-.902-1.956-1.418-2.666 1.633-2.288 2.007-1.421-.067-4.053.855-1.007 1.493-.825 1.529-2.124l-.069-.034-.176.264-.045-.082c-.573-.993-.606-1.137-1.438-1.962.7-.786 1.462-1.127 1.762-1.471z" class="C"/><path d="M136.698 78.51l1.991-.13c.575-.011 1.142.156 1.679.149l.148-.021 8.135.013.101-.014 2.045.005-.12.027c-.743.161-1.523.188-2.292.279.678.132 1.668.144 2.123.257-1.503.002-8.395-.011-9.562.285-1.233-.418-4.913.243-6.921-.427l.03-.138c.842-.19.502.235 1.361-.273l1.189-.02z" fill="url(#U)"/><path d="M136.141 59.78c.327-1.282.866-.818 1.353-1.638.625.533.952.793 1.464 1.456-.337.331-.613.788-.931.949-.467.34-.769.794-1.121 1.255-.558-.1-1.159-1.014-1.2-1.59.289-.153.274-.144.434-.432z" class="D"/><path d="M136.141 59.78c.327-1.282.866-.818 1.353-1.638.625.533.952.793 1.464 1.456-.337.331-.613.788-.931.949l.184-.357c-.072-.581-.644-.951-1.119-1.37z" class="G"/><g class="D"><path d="M139.225 56.389l1.366 1.354c-.428.457-1.335 1.366-1.633 1.854-.512-.663-.839-.923-1.464-1.456.633-.513 1.18-1.149 1.731-1.752zm-2.274 6.453c.47.599.72.93 1.28 1.437-.311.37-.94 1.073-1.142 1.463l-.488.148c-.946-.438-1.161-.834-.805-1.777.462-.264.823-.83 1.155-1.271z"/></g><path d="M139.088 77.067l1.518-1.56 1.396 1.416c-.424.413-1.205 1.111-1.486 1.584l-.148.021c-.43-.633-.733-.916-1.28-1.462z" class="C"/><g class="D"><path d="M138.728 69.196c.429.496.769.94 1.317 1.309-.393.764-1.011 1.079-1.375 1.858l-1.452-1.477zm-2.619 3.001l.438-.496c.719-.022 1.279.536 1.368 1.224l-.207.42c-.46.208-.524.4-.766.83l-.365.178c-.494-.155-.866-.699-1.221-1.116l.752-1.041z"/></g><g class="C"><path d="M148.755 75.589l1.414 1.482c-.431.381-1.163.957-1.417 1.436l-.101.014a14.29 14.29 0 0 0-1.425-1.552l1.529-1.38zm4.05.191l1.389 1.571c-.469.363-1 .748-1.399 1.18l-.177.013-1.228-1.358 1.415-1.407z"/></g><path d="M136.625 75.582l1.287 1.471c-.41.415-1 .937-1.214 1.456l-.094-.008c-.083-.078-.335-.238-.443-.311-.515-.5-.522-.359-.666-.962.135-.589.719-1.167 1.13-1.646z" class="D"/><g class="C"><path d="M155.37 77.354c.708-.555.863-.728 1.412-1.442l1.466 1.806-1.11.805-.467.072-1.301-1.241zm3.053-22.457l.404.477.749 1.232c-.24.114-.889.598-1.144.779-.523-.731-.831-1.064-1.447-1.707.734-.72.672-.532 1.438-.782z"/></g><path d="M135.996 71.909c.317-.344.656-.485.909-.858.57-.838 1.113-1.487 1.88-2.16.472.482 1.06.985 1.261 1.613-.548-.369-.888-.812-1.317-1.309l-1.509 1.69 1.452 1.477c-.184.354-.587.824-.962.983l.207-.42c-.09-.688-.65-1.247-1.368-1.224l-.438.496z" class="G"/><path d="M136.325 56.725c.382-.503.923-1.34 1.457-1.598.335.079.476.31.714.579-.016.555-1.019 1.242-1.478 1.847-.258-.1-.499-.554-.692-.829z" class="D"/><g class="G"><path d="M134.903 61.259c.177-.52.203-.65.604-1.059l.2.012c.04.575.642 1.49 1.2 1.59-.09.264-1.674 2.106-1.961 2.366.289-.648.784-1.261 1.21-1.837-.359-.378-.784-.899-1.253-1.072zm9.316-11.218c-.047.77-.68 1.747-1.455 1.881l.217-.365-.114-.3c-.375-.137-.454-.081-.863.024l-.456-.224c.91-.515 1.665-.775 2.67-1.014zm-9.55 15.331c.479-.512.333-.678 1.127-1.26-.356.943-.142 1.339.805 1.777l.488-.148a27.93 27.93 0 0 1-1.47 1.698l.067-.128c.483-.951-.205-1.534-1.017-1.94z"/></g><path d="M142.004 51.279c.409-.105.488-.161.863-.024l.114.3-.217.365c-.79.238-.619.785-1.498.981-.396-.257-.304-.124-.497-.514.142-.375.844-.788 1.236-1.109z" class="D"/><g class="C"><path d="M159.847 57.146c.513.951.779 1.901.996 2.956-.551-.433-1.405-1.45-1.62-2.18.107-.521.091-.374.624-.776zm-13.344-7.586c1.031-.07 1.803-.046 2.832-.012-.601.213-1.213.795-1.717 1.217-.36-.351-.769-.825-1.115-1.205z"/></g><path d="M150.173 49.712l2.12.59c-.255.335-.3.401-.645.639-.643-.099-.989-.682-1.475-1.229z" class="G"/><path d="M154.67 56.511c.037.255.032.268.006.526.095.121.177.239.245.377-.069.042-.189.126-.258.144.416.478.998 1.039 1.129 1.633-.083.429-.204.534-.639.839l-.715.77c-.303.282-.831.672-1.17.938-.643-.518-1.396-.902-1.373-1.756-.312-.434-.07-.638.13-1.089.122-.219.536-.554.741-.736l.825-.605a7.94 7.94 0 0 1 1.078-1.04z" class="g"/><g class="C"><path d="M151.896 59.981l1.277-1.057 1.266 1.875c-.303.282-.831.672-1.17.938-.643-.518-1.396-.902-1.373-1.756zm2.767-2.424c.416.478.998 1.039 1.129 1.633-.083.429-.204.534-.639.839-.403-.528-.872-.849-1.08-1.483.11-.614.113-.465.589-.99z"/></g><g class="G"><path d="M149.194 62.482c.645.505.901 1.127 1.258 1.845-.538.596-.86.935-1.463 1.459-.401-.606-1.061-1.106-1.622-1.584.838-.657 1.116-.944 1.827-1.72zm.098-4.097c.439.174 1.166 1.083 1.526 1.483l-1.477 1.558c-.64-.102-1.223-1.026-1.617-1.553zm1.99 2.37c.478.278.877 1.19 1.169 1.721-.475.491-.981 1.063-1.542 1.439-.546-.644-1.102-.943-1.176-1.739.226-.505 1.075-1.058 1.55-1.421z"/></g><g class="D"><path d="M143.15 60.328c.401.511.971 1.067 1.431 1.541l-1.674 1.724-1.508-1.45 1.751-1.815zm4.161-.036c.259.219 1.184 1.388 1.452 1.715l-1.695 1.517c-.286-.452-.999-1.13-1.399-1.537z"/><path d="M145.076 62.653c.41.128 1.201.993 1.557 1.341-.549.51-1.092 1.123-1.605 1.677-.239-.148-1.324-1.259-1.594-1.527zm-2.175 2.073c.37.321 1.086 1.099 1.459 1.479l-1.6 1.745-1.434-1.531 1.575-1.692zm2.395-6.459c.309.251 1.12 1.108 1.442 1.43l-1.627 1.648-1.485-1.474zm-4.482 8.675c.476.591.849.969 1.389 1.507l-1.591 1.648-1.507-1.444zm1.881 2.134c.435.183 1.147 1.02 1.512 1.404-.396.487-1.085 1.171-1.533 1.644-.321-.157-1.18-1.124-1.48-1.444.564-.535.991-1.024 1.502-1.604zm-2.084 2.191c.367.156 1.202 1.068 1.529 1.404-.515.481-1.064 1.12-1.545 1.65-.192-.059-1.183-1.122-1.489-1.399zm.301-8.602c.267.219.99.998 1.476 1.409l-1.622 1.64c-.295-.087-1.195-1.033-1.477-1.307.613-.592 1.067-1.106 1.624-1.742zm.216-4.23c.444.438.939.85 1.414 1.258-.577.548-1.15 1.247-1.677 1.855l-1.431-1.402z"/></g><path d="M147.037 64.683c.412.248 1.126 1.107 1.477 1.507l-1.553 1.533c-.231-.15-1.209-1.2-1.46-1.461l1.537-1.579z" class="G"/><path d="M138.618 73.359l1.456 1.49-1.583 1.675-1.474-1.433c.721-.678.984-.966 1.601-1.732z" class="D"/><path d="M144.942 66.886c.258.165 1.172 1.201 1.434 1.486-.647.563-.974.93-1.529 1.565l-1.615-1.462c.791-.575 1.063-.883 1.71-1.588z" class="C"/><g class="D"><path d="M147.426 56.108c.661.608.854.827 1.381 1.553l-1.542 1.499-1.415-1.472zm-4.172.075c.181.06 1.227 1.118 1.502 1.362-.641.557-.982.974-1.524 1.612-.417-.028-1.192-1.052-1.508-1.413l1.529-1.561z"/></g><path d="M142.659 73.344c.237.159 1.181 1.193 1.437 1.463-.54.53-.947 1.008-1.434 1.579-.366-.198-1.228-1.101-1.571-1.438.541-.444 1.088-1.08 1.568-1.604z" class="C"/><path d="M149.509 54.018l1.443 1.679-1.474 1.329c-.439-.259-1.124-1.079-1.497-1.49z" class="G"/><path d="M138.965 60.732c.279.204 1.085 1.02 1.375 1.3l-1.581 1.748c-.28-.191-1.096-1.028-1.383-1.309z" class="D"/><path d="M144.808 71.292c.246.154 1.154 1.12 1.411 1.382l-1.537 1.566-1.482-1.447z" class="C"/><g class="D"><path d="M138.808 64.981l1.319 1.375-1.519 1.743-1.363-1.351 1.563-1.767zm6.635-10.972c.253.167 1.167 1.09 1.438 1.353l-1.593 1.617-1.444-1.387 1.598-1.583zm-4.084.275c.342.11 1.071.927 1.37 1.233l-1.626 1.659c-.328-.257-1.039-.961-1.375-1.274z"/></g><g class="G"><path d="M149.95 57.749l1.553-1.324c.384.424.918 1.238 1.264 1.731-.205.183-.62.518-.741.736-.226.21-.305.265-.564.434-.59-.199-1.091-1.037-1.512-1.577zm-.895 9.157l1.274 1.827-1.418 1.282-1.452-1.529c.524-.456 1.102-1.076 1.595-1.579zm-2.153 2.196c.381.302 1.047 1.109 1.396 1.506l-1.512 1.484c-.423-.509-.897-.991-1.354-1.471l1.47-1.52z"/></g><path d="M147.65 51.984c.289.226 1.003 1.025 1.291 1.33l-1.557 1.57c-.394-.388-.958-1.079-1.336-1.515.465-.446 1.102-.958 1.603-1.384z" class="D"/><path d="M148.868 71.345c.286.236 1.118 1.25 1.403 1.582l-1.427 1.37c-.321-.281-1.122-1.203-1.45-1.56z" class="C"/><path d="M143.541 52.112c.206.143 1.129 1.032 1.366 1.252l-1.543 1.545-.12-.01c-.457-.267-.884-.866-1.23-1.293z" class="D"/><path d="M146.755 73.352c.167.139 1.192 1.284 1.443 1.542-.482.423-1.003.98-1.46 1.444l-1.435-1.427c.529-.494.975-1.018 1.452-1.559z" class="C"/><g class="G"><path d="M150.855 65.299c.309.095 1.25 1.217 1.535 1.531-.472.333-.984.839-1.415 1.24-.255-.032-1.17-1.215-1.516-1.577zm-6.162 10.244c.285.214 1.149 1.146 1.445 1.452-.474.349-1.03.923-1.466 1.346-.462-.29-1.086-.936-1.497-1.333z"/></g><g class="C"><path d="M150.86 69.414l1.408 1.623-1.392 1.337c-.412-.411-1.011-1.13-1.417-1.584zm1.911 2.304c.297.129 1.22 1.224 1.515 1.549l-1.389 1.295c-.237-.088-1.185-1.283-1.428-1.568zm-1.927 1.933l1.415 1.494-1.506 1.335-1.418-1.5 1.509-1.329zm1.919-6.029c.262.096 1.238 1.302 1.494 1.599l-1.323 1.271c-.248-.162-1.263-1.392-1.51-1.679.445-.305.939-.808 1.339-1.19zm2.052 6.32c.548.491 1.005 1.051 1.485 1.609-.483.359-.954.787-1.409 1.186-.277-.227-1.219-1.231-1.522-1.54l1.446-1.255z"/></g><path d="M145.727 50.075l1.37 1.069-1.65 1.718c-.229-.136-1.067-1.129-1.296-1.389l1.576-1.398z" class="D"/><g class="C"><path d="M158.612 70.409c.5.29 1.178 1.284 1.566 1.789l-1.292 1.015c-.19-.074-1.266-1.374-1.484-1.629l1.21-1.175zm-.062-3.946c.445.192 1.204 1.208 1.562 1.635l-1.273 1.235c-.486-.467-1.014-1.195-1.437-1.742.352-.297.814-.791 1.148-1.129zm-5.05-11.808c.495.869 1.125 1.117 1.17 1.856a7.94 7.94 0 0 0-1.078 1.04l-1.707-1.613c.538-.367 1.107-.864 1.614-1.283zm4.905 3.817c.552.5 1.042 1.08 1.535 1.639l-1.21 1.292c-.357-.317-1.167-1.459-1.494-1.895zm-1.778 9.748c.495.258 1.198 1.142 1.604 1.599l-1.367 1.176c-.193-.175-1.172-1.366-1.402-1.635zm-1.919-6.444c.239.103 1.346 1.326 1.608 1.603l-1.292 1.086-.196.013-1.312-1.622zm1.997 10.393c.404.283 1.151 1.19 1.512 1.6l-1.235 1.147-.083.018c-.354-.15-1.09-1.198-1.377-1.565zm-1.982-6.285c.299.093 1.198 1.318 1.462 1.647l-1.203 1.15c-.277-.114-1.279-1.323-1.531-1.608zm3.981 8.515c.335.285 1.131 1.188 1.466 1.55l-1.282 1.246c-.271-.201-1.216-1.327-1.493-1.644zm-3.29-21.536c.618.452 1.034 1.063 1.5 1.669-.311.313-.779.662-1.232.684l-.242.07c-.444-.16-1.062-.821-1.438-1.177.366-.387.99-.887 1.412-1.246zm-.602 17.131c.224.156 1.166 1.242 1.414 1.52l-1.299 1.232-1.504-1.582zm3.661-7.495c.48.166 1.178 1.197 1.585 1.689-.29.283-.861.719-1.197.989-.489-.21-1.072-1.147-1.456-1.648zm-5.611.945c.229.221 1.103 1.389 1.356 1.718l-1.285 1.234-1.314-1.761 1.242-1.191z"/></g><path d="M151.487 52.425c.27.126 1.093 1.216 1.345 1.525l-1.269 1.156c-.114-.082-1.247-1.356-1.45-1.572.401-.364.94-.766 1.374-1.109z" class="G"/><g class="C"><path d="M156.637 64.126c.204.079 1.2 1.349 1.513 1.687-.338.307-.829.664-1.2.95-.426-.059-1.096-1.022-1.462-1.45l1.148-1.187zm-.193-3.983c.281.101 1.412 1.399 1.696 1.71l-1.185.956-.085.069c-.376-.186-1.058-1.356-1.337-1.78z"/></g><g class="G"><path d="M149.41 50.179c.391.165 1.138 1.076 1.468 1.44l-1.162 1.133-.097.046c-.438-.256-.989-1.06-1.327-1.496zm3.257.839c.735.245 1.937.707 1.797 1.604l-.595.434c-.252.203-.111.158-.432.142-.602-.516-.992-.864-1.163-1.679z"/></g><path d="M139.779 52.834c.383.219.657.31.829.701-.096.443-.947 1.229-1.329 1.68-.354-.077-.686-.606-.972-.945z" class="D"/><path d="M156.227 56.287c.262.189 1.274 1.248 1.562 1.538l-.961.833-.086.019c-.426-.217-.886-1.021-1.087-1.46.079-.541.138-.454.573-.93z" class="C"/><path d="M143.935 111.435l.198 2.177c.092-.608.092-.741.045-1.349.655 0 1.305-.042 1.923.17 1.013.307 4.422.999 4.938 1.575.217 1.515-.229 6.396.245 6.898l.154-6.388.016 6.739 7.84-.037 4.482.065c2.361.118 2.959 3.496.586 3.558l-7.201.022-12.416-.014-9.386-.023c-1.445-.005-3.005.116-4.435-.027-.394-.04-.767-.221-.998-.548-.269-.38-.38-.831-.287-1.29.126-.621.593-1.132 1.139-1.429 1.292-.703 10.911-.266 13.085-.304l.024-6.315c-.017-1.152-.062-2.334.049-3.479z" class="G"/><path d="M143.935 111.435l.198 2.177c.092-.608.092-.741.045-1.349.655 0 1.305-.042 1.923.17-.365 1.438-.447 7.275-.251 8.757-.493.024-1.366.114-1.792-.033-.249-1.813.085-4.674-.172-6.243l.049-3.479z" class="C"/><path d="M240.457 77.299l.325 1.03.037 13.795-.042 9.684c-1.865-.008-3.731-.003-5.596.017l-9.246-.055-1.667-.198.448-.051-.267.094.119-.085c.519.022 1.361.094 1.739-.247-.057-.657-.725-1.203-1.042-1.819-.092-.182-.306-.728-.151-.919 1.444-1.78 3.771-3.863 5.556-5.315l1.219-.157c2.079-.405 3.826-1.634 5.713-2.52.041-.019.409-.66.483-.684a36.02 36.02 0 0 0 2.399-.886c.079-3.094.204-8.623-.028-11.686z" fill="url(#V)"/><path d="M60.57 73.796c2.859-.218 7.173-.077 10.134-.062l20.643.082c2.866.011 7.741.177 10.431.017l.029.155c-2.22.277-5.672-.135-7.987.051-.224.018-1.809.698-2.388.82l-7.067 1.45c-.249-.044-2.088.719-2.101.716-1.388-.215-2.851.864-3.841.952-1.662.147-3.918-.262-5.619.306l-.286-.214c-.178.083-3.071.51-3.163.497-.633-.109-6.141-.296-6.881-.272.002 1.13.1 6.492-.158 7.166l-.139-.159-.04-6.778c.007-1.15.106-3.494-.053-4.549-.415-.2-1.03-.164-1.515-.179z" fill="url(#W)"/><g fill="#99bafd"><path d="M69.356 78.566l.454-.52c1.021-.392 1.854-.805 2.709.024-.178.083-3.071.51-3.163.497zm142.185-5.162l29.247-.062-.006 4.987-.325-1.03c.029-.591.045-.853-.025-1.446-1.592-.577-5.383-.969-7.147-.993-1.049-.014-2.385.092-3.486.071-1.431-.029-2.669-1.288-3.851-1.347-3.945-.196-7.796.182-11.713.134-.621-.008-2.048.035-2.566-.046z"/></g><path d="M106.422 55.693c.245.052.765.188.984.167.328.425.665.91 1.071 1.247-1-.01-3.363-.35-3.348 1.143.029 2.815.83 10.167.019 12.604l-.214.163c.266-1.551.203-3.225.216-4.8.031-3.513-.215-6.952-.15-10.469.439.014 1.025.076 1.421-.056z" class="e"/><path d="M215.669 107.166l-.003-.079c-.103-3.497 1.009-5.257 4.683-5.274-2.222.614-4.479 3.077-4.68 5.353z" class="I"/><path d="M160.499 72.771c.3.189.151.171.454.115 0-.362-.012-.593.127-.93l-.001 2.932c-.335.669.208 1.394-.202 2.019-.289.048-.284.06-.584-.013 1.119-.835-.261-2.147-.901-3.117z" class="C"/><path d="M62.099 105.303c-.137-1.032-.152-1.533-.04-2.567l.121.682c.492.285 1.246.449 1.666.964-.271.851-.951.768-1.746.922z" class="i"/><path d="M160.292 76.894c.3.073.296.061.584.013.41-.625-.133-1.35.202-2.019l.032 3.67c-.407.025-.775-.021-1.181-.056-.095-.5-.391-.243-.36-1.061.281-.309.356-.344.722-.547z" class="X"/><path d="M177.095 69.572c2.161-.118 2.499 1.327 2.826 3.181.393 2.231.495 4.642.633 6.908l.606 11.037.536 7.343c.482-3.575.949-17.636 2.442-19.878.327-.492.757-.905 1.365-.999a1.72 1.72 0 0 1 1.274.319c.779.574 1.027 1.844 1.17 2.747.863 5.391.965 10.806 1.888 16.194.812-2.798.734-6.616 1.225-9.523.262-1.55.085-4.205 1.707-5.031 2.386-.405 3.309 7.811 3.951 9.766 1.055-2.429 2.014-6.48 4.289-2.283.416.769 1.21.008 1.825.833-.003.592.06.367-.217.866-1.696 1.223-2.284-.379-3.152-1.052-1.096.924-1.187 4.901-3.861 3.467-1.179-.633-1.973-5.068-2.275-6.371-.075 1.041-.195 2.128-.294 3.172-.268 2.214-.283 5.111-1.208 7.142-.338.741-.937 1.507-1.742 1.769-.357.116-.743.045-1.062-.142-2.824-1.66-2.432-13.232-3.185-16.503l-.034-.142c-.658 4.326-.863 14.955-2.64 18.22-.322.594-.861 1.092-1.528 1.263-.439.114-.913.062-1.293-.196-2.263-1.533-1.822-19.981-2.531-23.658l-.034-.161c-.621 3.378-.729 14.688-2.952 16.619-.292.252-.647.413-1.04.358-.574-.082-1.037-.532-1.358-.987-.817-1.159-2.339-5.342-2.011-6.749.111-.479.306-.665.699-.925 1.831-.19 2.139 3.208 2.533 4.669.42-5.99 1.32-12.278 1.838-18.29.129-1.49.393-2.103 1.61-2.983z" fill="url(#X)"/><path d="M117.014 69.58c1.562-.163 2.355.634 2.622 2.104.447 2.457.589 5.017.822 7.51l1.226 12.004c.302-1.329.699-5.697 2.64-4.833.233.215.434.454.49.815.262 1.676-1.008 4.85-1.743 6.376-.213.409-.929 1.164-1.41 1.171-2.894.04-2.817-5.59-3.037-7.423-.409-3.414-.418-6.922-.97-10.25-.507 3.898-.723 21.972-2.164 24.048-.3.432-.816.713-1.333.79-.429.064-.786-.088-1.116-.352-2.493-1.999-3.053-16.423-3.428-20.179-.566 3.635-.889 14.31-2.555 16.808-.306.459-.764.929-1.335 1.007-.423.057-.815-.114-1.148-.361-1.753-1.298-1.828-4.782-2.104-6.787-.273-1.598-.328-3.389-.557-5.067-.424 1.683-.83 4.977-1.894 6.224-1.845 2.163-3.708-2.051-4.28-3.18l-.059.09c-.884 1.338-.999 1.337-2.66 1.176-.487-.285-.64-.501-.527-1.024.381-.354 1.497-.57 1.557-.677 2.428-4.302 3.157-.904 4.554 2.111.591-2.408 1.705-8.604 3.414-9.959 1.839-.396 2.127 5.08 2.268 6.302.329 2.846.535 5.604 1.189 8.41 1.212-5.774.999-12.096 2.312-17.827.452-1.974 3.262-1.821 3.816.616.947 4.162.882 8.57 1.369 12.812.237 2 .305 4.284.802 6.194.508-8.243.795-16.626 1.672-24.85.159-1.495.401-2.792 1.569-3.797z" fill="url(#Y)"/><path d="M221.407 89.095c1.165-.026 5.288-.443 5.249 1.198-.271.436-.34.484-.75.798-1.165.021-5.342.496-5.358-1.058.234-.525.409-.611.86-.939z" class="Y"/><path d="M76.369 89.06c1.3-.047 5.614-.307 3.149 2.182-1.266.042-5.7.305-3.149-2.182z" class="J"/><path d="M216.769 89.049c1.657-.079 3.52.043 2.098 2.226-1.532.024-3.895-.056-2.098-2.226z" class="Y"/><path d="M64.785 103.382c.45-.018.681-.075 1.065.15.34.402.525.912.52 1.439-.01.693-.078 1.407-.581 1.891-.222.03-.534.045-.765.062-.831-.586-.725-2.773-.238-3.541z" class="i"/><path d="M204.025 88.996a1.33 1.33 0 0 1 1.233 2.355 1.33 1.33 0 0 1-1.345-.036c-.41-.255-.649-.711-.625-1.193a1.33 1.33 0 0 1 .737-1.127z" class="Y"/><g class="J"><path d="M86.341 88.915c1.655-.019 2.917.791 1.546 2.368l-.285.023c-1.861.136-2.636-.973-1.26-2.392zm4.175.054c.676-.264 1.438.069 1.704.744a1.32 1.32 0 0 1-.737 1.707 1.32 1.32 0 0 1-1.713-.74c-.268-.678.067-1.445.746-1.71z"/></g><path d="M208.371 88.921c1.699-.025 2.722 1.194 1.247 2.41-1.947.042-2.896-.916-1.247-2.41z" class="Y"/><path d="M82.141 89.061c1.662-.097 2.983.415 1.676 2.208-1.691.091-3.231-.422-1.676-2.208z" class="J"/><path d="M212.552 89.06c1.739-.213 2.862.481 1.645 2.19-1.652.072-3.149-.399-1.645-2.19z" class="Y"/><path d="M72.328 89.023c1.688-.041 2.723.576 1.527 2.256-1.768.114-3.065-.653-1.527-2.256z" class="J"/><g class="i"><path d="M74.591 103.687c.788-.022 1.533-.194 2.068.434.032.448-.042.508-.271.922-.771.028-1.524.195-2.083-.381-.018-.59-.019-.411.287-.975zm-6.818-.063c.294-.159.652-.141.928.046a.9.9 0 0 1 .388.845c-.038.332-.259.615-.571.734-.441.168-.936-.035-1.133-.463s-.027-.936.388-1.161zm3.254-.092c.725.066.98.088 1.337.758-.096.532-.063.373-.488.813-.696-.025-1.333.039-1.593-.702.226-.576.207-.438.745-.869z"/></g><path d="M256.786 29.135c.861.112 1.167.177 1.992.445l3.038 1.238c1.381.645 1.752.764 2.733 1.972.889 1.361.687 1.825 1.167 3.14-.155.728-.231.951-.519 1.64l-.308.17c.703 1.877 3.309 1.83 4.126 3.066l-.116 2.88-.289 1.642c-.391 1.815-1.396 3.84-2.647 5.218l-.809.761c-1.022 1.003-1.964 1.105-3.388 1.088l-2.511-.065c-1.721 2.049-5.448 3.549-7.551 1.296-1.148-.383-1.77-.673-2.862-1.206-1.702-.865-2.37-2.07-2.66-3.893-.688-2.035.831-6.688 1.711-8.652.949-2.611 2.941-6.442 4.72-8.618 1.102-1.349 2.439-2.015 4.17-2.122z" class="B"/><path d="M256.786 29.135c.861.112 1.167.177 1.992.445l3.038 1.238c-4.482 2.246-9.754 12.373-10.217 17.085a9.13 9.13 0 0 0 .108 5.722c-1.148-.383-1.77-.673-2.862-1.206-1.702-.865-2.37-2.07-2.66-3.893-.688-2.035.831-6.688 1.711-8.652.949-2.611 2.941-6.442 4.72-8.618 1.102-1.349 2.439-2.015 4.17-2.122z" fill="url(#Z)"/><path d="M256.786 29.135c.861.112 1.167.177 1.992.445-5.87 3.015-10.89 15.369-10.138 21.819a18.36 18.36 0 0 1 .205 1.021c-1.702-.865-2.37-2.07-2.66-3.893-.688-2.035.831-6.688 1.711-8.652.949-2.611 2.941-6.442 4.72-8.618 1.102-1.349 2.439-2.015 4.17-2.122z" class="B"/><path d="M247.896 39.875c.949-2.611 2.941-6.442 4.72-8.618 1.102-1.349 2.439-2.015 4.17-2.122-.617 1.129-2.062 1.216-2.946 2.108-2.124 2.145-3.39 4.947-4.827 7.56-.322.587-.431.928-1.118 1.072z" class="H"/><path d="M246.185 48.527l.328.118c.617 1.186.974 1.946 2.127 2.755l.205 1.021c-1.702-.865-2.37-2.07-2.66-3.893z" class="M"/><path d="M259.189 46.542c.57-2.325 3.246-8.116 5.701-8.801.703 1.877 3.309 1.83 4.126 3.066-.042.79-.037 2.177-.116 2.88-.089.433-.185 1.322-.289 1.642-.391 1.815-1.396 3.84-2.647 5.218l-.809.761c-1.022 1.003-1.964 1.105-3.388 1.088l-2.511-.065c-1.049-.759-.766-2.19-.65-3.308l.16-1.13z" fill="url(#a)"/><path d="M264.461 45.558c.168.098.832.503.964.493 1.178-.093 1.942-.729 3.188-.722-.391 1.815-1.396 3.84-2.647 5.218l-.809.761c-1.021-.068-1.471-.083-1.969-1.028l.079-1.056.221-.974.56-1.617z" class="B"/><path d="M264.048 46.632c2.319.935-.369 3.273 1.917 3.915l-.809.761c-1.021-.068-1.471-.083-1.969-1.028l.079-1.056.221-.974z" class="F"/><path d="M258.608 49.022c2.168 1.341 3.353.507 4.581 1.257.498.945.948.96 1.969 1.028-1.022 1.003-1.964 1.105-3.388 1.088l-2.511-.065c-1.049-.759-.766-2.19-.65-3.308z" class="a"/><path d="M266.063 42.901c1.393-1.361 2.175-.879 2.839.786l-.289 1.642c-1.245-.006-2.01.629-3.187.722-.132.011-.795-.395-.964-.493.204-.5.5-.991.765-1.464.113-.409.555-.892.836-1.193z" class="H"/><path d="M266.063 42.901c.466.263 1.003.269 1.534.329.047.431-1.194 1.976-1.649 2.115-.533-.455-.245-.884-.721-1.251.113-.409.555-.892.836-1.193z" class="K"/><path d="M259.189 46.542l.091.693c1.63 1.03 3.091.405 4.209 1.013l-.221.974-.079 1.056c-1.228-.75-2.413.084-4.581-1.257l.16-1.13z" class="e"/><path d="M258.768 47.891l.182.554c1.831.213 2.058 1.293 4.318.777l-.079 1.056c-1.228-.75-2.413.084-4.581-1.257z" class="f"/><path d="M264.549 32.791c.889 1.361.687 1.825 1.167 3.14-.155.728-.231.951-.519 1.64l-.308.17c-2.455.686-5.131 6.476-5.701 8.801l-.422 1.349-.16 1.13c-.116 1.118-.398 2.549.65 3.308-1.721 2.049-5.448 3.549-7.551 1.296a9.13 9.13 0 0 1-.108-5.722c.215.265-.299 3.367-.042 4.022.086.609.214 1.536.772 1.927 1.406.988 4.784.576 5.776-.879l-.806-.585c-.479-.93-.728-1.945-.526-2.977.771-3.947 3.686-10.533 6.896-12.931.668-1.546.899-2.007.88-3.691z" class="F"/><path d="M277.84 139.465l.354-.216-.107-.304c.634-.05.634-.131 1.107.188l.047-.055-.201-.111.207.145c-.521.429-.53.299-.674.848l.183.349c.624.074.538-.032.929.328.923-.333.233-.711 1.55-.946l-.281 2.985c-1.39 4.027-6.327 2.699-9.839 2.834l-.264-.03-19.271.112c-2.421-.009-8.675-.253-10.759.008-5.171.171-10.98.034-16.167-.005l-.702-.161c.145-.383 1.255-1.082 1.701-1.431 1.572-.214 5.036-.102 5.789-1.688-.029-.447-.025-.519-.318-.852 7.165.074 14.742-.264 21.819-.074 3.11.14 6.829-.002 9.998-.005 4.072.125 8.147.158 12.221.097 1.219-.631 1.566-.975 1.885-2.319.35.175.416.213.794.302z" fill="url(#b)"/><path d="M279.686 140.637c.923-.333.233-.711 1.55-.946l-.281 2.985c-.62-.858-1.354-.275-1.652-1.374.101-.382.107-.392.384-.665z" class="D"/><path d="M270.851 145.48c-.166-.576-.209-.674-.044-1.262l.236-.157.324.104c.161.664-.46.878-.252 1.344z" class="X"/><path d="M223.54 14.493l2.313-2.899c4.011-4.811 9.598-7.604 15.816-8.283a26.52 26.52 0 0 1 19.512 5.768c4.084 3.303 6.062 6.826 8.026 11.559-1.093.01-2.805.053-3.864.349l-.149-.053c-1.463-4.83-4.444-8.859-8.849-11.349-2.099-1.109-3.062-1.471-5.342-2.189-7.603-1.731-15.857.087-21.236 6.066-.394.439-1.027 1.293-1.452 1.635l-1.611 2.473c-.237.498-.492 1.065-.753 1.544l-1.244-.944-.154-.17-1.767-.684-.609-.317c.442-.74.945-1.732 1.364-2.506z" fill="url(#c)"/><path d="M224.552 18.001c.911-1.109 2.755-4.199 3.551-5.506 1.63-2.676 2.512-4.173 5.457-5.664 2.634-1.334 5.336-2.466 8.339-2.343.639.032 1.389-.135 2.045.055-.119.117-.245.216-.381.314l.111.013.119.185-1.061.099c.283.316 9.705-.763 13.611 4.432-2.099-1.109-3.062-1.471-5.342-2.189-7.603-1.731-15.857.087-21.236 6.066-.394.439-1.027 1.293-1.452 1.635l-1.611 2.473c-.237.498-.492 1.065-.753 1.544l-1.244-.944z" class="d"/><path d="M233.023 8.659c2.701-2.847 14.547-4.182 17.947-1.762l.031.499c-7.603-1.731-15.857.087-21.236 6.066-.394.439-1.027 1.293-1.452 1.635-.078-.426.259-.813.376-1.18.76-2.37 2.924-3.394 4.254-5.15z" fill="url(#d)"/><path d="M226.702 17.571c-.079-2.03.46-2.897 1.63-4.504 1.264-1.738 2.729-3.441 4.69-4.408l-.079.108c-1.33 1.757-3.494 2.78-4.254 5.15-.117.368-.454.754-.376 1.18l-1.611 2.473z" class="f"/><path d="M269.206 20.638c1.563 1.673 2.011 9.359 1.865 11.722-.12 1.966-.768 7.04-2.054 8.446-.817-1.235-3.423-1.189-4.126-3.066l.308-.17c.287-.689.363-.911.519-1.64.413-1.235.538-2.103.68-3.365.069-1.274.063-2.683.082-3.969-.031-2.222-1.433-6.872-1.286-7.663l.149.053c1.059-.295 2.771-.339 3.864-.349z" class="B"/><path d="M265.192 20.935l.149.053c.781 1.194 1.471 3.79 1.582 5.204-.031.806.048 1.793-.445 2.406-.031-2.222-1.433-6.872-1.286-7.663z" class="H"/><path d="M266.924 26.192c.218 1.177.368 5.381-.146 6.423-.018-.387.041-1.395-.073-1.619l-.079 1.756-.132.063-.097-.247.082-3.969c.494-.613.415-1.6.445-2.406z" class="W"/></g></svg><defs ><linearGradient id="f" gradientUnits="userSpaceOnUse"/></defs></svg>