<svg xmlns="http://www.w3.org/2000/svg" width="48" height="48" xmlns:v="https://vecta.io/nano"><path fill="#80cbc4" d="M6 10a4 4 0 0 1 4-4h28a4 4 0 0 1 4 4v28a4 4 0 0 1-4 4H10a4 4 0 0 1-4-4V10z"/><path fill="#004d40" d="M9,9v30h30V9H9z"/><path d="M20.904 27.984h-4.012l-.78 2.827H13L17.552 17h2.691l4.582 13.81h-3.141l-.78-2.826zm-3.372-2.324h2.721l-1.361-4.923-1.36 4.923zm13.772 4.211c-.577.752-1.352 1.129-2.322 1.129-.978 0-1.719-.324-2.224-.972S26 28.436 26 27.196V20h2.785v7.263c.013.999.358 1.499 1.033 1.499.636 0 1.096-.266 1.378-.797V20H34v10.81h-2.617l-.079-.939z" fill="#80cbc4"/></svg>