<svg xmlns="http://www.w3.org/2000/svg" width="48" height="48" xmlns:v="https://vecta.io/nano"><path fill="#e28b20" d="M37 42H10a5 5 0 0 1-5-5V10a5 5 0 0 1 5-5h27a5 5 0 0 1 5 5v27a5 5 0 0 1-5 5z"/><path fill="#ed5d40" d="M37 42H24V5h13a5 5 0 0 1 5 5v27a5 5 0 0 1-5 5z"/><path fill="#f5f5f5" d="M39.81 6.11l-.01.01-.07.06c.7.68 1.26 1.5 1.65 2.41l.03-.03.05-.05a7.4 7.4 0 0 0-1.65-2.4zM20.35 16.78c-2.04.27-3.98.27-6.11 2.4-3.5 3.5-3.94 8.75.44 13.45 3.09 2.88 6.41 3.68 9.32 2.9V22.35l-1.63-1.63 1.37-1.37.26.26v-7.38c-1.02 1.68-1.13 4.24-3.65 4.55zm3.57 10.4l-1.38 1.38-4.05-4.06 1.37-1.37 4.06 4.05z"/><path fill="#e0e0e0" d="M36.55 20.68c0 4.16-5.55 2.5-6.01 6.29-.28 2.04-.28 3.98-2.4 6.11-1.2 1.2-2.61 2.04-4.14 2.45V22.35l2.42 2.43 1.38-1.38-3.8-3.79v-7.38c.51-.85 1.25-1.47 2.64-1.47 1.7 0-.92 3.98 2.06 5.08.23.08.49.01.67-.15l10.568-9.773c.29.204.696.539 1.07 1.044s.573.981.685 1.317L31.66 18c-.18.17-.25.44-.16.67 1.13 2.9 5.05.32 5.05 2.01z"/></svg>