<svg xmlns="http://www.w3.org/2000/svg" width="48" height="48" baseProfile="basic" xmlns:v="https://vecta.io/nano"><circle cx="24" cy="24" r="20" fill="#f1001a"/><path fill="#fff" d="M22.862 29.653c-1.59 0-2.562-.95-2.562-2.253 0-1.811 1.833-3.38 3.866-3.821l-4.727-11.641h8.239l1.502 2.916h-5.765l3.446 8.394c.287.663.464 1.392.464 2.098-.023 2.496-2.497 4.307-4.463 4.307h0zm8.552-11.637l3.601 6.173a8.89 8.89 0 0 1 1.127 4.042c0 4.503-3.578 7.754-8.637 7.754H20.59c-5.08 0-8.637-3.251-8.637-7.754.044-1.406.42-2.79 1.104-4.042l3.601-6.173h3.38l-4.219 7.271a6.3 6.3 0 0 0-.839 2.878c0 2.878 1.966 4.899 5.699 4.899h6.715c3.733 0 5.699-2.043 5.699-4.899a5.81 5.81 0 0 0-.839-2.878l-4.197-7.271h3.357z"/></svg>