<svg xmlns="http://www.w3.org/2000/svg" width="300" height="300" xmlns:v="https://vecta.io/nano"><svg><defs><clipPath id="A"><path transform="scale(.14648)" fill="none" d="M0 0h2048v2048H0z"/></clipPath></defs><g clip-path="url(#A)"><path d="M0 0h300v300H0z" fill="#3bb3c2"/><path d="M68.945 93.521c4.1-.331 11.239.638 15.226 1.634a56.5 56.5 0 0 1 34.958 25.973c7.622 12.822 9.867 28.137 6.246 42.607a56.52 56.52 0 0 1-23.072 33.018c-1.603 1.09-3.422 2.168-5.124 3.085-1.239.668-2.54 1.178-3.758 1.916l-.144.089c3.434-.154 7.403-.067 10.863-.067h18.632l56.973.001 18.28-.015c2.449 0 6.315.164 8.648.016-4.578-2.278-7.931-4.042-11.994-7.228-11.94-9.299-19.644-23.005-21.379-38.041a56.62 56.62 0 0 1 11.549-41.231c9.369-12.033 23.209-19.762 38.369-21.429 15.108-1.757 29.817 2.791 41.691 12.178a51.04 51.04 0 0 1 2.039 1.708 56.4 56.4 0 0 1 18.877 38.929 56.48 56.48 0 0 1-14.216 40.951 56.72 56.72 0 0 1-39.105 18.809c-4.291.236-8.222.079-12.502.072l-20.851-.003-66.276.001-44.037-.001-10.876.013c-6.692.056-11.402.233-18.133-1.022a56.36 56.36 0 0 1-26.984-13.415c-11.22-10.033-17.95-24.145-18.685-39.179a56.35 56.35 0 0 1 14.467-40.767c10.713-11.843 24.497-17.804 40.319-18.603z" fill="#fefefe"/><path d="M228.212 98.206c28.578-.673 52.299 21.928 53.01 50.505s-21.86 52.329-50.436 53.077c-28.629.749-52.434-21.873-53.145-50.502s21.94-52.406 50.571-53.08z" fill="#3bb3c2"/><path d="M227.256 101.001c3.006-.195 7.437.118 10.389.677 2.689.509 5.512 1.344 8.231 1.806-2.732 8.003-4.953 16.76-7.61 24.832-.962 2.925-1.797 6.328-2.858 9.176 5.47 2.761 7.594 7.532 7.811 13.399 1.648.419 3.35.813 5.011 1.178l29.607 6.788c-.976 2.892-1.723 6.028-2.815 8.877-2.08 5.424-5.29 10.721-9.214 15.006l-4.705 5.112c-2.086-2.448-4.613-4.954-6.798-7.356l-17.418-18.741c-1.755 1.214-3.546 1.809-5.621 2.18-3.751.557-6.691-.283-9.923-2.136-1.818 2.172-4.307 4.712-6.264 6.812l-11.417 12.236c-2.102 2.254-4.452 4.68-6.457 6.998-4.017-4.437-7.459-7.685-10.51-12.973-3.103-5.377-4.412-10.137-6.227-15.986l34.635-7.969c.164-6.209 2.228-10.32 7.775-13.407-1.028-2.615-2.549-8.2-3.437-11.102l-7.006-22.865c5.842-1.378 8.76-2.203 14.821-2.54z" fill="#fefefe"/><g fill="#3bb3c2"><path d="M227.875 140.844a9.32 9.32 0 0 1 10.506 7.993 9.32 9.32 0 0 1-8.033 10.477 9.32 9.32 0 0 1-10.436-8.002 9.32 9.32 0 0 1 7.963-10.467zM69.282 98.21c28.629-.709 52.403 21.946 53.073 50.576s-22.017 52.373-50.648 53.004c-28.576.63-52.263-22.005-52.931-50.58s21.933-52.292 50.507-53z"/></g><path d="M61.329 101.534c.456.439 2.622 10.452 3.014 12.154l5.169 22.46c1.961.048 3.417.139 5.306.77a13.84 13.84 0 0 1 8.095 7.075c2.669-1.073 7.032-2.166 9.929-3.108 7.879-2.562 16.262-4.751 24.083-7.399.581 2.826 1.523 6.248 1.979 9.034.727 4.441.768 10.68.057 15.105-.464 2.884-1.431 6.357-2.012 9.322-3.364-1.194-7.682-2.391-11.148-3.45l-22.961-7.03c-2.454 5.249-7.678 7.879-13.327 7.762l-3.856 16.913c-.538 1.676-1.344 5.625-1.754 7.46-.723 3.236-1.771 7.131-2.33 10.346-2.89-1.094-6.095-1.777-8.962-2.902-5.671-2.227-10.984-5.462-15.426-9.639l-4.61-4.239c3.011-2.609 6.228-5.745 9.178-8.496l16.887-15.724c-3.108-5.208-3.076-10.258-.005-15.465l-26.061-24.285c2.237-1.867 4.351-4.123 6.534-5.931 3.74-3.099 8.638-5.98 13.153-7.77 2.78-1.102 6.183-1.864 9.069-2.964z" fill="#fefefe"/><path d="M68.924 141.001a9.32 9.32 0 1 1 2.782 18.43 9.32 9.32 0 0 1-2.782-18.43z" fill="#3bb3c2"/></g></svg></svg>