<svg xmlns="http://www.w3.org/2000/svg" width="300" height="300" xmlns:v="https://vecta.io/nano"><svg><defs><clipPath id="A"><path transform="scale(.14648)" fill="none" d="M0 0h2048v2048H0z"/></clipPath><linearGradient x1="228.103" y1="215.801" x2="227.843" y2="173.114" id="B" href="#Q"><stop offset="0" stop-color="#8bf48c"/><stop offset="1" stop-color="#daff9a"/></linearGradient><linearGradient x1="73.508" y1="215.811" x2="71.655" y2="173.404" id="C" href="#Q"><stop offset="0" stop-color="#89f48a"/><stop offset="1" stop-color="#dbff9c"/></linearGradient><linearGradient x1="146.706" y1="214.966" x2="144.178" y2="171.936" id="D" href="#Q"><stop offset="0" stop-color="#8af588"/><stop offset="1" stop-color="#dfffa0"/></linearGradient><linearGradient x1="73.57" y1="214.753" x2="75.188" y2="229.557" id="E" href="#Q"><stop offset="0" stop-color="#96e7c3"/><stop offset="1" stop-color="#81baff"/></linearGradient><linearGradient x1="144.887" y1="214.604" x2="147.062" y2="232.364" id="F" href="#Q"><stop offset="0" stop-color="#94e8c8"/><stop offset="1" stop-color="#7eaffc"/></linearGradient><linearGradient x1="76.717" y1="241.551" x2="72.411" y2="229.267" id="G" href="#Q"><stop offset="0" stop-color="#6c90e2"/><stop offset="1" stop-color="#7db6f9"/></linearGradient><linearGradient x1="147.347" y1="248.492" x2="145.244" y2="232.269" id="H" href="#Q"><stop offset="0" stop-color="#5580bb"/><stop offset="1" stop-color="#7aaff0"/></linearGradient><linearGradient x1="230.788" y1="251.596" x2="229.124" y2="242.051" id="I" href="#Q"><stop offset="0" stop-color="#4c6fb1"/><stop offset="1" stop-color="#5e8cd0"/></linearGradient><linearGradient x1="71.852" y1="256.646" x2="78.256" y2="252.318" id="J" href="#Q"><stop offset="0" stop-color="#374a74"/><stop offset="1" stop-color="#5b75b3"/></linearGradient><linearGradient x1="45.451" y1="214.025" x2="49.888" y2="220.825" id="K" href="#Q"><stop offset="0" stop-color="#90e5bb"/><stop offset="1" stop-color="#97c2d0"/></linearGradient><linearGradient x1="149.93" y1="175.923" x2="149.922" y2="121.72" id="L" href="#Q"><stop offset="0" stop-color="#ffffd8"/><stop offset="1" stop-color="#dadfff"/></linearGradient><linearGradient x1="226.176" y1="64.88" x2="228.114" y2="123.98" id="M" href="#Q"><stop offset="0" stop-color="#71aede"/><stop offset="1" stop-color="#afc1ff"/></linearGradient><linearGradient x1="224.675" y1="45.797" x2="233.53" y2="63.482" id="N" href="#Q"><stop offset="0" stop-color="#a4d382"/><stop offset="1" stop-color="#89d1b9"/></linearGradient><linearGradient x1="143.962" y1="49.46" x2="147.552" y2="60.442" id="O" href="#Q"><stop offset="0" stop-color="#9dcf92"/><stop offset="1" stop-color="#92cbac"/></linearGradient></defs><g clip-path="url(#A)"><g fill="#1c1f2c"><path d="M0 0h300v145.316 17.223V300H0V163.652v-19.387z"/><path d="M53.503 158.704l2.192-.045c2.017 3.297 3.951 9.012 5.205 12.68.9.939 1.091 3.164 2.161 2.994 4.818-.768 9.437-1.099 14.337-.823.953.054 3.713 1.197 4.001 1.143.247-.916.297-1.583.928-2.24.874-4.002 2.27-9.672 3.69-13.497.527 2.433 3.035 9.504 3.995 12.133 1.005 1.241.822 2.843 1.552 3.747 1.07-.429 1.627-1.042 2.748-1.591 3.244-1.589 5.453.28 8.493 1.266.413.135.505.258.796.593l.306.048c.473-.719.165-1.129.849-1.729.227-.488.893-3.926 1.019-4.563l1.958-9.795c.705 1.211 1.427 2.666 2.117 3.923.918 1.671 2.299 3.957 3.034 5.697.161.286.978 1.748 1.128 1.884.735.488 1.404 1.285 1.694 2.111l-.264-.508c.523 1.862 1.095 2.616 2.531 3.898l.236-.396c.472.224 1.147-.226 2.034-.356.627.331 2.179.34 2.945.4.755.057 3.652-6.278 4.688-7.091.077-.06.158-.116.237-.174 1.662-2.483 3.984-6.712 5.481-9.375.873 2.719 1.986 9.082 2.605 12.157.756.835.493 1.809 1.016 2.887l-.026-.122c.389.363.168.265.673.331.859-.27 2.429-1.474 3.054-2.171-.48.003-.881.047-1.328-.116 1.033-.458 10.361-.164 11.33.324-.573.311-1.027-.319-1.304.081.079.851 1.444 1.847 2.128 2.451l-.229-.189.335-.226c.012-.835.064-1.693.604-2.369.252-1.62 1.938-11.918 2.558-12.633.122.144 2.786 12.267 3.142 13.655.123.223.366.844.636.853 1.242.034 2.339-.458 3.64-.618 3.51-.432 7.128-.567 10.509.655.59.214 2.004.864 2.509.771.27-.328.41-.94.623-1.39l2.205-13.79 12.835.483c1.679 4.251 2.735 8.826 4.286 13.044.543.306.65.801.81 1.362l.086-.133c1.777.545 2.741-2.449 6.015-2.008 2.295.309 4.204.735 6.267 2.104.25.167.185.614.719.706.697-.832.294-1.992 1.277-2.899a127.21 127.21 0 0 0 2.203-7.118c.331-1.15.844-3.177 1.26-4.22.661 3.24 1.503 6.461 2.212 9.693.144.65.29 1.456.476 2.087.592.514.79 1.803.889 2.578.841-.431 3.032-1.894 3.785-1.976 3.233-.4 6.699.324 9.92.016 2.66-.255 3.709.249 6.217.907.294.078.517.365.747.571.202-.8.261-1.992.773-2.575.384-2.353.823-5.512 1.537-7.748.233 2.279 1.288 6.239 1.957 8.505.378.684 1.068 1.324 1.198 1.854.245.028 1.493-.674 2.054-.904 2.628-1.077 5.14-.523 7.875-.3 1.02.082 2.54 1.083 3.341.787l.356-.731c.009-.82.291-2.774.393-3.656.3-2.483.565-4.969.794-7.459 4.69-.097 9.628-.018 14.348-.018l27.097.009V300H0V163.652l36.294.034c.241 1.458 1.488 9.013 1.885 9.992.331.801.357.756 1.141 1.208.325-.021 2.15-.51 2.615-.643 3.464-.986 6.437-.335 9.983.182.103-.45.081-.549.342-.942.589-4.787.729-9.933 1.242-14.779z"/></g><path d="M216.719 172.679c.592.514.79 1.803.889 2.578.841-.431 3.032-1.894 3.785-1.976 3.233-.4 6.699.324 9.92.016 2.66-.255 3.709.249 6.217.907.294.078.517.365.747.571.202-.8.261-1.992.773-2.575-1.563 8.467-2.837 16.985-3.825 25.538l-1.058 9.606c-.149 1.506-.278 3.801-.495 5.227-.23 2.547-.341 5.777-.655 8.186l-.278-.101c.053-.672.41-3.384.297-3.829-.987-.921-2.448.286-3.637-.27-1.103-.514-4.033.76-4.685-.013l-.081.063c.154 1.141.899 4.052.378 4.929-.454-2.786-.908-6.403-1.2-9.22l-3.864-23.744c-.996-5.376-2.224-10.591-3.23-15.894z" fill="url(#B)"/><path d="M223.813 212.316l.051-.917.105.041c.248 1.195.464 3.164.5 4.39.599.006.646.016 1.175-.189 1.689-.655 5.777-.756 7.333.214.41-.579.286-3.398.533-4.551l.108.06.054 1.207-.655 8.186-.278-.101.297-3.829c-.987-.921-2.448.286-3.637-.27-1.103-.514-4.033.76-4.685-.013l-.081.063c.154 1.141.899 4.052.378 4.929l-1.2-9.22z" fill="#97daa4"/><path d="M60.899 171.338c.9.939 1.091 3.164 2.161 2.994 4.818-.768 9.437-1.099 14.337-.823.953.054 3.713 1.197 4.001 1.143.247-.916.297-1.583.928-2.24-1.756 7.488-2.922 15.104-3.487 22.775l-.63 9.699c-.097 1.668-.178 4.211-.407 5.807-.027-.584-.047-1.097-.118-1.679l.067.278-.198.05c-.044.914-.15 4.302-.287 5.014-.711.494-3.49.542-4.455.839-.84.261-1.765.999-2.615.771-.24-1.264-.236-3.185-.532-4.257l-.27-.151c-.174-.485-.497-2.969-.596-3.573-.506-3.108-.806-6.419-1.359-9.508-1.58-9.18-3.764-18.246-6.54-27.139z" fill="url(#C)"/><path d="M136.198 171.193c.756.835.493 1.809 1.016 2.887l-.026-.122c.389.363.168.265.673.331.859-.27 2.429-1.474 3.054-2.171-.48.003-.881.047-1.328-.116 1.033-.458 10.361-.164 11.33.324-.573.311-1.027-.319-1.304.081.079.851 1.444 1.847 2.128 2.451l-.229-.189.335-.226c.012-.835.064-1.693.604-2.369-1.666 11.663-3.22 23.164-3.592 34.964-.029.936-.089 2.985-.267 3.851l-.164-.29c-.398.538-.168 2.966-.404 4.05l-.218-.034-.516-.075c-2.002-.278-3.469.816-4.877.296-.235-1.321-.36-2.692-.505-4.028-.131.442-.103.573-.125 1.036-.229-1.167-.396-3.328-.522-4.56l-.949-8.811-1.688-12.954c-.71-4.721-1.613-9.609-2.427-14.328z" fill="url(#D)"/><g fill="#c4fd98"><path d="M158.152 173.098c.123.223.366.844.636.853 1.242.034 2.339-.458 3.64-.618 3.51-.432 7.128-.567 10.509.655.59.214 2.004.864 2.509.771.27-.328.41-.94.623-1.39-1.1 7.997-2.451 15.798-3.655 23.757l-1.261 8.417c-.151 1.014-.435 3.385-.675 4.283l-.28.063c-.187.958-.376 3.568-.951 4.002-.327.246-.573.18-1.074.835l-.062.687c-.299-1.471-.7-3.009-1.027-4.493-.227-.059-.125-.069-.306-.007-.328-1.091-.738-3.42-1.037-4.698l-2.467-10.572-5.123-22.544zm-119.972.58c.331.801.357.756 1.141 1.208.325-.021 2.15-.51 2.615-.643 3.464-.986 6.437-.335 9.983.182.103-.45.081-.549.342-.942.03 1.688-.442 5.657-.602 7.475l-1.206 14.159-.696 8.21-.384 4.645c-.712 1.068-.527 4.651-.873 5.933-.375.152-.36.101-.8.091-.321.183-.438.259-.782.384-1.161-.639-1.067-5.635-2.078-6.719l-4.7-23.895c-.555-2.886-1.607-7.34-1.959-10.088zm204.364-.721c.378.684 1.068 1.324 1.198 1.854.245.028 1.493-.674 2.054-.904 2.628-1.077 5.14-.523 7.875-.3 1.02.082 2.54 1.083 3.341.787l.356-.731-4.516 41.026c-1.025-3.86-1.919-7.903-2.875-11.796l-4.189-16.876c-1.017-4.225-2.423-8.82-3.243-13.059zM90.01 171.048c1.005 1.241.822 2.843 1.552 3.747 1.07-.429 1.627-1.042 2.748-1.591 3.244-1.589 5.453.28 8.493 1.266.413.135.505.258.796.593l.306.048c.473-.719.165-1.129.849-1.729-1.38 8.471-3.727 17.546-5.228 26.042-.91-1.682-1.593-4.241-2.212-6.108l-3.241-9.759c-1.108-3.379-3.324-9.271-4.064-12.51zm105.384 2.057c.543.306.65.801.81 1.362l.086-.133c1.777.545 2.741-2.449 6.015-2.008 2.295.309 4.204.735 6.267 2.104.25.167.185.614.719.706.697-.832.294-1.992 1.277-2.899-1.563 6.311-4.059 12.918-5.729 19.254-.485 1.84-1.308 4.107-1.66 5.921-1.207-3.334-2.134-6.776-3.243-10.131-1.11-3.286-2.174-6.587-3.187-9.905-.394-1.257-1.037-3.053-1.355-4.27z"/></g><path d="M225.013 221.536c.521-.877-.224-3.788-.378-4.929l.081-.063c.652.773 3.582-.501 4.685.013 1.189.555 2.65-.652 3.637.27.113.445-.245 3.157-.297 3.829l.278.101-.656 7.724-.135.255c-.715 1.447-.769 12.675-1.27 13.332-1.358-.42-3.078.294-3.221-1.033-.097-.904-1.389-11.505-1.479-11.572-.227.489-.01.458-.152.97-.277-2.635-.986-6.442-1.091-8.896z" fill="#99baf4"/><path d="M69.393 211.559l.27.151c.296 1.072.292 2.993.532 4.257.85.229 1.775-.51 2.615-.771.965-.297 3.745-.346 4.455-.839.137-.712.243-4.1.287-5.014l.198-.05-.067-.278c.071.582.091 1.094.118 1.679a355.38 355.38 0 0 1-.779 17.014l-.152.227c-.22.337-.241.429-.365.806l-.832-.259c-1.276.776-3.218 2.527-4.125.64-.101-.209-.13-.199-.318-.375-.486-5.771-1.35-11.492-1.836-17.187z" fill="url(#E)"/><path d="M141.784 211.846c.022-.463-.006-.593.125-1.036l.505 4.028c1.408.52 2.875-.574 4.877-.296l.516.075.218.034c.236-1.084.006-3.513.404-4.05l.164.29-.738 16.575-.088 2.583c-.456.64-.404.867-.398 1.644-.478.907-2.178 1.002-3.063.688-.543-.596-.115-.608-.616-1.162-.348-1.551-.63-6.264-.797-8.161l-1.108-11.212z" fill="url(#F)"/><path d="M71.23 228.746c.189.176.217.166.318.375.907 1.887 2.849.136 4.125-.64.339.082.5.145.832.259.124-.376.145-.469.365-.806l.152-.227c-.24 4.14-.211 9.277-.545 13.236l-.241 1.17c-.517.231-2.543-.25-3.275.205-.027.018-.314.053-.336.056l-.276-.992-1.12-12.637z" fill="url(#G)"/><path d="M143.69 231.218c.501.554.073.565.616 1.162.885.313 2.585.218 3.063-.688-.006-.776-.057-1.003.398-1.644-.105 5.057-.413 11.035-.691 16.135-.192.932-.185 2.167-.212 3.135-1.075-.552-1.578-.57-1.836-1.819-.481-5.142-1.138-11.162-1.338-16.28z" fill="url(#H)"/><path d="M226.104 230.432c.142-.511-.075-.48.152-.97.091.067 1.383 10.668 1.479 11.572.144 1.327 1.863.612 3.221 1.033.501-.656.555-11.884 1.27-13.332.042-.086.089-.17.135-.255-.083 2.914-.296 5.808-.552 8.711-.435 4.926-.398 9.964-.907 14.877-1.245.018-2.172-2.062-2.738-3.081z" fill="url(#I)"/><path d="M72.663 245.711c.115 1.094 1.316 1.802 1.972 3.233 2.052.139.552-1.438 1.575-2.755-.125 4.638-.442 9.185-.338 13.831-.432.185-1.867.274-2.286.004l-.652-10.343c-.154-1.419-.219-2.544-.27-3.97z" fill="url(#J)"/><path d="M72.663 245.711c.115 1.094 1.316 1.802 1.972 3.233.029.617.083 1.036.175 1.648-.446-.034-.7.166-1.08.368l-.264-.082-.532-1.197-.27-3.97z" fill="#4765a0"/><path d="M114.011 170.528c.735.488 1.404 1.285 1.694 2.111l-.264-.508c.523 1.862 1.095 2.616 2.531 3.898l.236-.396c.472.224 1.147-.226 2.034-.356.627.331 2.179.34 2.945.4.755.057 3.652-6.278 4.688-7.091l.237-.174c-2.096 3.88-5.494 9.719-7.894 13.54-.291-.457-.72-1.182-1.037-1.591-.229-.639-.513-1.065-.855-1.646-.593-1.2-1.142-2.215-1.804-3.378-.471-1.203-1.841-3.268-2.51-4.808z" fill="#c4fd98"/><path d="M76.478 240.943c0 .76-.077 4.66-.267 5.246-1.023 1.317.477 2.895-1.575 2.755-.656-1.431-1.857-2.139-1.972-3.233l-.313-4.329.276.992.336-.056c.732-.456 2.758.026 3.275-.205z" fill="#5e80cb"/><path d="M44.839 207.661c1.011 1.084.916 6.081 2.078 6.719.345-.125.461-.201.782-.384.44.01.426.062.8-.091.346-1.282.162-4.865.873-5.933-.003 1.296-.281 3.583-.387 4.963l-.882 11.18c-1.227-4.938-2.388-11.421-3.265-16.455z" fill="url(#K)"/><path d="M73.585 260.024c.42.27 1.854.18 2.286-.004l-.033 5.732c-.661.17-1.431.277-2.111.391l-.143-6.119z" fill="#2d3c56"/><path d="M119.181 180.36l-.037.201-.143-.004c-.263-.485-.347-.875-.863-1.113-2.02-.933-2.265-3.079-3.09-4.906-.509-1.128-2.523-2.924-2.315-4.21.789.605 1.402 2.193 1.891 2.729l.115-.227c-.172-.646-1.556-3-1.989-3.858l.133-.327 1.128 1.884c.669 1.54 2.039 3.605 2.51 4.808l1.804 3.378c.342.582.626 1.008.855 1.646z" fill="#1b1e24"/><path d="M116.561 177.636c-.183-.835-.476-1.581-.04-2.3l1.804 3.378-.323.177c-.614-.237-.981-.754-1.441-1.255z" fill="#0f130c"/><path d="M230.852 253.1a32.42 32.42 0 0 1-.261 4.811c-.234.842-.154 1.244-.579 2.035l-.283.144c-.519-.312-.447-.302-.688-.984-.075-1.462-.315-3.199-.48-4.674.417.242 1.159.271 1.597.018.624-.362.57-.71.694-1.348z" fill="#41527c"/><path d="M170.477 209.824c-.111 2.005-1.213 8.023-1.629 10.097-.423-1.389-1.903-7.607-2.07-9.01.182-.062.079-.051.306.007l1.027 4.493.062-.687c.501-.655.747-.589 1.074-.835.574-.434.763-3.044.951-4.002z" fill="#97daa4"/><path d="M228.166 248.988c.565 1.018 1.493 3.098 2.738 3.081l-.051 1.031c-.125.637-.07.986-.694 1.348-.438.253-1.179.224-1.597-.018l-.396-5.442z" fill="#4765a0"/><path d="M145.466 254.71c.346.366.149.207.733.375.596-.187.367-.013.704-.545.006 1.424.145 4.08-.354 5.32l-.237.161c-.622-.246-.555-.466-.696-1.11l-.15-4.201z" fill="#3c4763"/><path d="M146.864 249.318c.028-.968.021-2.203.212-3.135l-.015 4.389-.13 1.298-1.669.135-.234-4.506c.258 1.25.761 1.267 1.836 1.819z" fill="#4765a0"/><path d="M230.591 257.911l-.183 6.703c-.916-1.841-1.251-3.437-1.367-5.509.242.683.17.672.688.984l.283-.144c.425-.791.344-1.192.579-2.035z" fill="#3c4763"/><path d="M146.931 251.87l.13-1.298c.157 2.254.105 10.453-.636 12.42l-.203.13c-.409-.384-.687-3.64-.607-4.211.141.645.074.864.696 1.11l.237-.161c.5-1.241.36-3.896.354-5.32-.025-.838.015-1.821.028-2.67z" fill="#2d3c56"/><path d="M145.262 252.004l1.669-.135-.028 2.67c-.337.532-.108.357-.704.545-.585-.168-.388-.009-.733-.375z" fill="#41527c"/><path d="M93.124 127.349c.62-.513 1.292-2.37 1.406-3.052.645-3.879 1.217-1.544 3.729-1.374.695.044.929.618 1.461.177.369.215 1.823.049 2.363.059.724 1.589.451 4.508 1.482 5.525l1.84 8.7 2.319 11.327c.972-1.377 3.521-6.278 4.449-8.022 2.551-4.8 5.52-9.879 7.931-14.693 4.58 7.124 8.969 15.344 13.361 22.651l.152-.04c.212-.441.879-3.606 1.035-4.295 1.57-6.941 2.658-13.949 3.837-20.961l.191-.085.038.471.179.129c.432-.098.629-.182 1.056-.11 2.39.406 8.286.436 10.467-.36-.094-.45-.22-.794-.091-1.223l.212.11c.751 6.469 1.731 12.91 2.936 19.31.344 1.91.858 5.511 1.526 7.187 1.295-6.355 2.938-13.996 4.619-20.276 1.579-2.357.628-2.991 1.622-5.104.675-.055 2.656.437 3.466.57 3.699.607 5.322.585 8.956.134l.149-.3c.267.402.375.563.768.871 1.254 7.548 2.194 16.134 3.665 23.567 2.78.186 10.159-.243 13.087-.524 1.537-6.111 4.157-13.126 6.064-19.198 1.096-1.265 1.4-4.065 2.112-4.905.623.761 4.383.689 5.473 1.047.092.03 1.336-.609 1.803-.633.255.271.133.049.16.296.152 1.412 1.065 4.165 1.638 5.421l.315.237c.854 2.505 1.616 5.409 2.426 7.977.838 2.658 2.146 6.419 2.496 9.131.568-1.544 1.208-4.539 1.613-6.23 1.172-5.018 2.26-10.054 3.267-15.107.833-1.068.489-2.164.998-2.904 1.169.054 2.134.644 3.037.712 1.392.105 3.031-.178 4.469-.134 3.066.093 6.316 1.138 9.278.004.57 1.373.129 2.121.976 3.316l1.79 10.24c.35 1.961.721 4.487 1.311 6.349.183-1.525 2.988-13.569 3.557-14.672.82-.843 1.478-4.554 1.73-5.812l.621.323c.598.308 1.572.877 1.755 1.56l-.155.207-.488.015-.006.175c.403.35 5.18-.085 6.045-.047.549.024 1.301-.368 1.811-.637l.256.024c.382.567.617 3.163.652 3.937.048 1.043.188 1.373.606 2.354l1.683 14.686c1.688-.212 4.075-.149 5.824-.145l8.704.019H300v17.223l-27.097-.009c-4.72 0-9.658-.079-14.348.018a259.96 259.96 0 0 1-.794 7.459c-.101.882-.384 2.836-.393 3.656l-.356.731c-.801.296-2.322-.705-3.341-.787-2.735-.223-5.247-.776-7.875.3-.561.23-1.809.932-2.054.904-.13-.53-.82-1.17-1.198-1.854-.669-2.266-1.724-6.226-1.957-8.505-.713 2.235-1.153 5.395-1.537 7.748-.513.583-.571 1.775-.773 2.575-.23-.207-.453-.494-.747-.571-2.508-.658-3.557-1.162-6.217-.907-3.221.308-6.687-.416-9.92-.016-.753.082-2.944 1.545-3.785 1.976-.1-.775-.297-2.064-.889-2.578-.186-.631-.333-1.437-.476-2.087l-2.212-9.693c-.416 1.043-.929 3.07-1.26 4.22a127.22 127.22 0 0 1-2.203 7.118c-.983.907-.58 2.067-1.277 2.899-.535-.092-.469-.539-.719-.706-2.062-1.368-3.971-1.794-6.267-2.104-3.274-.441-4.238 2.553-6.015 2.008l-.086.133c-.16-.561-.267-1.056-.81-1.362-1.551-4.219-2.607-8.793-4.286-13.044-4.298-.265-8.569-.292-12.835-.483-.826 4.545-1.436 9.221-2.205 13.79-.212.45-.353 1.062-.623 1.39-.505.094-1.919-.557-2.509-.771-3.381-1.222-6.999-1.087-10.509-.655-1.301.16-2.398.652-3.64.618-.27-.009-.513-.63-.636-.853-.356-1.389-3.021-13.512-3.142-13.655-.62.715-2.306 11.013-2.558 12.633-.539.675-.592 1.534-.604 2.369l-.335.226.229.189c-.684-.604-2.049-1.6-2.128-2.451.277-.4.731.23 1.304-.081-.968-.488-10.296-.782-11.33-.324.447.163.848.119 1.328.116-.625.697-2.196 1.901-3.054 2.171-.505-.066-.284.032-.673-.331l.026.122c-.524-1.078-.261-2.052-1.016-2.887-.619-3.075-1.731-9.438-2.605-12.157-1.497 2.663-3.819 6.892-5.481 9.375l-.237.174c-1.036.813-3.933 7.148-4.688 7.091-.767-.06-2.318-.069-2.945-.4-.886.13-1.561.58-2.034.356l-.236.396c-1.436-1.282-2.008-2.036-2.531-3.898l.264.508c-.289-.826-.959-1.623-1.694-2.111-.15-.136-.967-1.598-1.128-1.884-.734-1.74-2.116-4.025-3.034-5.697l-2.117-3.923c-.731 3.261-1.312 6.521-1.958 9.795-.126.637-.792 4.075-1.019 4.563-.684.599-.377 1.009-.849 1.729l-.306-.048c-.291-.335-.383-.458-.796-.593-3.041-.986-5.249-2.855-8.493-1.266-1.121.549-1.678 1.162-2.748 1.591-.731-.904-.548-2.506-1.552-3.747-.96-2.629-3.468-9.7-3.995-12.133-1.42 3.825-2.816 9.495-3.69 13.497-.63.656-.68 1.324-.928 2.24-.288.054-3.047-1.088-4.001-1.143-4.901-.275-9.519.056-14.337.823-1.07.17-1.261-2.055-2.161-2.994-1.254-3.668-3.188-9.382-5.205-12.68-.708.01-1.492.004-2.192.045-.513 4.846-.653 9.992-1.242 14.779-.261.393-.238.492-.342.942-3.546-.517-6.519-1.167-9.983-.182-.465.133-2.29.623-2.615.643-.784-.453-.81-.407-1.141-1.208-.397-.979-1.644-8.534-1.885-9.992-11.898-.193-24.37-.026-36.294-.034v-19.387l36.269-.039c.84-4.882 1.777-9.748 2.811-14.592.384-1.86.695-3.827 1.139-5.657.25-.293.325-.358.411-.733.671-.291 1.118.185 1.673.546.696.453 1.838.312 2.689.338 1.972.061 3.968 0 5.937-.09.148-.007.302.724.486.91.545 2.845 1.735 23.326 2.231 24.026.587.224 1.455.146 2.115.139 3.392-4.847 7.776-21.283 9.176-27.209l.206.084c.37 1.604 2.022 1.741 3.422 1.935 3.548.491 6.819-.321 10.324-.679.426-.044.659-.745.727-1.177l.172.079c1.339 8.612 3.323 18.663 6.204 26.88 1.417-5.808 4.144-11.909 5.763-17.711.21-.754 1.038-3.358 1.369-3.965z" fill="url(#L)"/><path d="M226.57 73.856l.186.026c.224-.285.939-7.388 1.156-8.494.699-.139 1.717-.132 2.24-.374.376-.174-.044-.113.64-.235.772.47.473 6.713 1.008 8.211l.144-.287c.378 2.68.347 5.6.555 8.337l1.503 18.086c.828 9.365 2.319 18.386 3.456 27.617-.847-1.195-.406-1.943-.976-3.316-2.962 1.135-6.212.089-9.278-.004-1.438-.044-3.078.239-4.469.134-.902-.068-1.868-.658-3.037-.712-.508.74-.164 1.836-.998 2.904 2.268-11.318 4.148-22.711 5.638-34.158l1.809-14.548c.145-1.056.214-2.145.423-3.187z" fill="url(#M)"/><g fill="#99baf4"><path d="M76.025 62.802c-.029 1.365-.097 2.807.407 4.085.34 16.41 1.595 33.166 2.725 49.546.124 1.797.61 3.969.631 5.711l-.172-.079c-.068.432-.301 1.133-.727 1.177-3.505.358-6.776 1.169-10.324.679-1.4-.194-3.053-.331-3.422-1.935l-.206-.084c.137-1.178.879-4.169 1.15-5.505a250.12 250.12 0 0 0 1.919-10.718 502.42 502.42 0 0 0 4.223-37.794c.936-1.892.077-3.852.834-4.792.806-.368 2.08-.332 2.962-.292zm66.939 21.627c.429-.73.544-3.024.679-4.354.637-6.269 1.095-12.706 1.592-18.998l.18-.194c.483-.043.929-.026 1.413-.02.108 1.117.035 2.741.076 3.948l.362 9.637c.057 1.669 0 4.619.541 6.07l1.488 27.834 1.071 12.112c.063.551.173 1.28.176 1.817l-.212-.11c-.129.43-.003.774.091 1.223-2.181.796-8.077.766-10.467.36-.426-.073-.623.011-1.056.11l-.179-.129-.038-.471-.191.085c.107-2.509 1.118-7.545 1.428-10.369zm25.776 3.641c.577 1.998.857 4.262 1.178 6.328l1.235 7.962 3.429 22.311c-.393-.308-.501-.469-.768-.871l-.149.3c-3.634.451-5.257.474-8.956-.134-.81-.133-2.791-.625-3.466-.57-.993 2.113-.042 2.747-1.622 5.104.378-2.92 1.844-8.143 2.524-11.26l6.595-29.171zM48.1 83.929l2.143 26.838.839 9.277.332 4.903c-.183-.186-.338-.916-.486-.91l-5.937.09c-.851-.026-1.993.115-2.689-.338-.555-.361-1.002-.837-1.673-.546-.086.375-.161.44-.411.733l1.36-7.345 3.01-15.129c1.059-5.312 2.116-12.471 3.512-17.574zm204.814 9.832l1.847 16.775.568 5.861c-.196.708.007 1.659-.198 1.988.264-.135-3.173.891-2.9.869-1.481.118-3.598-.418-5.036-.852-.299-.895.275-.9-.135-1.781l3.647-14.589c.665-2.7 1.153-5.755 2.206-8.271z"/></g><path d="M74.56 28.486c.291-1.455-.05-4.12.573-5.107.365 4.082.206 8.769.343 12.927l.957 30.581c-.504-1.278-.436-2.721-.407-4.085-.883-.04-2.156-.076-2.962.292-.757.94.101 2.9-.834 4.792.003-1.063.257-3.215.353-4.355l.487-6.934 1.491-28.111z" fill="#97daa4"/><g fill="#b7c8f9"><path d="M255.33 116.397c.656 4.143 1.206 10.117 1.613 14.359-.419-.982-.558-1.311-.606-2.354-.035-.774-.27-3.37-.652-3.937l-.256-.024c-.51.269-1.261.661-1.811.637-.866-.038-5.643.397-6.045.047l.006-.175.488-.015.155-.207c-.183-.683-1.157-1.252-1.755-1.56l-.621-.323c-.252 1.258-.91 4.969-1.73 5.812.207-1.373.772-3.322 1.122-4.7l1.824-7.337c.41.881-.164.886.135 1.781 1.438.434 3.555.97 5.036.852-.272.022 3.164-1.004 2.9-.869.205-.329.001-1.281.198-1.988zM99.528 108.24c.171 1.51.511 3.047.817 4.537 1.086 5.289 2.319 10.583 3.22 15.906-1.031-1.017-.758-3.936-1.482-5.525-.54-.01-1.994.156-2.363-.059-.532.441-.766-.132-1.461-.177-2.512-.17-3.084-2.504-3.729 1.374-.114.682-.786 2.539-1.406 3.052l3.941-12.071c.701-2.102 1.589-5.105 2.463-7.037zm103.57 2.434l5.801 19.304-.315-.237c-.573-1.256-1.485-4.01-1.638-5.421-.026-.247.095-.025-.16-.296-.467.024-1.711.663-1.803.633-1.09-.357-4.85-.285-5.473-1.047-.712.84-1.017 3.641-2.112 4.905l2.032-6.432z"/></g><path d="M229.762 43.076c.333.261.5.32.609.715.064 4.503.381 8.967.639 13.462l.933 15.45-.144.287c-.535-1.498-.236-7.741-1.008-8.211-.684.122-.264.061-.64.235-.523.241-1.541.235-2.24.374-.217 1.107-.932 8.209-1.156 8.494l-.186-.026c.076-1.017.221-2.098.347-3.115 1.143-9.203 1.729-18.461 2.845-27.666z" fill="url(#N)"/><path d="M146.663 46.223c.577 9.589.375 19.335.961 28.932.108 1.756.199 3.61.182 5.362-.541-1.45-.483-4.401-.541-6.07l-.362-9.637c-.041-1.207.032-2.831-.076-3.948-.483-.007-.929-.023-1.413.02l-.18.194-1.592 18.998c-.135 1.33-.25 3.624-.679 4.354.017-3.113.814-9.369 1.095-12.651l1.788-22.901c.368.015.344.071.629-.061.239-.622.115-1.704.187-2.593z" fill="url(#O)"/><path d="M146.192 42.139l.194-.053.229 1.78.048 2.357c-.072.889.053 1.971-.187 2.593-.286.132-.262.076-.629.061l.345-6.738z" fill="#97daa4"/><path d="M74.56 28.486c-.134-1.893.202-7.107.416-9.058.194.54.22 3.292.157 3.951-.623.987-.281 3.652-.573 5.107z" fill="#5f5c66"/><path d="M230.175 39.728l.196 4.063c-.11-.395-.277-.454-.609-.715l.413-3.348z" fill="#a4ae9a"/><path d="M146.192 42.139l-.029-1.436.195-.127-.183-.109.121-.127c.347 1.267.368 2.216.32 3.526-.094-.465-.154-1.256-.229-1.78z" fill="#5f5c66"/><path d="M236.73 108.168a.53.53 0 0 1 .725.592c-.037.192-.177.348-.365.405a.53.53 0 0 1-.655-.327.53.53 0 0 1 .294-.67z" fill="#1b1e24"/></g></svg><defs ><linearGradient id="Q" gradientUnits="userSpaceOnUse"/></defs></svg>