<svg xmlns="http://www.w3.org/2000/svg" width="300" height="168.75" xmlns:v="https://vecta.io/nano"><style><![CDATA[.B{fill:#d4daeb}.C{fill:#f9e174}.D{fill:#febb3e}.E{fill:#fcfcfc}.F{fill:#c2cce7}.G{fill:#faa832}.H{fill:#62c19f}.I{fill:#f5982a}.J{fill:#50b2a3}.K{fill:#fcc744}.L{fill:#fe636e}.M{fill:#aec3e7}.N{fill:#fcd451}.O{fill:#4864eb}.P{fill:#3ba09b}.Q{fill:#82cea4}.R{fill:#aee0b1}.S{fill:#f48923}]]></style><svg><defs><clipPath id="A"><path transform="scale(.14648)" fill="none" d="M0 0h2048v1152H0z"/></clipPath><linearGradient x1="178.08" y1="87.96" x2="203.232" y2="59.96" id="B" href="#J"><stop offset="0" stop-color="#84b2f1"/><stop offset="1" stop-color="#bad2f2"/></linearGradient><linearGradient x1="54.203" y1="149.089" x2="57.564" y2="135.674" id="C" href="#J"><stop offset="0" stop-color="#ffac33"/><stop offset="1" stop-color="#fcdf57"/></linearGradient><linearGradient x1="224.002" y1="108.672" x2="275.738" y2="79.522" id="D" href="#J"><stop offset="0" stop-color="#dae0e9"/><stop offset="1" stop-color="#fff"/></linearGradient><linearGradient x1="211.874" y1="136.502" x2="275.643" y2="128.891" id="E" href="#J"><stop offset="0" stop-color="#d4dde7"/><stop offset="1" stop-color="#fff"/></linearGradient><linearGradient x1="214.342" y1="126.574" x2="245.87" y2="136.645" id="F" href="#J"><stop offset="0" stop-color="#9fb6e3"/><stop offset="1" stop-color="#c3d2ec"/></linearGradient><linearGradient x1="230.481" y1="47.26" x2="231.448" y2="17.691" id="G" href="#J"><stop offset="0" stop-color="#bfcde9"/><stop offset="1" stop-color="#fffffe"/></linearGradient><linearGradient x1="216.683" y1="55.303" x2="211.102" y2="32.252" id="H" href="#J"><stop offset="0" stop-color="#d4394d"/><stop offset="1" stop-color="#ff6a71"/></linearGradient></defs><g clip-path="url(#A)"><g class="E"><path d="M33.009 49.037c.884-8.118-3.637-15.643 8.707-15.043 2.59.126 5.934-.002 8.586-.002h22.69l45.009-.23 38.512.078c.467 1.633 1.232 2.725 2.433 3.908-1.099 1.974-5.375 10.379-6.502 11.59-1.56 2.875-3.289 5.656-4.915 8.495l-2.624 4.048c.235.416.716 1.217.893 1.621.362-.396.921-1.23 1.252-1.694l2.543-4.109c1.641-2.673 3.526-5.908 5.007-8.654 1.982-3.157 3.913-7.098 5.833-10.4 1.871.956 4.646 1.069 6.516.062.576-.45.75-.542 1.414-.862 1.159-.777 1.718-1.734 2.231-2.995.22-.427.252-.615.359-1.068l.151.031c1.504.294 4.305.239 5.892.244l8.331.013c3.261-.01 6.546-.353 8.65 2.758 1.383 2.046 1.54 4.125 1.477 6.504 1.336-.192 3.06-.605 4.352-.675 1.878-.102 3.4-.04 5.3-.246l.823 2.184c-.741.306-1.629.129-2.382-.136-1.583-.557-7.346-.366-8.055 1.207-.04 1.072-.05 2.145-.028 3.218-.04 2.903.001 5.807.122 8.709 2.199.097 4.399.143 6.599.137 8.892.002 9.974.108 9.624 9.805-.126 3.49.467 7.773.069 11.306-.171.94-.186 7.531-.086 8.765l.032 25.745c0 4.432.171 10.163-.022 14.456-.053 3.293-.054 6.587-.004 9.88.073 3.075.17 5.273-2.974 6.818-2.01.542-4.276.337-6.35.241-3.598.014-10.165.346-13.466.064-2.446.149-7.373-.035-9.921-.091-2.367.209-4.97.345-6.888-1.101l-.066-.074c-2.171-2.469-1.521-6.632-1.449-9.986-1.701-.163-4.488-.07-6.249-.052-.681.072-.993-.01-1.472.354.964.546 1.179.557 1.37 1.652.064 2.008.62 4.622-1.11 5.91-.012 1.037.274 3.758-.457 4.496-.863.871-20.091 8.425-22.304 8.877-2.182.233-9.55-2.067-11.995-2.773l-15.367-4.367c-2.066-.754-6.946-1.937-9.253-2.574-2.969-.806-7.013-1.873-9.912-3.051-.498-.202-.662-1.003-.778-1.518-2.426-.02-4.834-.298-7.257-.459-.813 2.292-3.908 2.888-6.076 3.33-2.461.408-8.924 1.121-11.12.45.024.813.117 1.679-.514 2.251-2.451 2.223-7.89 2.547-11.114 2.616-3.366.073-10.348-.292-13.009-2.546-1.363-1.155-.411-6.393-.453-8.635l.105-.842c.29-.842.155-2.064.112-2.988l-.074-.061c-3.062-.244-10.57.875-10.905-3.325-.121-1.521-.052-3.83-.05-5.401v-10.027l-.007-10.297c0-1.605-.075-4.611.137-6.101-1.643-1.822-3.418-3.462-5.005-5.361l.502-.645.407-.327c2.135 1.025 2.309 3.065 3.951 2.895.161-5.166.106-10.857.013-16.054-.179-9.979.26-20.009.215-29.948z"/><path d="M33.009 49.037c.884-8.118-3.637-15.643 8.707-15.043 2.59.126 5.934-.002 8.586-.002h22.69l45.009-.23 38.512.078c.467 1.633 1.232 2.725 2.433 3.908-1.099 1.974-5.375 10.379-6.502 11.59-1.56 2.875-3.289 5.656-4.915 8.495l-2.624 4.048c.235.416.716 1.217.893 1.621.303.993.514 1.681.701 2.707.243.971.174 2.144.072 3.132-.386 1.549-.906 2.976-2.008 4.183-1.176 1.051-2.31 1.96-3.949 2.13-.271-.068-2.757.002-3.264-.011-1.37-.188-1.591-.422-2.724-1.204l-.18-.336c-.12-.213-.695-.736-.909-.945l-.4.566-1.448 2.165-2.863 4.215c-3.404 5.081-9.377 13.409-13.189 18.05a418.66 418.66 0 0 0-10.752-7.696c-1.131-.779-4.097-2.847-5.24-3.346-.203.447-.391 1.055-.577 1.425-2.38 2.463-3.985 2.983-7.162 1.597l-.181.408a201.38 201.38 0 0 0-3.498 5.565c-.548.816-1.792 2.745-2.255 3.622l-4.905 7.854c-.802 1.29-2.17 3.653-3.16 4.68-1.295-.695-3.518-2.348-4.779-3.254l-7.187-5.137-10.752 6.068c-2.041 1.124-5.165 2.919-7.28 3.755-1.014-.721-3.732-3.619-4.72-4.633L32.927 98.476c-1.643-1.822-3.418-3.462-5.005-5.361l.502-.645.407-.327c2.135 1.025 2.309 3.065 3.951 2.895.161-5.166.106-10.857.013-16.054-.179-9.979.26-20.009.215-29.948z"/></g><path d="M33.009 49.037c.884-8.118-3.637-15.643 8.707-15.043 2.59.126 5.934-.002 8.586-.002h22.69l45.009-.23 38.512.078c.467 1.633 1.232 2.725 2.433 3.908-1.099 1.974-5.375 10.379-6.502 11.59-.545-.389-12.691-.151-14.377-.144l-24.955.029z" class="B"/><g class="E"><path d="M42.119 41.814c.664-.141 1.32.273 1.478.933s-.237 1.326-.893 1.503a1.25 1.25 0 0 1-1.524-1.577c.134-.436.493-.765.939-.859zm5.508-.012c.648-.088 1.254.343 1.384.984s-.259 1.274-.891 1.446a1.24 1.24 0 0 1-1.496-1.619 1.24 1.24 0 0 1 1.003-.811zm5.424.013a1.24 1.24 0 1 1-.714 2.052 1.24 1.24 0 0 1 .714-2.052zM95.479 80.07c1.597-.155 3.976-.061 5.639-.056l9.939.017 11.204-.011 6.565.082c-3.404 5.081-9.377 13.409-13.189 18.05a418.66 418.66 0 0 0-10.752-7.696c-1.131-.779-4.097-2.847-5.24-3.346.876-3.174-1.111-6.089-4.164-7.039z"/></g><path d="M132.672 61.842c1.589-1.782 3.208-2.932 5.706-3.058a7.49 7.49 0 0 1 5.464 1.991c.358.33.736.745 1.063 1.106l.893 1.621.701 2.707c.243.971.174 2.144.072 3.132-.386 1.549-.906 2.976-2.008 4.183-1.176 1.051-2.31 1.96-3.949 2.13-.271-.068-2.757.002-3.264-.011-1.37-.188-1.591-.422-2.724-1.204l-.18-.336c-.12-.213-.695-.736-.909-.945-.116-.294-.965-1.365-1.221-1.784-.427-.701-.594-1.168-.88-1.937-.802-2.749-.157-5.194 1.238-7.593z" class="C"/><path d="M146.499 66.207c.243.971.174 2.144.072 3.132-.386 1.549-.906 2.976-2.008 4.183-1.176 1.051-2.31 1.96-3.949 2.13-.271-.068-2.757.002-3.264-.011-1.37-.188-1.591-.422-2.724-1.204l-.18-.336c.35.073.807.225 1.14.341 4.502 1.567 9.443-.029 10.581-5.018.253-1.111.16-2.044.319-3.118z" class="F"/><path d="M132.902 65.948c.228-1.732.934-3.182 2.354-4.248a5.82 5.82 0 0 1 4.393-1.09c1.558.25 2.799 1.052 3.713 2.322.866.861 1.275 2.865 1.283 4.054.039 5.467-6.334 8.13-10.151 4.155-1.19-1.239-1.968-3.486-1.593-5.193z" class="D"/><path d="M132.902 65.948c.228-1.732.934-3.182 2.354-4.248a5.82 5.82 0 0 1 4.393-1.09c1.558.25 2.799 1.052 3.713 2.322l-.307.058c-.909-.834-2.47-1.901-3.668-1.956-2.819-.129-5.903 1.694-6.068 4.727-.014.266.006.447-.215.522z" class="G"/><path d="M138.38 62.195l.613.109c.51.935 2.199 1.282 2.145 2.6-.814.886-1.652-.004-2.27-.469l-.314.057c-.339.448-.278.258-.34.751.807 1.144 5.55 1.925 2.465 4.678-.199.177-1.007.328-1.176.58-.459.685.091.522-.728 1.072-.547-.578-.243-.795-.496-.975-1.612-1.148-1.539-.378-2.32-2.341.208-.015 1.682-.121 1.787-.025.474.434.747.972 1.476 1.015.217-.275.218-.369.229-.757-.107-1.41-1.754-.784-2.705-1.949-1.026-1.257-.447-1.992.552-3.009.686-.698.989-.11 1.083-1.337z" class="C"/><g class="B"><path d="M94.205 57.761c4.583.125 9.616.021 14.241.017h26.035c4.221.004 8.867-.119 13.048.054l-2.624 4.048c-.327-.36-.705-.775-1.063-1.106a7.49 7.49 0 0 0-5.464-1.991c-2.498.127-4.117 1.276-5.706 3.058l-38.458.022zm.005 11.673l37.224.001c.287.768.453 1.235.88 1.937.255.42 1.105 1.49 1.221 1.784l-.4.566c-.6-.331-11.521-.186-13.379-.185l-25.533-.006z"/></g><path d="M90.736 88.945c.445.526.636.76 1.169 1.187l-.181.408-3.498 5.565-2.255 3.622-4.905 7.854c-.802 1.29-2.17 3.653-3.16 4.68-1.295-.695-3.518-2.348-4.779-3.254l-7.187-5.137-10.752 6.068-7.28 3.755c-1.014-.721-3.732-3.619-4.72-4.633L32.927 98.476l-5.005-5.361.502-.645.407-.327c2.135 1.025 2.309 3.065 3.951 2.895.041.418.001.729.318 1.051 5.017 5.113 9.966 10.624 15.139 15.566 4.185-2.049 8.257-4.443 12.333-6.702 1.687-.935 3.796-2.265 5.475-3.087 3.179 2.047 8.396 5.821 11.471 8.157 2.001-3.403 4.282-6.888 6.384-10.252l2.168-3.525c1.003-1.784 3.493-5.66 4.667-7.303z" class="O"/><g class="B"><path d="M83.902 99.772c-9.829-.169-20-.043-29.854-.052h-7.821c-1.036.005-2.087.068-3.118.064-.997-.004-1.893-.837-1.885-1.871.01-1.302 1.014-1.653 2.123-1.689 1.577-.046 3.14-.011 4.709-.004l8.883.018 29.131.01zM94.205 75.87l37.482.016-2.863 4.215c-1.853-.157-4.67-.085-6.565-.082l-11.204.011-9.939-.017c-1.663-.005-4.042-.099-5.639.056l-1.266-.005z"/></g><path d="M94.212 80.065l1.266.005c3.054.951 5.04 3.865 4.164 7.039l-.577 1.425c-2.38 2.463-3.985 2.983-7.162 1.597-.533-.427-.724-.661-1.169-1.187-2.226-3.83-1.213-8.004 3.476-8.88z" class="C"/><path d="M93.911 81.423a3.99 3.99 0 1 1 1.505 7.839 3.99 3.99 0 1 1-1.505-7.839z" class="D"/><path d="M94.604 82.308c.577.803 1.519.997 1.498 1.956-.328.078-1.209-.262-1.669-.377l-.207.13c.186 1.243 1.877.837 2.141 1.939.239.999-.664 1.602-1.384 1.954l-.276.585c-.423-.952-1.125-.82-1.744-1.842l.069-.277c.414-.145.475-.171.904-.1.226.356.249.446.598.656.369-.069.234.012.481-.343-.087-1.254-1.622-.831-1.942-1.769-.522-1.533 1.152-1.6 1.532-2.513z" class="C"/><path d="M41.159 84.411c-.536-2.583-.09-7.909-.19-10.769-.15-4.312.094-8.854.011-13.189-.031-1.619.411-3.088 2.246-3.303 1.851-.217 3.833-.133 5.713-.127l10.049.018 16.671.001 8.816.043c1.037-.06 2.595.905 2.628 2.013.204 6.685.024 13.403.072 20.096.01 1.347.113 3.998-.225 5.221-.27 3.052-4.86 2.316-7.04 2.313l-9.572.001-17.059-.001c-3.101-.001-6.206.031-9.304-.058-1.564-.045-2.578-.632-2.817-2.259z" class="L"/><path d="M41.159 84.411c.57.729 1.062 1.318 2.035 1.393 1.81.14 3.755.074 5.58.062l9.641-.022 17.5.005 9.284-.026c.89-.518 1.059-.662 1.753-1.407-.27 3.052-4.86 2.316-7.04 2.313l-9.572.001-17.059-.001c-3.101-.001-6.206.031-9.304-.058-1.564-.045-2.578-.632-2.817-2.259z" class="F"/><path d="M60.561 65.148l10.588 6.41-4.119 2.431-6.47 3.841z" class="E"/><path d="M42.099 90.407l1.304-.031 26.296-.005h9.045l5.401.062c1.318.061 1.663.592 1.561 1.897-.054.691-.18.95-.674 1.423H56.076l-8.872.012c-1.568.002-3.133.026-4.704-.035-.874-.034-1.275-.676-1.222-1.52.058-.906.144-1.191.82-1.804z" class="B"/><path d="M170.952 33.781l.151.031c1.504.294 4.305.239 5.892.244l8.331.013c3.261-.01 6.546-.353 8.65 2.758 1.383 2.046 1.54 4.125 1.477 6.504l4.352-.675 5.3-.246.823 2.184c-.741.306-1.629.129-2.382-.136-1.583-.557-7.346-.366-8.055 1.207l-.028 3.218.122 8.709 6.599.137c8.892.002 9.974.108 9.624 9.805-.126 3.49.467 7.773.069 11.306-.171.94-.186 7.531-.086 8.765l.032 25.745c0 4.432.171 10.163-.022 14.456-.053 3.293-.054 6.587-.004 9.88.073 3.075.17 5.273-2.974 6.818-2.01.542-4.276.337-6.35.241-3.598.014-10.165.346-13.466.064-2.446.149-7.373-.035-9.921-.091-2.367.209-4.97.345-6.888-1.101l-.066-.074c-2.171-2.469-1.521-6.632-1.449-9.986-1.701-.163-4.488-.07-6.249-.052-.315-.016-.423-.033-.732-.098-.042-.219.229-.866.209-1.611l-.006-.166c.004-.709.125-3.997-.189-4.395-.141-.299-.158-.509-.218-.837l.138-.576c-.234-.606-.236-.47-.82-.928l-.29-.268c.451-.8 1.572-.888 1.884-1.318.631-.871.36-6.041.362-7.256l-.3-.564c-.108-.567-3.385-1.324-4.097-1.548 1.04-.176 3.362.529 4.238 1.081.092.157.454.749.634.752 1.85.028 3.771-.133 5.634-.121.042-1.246.016-2.492.003-3.739-.372-.215-.713-.006-1.187-.318-.129-.832.059-3.861.085-4.926-.971-.034-4.104.447-4.482-.348-1.929-4.05 2.673-3.05 4.371-3.018-.053-1.687.144-3.732-.132-5.343l-.302-.066.009.001c-.177.002-.27-.019-.429-.098l-.136.078-.223-.081-.064.073-1.961-.067c.375-.014 1.537.022 1.806-.085l.149.077c.24-.092 1.091-.022 1.405-.015.045-1.698-.302-6.307.083-7.605.346-.058.36-.069.667-.249l.117-.513c-.122-1.716-.054-4.094-.053-5.853l.013-9.98c-8.391-.244-17.568-.016-26.053-.052 1.102-1.208 1.622-2.635 2.008-4.183.103-.988.171-2.161-.072-3.132-.187-1.026-.398-1.713-.701-2.707.362-.396.921-1.23 1.252-1.694l2.543-4.109c1.641-2.673 3.526-5.908 5.007-8.654 1.982-3.157 3.913-7.098 5.833-10.4 1.871.956 4.646 1.069 6.516.062.576-.45.75-.542 1.414-.862 1.159-.777 1.718-1.734 2.231-2.995.22-.427.252-.615.359-1.068z" class="E"/><path d="M170.952 33.781l.151.031c1.504.294 4.305.239 5.892.244l8.331.013c3.261-.01 6.546-.353 8.65 2.758 1.383 2.046 1.54 4.125 1.477 6.504l4.352-.675 5.3-.246.823 2.184c-.741.306-1.629.129-2.382-.136-1.583-.557-7.346-.366-8.055 1.207l-.028 3.218c-1.633.026-4.901.134-6.369-.074-2.282 1.469-5.145 4.112-7.14 6.017l-5.871-5.953c-3.381-3.369-6.063-6.465-9.133-10.165.576-.45.75-.542 1.414-.862 1.159-.777 1.718-1.734 2.231-2.995.22-.427.252-.615.359-1.068z" class="B"/><path d="M168.362 37.844c2.694 2.854 5.202 6.171 8.077 8.94.643.619 1.695 1.821 2.306 2.326.605-.275 6.458-.342 6.98.015 1.75-1.323 3.293-2.514 5.21-3.621 1.257-.725 3.492-1.512 4.516-2.174 1.336-.192 3.06-.605 4.352-.675 1.878-.102 3.4-.04 5.3-.246l.823 2.184c-.741.306-1.629.129-2.382-.136-1.583-.557-7.346-.366-8.055 1.207-.04 1.072-.05 2.145-.028 3.218-1.633.026-4.901.134-6.369-.074-2.282 1.469-5.145 4.112-7.14 6.017l-5.871-5.953c-3.381-3.369-6.063-6.465-9.133-10.165.576-.45.75-.542 1.414-.862z" class="O"/><path d="M189.092 48.806c1.147-.833 4.859-3.199 6.223-3.377l.174.234-.028 3.218c-1.633.026-4.901.134-6.369-.074z" class="B"/><path d="M178.745 49.11c.605-.275 6.458-.342 6.98.015l-3.68 3.282-3.3-3.297z" class="E"/><path d="M147.05 61.807l2.543-4.109 6.505.05 17.871-.064.066.187c-.986.274-1.535.587-2.041 1.5-1.693 3.059-.504 11.609-.905 15.535-.583.71.123 12.277-.434 14.5-.122-1.716-.054-4.094-.053-5.853l.013-9.98c-8.391-.244-17.568-.016-26.053-.052 1.102-1.208 1.622-2.635 2.008-4.183.103-.988.171-2.161-.072-3.132-.187-1.026-.398-1.713-.701-2.707.362-.396.921-1.23 1.252-1.694z" class="B"/><path d="M147.05 61.807l23.593.028-.038 7.554c-2.559.055-23.043.31-24.034-.049.103-.988.171-2.161-.072-3.132-.187-1.026-.398-1.713-.701-2.707.362-.396.921-1.23 1.252-1.694z" class="E"/><path d="M160.433 38.643c1.871.956 4.646 1.069 6.516.062 3.07 3.7 5.752 6.797 9.133 10.165-6.888.372-14.572.222-21.482.173 1.982-3.157 3.913-7.098 5.833-10.4z" class="B"/><g class="E"><path d="M161.13 41.953a1.23 1.23 0 0 1 1.258.07c.375.253.579.692.533 1.141a1.23 1.23 0 0 1-2.334.395 1.23 1.23 0 0 1 .542-1.606zm5.26-.003c.614-.28 1.337-.007 1.614.609s-.003 1.338-.62 1.609-1.326-.006-1.6-.616-.003-1.325.605-1.603z"/></g><path d="M164.769 116.05l6.255.029c-.094.946-.306 7.036.022 7.518l.103 8.077-7.245-.047c.004-.709.125-3.997-.189-4.395-.141-.299-.158-.509-.218-.837l.138-.576c-.234-.606-.236-.47-.82-.928l-.29-.268c.451-.8 1.572-.888 1.884-1.318.631-.871.36-6.041.362-7.256z" class="M"/><path d="M170.656 89.407c.557-2.223-.149-13.791.434-14.5.226 6.075.04 13.585.007 19.749l-.051 28.942c-.328-.481-.116-6.572-.022-7.518-2.084.017-4.17.007-6.255-.029l-.3-.564c-.108-.567-3.385-1.324-4.097-1.548 1.04-.176 3.362.529 4.238 1.081.092.157.454.749.634.752 1.85.028 3.771-.133 5.634-.121.042-1.246.016-2.492.003-3.739-.372-.215-.713-.006-1.187-.318-.129-.832.059-3.861.085-4.926-.971-.034-4.104.447-4.482-.348-1.929-4.05 2.673-3.05 4.371-3.018-.053-1.687.144-3.732-.132-5.343l-.302-.066.009.001c-.177.002-.27-.019-.429-.098l-.136.078-.223-.081-.064.073-1.961-.067c.375-.014 1.537.022 1.806-.085l.149.077c.24-.092 1.091-.022 1.405-.015.045-1.698-.302-6.307.083-7.605.346-.058.36-.069.667-.249z" class="F"/><g class="B"><path d="M163.903 131.628c2.474-.123 4.77-.064 7.245.047.337 3.72-1.176 9.373 1.783 11.848l.158.131-.894-.038-.066-.074c-2.171-2.469-1.521-6.632-1.449-9.986-1.701-.163-4.488-.07-6.249-.052-.315-.016-.423-.033-.732-.098-.042-.219.229-.866.209-1.611z"/><path d="M172.195 143.615l.894.038c.734.233 1.427.496 2.197.513l19.49.128c-1.629.589-5.306.159-5.771.513-2.446.149-7.373-.035-9.921-.091-2.367.209-4.97.345-6.888-1.101z"/></g><g class="F"><path d="M172.195 143.615l.894.038c.734.233 1.427.496 2.197.513l3.797.55c-2.367.209-4.97.345-6.888-1.101zm22.581.679c2.079-.157 4.903-.154 6.993-.12.303.062.672.079.853.266h.05c-.173.185-.148.093-.201.301-3.598.014-10.165.346-13.466.064.466-.353 4.143.076 5.771-.513z"/></g><path d="M201.769 144.174l7.052.327c-2.01.542-4.276.337-6.35.241.053-.208.028-.116.201-.301h-.05c-.18-.187-.549-.204-.853-.266z" class="B"/><g fill="#f0f2f2"><path d="M173.969 57.684c.502-.183.788-.159 1.311-.167l.242.138c-.403.243-.987.198-1.487.216zm-.691 7.13l36.041.034.021 16.957-.007 8.94.003 2.208-.016 43.932-36.066.037-.019-30.443-.007-7.991.032-5.602.004-3.611.006-5.07z"/></g><path d="M173.278 64.814l36.041.034.021 16.957-.007 8.94.003 2.208-36.076-.067.004-3.611.006-5.07z" fill="url(#B)"/><path d="M198.123 76.795c3.722-.461 6.617.962 8.073 4.54l3.144.47-.007 8.94.003 2.208-36.076-.067.004-3.611.006-5.07.056-.012c.899-.194 1.704-.639 2.536-1.03 3.48-1.635 4.875-2.342 8.694-1.416 3.34.917 4.96 1.147 8.332.056.791-2.617 2.604-4.293 5.237-5.008z" class="P"/><path d="M198.123 76.795c3.722-.461 6.617.962 8.073 4.54.502 2.217.645 4.082-.334 6.231-.766 1.39-1 1.729-2.629 1.788-1.661-.261-8.136.206-9.003-.317-1.239-2.093-1.907-3.776-1.475-6.234l.132-.999c.791-2.617 2.604-4.293 5.237-5.008z" class="N"/><path d="M194.61 85.707c.183-.725-.186-2.418.076-3.301a5.36 5.36 0 0 1 2.418-3.061 5.01 5.01 0 0 1 3.888-.476c1.939.571 3.135 2.099 3.523 3.987.094.463.16.945.406 1.35.127 1.643-.91 2.864-1.792 4.167-1.049.27-5.887.099-6.995.025-.671-.852-1.151-1.675-1.525-2.691z" class="G"/><path d="M199.182 79.627l.538.108c.416.817 2.635 1.686 1.865 2.843-1.102.201-1.232-1.204-2.5-.737l-.101.24c.368 1.337 3.13 1.421 3.082 3.325-.034 1.361-1.304 1.348-1.956 1.983-.038.325-.035.352-.146.654l-.463.205-.19-.211c-.144-1.403-.611-.605-1.6-1.527-.113-.105-.524-.949-.46-1.225 1.252-.446 2.005.996 2.873.544.584-1.998-3.255-1.03-2.755-3.597.353-1.808 1.548-.996 1.815-2.606z" class="C"/><g class="I"><path d="M194.229 89.036c-1.239-2.093-1.907-3.776-1.475-6.234.369 2.468.179 3.188 1.497 5.484.835-.047 1.053-.027 1.884.112 1.107.074 5.946.245 6.995-.025 1.455-.012 1.658.165 2.732-.807-.766 1.39-1 1.729-2.629 1.788-1.661-.261-8.136.206-9.003-.317zm.381-3.329c-1.163-3.617 1.021-7.49 5.004-7.43a5.46 5.46 0 0 1 3.861 1.657c1.166 1.225 1.491 2.633 1.446 4.272-.246-.405-.312-.888-.406-1.35-.388-1.888-1.583-3.416-3.523-3.987a5.01 5.01 0 0 0-3.888.476 5.36 5.36 0 0 0-2.418 3.061c-.262.883.107 2.576-.076 3.301z"/></g><g class="J"><path d="M173.269 84.206l.056-.012c.899-.194 1.704-.639 2.536-1.03 3.48-1.635 4.875-2.342 8.694-1.416 3.34.917 4.96 1.147 8.332.056l-.132.999c-.432 2.458.236 4.141 1.475 6.234-1.261.517-18.363.244-20.966.24-.035-1.629.001-3.429.006-5.07zm32.927-2.871l3.144.47-.007 8.94c-1.685.003-3.664.057-5.316-.112.992-.241 3.539.008 4.614-.125.28-.035.319-.235.432-.464l-.097-.239c-.986-.711-4.244-.023-5.733-.452 1.629-.059 1.863-.398 2.629-1.788.979-2.148.836-4.014.334-6.231z"/></g><path d="M184.554 81.748c3.233-2.305 2.099-4.198 4.708-6.23 2.02-1.574 6.608.7 8.861 1.278-2.632.716-4.446 2.391-5.237 5.008-3.372 1.091-4.992.861-8.332-.056z" class="M"/><path d="M176.651 71.608l17.002.006-.006 2.342-16.995-.033z" class="B"/><path d="M179.421 114.254c-.306-.342-.784-.975-.842-1.446-.422-3.433.031-7.27-.149-10.767-.073-1.398-.227-4.519.737-5.31.423-.348.869-.675 1.434-.711 2.25-.142 4.746-.082 7.002-.081l14.823.038c1.354.709 1.92 1.548 1.784 3.107-.315 3.61.703 11.95-.64 14.91-.576 1.11-1.494 1.152-2.646 1.155-6.601.019-13.204.034-19.805-.021-.772-.006-1.213-.313-1.698-.875z" class="L"/><path d="M203.569 113.994c-.576 1.11-1.494 1.152-2.646 1.155-6.601.019-13.204.034-19.805-.021-.772-.006-1.213-.313-1.698-.875.617.15 1.222.234 1.859.233l20.704-.046c.519-.012 1.11-.249 1.585-.448z" class="M"/><path d="M189.026 100.676l7.683 4.707-2.865 1.787-4.831 2.835.013-9.33z" class="E"/><g class="B"><path d="M178.698 123.334l20.224.007-.009 2.32-20.218.015zm.001-4.403l13.638.013-.022 2.295c-4.119.185-9.431.027-13.601.004zm5.064 11.581c1.591-.17 12.954-.189 13.589.266.212.49.122.741.031 1.256-.344.046-.691.076-1.039.089-1.431.047-11.969.241-12.546-.297-.214-.424-.103-.844-.035-1.315z"/></g><path d="M178.129 129.717a2.63 2.63 0 0 1 3.026 2.119 2.63 2.63 0 0 1-2.082 3.052c-.929.181-1.884-.151-2.499-.87s-.798-1.713-.476-2.604a2.63 2.63 0 0 1 2.03-1.697z" class="F"/><path d="M183.858 132.89l6.604-.047 4.525.081c.426.036.507.232.71.521.063.519.026.592-.171 1.081-3.653.12-7.463 0-11.127-.031-.382-.003-.475-.209-.658-.472-.088-.524-.031-.645.117-1.134z" class="B"/><path d="M204.688 130.002a1.28 1.28 0 0 1 1.409 1.117 1.28 1.28 0 0 1-2.291.936c-.281-.368-.341-.859-.16-1.284s.582-.719 1.042-.768z" class="F"/><g fill="#313b7b"><path d="M186.768 139.998c1.336.011 8.306-.242 8.949.255.176.524.125.372-.001.967-1.311-.009-8.288.217-8.927-.24-.202-.507-.138-.375-.021-.982zm.291-79.001c1.282.01 7.928-.326 8.543.32l-.013.459c-2.521.021-5.634.107-8.177-.039-.341-.019-.375-.148-.514-.372z"/></g><path d="M118.718 100.955c4.344 1.176 8.778 2.848 13.118 4.15l15.121 4.804c1.676.518 5.802 1.951 7.348 2.241 1.792.535 4.387 1.199 6.067 1.788.712.224 3.989.981 4.097 1.548l.3.564c-.001 1.215.27 6.385-.362 7.256-.312.429-1.433.517-1.884 1.318l.29.268c.584.458.586.323.82.928l-.138.576c.06.328.078.537.218.837.313.397.193 3.685.189 4.395l.006.166c.019.745-.252 1.392-.209 1.611.309.064.417.082.732.098-.681.072-.993-.01-1.472.354.964.546 1.179.557 1.37 1.652.064 2.008.62 4.622-1.11 5.91-.012 1.037.274 3.758-.457 4.496-.863.871-20.091 8.425-22.304 8.877-2.182.233-9.55-2.067-11.995-2.773l-15.367-4.367c-2.066-.754-6.946-1.937-9.253-2.574-2.969-.806-7.013-1.873-9.912-3.051-.498-.202-.662-1.003-.778-1.518.187-.985.158-2.397.169-3.431l.108-.145.036-.706.078-.388c-.125-.673-.121-2.37-.136-3.134l-.012-.876.033-.567.012-.24.034-.734.392-.268c.334-.234.74-.426 1.106-.615-.665-.35-1.335-.636-1.812-1.215l-.019-.89.045-.523c-.072-.658-.05-2.329-.061-3.062l-.096-1.027.106-.609-.077-.49.426-.522.856-.318c.896-.363.783-.502 1.006-1.357-.499-.36-.703-.385-1.295-.542-.677-.403-.942-.533-1.253-1.235.036-.362.026-.884.03-1.261l.029-.132c.004-1.76-.056-3.608-.088-5.374l.139-.23c.136-.268.29-.422.585-.526l7.594-2.662 17.628-6.474z" class="Q"/><g class="P"><path d="M93.485 121.067l.856-.318c.743.398 3.397 1.184 4.412 1.527l14.717 4.651 17.375 5.335 7.168 2.029c.446.114 1.403-.087 1.83-.243 3.903-1.418 7.878-3.028 11.742-4.537l7.327-2.849c.854-.334 2.369-.848 3.103-1.197a2.76 2.76 0 0 0 .8-.573c.584.458.586.323.82.928l-.138.576c.06.328.078.537.218.837.313.397.193 3.685.189 4.395l.006.166c.019.745-.252 1.392-.209 1.611.309.064.417.082.732.098-.681.072-.993-.01-1.472.354.964.546 1.179.557 1.37 1.652.064 2.008.62 4.622-1.11 5.91-.012 1.037.274 3.758-.457 4.496-.863.871-20.091 8.425-22.304 8.877-2.182.233-9.55-2.067-11.995-2.773l-15.367-4.367c-2.066-.754-6.946-1.937-9.253-2.574-2.969-.806-7.013-1.873-9.912-3.051-.498-.202-.662-1.003-.778-1.518.187-.985.158-2.397.169-3.431l.108-.145.036-.706.078-.388c-.125-.673-.121-2.37-.136-3.134l-.012-.876.033-.567.012-.24.034-.734.392-.268c.334-.234.74-.426 1.106-.615-.665-.35-1.335-.636-1.812-1.215l-.019-.89.045-.523c-.072-.658-.05-2.329-.061-3.062l-.096-1.027.106-.609-.077-.49z"/><path d="M113.638 137.304l18.245 5.104 8.16 2.413c.711.622-.052 4.275.508 5.55-.174.04-.539.073-.564.204-.211 1.132-.027 2.774.081 3.93.019.201.253.236.389.286-2.182.233-9.55-2.067-11.995-2.773l-15.367-4.367a81.56 81.56 0 0 0-.051-4.586l.032-.257c.241-.014.235-.026.457-.129.231-.831.121-4.273.104-5.375z"/></g><path d="M93.485 121.067l.856-.318c.743.398 3.397 1.184 4.412 1.527l14.717 4.651 17.375 5.335 7.168 2.029c.446.114 1.403-.087 1.83-.243 3.903-1.418 7.878-3.028 11.742-4.537l7.327-2.849c.854-.334 2.369-.848 3.103-1.197a2.76 2.76 0 0 0 .8-.573c.584.458.586.323.82.928l-.138.576c.06.328.078.537.218.837-1.043.234-4.169 1.623-5.391 2.098l-11.395 4.395c-1.7.671-5.006 2.103-6.595 2.592l-13.094-3.921-13.29-3.755c-.422 1.155.253 5.265-.263 6.38-2.903-1.03-6.234-1.741-9.204-2.697-2.528-.802-7.161-2.346-9.511-2.922-.665-.35-1.335-.636-1.812-1.215l-.019-.89.045-.523c-.072-.658-.05-2.329-.061-3.062l-.096-1.027.106-.609-.077-.49z" class="H"/><path d="M93.135 122.079c1.221.917 9.292 3.051 11.359 3.768l-.011 6.479c-2.528-.802-7.161-2.346-9.51-2.922-.665-.35-1.335-.636-1.812-1.215l-.019-.89.045-.523c-.072-.658-.05-2.329-.061-3.062l-.096-1.027z" class="J"/><path d="M104.494 125.847l9.456 2.797c-.422 1.155.253 5.265-.263 6.38-2.903-1.03-6.234-1.741-9.204-2.697l.011-6.479z" class="H"/><path d="M93.059 121.589c2.178 1.149 7.163 2.555 9.656 3.311l17.369 5.115 12.307 3.536c2.249.647 6.995 2.499 9.184 1.72 2.921-1.039 5.922-2.331 8.84-3.434 3.535-1.494 10.022-3.511 13.081-5.441.06.328.078.537.218.837-1.043.234-4.169 1.623-5.391 2.098l-11.395 4.395c-1.7.671-5.006 2.103-6.595 2.592l-13.094-3.921-13.29-3.755c-3.062-.806-6.421-1.854-9.456-2.797-2.067-.717-10.138-2.851-11.359-3.768z" class="Q"/><path d="M164.329 135.509c.064 2.008.62 4.622-1.11 5.91-.012 1.037.274 3.758-.457 4.496-.863.871-20.091 8.425-22.304 8.877-.137-.05-.371-.085-.389-.286-.108-1.156-.292-2.798-.081-3.93.025-.13.39-.164.564-.204-.56-1.276.204-4.928-.508-5.55.013-.002.24-.032.257-.039 7.158-2.972 17.195-6.105 24.029-9.274z" class="H"/><path d="M93.44 131.021c1.26.804 8.956 3.006 10.85 3.571 2.752.948 6.877 1.752 9.348 2.712.017 1.102.127 4.544-.104 5.375-.222.103-.216.115-.457.129l-.032.257a81.55 81.55 0 0 1 .051 4.586c-2.066-.754-6.946-1.937-9.253-2.574-2.969-.806-7.013-1.873-9.912-3.051-.498-.202-.662-1.003-.778-1.518.187-.985.158-2.397.169-3.431l.108-.145.036-.706.078-.388c-.125-.673-.121-2.37-.136-3.134l-.012-.876.033-.567z" class="J"/><path d="M104.29 134.593c2.752.948 6.877 1.752 9.348 2.712l-.104 5.375c-.222.103-.216.115-.457.129l-8.904-2.509c-.049-1.718.008-4.012.117-5.706z" class="H"/><path d="M93.322 137.078l.108-.145.067.171c.81.88 8.826 2.971 10.476 3.42-.556.669-.378 3.73-.13 4.554-2.969-.806-7.013-1.873-9.912-3.051-.498-.202-.662-1.003-.778-1.518.187-.985.158-2.397.169-3.431z" class="J"/><path d="M103.972 140.524l9.073 2.542.051 4.586c-2.066-.754-6.946-1.937-9.253-2.574-.248-.824-.426-3.884.13-4.554z" class="H"/><path d="M93.496 137.104c1.345.313 3.823 1.197 5.266 1.61l5.411 1.585 8.904 2.509-.032.257c-2.46-.889-6.288-1.628-9.073-2.542-1.65-.449-9.666-2.54-10.476-3.42z" class="P"/><path d="M163.714 127.233c.313.397.193 3.685.189 4.395l.006.166c.019.745-.252 1.392-.209 1.611.309.064.417.082.732.098-.681.072-.993-.01-1.472.354-.365.155-.797.305-1.09.555.324.556.368.431.302.96-1.219 1.518-10.017 4.253-12.419 5.28-2.692 1.152-6.315 2.431-9.175 3.35-.236.069-1.951-.086-2.273-.135l.598-.377c3.362-.463 8.179-2.835 11.489-3.995 3.486-1.222 7.208-2.675 10.528-4.255.239-.113.199-.346.236-.593-4.748 1.643-9.574 3.636-14.303 5.373-1.465.538-5.1 2.135-6.372 2.413-.025-.84-.001-5.728-.147-6.113 1.589-.489 4.894-1.921 6.595-2.592l11.395-4.395c1.222-.475 4.348-1.864 5.391-2.098z" class="H"/><path d="M94.973 129.404c2.349.575 6.982 2.12 9.51 2.922l9.204 2.697 18.771 5.241 6.764 2.261.116.214c-.258.37-.477.434-.876.622l.439.129-.598.377c.323.048 2.037.204 2.273.135l9.175-3.35c2.402-1.027 11.2-3.762 12.419-5.28.066-.529.022-.403-.302-.96.293-.251.725-.4 1.09-.555.964.546 1.179.557 1.37 1.652-6.833 3.168-16.871 6.302-24.029 9.274-.017.007-.244.037-.257.039-1.791-.386-6.128-1.835-8.16-2.413l-18.245-5.104c-2.471-.96-6.597-1.763-9.348-2.712-1.894-.565-9.59-2.767-10.85-3.571l.034-.734.392-.268c.334-.234.74-.426 1.106-.615z" class="Q"/><path d="M94.973 129.404c2.349.575 6.982 2.12 9.51 2.922l9.204 2.697 18.771 5.241 6.764 2.261.116.214c-.258.37-.477.434-.876.622-3.745-1.374-9.577-2.787-13.535-3.964-10.345-3.075-20.918-5.666-31.061-9.377.334-.234.74-.426 1.106-.615z" fill="#288b89"/><path d="M93.474 130.287l.392-.268c10.143 3.711 20.716 6.302 31.061 9.377 3.958 1.177 9.791 2.59 13.535 3.964l.439.129-.598.377c-.84.013-8.745-2.465-10.258-2.896l-17.776-5.016c-2.926-.825-15.199-4.108-16.795-5.667z" class="J"/><path d="M92.91 110.617c.97.171 3.444 1.012 4.461 1.352l6.181 2.047c2.653.538 6.405 2.01 9.181 2.785 7.179 2.792 15.738 4.438 23.024 7.163a39.65 39.65 0 0 0 3.519 1.095c.986-.45 2.025-.679 3.072-1.221 1.827-.533 4.53-1.647 6.373-2.345l11.848-4.535c1.317-.356 2.634-.944 3.898-1.472l.3.564c-.001 1.215.27 6.385-.362 7.256-.312.429-1.433.517-1.884 1.318l.29.268a2.76 2.76 0 0 1-.8.573c-.734.349-2.249.864-3.103 1.197l-7.327 2.849-11.742 4.537c-.427.155-1.383.356-1.83.243-2.376-.605-4.818-1.341-7.168-2.029l-17.375-5.335-14.717-4.651c-1.015-.343-3.669-1.129-4.412-1.527.896-.363.783-.502 1.006-1.357-.499-.36-.703-.385-1.295-.542-.677-.403-.942-.533-1.253-1.235.036-.362.026-.884.03-1.261l.029-.132c.004-1.76-.056-3.608-.088-5.374z" class="P"/><path d="M160.57 116.958c1.317-.356 2.634-.944 3.898-1.472l.3.564c-.001 1.215.27 6.385-.362 7.256-.312.429-1.433.517-1.884 1.318-.23-.051-.46-.055-.681.038l-20.151 8.138a18.7 18.7 0 0 1-2.285.793c-.201-1.975-.071-4.078-.097-6.066l-.031-2.467c.986-.45 2.025-.679 3.072-1.221 1.827-.533 4.53-1.647 6.373-2.345z" class="H"/><path d="M92.91 110.617c.97.171 3.444 1.012 4.461 1.352l6.181 2.047c-.327 1.53-.105 6.299-.174 8.033-1.454-.679-6.492-2.459-8.032-2.657-.499-.36-.703-.385-1.295-.542-.677-.403-.942-.533-1.253-1.235.036-.362.026-.884.03-1.261l.029-.132-.088-5.374z" class="J"/><path d="M103.553 114.016c2.653.538 6.405 2.01 9.181 2.785l.012 8.383-9.367-3.135.174-8.033z" class="H"/><g class="R"><path d="M142.35 123.838c.303-.473 1.104-.712 1.627-.909l16.109-6.079.485.108-11.848 4.535-6.373 2.345zm-22.908-21.195c.375-.199.789-.154 1.178.026 2.656 1.23 7.067 1.901 9.506 3.166.093.188.12.196.158.396 2.431.181 3.711 1.084 5.797 1.645.854.001 22.178 6.753 22.386 6.965.592.174 1.285.263 1.708.641-.249.405-16.475 5.974-18.648 7.043-2.166-.78-3.562.089-5.646-.485-3.497-.963-6.929-2.289-10.463-3.121-.749-.176-1.752-.267-2.425-.44l.71.489c-1.397.088-7.966-2.524-9.801-3.051-.994-.285-2.753-1.475-3.871-1.776-2.632-.71-5.338-2.324-8.087-2.052-.278.018-5.736-1.678-6.128-1.833 2.918-.57 5.317-1.615 8.115-2.561 4.733-1.599 9.405-3.333 14.106-5.022.402-.145 1.002-.183 1.407-.03z"/></g><g class="H"><path d="M136.08 107.876c.854.001 22.178 6.753 22.386 6.965-1.856 1.706-6.773 2.549-8.856.898-.183-.144-.091-.435-.056-.612.759-.917 1.853-1.017 3.031-1.312-5.105-1.938-11.964-3.263-16.504-5.938zm-16.638-5.233c.375-.199.789-.154 1.178.026 2.656 1.23 7.067 1.901 9.506 3.166.093.188.12.196.158.396-2.399.188-4.367-1.223-6.64-1.736-1.385-.313-6.771 1.036-7.39-.695l.148-.11c1.829.534 2.329 1.527 3.04-1.046zm8.529 4.353c2.59-.324 7.786.546 9.367 2.539 2.945 3.712-3.828 7.384-6.709 8.025-2.956.657-5.41.761-8.205.499-2.521-.29-6.952-1.785-9.255-2.958-1.575-1.097-.577-2.724.548-3.442 4.183-2.671 9.338-4.286 14.254-4.663z"/></g><path d="M127.496 109.128c.404.078.766.267 1.131.457 1.684.873 3.411 1.316 5.243 1.752-2.307 2.264-4.043 3.615-6.766 5.381-1.252-.237-3.424-.93-4.822-1.257l-6.124-1.743 6.81-1.954c-.421-.228-1.822-.905-1.904-1.299.532-.312 3.099-.363 4.027-.595.982-.246 1.412-.374 2.406-.741z" class="R"/><g class="H"><path d="M102.649 109.043c1.318-.181 3.148-.143 4.219.712.236.465.22.263.063.751-.706.738-1.734.774-2.749.944-2.288.121-2.945.219-5.06-.636 1.388-1.227 1.718-1.628 3.526-1.771zm36.366 9.796c1.063-.062 3.732-.145 4.271.946l-.118.312c-.461.391-1.028.443-1.628.566-1.049.11-3.97.227-4.297-1.004.37-.589 1.133-.68 1.773-.819zm-25.574-12.591c1.164-.07 3.478-.202 4.187.92l-.093.294c-.398.406-.84.486-1.386.652-1.252.144-3.527.272-4.303-.898l.104-.313c.459-.414.896-.486 1.491-.655z"/></g><path d="M138.864 122.814c.535-.046 1.573-.265 1.846.229-.31.371-.817.466-1.288.611-.968-.104-1.486-.263-2.405-.526l1.847-.314z" class="R"/><g class="D"><path d="M85.474 127.54l4.276.425 3.411.224c.477.578 1.147.865 1.812 1.215l-1.106.615-.392.268-.034.734-.012.24-.033.567.012.876.136 3.134-.078.388-.036.706-.108.145c-.011 1.033.018 2.446-.169 3.431-2.426-.02-4.834-.298-7.257-.459-.813 2.292-3.908 2.888-6.076 3.33-2.461.408-8.924 1.121-11.12.45.024.813.117 1.679-.514 2.251-2.451 2.223-7.89 2.547-11.114 2.616-3.366.073-10.348-.292-13.009-2.546-1.363-1.155-.411-6.393-.453-8.635l.105-.842c.29-.842.155-2.064.112-2.988l-.074-.061c-.014-.853-.076-1.205.362-1.924.547-.219 1.19-.766 2.363-1.189 4.008-1.445 9.418-1.762 13.602-1.3l2.344.335.535-.274c.675.15 1.853.443 2.501.542 3.2.788 9.711 1.052 12.93.34 2.557-.306 4.963-.642 7.009-2.309z"/><path d="M85.474 127.54l4.276.425 3.411.224c.477.578 1.147.865 1.812 1.215l-1.106.615-.392.268-.034.734-.012.24-.033.567.012.876.136 3.134-.078.388-.036.706-.108.145c-.011 1.033.018 2.446-.169 3.431-2.426-.02-4.834-.298-7.257-.459-.813 2.292-3.908 2.888-6.076 3.33-2.461.408-8.924 1.121-11.12.45-.055-1.426-.097-2.318.209-3.711l-.088-.601.012-1.719.074-.658c.15-.673.199-1.271.266-1.952 1.886.107 7.176.389 8.787-.127.631-.068.714-.196 1.143.09.397.918.1 2.055.132 3.197.542-.123 1.509-.373 2.028-.435 1.829-.587 2.573-.779 4.116-1.918.02-1.096-.016-2.678.135-3.712l.062-.171-.135-1.174c-.051-.245-.04-2.679-.042-3.092z"/></g><path d="M68.908 140.119c3.296.054 7.39.207 10.591-.275-.01.603-.137 3.104.112 3.443l.209.093c-2.461.408-8.924 1.121-11.12.45-.055-1.426-.097-2.318.209-3.711z" class="I"/><g class="G"><path d="M77.959 135.062c.631-.068.714-.196 1.143.09.397.918.1 2.055.132 3.197l2.028-.435-.001.178c-3.098 1.087-7.975.936-11.216.888-.311-.005-.655.037-.891.23.757.263 5.219-.11 6.252.224-.571.13-5.728.098-6.587.083l.012-1.719.074-.658c.15-.673.199-1.271.266-1.952 1.886.107 7.176.389 8.787-.127zm7.515-7.522l4.276.425 3.411.224c.477.578 1.147.865 1.812 1.215l-1.106.615-.392.268-.034.734-.012.24-.033.567.012.876c-.03-.02-7.078-.552-7.833-.591l-.135-1.174c-.051-.245-.04-2.679-.042-3.092z"/></g><path d="M85.439 130.939c.418-.212 6.769.322 7.989.322l-.033.567.012.876c-.03-.02-7.078-.552-7.833-.591z" class="K"/><g class="S"><path d="M85.439 130.939c.418-.212 6.769.322 7.989.322l-.033.567c-1.822.027-6.492.11-7.956-.889zm.353 5.647l7.53.493c-.011 1.033.018 2.446-.169 3.431-2.426-.02-4.834-.298-7.257-.459-.105-.953-.01-2.338-.103-3.464z"/></g><path d="M85.575 132.113l7.833.591.136 3.134-7.982-.479-.048-3.075z" class="I"/><path d="M85.561 135.36c2.058-.02 5.558.388 7.982.479l-.078.388c-2.072.019-5.873-.012-7.801-.552z" class="S"/><path d="M43.714 136.674c.563.209 1.146 1.511 2.254 1.665 4.941 2.029 15.13 2.182 20.06.267.78-.13 2.019-1.045 2.664-1.53l.214.064-.074.658-.012 1.719.088.601c-.306 1.394-.265 2.286-.209 3.711.024.813.117 1.679-.514 2.251-2.451 2.223-7.89 2.547-11.114 2.616-3.366.073-10.348-.292-13.009-2.546-1.363-1.155-.411-6.393-.453-8.635z" fill="url(#C)"/><path d="M43.714 136.674c.563.209 1.146 1.511 2.254 1.665 4.941 2.029 15.13 2.182 20.06.267.78-.13 2.019-1.045 2.664-1.53l.214.064-.074.658c-2.817 4.013-22.349 3.889-25.223-.282z" class="C"/><path d="M43.96 141.316c.638.166 1.196.787 1.766.996 5.066 1.858 10.851 1.921 16.158 1.272 1.474-.18 2.906-.696 4.243-.819l.149.225c-4.442 1.98-19.285 2.557-22.316-1.675z" class="I"/><path d="M44.114 131.702c.547-.219 1.19-.766 2.363-1.189 4.008-1.445 9.418-1.762 13.602-1.3l2.344.335c1.018.175 1.845.301 2.838.604 1.293.395 4.242 1.276 3.874 3.269-.105.567-1.612 1.32-2.093 1.514-6.028 2.048-14.419 1.822-20.488.041-.639-.187-1.983-1.146-2.726-1.289l-.074-.061c-.014-.853-.076-1.205.362-1.924z" class="C"/><path d="M55.676 130.141c1.966-.212 9.048.273 9.833 2.419-.28 2.265-6.136 2.599-7.898 2.762-10.044.326-15.999-4.42-1.936-5.182z" class="D"/><path d="M59.96 133.008c-.886 1.153-7.333.912-8.63.074.14-.369.895-.08 1.204-.444l-.343-.179c1.167-1.027 7.088-1.274 8.68-.455l.031.128c-.511-.01-.862.007-1.367.042l-.066.141.28.221z" class="C"/><path d="M56.831 132.131c.49-.023.8-.083 1.234.16l.02.22c-.735.615-1.485.636-2.401.736-.28-.003-.611-.046-.894-.073l-.108-.135c.924-.227 1.383-.292 2.149-.909z" class="K"/><path d="M59.75 132.538c.402.005.895-.04 1.229.141-.503.328-.604.166-1.019.329z" class="C"/><path d="M78.388 130.157c2.557-.306 4.963-.642 7.009-2.309l.042 3.092.135 1.174-.062.171c-.151 1.034-.115 2.617-.135 3.712-1.543 1.139-2.287 1.33-4.116 1.918-.519.063-1.486.312-2.028.435-.032-1.142.265-2.279-.132-3.197-.429-.286-.512-.159-1.143-.09l-.941-.058c.619-.136 1.456-.288 2.018-.533-.67-.155-1 .113-1.911-.067l-.126-.026a20.26 20.26 0 0 0 6.746-1.875l-.03.019.201-.144c-.214-.011-4.851 1.131-5.535 1.254z" class="N"/><path d="M45.968 138.34c.6-.324.612-.199 1.557.044 5.733 1.469 12.433 1.582 18.177.021l.326.202c-4.93 1.915-15.118 1.762-20.06-.267z" class="G"/><path d="M78.383 133.633l5.535-1.254-.201.144.03-.019a20.26 20.26 0 0 1-6.746 1.875c-1.403-.136-7.067.645-7.897-.185.66-.339 1.979-.276 2.725-.241 2.235.103 4.339-.023 6.555-.32z" class="I"/><g class="N"><path d="M61.864 116.086c6.064-2.577 18.336-3.022 23.871.963 1.147-.261 2.134-.219 3.15-.399a96.98 96.98 0 0 0 3.944-.295c-.005.377.006.899-.03 1.261.311.703.576.832 1.253 1.235.591.157.795.182 1.295.542-.224.856-.11.995-1.006 1.357l-.856.318-.426.522.077.49-.106.609.096 1.027c.011.733-.011 2.404.061 3.062l-.045.523.019.89c-.861-.157-2.465-.14-3.411-.224l-4.276-.425-.076.307c-2.047 1.668-4.453 2.004-7.009 2.309-3.219.712-9.73.448-12.93-.34-.648-.099-1.827-.392-2.501-.542l-.535.274-2.344-.335-.063-1.228c-.308-.518-.038-1.117.162-1.621-.135-.93-.122-2.508-.139-3.5-.03-.533-.01-.708.236-1.111.129-.863.081-2.35.076-3.273-.081-1.44.46-1.641 1.515-2.395z"/><path d="M61.864 116.086c6.064-2.577 18.336-3.022 23.871.963 1.147-.261 2.134-.219 3.15-.399a96.98 96.98 0 0 0 3.944-.295c-.005.377.006.899-.03 1.261-1.535-.074-5.642.091-6.909.849l-.105.158c-2.018 2.271-6.672 2.729-9.559 2.781-5.045.091-11.703.35-15.876-2.921-.081-1.44.46-1.641 1.515-2.395z"/></g><path d="M71.131 115.344c2.099-.381 9.855.069 11.092 2.098.311 2.131-5.177 2.623-6.617 2.789-2.081.111-11.592.255-11.848-2.699.724-1.546 5.812-2.063 7.373-2.188z" class="D"/><path d="M76.772 118.009c-.638.604-.996.619-1.858.724-1.245.152-6.032.178-6.916-.54.251-.341.917-.014 1.683-.315-.324-.435-.624.02-1.066-.311 1.324-.121 1.419-.345 2.489-.637 1.806-.492 4.714-.5 6.468.149l.325.029c-.035.351-.209.585-.402.883z" class="C"/><path d="M77.571 117.079l.325.029c-.035.351-.209.585-.402.883l-.722.018c-.134-.171-.411-.407-.582-.563l.009-.189 1.372-.179z" class="N"/><path d="M72.658 117.817c.552-.408 1.309-.91 1.891-.283-.23.726-1.045.647-1.723.748z" class="D"/><path d="M72.658 117.817l.168.465c-.417.047-1.05.087-1.416-.111.399-.317.681-.265 1.248-.354z" class="K"/><path d="M60.039 122.865c3.704 3.341 13.633 3.484 18.316 2.75.015.975.065 2.227.02 3.175l.818-.093c1.153-.201 2.192-.432 3.304-.81.609-.207 1.263-.654 1.846-.547.456-.268.313-.543.972-.826l.158 1.027-.076.307c-2.047 1.668-4.453 2.004-7.009 2.309-3.219.712-9.73.448-12.93-.34-.648-.099-1.827-.392-2.501-.542l-.535.274-2.344-.335-.063-1.228c-.308-.518-.038-1.117.162-1.621-.135-.93-.122-2.508-.139-3.5z" class="G"/><path d="M60.177 126.365c.956 1.288 2.265 2.134 3.876 2.367.904-.379 4.433.359 5.785.418 2.29.1 6.372.296 8.537-.359l.818-.093c1.153-.201 2.192-.432 3.304-.81.609-.207 1.263-.654 1.846-.547.456-.268.313-.543.972-.826l.158 1.027-.076.307c-2.047 1.668-4.453 2.004-7.009 2.309-3.219.712-9.73.448-12.93-.34-.648-.099-1.827-.392-2.501-.542l-.535.274-2.344-.335-.063-1.228c-.308-.518-.038-1.117.162-1.621z" class="C"/><path d="M79.193 128.697c1.153-.201 2.192-.432 3.304-.81.609-.207 1.263-.654 1.846-.547-3.95 2.974-15.798 2.929-20.291 1.392.904-.379 4.433.359 5.785.418 2.29.1 6.372.296 8.537-.359z" class="I"/><g class="D"><path d="M60.015 127.986c.312-.031.191-.083.37.053.71.539 1.724.981 2.572 1.236l-.535.274-2.344-.335zm.335-9.505c4.173 3.271 10.831 3.012 15.876 2.921 2.887-.052 7.541-.509 9.559-2.781.18 1.017.291 1.847-.253 2.771l-.129.035c-.95 1.564-1.246 1.668-2.925 2.355-4.404 1.802-19.477 2.553-22.205-2.03.129-.863.081-2.35.076-3.273z"/><path d="M85.785 118.622l.105-.158c1.266-.758 5.373-.923 6.909-.849.311.703.576.832 1.253 1.235.591.157.795.182 1.295.542-.224.856-.11.995-1.006 1.357l-.856.318-.426.522.077.49-.106.609c-1.456.084-6.56-.116-7.496-1.294.544-.924.433-1.754.253-2.771z"/></g><path d="M94.052 118.85c.591.157.795.182 1.295.542-.224.856-.11.995-1.006 1.357l-.856.318-.644-.049c-.888.133-2.357.142-3.279.135-.521-.004-.572-.166-.871-.499l.04-.403-.068-.211-.516-.125-.052-.09c2.077-.647 3.796-.98 5.958-.975z" class="C"/><path d="M93.957 119.5l1.389-.108c-.224.856-.11.995-1.006 1.357l-.856.318-.644-.049c.43-.147.661-.177.952-.521l-.047-.236z" class="K"/><path d="M91.902 120.302c.8-.77.953-.8 2.056-.802l-.212.761-.689.225c-.477-.007-.728.031-1.154-.184z" class="G"/><path d="M89.793 120.488c.64-.142 1.496-.374 2.109-.186.426.215.677.177 1.154.184-1.028.175-2.211.057-3.263.002z" class="D"/><path d="M88.69 120.654c-.439.012-.791.033-1.115-.211.432-.263.59-.175 1.156-.192z" class="N"/><path d="M85.351 123.175c-.188.054 6.783.558 7.773.539l.061 3.062-.045.523.019.89c-.861-.157-2.465-.14-3.411-.224l-4.276-.425-.158-1.027.175-.344c-.105-.329-.121-2.478-.14-2.994z" class="G"/><path d="M85.492 126.169c2.862.391 4.807.522 7.695.607l-.045.523.019.89c-.861-.157-2.465-.14-3.411-.224l-4.276-.425-.158-1.027z" class="K"/><path d="M85.492 126.169c2.862.391 4.807.522 7.695.607l-.045.523c-2.113.025-5.85-.067-7.825-.786z" class="S"/><path d="M85.351 123.175l.14 2.994-.175.344c-.658.283-.516.558-.972.826-.583-.107-1.238.34-1.846.547-1.113.378-2.152.609-3.304.81l-.818.093c.045-.948-.006-2.201-.02-3.175l.803-.155c2.465-.417 4.191-.7 6.193-2.284z" class="K"/><path d="M79.158 125.46l.035 3.237-.818.093c.045-.948-.006-2.201-.02-3.175z" class="D"/><path d="M131.815 90.095l24.341.002.003 13.866.089 7.94c-.507-.005-1.563-.093-1.934.146l-.01.101c-1.545-.291-5.672-1.723-7.348-2.241l-15.121-4.804z" class="B"/><path d="M140.325 95.968c.927.403 7.542 4.506 8.481 5.18l-3.018 1.868-5.434 3.318-.028-10.366z" class="F"/><g class="B"><path d="M41.109 116.033l13.44-.016 7.316.069c-1.055.754-1.596.955-1.515 2.395l-.076 3.273c-.245.403-.266.578-.236 1.111l.139 3.5c-.2.504-.471 1.103-.162 1.621l.063 1.228c-4.183-.463-9.593-.146-13.602 1.3-1.172.423-1.816.97-2.363 1.189-.726-.065-2.175-.031-2.952-.037-.171-4.978-.039-10.59-.054-15.633zM160.698 90.09l9.174.078c-.385 1.298-.038 5.907-.083 7.605-.313-.007-1.165-.077-1.405.015l-.149-.077c-.27.107-1.431.071-1.806.085l1.961.067.064-.073.223.081.136-.078c.16.079.252.1.429.098l-.009-.001.302.066c.275 1.611.079 3.657.132 5.343-1.698-.032-6.3-1.032-4.371 3.018.378.795 3.511.314 4.482.348l-.085 4.926c.473.312.814.103 1.187.318l-1.049.164-.331 2.752c-.113-.855-.085-1.962-.089-2.842-2.769.005-6.015.086-8.744-.058.136-7.188.037-14.624.031-21.838z"/></g><path d="M133.536 73.155c.215.209.789.732.909.945l.18.336-.848 1.425-2.783 4.12c-1.883 2.763-13.319 19.238-15.11 20.139-.867-.153-14.481-9.946-16.575-11.298l-.243-.287c.186-.371.374-.979.577-1.425 1.143.499 4.109 2.567 5.24 3.346 3.624 2.509 7.209 5.074 10.752 7.696 3.812-4.641 9.785-12.969 13.189-18.05l2.863-4.215 1.448-2.165z" class="O"/><path d="M134.625 74.437c1.133.782 1.354 1.017 2.724 1.204l3.264.011-.053.144c.978.161 5.131.08 6.351.076l-.018 4.125c-4.999.02-10.947.177-15.9-.017.949-1.33 1.839-2.767 2.783-4.12.299-.45.577-.954.848-1.425z" class="B"/><path d="M134.625 74.437c1.133.782 1.354 1.017 2.724 1.204l-.094.173c-.812.111-2.652.122-3.478.047l.848-1.425z" class="E"/><path d="M88.226 96.105c1.378.489 3.724-.51 4.425 1.185.365.883.077 1.95-.873 2.206-1.672.451-4.063.246-5.808.23.463-.876 1.707-2.806 2.255-3.622z" class="B"/><path d="M88.823 116.016c1.759-2.855.434-2.708 3.948-5.169l.088 5.374-.029.132-3.944.295z" fill="#f0f2f2"/><g class="F"><path d="M88.823 116.016c1.123-.008 3.012-.082 4.036.205l-.029.132-3.944.295zm3.082-25.885c3.176 1.386 4.782.866 7.162-1.597l.243.287c-1.934 2.591-4.756 4.09-7.586 1.718z"/></g><path d="M211.789 87.602c-.1-1.234-.085-7.825.086-8.765 1.069.374 11.257.142 12.905.141l34.277.26 11.216.004c1.23 0 5.202-.271 5.947.429.289 1.602.179 9.844.182 12.045l.063 24.293c.258.318 1.646 1.94 1.778 2.193.987 1.894 1.383 4.326 1.2 6.443-.1 1.144-.784 3.593-1.597 4.292-.514.934-1.09 1.46-1.484 2.142.016 1.035.079 2.148.04 3.182-.104 2.675.394 3.509-2.593 3.485-20.648-.164-41.375.206-62.016-.061a317.36 317.36 0 0 1 .004-9.88c.193-4.293.022-10.024.022-14.456z" fill="#47549a"/><path d="M211.789 87.602c-.1-1.234-.085-7.825.086-8.765 1.069.374 11.257.142 12.905.141l34.277.26 11.216.004c1.23 0 5.202-.271 5.947.429.289 1.602.179 9.844.182 12.045l.063 24.293c-.92-.652-2.026-1.297-3.075-1.701l.04-17.54c.007-1.774.133-7.156-.127-8.563-.344-.291-1.815-.425-2.3-.428l-20.575-.04-37.264-.142z" fill="url(#D)"/><g class="M"><path d="M267.688 82.384a1.1 1.1 0 0 1 1.434.567c.243.548.004 1.19-.538 1.445a1.1 1.1 0 0 1-1.563-1.119c.045-.396.3-.738.666-.892zm4.457-.009a1.1 1.1 0 0 1 1.456 1.261 1.1 1.1 0 0 1-2.113.112c-.186-.56.104-1.166.656-1.373zm-8.861.008c.554-.203 1.167.077 1.375.629s-.067 1.168-.618 1.38c-.557.215-1.181-.065-1.392-.623s.075-1.181.634-1.386z"/></g><path d="M220.408 127.732c4.125.155 8.459-.011 12.608.055l30.155.116c.208.791 1.248 2.015 1.783 2.69 2.547 2.214 5.396 2.885 8.673 1.981.99-.345 1.881-.906 2.736-1.496.016 1.035.079 2.148.04 3.182-.104 2.675.394 3.509-2.593 3.485-20.648-.164-41.375.206-62.016-.061a317.36 317.36 0 0 1 .004-9.88c2.036-.027 6.951.098 8.609-.071z" fill="url(#E)"/><path d="M264.954 130.592c2.547 2.214 5.396 2.885 8.673 1.981-.459.924-.867 1.488-1.976 1.618-1.988.233-4.182.076-6.189-.036-1.22-1.229-1.494-2.052-.508-3.562z" class="F"/><path d="M212.846 129.292c.136.499.144.779.177 1.283.904.114 2.681.065 3.675.07l6.942.029 23.982.026c.013.609.146 1.424-.089 1.911l-.378.099-23.738.007-7.176.062c-.853.012-3.082.103-3.845 0-.538-.736-.211-1.965.375-2.647.104-.122.07-.656.075-.841z" fill="url(#F)"/><path d="M257.505 130.804l3.538.017-.016 3.13-3.521.057z" class="F"/><path d="M252.589 131.046c.349.181.674.44.993.674.215.461.185.252.056.816-.237.209-.293.259-.362.57-.182.58-.059.441-.431.791l-.166-.091c-.277-.871-.167-1.858-.091-2.76z" fill="#7f89bd"/><path d="M262.509 120.773c.037-.274.089-.421.176-.684a9.05 9.05 0 0 1 4.493-5.271c1.896-.95 4.192-1.193 6.214-.513 1.049.405 2.155 1.05 3.075 1.701l1.778 2.193c.987 1.894 1.383 4.326 1.2 6.443-.1 1.144-.784 3.593-1.597 4.292-.514.934-1.09 1.46-1.484 2.142-.855.591-1.746 1.152-2.736 1.496-3.277.905-6.126.233-8.673-1.981-.535-.675-1.575-1.898-1.783-2.69l-.863-2.782c-.101-.675-.108-1.599-.133-2.299.062-.872.119-1.2.334-2.049z" class="C"/><path d="M262.175 122.822c.062-.872.119-1.2.334-2.049-.094 3.289-.078 6.197 2.43 8.836 1.544 1.6 3.662 2.519 5.886 2.554 2.408.059 4.184-.631 5.871-2.253.308-.295.8-.785 1.151-.976-.514.934-1.09 1.46-1.484 2.142-.855.591-1.746 1.152-2.736 1.496-3.277.905-6.126.233-8.673-1.981-.535-.675-1.575-1.898-1.783-2.69l-.863-2.782c-.101-.675-.108-1.599-.133-2.299z" class="G"/><path d="M269.698 116.031c8.878-.675 11.002 11.192 2.508 13.964-1.649.271-3.271.062-4.718-.813-1.559-.955-2.667-2.496-3.079-4.277-1.02-4.238.99-7.887 5.29-8.874z" class="D"/><path d="M270.451 117.848c.233.042.434.097.661.155.539.995 2.679 1.692 2.443 2.941-.429.356-.835.215-1.333.302-.917.16-.606-1.066-1.589-1.037-.312.313-.319.427-.431.861.461 1.569 7.604 2.595 1.324 6.284-.081.048.063.566-.608 1.033l-.385-.255c-.103-.292-.114-.342-.152-.653l-.009-.078c-1.646-1.405-1.843-.212-2.669-2.761l1.638-.036c.936.335.532 1.048 1.648 1.145.543-.291.363-.119.677-.658-.119-1.818-2.547-1.286-3.205-2.419-1.121-1.935.041-3.09 1.729-3.895.252-.12.231-.644.262-.931z" class="C"/><path d="M223.938 122.748l8.486.04 19.332-.036 6.352.071h4.068l.133 2.299a33.43 33.43 0 0 0 .863 2.782c-9.983-.184-20.149.042-30.155-.116-4.148-.066-8.483.1-12.608-.055-.646-.381-5.899-.222-7.055-.215 0-.609-.092-2.301.085-2.772.072.068.394.36.453.371 1.208.228 4.157.291 5.276.004 1.434-.04 3.571.053 4.884-.043.362-.406.552-.605.601-1.15-.1-.565-.328-.75-.713-1.177z" fill="#47549a"/><path d="M232.424 122.788l19.332-.036 6.352.071h4.068l.133 2.299c-3.231.076-6.841-.002-10.11-.006l-19.645-.027c.792-1.028.674-1.343-.129-2.301z" fill="#7f89bd"/><g fill="#9fa2c7"><path d="M260.323 123.551a.6.6 0 0 1 .826.078.6.6 0 0 1-.645.957.6.6 0 0 1-.181-1.036zm-2.922-.002c.164-.143.394-.18.593-.096a.57.57 0 0 1 .058 1.019c-.253.143-.574.07-.741-.167a.57.57 0 0 1 .089-.755zm-2.526-.004c.161-.126.378-.155.567-.076a.56.56 0 0 1 .341.457.56.56 0 0 1-.231.522c-.249.179-.596.126-.781-.12s-.138-.594.104-.783z"/></g><path d="M223.938 122.748l8.486.04c.803.958.921 1.272.129 2.301-2.275.141-6.144 0-8.502-.013.362-.406.552-.605.601-1.15-.1-.565-.328-.75-.713-1.177z" fill="#fa93a2"/><path d="M211.789 87.602l1.375-.009c.207.628.083 3.53.108 4.414.207 7.438-.006 14.903.078 22.342.034 2.953-.211 6.511.007 9.372.28 2.176 4.008 1.299 5.81 1.398-1.119.288-4.068.224-5.276-.004-.059-.011-.381-.303-.453-.371-.177.472-.085 2.163-.085 2.772 1.156-.006 6.409-.165 7.055.215-1.658.169-6.573.044-8.609.071.193-4.293.022-10.024.022-14.456z" fill="#313b7b"/><path d="M213.357 123.721a4.88 4.88 0 0 1 .45-.507c.981-.936 8.427-.481 10.131-.465.385.427.614.613.713 1.177-.048.546-.239.744-.601 1.15-1.312.096-3.45.004-4.884.043-1.802-.099-5.53.778-5.81-1.398z" class="B"/><path d="M239.829 98.483c5.147-.802 9.965 2.734 10.743 7.885s-2.783 9.952-7.938 10.705c-5.12.748-9.88-2.783-10.654-7.899s2.736-9.895 7.849-10.692z" class="L"/><path d="M238.89 103.593c.814.253 5.344 3.506 6.349 4.22l-2.502 1.72-3.86 2.473c-.13-2.186-.139-6.264.013-8.414z" class="E"/><path d="M228.822 20.196c2.137-2.408 4.425-4.345 7.31-1.465 3.114 3.109 5.106 7.083 6.573 11.453 1.418 4.228 3.87 12.765.833 16.935-.475.652-1.378.813-2.15.858-1.337.025-2.638-.048-3.954-.291-.609.014-5.915-.957-7.239-1.1-2.659-.286-5.32-.211-7.852-.494l-.275-.133c-4.367-3.119-6.214-10.596-4.789-15.638 2.728-1.904 5.707-4.656 8.159-6.886 1.047-.953 2.329-2.401 3.384-3.239z" fill="url(#G)"/><path d="M232.503 17.902c6.045.519 9.498 12.004 10.904 16.822.05 2.21 2.383 11.79-1.422 12.263-2.966.369-6.303-5.925-7.466-8.224-.331-.583-.965-2.14-1.263-2.819-.962-2.683-1.458-4.34-2.057-7.123-.718-3.23-1.339-8.452 1.304-10.919z" class="M"/><g class="L"><path d="M231.199 28.822c.853-.288 5.347-.43 6.435-.473-.681 2.239-.305 2.987.35 5.156l-4.729 2.44c-.962-2.683-1.458-4.34-2.057-7.123z"/><path d="M237.634 28.348c2.684.3 4.378 6.395 2.451 7.485-1.157-.646-1.512-1.167-2.101-2.329-.655-2.169-1.031-2.917-.35-5.156z"/></g><path d="M237.984 33.504c.589 1.162.943 1.683 2.101 2.329-1.648 1.024-3.794 2.082-5.566 2.93-.331-.583-.965-2.14-1.263-2.819l4.729-2.44z" fill="#de4656"/><path d="M228.822 20.196c2.137-2.408 4.425-4.345 7.31-1.465 3.114 3.109 5.106 7.083 6.573 11.453 1.418 4.228 3.87 12.765.833 16.935-.475.652-1.378.813-2.15.858-1.229-.227-2.902-1.646-3.636-2.648 1.86 1.437 4.412 4.177 6.202.705 1.522-2.954.434-9.706-.533-12.736-.114.243.025.911-.013 1.427-1.406-4.818-4.859-16.304-10.904-16.822l-.016-.161c-2.363.842-2.291 2.139-3.665 2.454z" class="E"/><path d="M237.434 47.686c.227-.158.352-.228.621-.297-.139-.294-.876-.532-1.25-.698-.353-.423-.319-1.22-.577-1.919l-.198.021-.117.668c-.205-.248-.514-.879-.68-1.191-.258-.069-.297-.052-.463-.261-.177-.471-.04-.756.11-1.235.309-.989-.356-1.903-.854-2.77l.056-.078c.667.641.491.948.901 1.552.584.858 1.98 3.322 2.769 3.85.734 1.002 2.407 2.422 3.636 2.648-1.337.025-2.638-.048-3.954-.291z" class="F"/><path d="M229.734 24.137c.154.433.415 3.046.53 3.794-.098-.071-.245-.233-.337-.326-.299-1.293-.253-2.17-.193-3.468z" class="B"/><path d="M257.292 15.271c2.423-.147 4.238.104 6.356 1.419a10.97 10.97 0 0 1 4.852 6.944c1.419 6.337-1.831 12.101-8.379 13.463-13.894 1.789-16.431-19.69-2.829-21.826z" class="C"/><path d="M250.819 23.048c.905-2.33 2.818-4.125 5.202-4.881a8.26 8.26 0 0 1 10.427 10.188c-1.014 3.471-4.166 5.879-7.78 5.945a8.26 8.26 0 0 1-7.991-5.659c-.605-1.824-.555-3.802.142-5.593z" class="D"/><g class="G"><path d="M250.819 23.048c.905-2.33 2.818-4.125 5.202-4.881a8.26 8.26 0 0 1 7.065.992c-.769.206-2.077-.586-3.012-.789-4.427-.964-7.143 1.155-8.868 4.983z"/><path d="M250.677 28.641c-.605-1.824-.555-3.802.142-5.593l.387.305c-.504 1.258-.403 2.047-.333 3.344.025.458.231 1.755-.196 1.944z"/></g><g class="C"><path d="M257.968 19.787c.434-.003.732-.063 1.066.184-.025.349-.025.351.042.694 1.648 1.456 2.247.426 2.836 3.23-1.055-.024-1.774.328-2.344-.445a3.22 3.22 0 0 0-.847-.676c-.568.013-.343-.047-.86.281-.281.542-.24.308-.183.887 1.131 1.752 6.255 1.462 4.003 5.899-.39.766-1.957.786-2.508 1.513-.035.477-.022.645-.28 1.066-.45-.064-.549-.043-.888-.314.136-1.333-1.074-1.325-1.964-1.723-.655-.293-1.056-1.713-1.254-2.37l2.512-.055.067.211c.33.965.709 1.321 1.718.947.393-.486.289-.257.394-.869-.406-1.702-3.16-1.351-3.885-2.741-1.232-2.365.029-3.606 2.092-4.577.33-.155.267-.799.28-1.144zM12.549 85.346c-.138-5.603 3.549-10.574 9.444-10.678a8.9 8.9 0 0 1 6.378 2.56c1.965 1.955 3.103 5.141 3.062 7.891-.042 2.871-1.048 4.753-2.603 7.024l-.407.327-.502.645c-1.966 1.39-3.576 2.21-6.102 2.192a8.88 8.88 0 0 1-6.263-2.717c-1.768-1.849-3.069-4.676-3.008-7.243z"/></g><path d="M12.549 85.346c.35.653.641 2.013.843 2.779 1.406 5.338 7.673 8.054 12.613 5.809.799-.365 1.615-1.051 2.419-1.464l-.502.645c-1.966 1.39-3.576 2.21-6.102 2.192-2.366-.035-4.621-1.013-6.263-2.717-1.768-1.849-3.069-4.676-3.008-7.243z" class="I"/><path d="M20.695 76.914c10.22-.844 11.591 13.353 2.494 15.349-9.524 1.399-11.985-13.233-2.494-15.349z" class="D"/><path d="M21.415 78.954c.381.003.53-.028.861.135.581 1.102 2.799 1.828 2.75 3.237l-.282.207c-.39.044-1.498.169-1.765-.052-.465-.385-.563-1.187-1.354-.948-.945 1.191.076 1.805 1.028 2.134 3.54 1.226 3.914 4.088.26 5.439-.471.174.065.736-.833 1.367-.819-.418-.508-.322-.698-1.131-1.855-1.348-2.04-.417-2.761-2.921.753-.033 1.806-.323 2.253.286.522.71.568.935 1.443.81.518-.398.356-.19.615-.786-.291-1.744-2.781-1.37-3.504-2.455-1.386-2.081-.086-3.447 1.775-4.358.232-.113.196-.694.21-.963z" class="C"/><path d="M217.279 30.321c-1.425 5.042.422 12.519 4.789 15.638l.275.133c.81 2.012 3.743 5.746 2.626 7.431-2.795 1.762-6.435-4.713-7.66-6.644-5.969 1.132-7.605 4.658-11.383-2.286l-.823-2.184c-.596-2.629-.987-6.649 2.317-7.648 3.664-1.107 6.561-2.555 9.858-4.44z" fill="url(#H)"/><path d="M222.067 45.959l.275.133c.81 2.012 3.743 5.746 2.626 7.431-1.827-2.537-2.915-4.427-4.459-7.133.715-.114.904-.141 1.557-.431z" class="L"/><path d="M156.177 30.825a8.08 8.08 0 0 1 2.224-5.731c4.909-5.083 12.863-.946 12.904 5.688.006 1.159-.237 1.928-.353 2.998-.107.453-.139.641-.359 1.068-.513 1.261-1.072 2.218-2.231 2.995-.664.321-.838.412-1.414.862-1.869 1.006-4.645.894-6.516-.062l-1.487-.896c-1.201-1.182-1.966-2.275-2.433-3.908-.346-.997-.357-1.981-.335-3.014z" class="C"/><path d="M156.177 30.825c.281 1.625.52 2.875 1.38 4.321 2.5 4.206 8.379 4.641 11.713 1.185.46-.477.892-.98 1.323-1.483-.513 1.261-1.072 2.218-2.231 2.995-.664.321-.838.412-1.414.862-1.869 1.006-4.645.894-6.516-.062l-1.487-.896c-1.201-1.182-1.966-2.275-2.433-3.908-.346-.997-.357-1.981-.335-3.014z" class="G"/><path d="M162.601 24.812c3.283-.605 6.431 1.579 7.012 4.866s-1.626 6.418-4.917 6.976c-3.258.552-6.35-1.628-6.926-4.881s1.582-6.362 4.831-6.961z" class="D"/><path d="M163.469 26.188l.538.081c.463 1.075 1.869 1.413 2.18 2.577l-.138.223c-1.206.383-1.362-.284-2.448-.596-.406.249-.302.106-.456.513.396.938 2.632 1.376 3.146 2.571.633 1.466-.964 2.455-2.017 2.937l-.214.612-.552.251-.258-.805c-.684-.587-2.459-1.291-2.03-2.366 1.172-.432 2.492 1.239 3.259.518-.135-2.189-5.713-1.309-2.196-5.257.646-.726.794-.016 1.185-1.261z" class="C"/><path d="M158.946 37.748l1.487.896c-1.92 3.302-3.851 7.243-5.833 10.4-1.481 2.746-3.366 5.981-5.007 8.654l-2.543 4.109c-.331.464-.89 1.298-1.252 1.694-.177-.404-.658-1.205-.893-1.621l2.624-4.048 4.915-8.495c1.128-1.211 5.404-9.616 6.502-11.59z" class="O"/></g></svg><defs ><linearGradient id="J" gradientUnits="userSpaceOnUse"/></defs></svg>