<svg xmlns="http://www.w3.org/2000/svg" viewBox="0 0 88 88" fill="none">
  <rect width="88" height="88" rx="24" fill="url(#bg)"/>
  <circle cx="44" cy="44" r="25" fill="#0B1730"/>
  <path d="M23 45c4-4 6-14 11-14 3 0 4 8 7 8s3-14 6-14 3 34 7 34 4-12 7-12c4 0 5 8 9 12" stroke="url(#wave)" stroke-linecap="round" stroke-linejoin="round" stroke-width="5"/>
  <path d="M25 59c5 4 11 7 19 7 7 0 13-3 19-7" stroke="#5CC0FF" stroke-linecap="round" stroke-width="4"/>
  <defs>
    <linearGradient id="bg" x1="11" x2="78" y1="9" y2="79" gradientUnits="userSpaceOnUse">
      <stop stop-color="#173869"/>
      <stop offset="1" stop-color="#0B1630"/>
    </linearGradient>
    <linearGradient id="wave" x1="23" x2="70" y1="42" y2="42" gradientUnits="userSpaceOnUse">
      <stop stop-color="#FF8C2A"/>
      <stop offset=".5" stop-color="#FFC14F"/>
      <stop offset="1" stop-color="#FF6A2A"/>
    </linearGradient>
  </defs>
</svg>
