<svg xmlns="http://www.w3.org/2000/svg" viewBox="0 0 88 88" fill="none">
  <rect width="88" height="88" rx="24" fill="url(#bg)"/>
  <circle cx="44" cy="44" r="25" fill="rgba(255,255,255,.08)"/>
  <path d="M51 24c4 0 7 3 7 7 0 1 0 2-.4 3l-4 12 4.6 4.5c1.8 1.8 1.8 4.8 0 6.6l-.7.7c-1.8 1.8-4.8 1.8-6.6 0L46.5 54l-12 4c-1 .3-2 .4-3 .4-4 0-7-3-7-7 0-3 2-5.6 4.9-6.6l12-4 4-12c1-2.9 3.7-4.8 6.6-4.8Z" fill="#FFB229"/>
  <circle cx="55.5" cy="56" r="4" fill="#FFF3D6"/>
  <defs>
    <linearGradient id="bg" x1="8" x2="80" y1="8" y2="80" gradientUnits="userSpaceOnUse">
      <stop stop-color="#7E5CFF"/>
      <stop offset="1" stop-color="#2E1C5E"/>
    </linearGradient>
  </defs>
</svg>
