<svg xmlns="http://www.w3.org/2000/svg" width="183.019" height="300" xmlns:v="https://vecta.io/nano"><style><![CDATA[.B{fill:#fb5412}.C{fill:#3b0802}.D{fill:#d72e02}]]></style><svg><defs><clipPath id="A"><path transform="scale(.14653 .14648)" fill="none" d="M0 0h1249v2048H0z"/></clipPath><linearGradient x1="70.889" y1="101.165" x2="111.889" y2="6.929" gradientUnits="userSpaceOnUse" id="B"><stop offset="0" stop-color="#ff6715"/><stop offset="1" stop-color="#ff8c2a"/></linearGradient><linearGradient x1="10.078" y1="112.181" x2="46.051" y2="32.691" gradientUnits="userSpaceOnUse" id="C"><stop offset="0" stop-color="#fe4f0d"/><stop offset="1" stop-color="#ff7d20"/></linearGradient></defs><g clip-path="url(#A)"><path d="M94.29 4.613c4.457-.005 9.402-.144 13.808.041-.182 2.41-.008 5.102-.147 7.55-.109 1.922-.385 3.839-.484 5.742l-.724 12.159c-.098 1.812-.066 3.601-.201 5.434l-1.341 19.629a57.06 57.06 0 0 1-.28 2.982c-.454 3.652-.236 7.305-.611 10.964a101.01 101.01 0 0 0-.537 10.821c4.25.176 10.607.219 14.801.187-1.201 1.508-2.31 3.079-3.632 4.496-1.39 1.49-2.853 2.909-4.248 4.394l-8.394 9.107c-2.708 2.913-5.266 6.098-8.055 8.96-.857.879-2.537 3.371-3.606 3.477-.461-.21-.304-.113-.626-.555-2.85-3.907-6.054-7.09-9.27-10.62L70.245 87.643c-2.099-2.313-5.109-4.938-6.609-7.533 2.832-.125 5.557-.102 8.381-.114 1.341-.006 4.211.064 5.396-.222.516-1.236-.166-7.577-.231-9.341l-2.098-44.963c-.163-3.52-1.681-18.288-.562-20.518 1.169-.517 17.27-.336 19.767-.338z" fill="url(#B)"/><path d="M141.852 35.374c3.482.036 4.439.324 7.608.621 5.88.526 11.748 1.175 17.6 1.946 1.467.184 7.104.198 7.938.973.199 2.688-1.394 10.642-1.94 13.568l-2.262 12.617-5.889 33.055-2.526 13.886c1.799.091 3.106.485 4.723.64 3.246.313 6.373.857 9.613.91-1.599 2.17-3.709 3.95-5.832 5.616-4.011 3.148-7.69 6.94-11.676 10.063-1.064.886-2.286 2.12-3.334 3.077l-7.129 6.434c-.426.379-1.471 1.341-2.007 1.311-.985-.61-2.702-4.119-3.713-5.4-3.026-4.098-5.986-8.333-8.865-12.539-2.838-4.147-7.948-9.619-9.82-14.157 5.042.442 9.158 1.329 14.294 1.423-.007-3.25-.038-6.989.188-10.242.589-8.488.485-16.794 1.131-25.296.424-5.579.048-11.816.74-17.439.389-3.166-.115-19.381 1.158-21.067z" fill="#fe9c39"/><path d="M35.38 28.474c.582-.111 1.536-.07 2.16-.064.72 2.538 1.231 9.323 1.497 12.161l2.106 23.606 1.5 14.264c.208 2.636.877 5.389.927 8.091.058 3.143.693 6.388.872 9.478 3.763-.466 8.477-1.244 12.149-1.385-.153.716-.34 1.397-.753 2.014-4.804 7.18-9.436 14.531-14.623 21.442-1.345 1.792-3.084 5.15-4.722 6.368-.662-.035-9.159-7.413-10.617-8.565-1.942-1.41-4.22-3.373-6.107-4.925l-11.34-9.234c1.864-.602 3.401-.696 5.316-1.04l7.363-1.261c-.577-2.232-1.15-6.1-1.72-8.66L12.586 58.78c-.532-2.562-1.326-5.023-1.882-7.572L7.378 36.264c-.202-.898-.538-2.584.001-3.379 2.125-.777 8.794-1.415 11.47-1.913 2.92-.543 6.505-.917 9.504-1.378 2.302-.354 4.73-.863 7.028-1.121z" fill="url(#C)"/><path d="M94.106 153.747l-.028 34.226.008 9.892-.036 5.423.07 16.216-.007 1.84c-.296-.904-.276-2.01-.35-2.994a60.59 60.59 0 0 1 .056-4.345c-1.118.057-5.958-.051-6.466.176l-.12.028c.416-3.341-.069-5.086-.139-8.339.076-5.49-.024-10.701-.027-16.146l.081-25.917c.006-3.151-.169-6.275-.114-9.425.424.63.238.552.857.788.359-.056.755-.105 1.106-.183 1.645-.108 3.054-.133 4.703-.142.15-.224.168-.678.405-1.097z" class="C"/><path d="M87.381 196.031l6.494.026.018 2.754c.083.819-.022 4.159.157 4.477l.07 16.216-.007 1.84c-.296-.904-.276-2.01-.35-2.994a60.59 60.59 0 0 1 .056-4.345c-1.118.057-5.958-.051-6.466.176l-.12.028c.416-3.341-.069-5.086-.139-8.339.378-.661.138-1.175.341-2.193z" class="B"/><path d="M93.775 205.654l.119-6.842c.083.819-.022 4.159.157 4.477l.07 16.216-.007 1.84c-.296-.904-.276-2.01-.35-2.994a60.59 60.59 0 0 1 .056-4.345c-1.118.057-5.958-.051-6.466.176l-.12.028c.416-3.341-.069-5.086-.139-8.339.378-.661.138-1.175.341-2.193l.074 2.159 6.265-.182z" class="C"/><g class="B"><path d="M87.606 178.607l6.196-.025c-.075 2.235.206 7.228-.191 9.198-1.972-.037-4.041-.092-5.998.142-.168-2.628-.203-6.773-.008-9.315zm3.61-17.408l2.572-.001-.047 8.988-3.531-.066-2.679.092-.074-8.963 3.758-.05z"/></g><path d="M142.908 166.314c.435 1.54.327 7.431.484 7.707l6.14-.108c.337-.374.309-.694.365-1.208l-.026 18.354c.063 4.564.218 11.024.001 15.523l.059 15.519c.022 3.27.161 6.599.089 9.86-.04-1.063.028-1.141-.678-1.83-1.398.195-4.494.139-6.003.149 0 .729.045 2.219-.008 2.892-.181 1.671.091 2.854-.437 4.374-.046-10.03-.415-20.704-.061-30.696-.206-1.45-.139-7.772-.124-9.437l.06-13.764c-.079-1.154.114-2.874.19-4.075a31.19 31.19 0 0 0-.091-5.399c.157-1.541.013-5.962.04-7.86z" fill="#270200"/><g class="B"><path d="M143.19 199.882l.069-.713c.985-.378 5.223-.243 6.428-.155-.368.962-.217 8.043-.152 9.393-1.928-.13-4.223-.123-6.168-.062l-.177-8.462zm.004-18.029l6.425-.069c-.195 2.03-.232 7.047-.136 9.18-1.317.103-4.203-.13-6.151-.015l-.06-6.713-.079-2.383zm3.511 33.699l2.882.001c-.198 2.569-.104 5.946-.073 8.533l-2.799-.062-3.437-.007.012-8.375 3.415-.091z"/></g><path d="M143.339 230.279l6.003-.149c.706.688.639.766.678 1.83l.183 6.369-.259 31.178-.232 9.625c1.244.217 2.408.151 3.342.316-5.425.072-9.921.148-15.328-.127.979-.161 3.955-.259 5.142-.346.584-4.866.354-7.74.218-12.637-.051-1.835.048-5.143.005-6.957-.076-3.211-.8-20.023-.197-21.836.529-1.521.257-2.703.437-4.374.053-.672.008-2.162.008-2.892z" class="C"/><path d="M143.339 230.279l6.003-.149c.706.688.639.766.678 1.83l.183 6.369c-.851.374-5.514.309-6.509.092-.471-.568-.301-2.628-.248-3.417l-.114-1.833c.053-.672.008-2.162.008-2.892z" class="B"/><path d="M149.341 230.13c.706.688.639.766.678 1.83l.183 6.369c-.851.374-5.514.309-6.509.092 1.572-.141 4.048-.073 5.686-.078l-.06-2.868c.133-1.269.038-3.986.022-5.345z" class="C"/><path d="M143.445 235.003c.202.511.162 2.105.171 2.744l5.577.015c.009-.684-.015-1.641.126-2.287l.06 2.868c-1.638.004-4.114-.063-5.686.078-.471-.568-.301-2.628-.248-3.417z" class="D"/><path d="M144.054 246.168l5.628-.066c-.21 2.039-.029 7.66-.324 9.101l-.3.127c-1.898-.009-3.727-.023-5.624.06-.06-1.11-.315-8.764.022-9.174z" class="B"/><path d="M144.662 263.748l4.8-.082-.122 9.078c-.35.262-.697.192-1.159.188l-4.692.084c-.192-1.453-.254-7.652-.075-9.07.425-.259.69-.176 1.248-.196z" class="D"/><path d="M95.836 247.384c3.198.13 9.27.374 12.397.154-2.319 3.842-6.871 7.566-9.957 10.929-2.295 2.502-4.851 5.153-7.383 7.384-.576.508-1.323-.417-1.769-.754l-15.328-16.45c-.225-.253-.157-.586-.056-.85 1.002-.365 10.552-.359 12.25-.406 3.601.173 6.353-.007 9.845-.007z" class="B"/><path d="M129.865 279.763l7.862-.442c5.407.275 9.903.199 15.328.127l10.788.293c-2.989 4.856-8.84 9.68-12.804 13.929-.92.986-3.063 3.413-3.994 4.096-.322.053-.552.026-.857-.101-.51-.215-.969-.674-1.35-1.065-.988-1.018-1.787-2.212-2.759-3.248-1.793-1.909-11.028-10.856-11.662-12.381-.17-.409-.367-.806-.551-1.209z" fill="#bb2301"/><g class="D"><path d="M33.978 192.136l5.503.007.07-.018c.04 2.051-.305 9.325.734 10.534.523.313 1.425.3 2.067.343l9.307.01c-2.605 4.204-6.65 7.156-9.866 10.896-1.308 1.522-3.518 4.104-5.24 5.021-2.515-1.548-5.908-6.182-8.105-8.405-1.705-1.727-5.726-5.087-6.368-7.274l.166-.195.557.015c4.027-.372 6.734.188 11.031-.621a65.24 65.24 0 0 0 .146-3.498c.091-2.12.026-4.682-.004-6.814z"/><path d="M33.978 192.136l5.503.007-.037 7.38c-1.209-.001-4.851.363-5.462-.573l-.004-6.814z"/></g><g class="C"><path d="M39.481 192.144l.07-.018c.04 2.051-.305 9.325.734 10.534.523.313 1.425.3 2.067.343-5.465.306-14.013.33-19.548.067 4.027-.372 6.734.188 11.031-.621a65.24 65.24 0 0 0 .146-3.498c.611.936 4.253.571 5.462.573a105.93 105.93 0 0 1 .037-7.38zM87.48 117.61l.136-.2c1.157-.75 5.383-.889 6.406.131l.078 8.264c-.012 3.72.117 8.271-.01 11.888l.017 16.054c-.238.419-.256.873-.405 1.097-1.649.009-3.058.034-4.703.142-.351.078-.748.127-1.106.183-.619-.236-.433-.158-.857-.788a143.28 143.28 0 0 1-.004-6.152l.019-11.053c-.026-1.09-.054-2.318.064-3.391.559-4.218-.45-11.007.193-15.348z"/><path d="M87.115 133.785l.081.136c.058 1.273.246 2.059.36 3.266.134 1.425.074 3.164.024 4.615l6.183.001c.261-1.255-.127-2.547.327-4.111l.017 16.054c-.238.419-.256.873-.405 1.097l-4.703.142c-.351.078-.748.127-1.106.183-.619-.236-.433-.158-.857-.788l-.004-6.152.019-11.053.064-3.391z"/></g><path d="M88.023 147.79l5.65.07c-.078 1.252-.249 5.928.028 6.984l-4.703.142c-.351.078-.748.127-1.106.183-.619-.236-.433-.158-.857-.788l-.004-6.152c.225-.078.677-.318.992-.439z" class="B"/><path d="M87.031 148.229c.225-.078.677-.318.992-.439-.603.709-.377 5.752-.349 6.974l.094.151 1.23.072c-.351.078-.748.127-1.106.183-.619-.236-.433-.158-.857-.788l-.004-6.152z" fill="#bb2301"/><path d="M87.48 117.61l.136-.2c1.157-.75 5.383-.889 6.406.131l.078 8.264-.435.531c-1.342.001-4.966.392-5.942-.482-.848-.758-.407-6.087-.415-7.416z" class="B"/><path d="M93.326 117.765l.695-.224.078 8.264-.435.531c-.47-1.846-.3-6.432-.338-8.571z" class="D"/><path d="M87.48 117.61l.136-.2c1.157-.75 5.383-.889 6.406.131l-.695.224c-1.933-.131-3.752.032-5.846-.155z" class="C"/><path d="M87.196 133.922c.722-.371 5.346-.197 6.446-.163l.121 8.046c-1.774-.161-4.364-.046-6.183-.001l-.024-4.615-.36-3.266z" class="B"/><path d="M34.09 145.609l.097-.306c.457-.269 4.601-.153 5.422-.146v7.815c.205.883-.082 5.498-.029 7.011l.03 8.373c.22 2.266-.413 4.906-.054 7.978l-.015.908c.092 4.364.197 10.567.01 14.884l-.07.018c-.59-.185-4.367.048-5.503-.007-.157-3.697.038-6.542.009-10.128.091-4.733-.195-9.294-.075-14.017.13-.686.083-5.407.088-6.425-.108-1.702-.06-3.627-.144-5.41.245-1.438.148-8.728.15-10.488z" fill="#270200"/><g class="D"><path d="M34.296 176.366l5.26-.032-.015.908c-.227 1.931-.101 6.252-.07 8.297l-5.17.029-.005-9.202zm-.217-16.389l5.501.006.03 8.373c-.423.369-4.49-.075-5.397-.126l-.134-8.253zm.011-14.368l.097-.306c.457-.269 4.601-.153 5.422-.146v7.815l-.086.202c-.32.163-4.62.018-5.336.018l-.098-7.583z"/></g><path d="M87.353 214.181c.508-.227 5.348-.119 6.466-.176l-.056 4.345c.075.984.054 2.09.35 2.994.153 3.798.014 7.582.003 11.399-.007 2.631.097 6.018-.175 8.58-.128 1.208-1.205 4.255-1.636 5.527 1.365.311 2.13.404 3.531.535-3.492 0-6.244.18-9.845.007l2.209-.318c.011-1.764-.535-4.6-.745-6.472.114-2.908-.053-5.974-.133-8.899.196-2.777-.058-5.06-.119-7.797-.068-3.044-.157-6.661.031-9.697z" class="C"/><g class="B"><path d="M87.353 214.181c.508-.227 5.348-.119 6.466-.176l-.056 4.345c-.134.91-.193 4.375-.175 5.357l-6.102-.06c-.297-2.424-.185-7.003-.134-9.466zm-.031 17.522c2.028.086 4.245-.056 6.299-.092l.076 9.356c-1.347.063-4.796.274-5.931.012l-.31-.376c.114-2.908-.053-5.974-.133-8.899z"/></g><path d="M142.914 148.813c.432-3.302 5.014-3.076 6.718-.989.281.346.262 1.166.267 1.607l-.001 23.272c-.056.514-.028.835-.365 1.208-1.449.152-4.517.082-6.14.108-.157-.275-.048-6.167-.484-7.707-.118-1.132.286-4.065.227-5.455l-.272-9.933z" class="C"/><path d="M142.914 148.813c.432-3.302 5.014-3.076 6.718-.989.281.346.262 1.166.267 1.607l-.444.413-.001 7.21-6.07-.173-.101-6.497c-.163-.461-.267-1.081-.367-1.572z" class="B"/><path d="M142.914 148.813c.432-3.302 5.014-3.076 6.718-.989.281.346.262 1.166.267 1.607l-.444.413c.003-.456.069-1.342-.139-1.679-.799-.044-5.433-.249-5.827-.022-.249.773-.203 1.428-.206 2.241-.163-.461-.267-1.081-.367-1.572z" class="C"/><path d="M143.475 164.906c1.531-.141 4.285-.122 5.947-.167-.104 2.333-.041 6.894.11 9.173-1.449.152-4.517.082-6.14.108.28-.876.096-7.714.083-9.114z" class="B"/><path d="M36.745 129.822c1.003.421 1.865.605 2.724.954.261 2.179-.062 4.795.148 6.952.129 1.302.031 6.035-.008 7.431-.821-.008-4.965-.123-5.422.146l-.097.306-.083.06c-.145-1.566-.205-13.584.09-14.661l.102-.194c1.035-.568 1.417-.658 2.546-.992z" class="C"/><path d="M36.745 129.822c1.003.421 1.865.605 2.724.954.261 2.179-.062 4.795.148 6.952-.37.28-4.571.188-5.405.226l-.115-6.945.102-.194c1.035-.568 1.417-.658 2.546-.992z" class="D"/><path d="M36.745 129.822c1.003.421 1.865.605 2.724.954-1.711.224-3.555.175-5.27.039 1.035-.568 1.417-.658 2.546-.992z" class="C"/></g></svg></svg>