<svg xmlns="http://www.w3.org/2000/svg" width="174.847" height="300" xmlns:v="https://vecta.io/nano"><svg><defs><clipPath id="A"><path transform="scale(.14644 .14648)" fill="none" d="M0 0h1194v2048H0z"/></clipPath><linearGradient x1="93.655" y1="125.438" x2="102.948" y2="101.193" id="B" href="#U"><stop offset="0" stop-color="#feaf26"/><stop offset="1" stop-color="#ffcb3d"/></linearGradient><linearGradient x1="103.614" y1="121.017" x2="108.438" y2="122.791" id="C" href="#U"><stop offset="0" stop-color="#fadc5c"/><stop offset="1" stop-color="#fff495"/></linearGradient><linearGradient x1="78.476" y1="111.767" x2="72.539" y2="103.439" id="D" href="#U"><stop offset="0" stop-color="#ffc32e"/><stop offset="1" stop-color="#fedc55"/></linearGradient><linearGradient x1="139.199" y1="131.039" x2="137.92" y2="124.025" id="E" href="#U"><stop offset="0" stop-color="#0f1320"/><stop offset="1" stop-color="#172d50"/></linearGradient><linearGradient x1="146.978" y1="127.151" x2="140.378" y2="112.745" id="F" href="#U"><stop offset="0" stop-color="#0c2c66"/><stop offset="1" stop-color="#24529a"/></linearGradient><linearGradient x1="173.92" y1="120.32" x2="128.206" y2="122.295" id="G" href="#U"><stop offset="0" stop-color="#1f65df"/><stop offset="1" stop-color="#81bbff"/></linearGradient><linearGradient x1="38.331" y1="131.58" x2="40.213" y2="123.143" id="H" href="#U"><stop offset="0" stop-color="#0d101e"/><stop offset="1" stop-color="#1b2d48"/></linearGradient><linearGradient x1="26.001" y1="130.686" x2="37.053" y2="106.223" id="I" href="#U"><stop offset="0" stop-color="#06255d"/><stop offset="1" stop-color="#2f60a9"/></linearGradient><linearGradient x1="13.404" y1="113.409" x2="19.114" y2="121.255" id="J" href="#U"><stop offset="0" stop-color="#3174e9"/><stop offset="1" stop-color="#6aa7fe"/></linearGradient><linearGradient x1="69.246" y1="128.167" x2="68.596" y2="136.011" id="K" href="#U"><stop offset="0" stop-color="#80c3fe"/><stop offset="1" stop-color="#fff"/></linearGradient><linearGradient x1="88.61" y1="88.899" x2="81.524" y2="5.92" id="L" href="#U"><stop offset="0" stop-color="#ff9134"/><stop offset="1" stop-color="#ffc349"/></linearGradient><linearGradient x1="22.201" y1="85.44" x2="50.282" y2="23.492" id="M" href="#U"><stop offset="0" stop-color="#ff4e10"/><stop offset="1" stop-color="#ff8b26"/></linearGradient><linearGradient x1="153.054" y1="81.708" x2="121.087" y2="25.562" id="N" href="#U"><stop offset="0" stop-color="#ff5e13"/><stop offset="1" stop-color="#ff9b31"/></linearGradient><linearGradient x1="108.905" y1="288.144" x2="77.912" y2="265.403" id="O" href="#U"><stop offset="0" stop-color="#ff7d0d"/><stop offset="1" stop-color="#fec233"/></linearGradient><linearGradient x1="80.199" y1="267.864" x2="72.327" y2="262.091" id="P" href="#U"><stop offset="0" stop-color="#ffc42c"/><stop offset="1" stop-color="#fff187"/></linearGradient><linearGradient x1="99.682" y1="227.383" x2="84.532" y2="231.375" id="Q" href="#U"><stop offset="0" stop-color="#3d79ed"/><stop offset="1" stop-color="#9ad2fe"/></linearGradient><linearGradient x1="84.319" y1="225.236" x2="69.109" y2="233.323" id="R" href="#U"><stop offset="0" stop-color="#8cc7fb"/><stop offset="1" stop-color="#fff"/></linearGradient><linearGradient x1="94.766" y1="246.278" x2="84.786" y2="228.667" id="S" href="#U"><stop offset="0" stop-color="#1547c0"/><stop offset="1" stop-color="#5f8dea"/></linearGradient></defs><g clip-path="url(#A)"><path d="M83.147 97.817c11.54-1.988 19.805 1.924 26.612 10.829.115.15.468.354.654.412 2.619.251 5.336.237 7.965.373l7.774.431c2.099-.059 4.206.176 6.298.321 9.22.636 34.27 3.329 40.567 9.327.706.673 1.321 1.497 1.344 2.508.026 1.153-.59 2.154-1.164 3.106-1.362 2.713-2.929 4.842-4.57 7.375l-5.734 9.03a604.22 604.22 0 0 1-16.6 24.726l-6.677 9.208-17.12 24.516c-2.647 3.82-5.704 7.666-8.32 11.561-.841 1.252-2.714 3.577-3.377 4.78-.162-.141-.234-.271-.386-.207l-4.593 1.944c-2.49.989-5.214 1.506-7.819 2.017-1.498.209-3.448.51-4.935.538-1.685.376-7.171.086-9.089-.013-4.996-1.015-9.667-1.213-14.411-3.646-.577-.296-1.27-.671-1.836-.331-.816-1.368-2.608-3.098-3.663-4.6l-9.169-12.888c-13.221-18.705-26.115-37.638-38.677-56.791l-8.304-12.485c-1.014-1.59-2.332-3.458-3.229-5.089-.517-.788-.885-1.542-.98-2.491-.093-.931.164-1.784.77-2.498 3.592-4.229 21.659-7.558 27.355-8.042-.858.859-2.324.112-2.884 1.063l.026.333c1.113.74 3.706-.256 5.071.117 1.16-.023 2.609-.309 3.78-.387 3.628-.24 8.52-1.151 12.082-1.213.678-.012 1.949.002 2.572-.1 4.242-.455 10.001-.654 14.255-.635.316-.728.442-1.051.639-1.814 1.006-.98 2.246-2.772 3.305-3.899 3.454-3.677 7.477-6.43 12.47-7.384z" fill="#2a67c9"/><path d="M83.147 97.817c11.54-1.988 19.805 1.924 26.612 10.829.115.15.468.354.654.412-.185.468-.214.948-.057 1.432 1.848 2.768 2.87 6.665 2.828 9.976-.011 1.212-.011 2.225-.147 3.429l-.165 1.842c-.269.977-.571 1.945-.904 2.902l-.672 1.401c-.741.165-1.116 1.235-1.489 1.333-.875.232-5.102 1.164-5.761 1.2-.115.255-.305.645-.393.896l-.18.141-.252-.045-.146-.183-.062-.081c-1.506-.094-3.857-.022-5.397-.012l-10.068.095c-2.971.03-6.337-.217-9.493-.218-.867.059-2.096.254-2.768-.175.089-.623-.974-2.392-1.93-1.568l-.237.252c-2.079-.526-3.747-.086-5.662-.07-.402.004-1.115-1.961-1.77-2.616l-.098-.097c-.405-.763-.664-1.883-.899-2.738l-.281-1.853-.094-1.64c-.05-.779-.004-1.941.003-2.748.064-.681.14-1.361.229-2.039.197-1.406 1.089-6.04 2.219-6.889l-.033-.071c.316-.728.442-1.051.639-1.814 1.006-.98 2.246-2.772 3.305-3.899 3.454-3.677 7.477-6.43 12.47-7.384z" fill="#fe9714"/><path d="M93.05 104.415c4.056.684 8.401 3.355 10.872 6.678.395.532.927 1.719 1.265 1.922.012-.445-.433-1.298-.637-1.753l.206-.038c.157.265 1.133 2.069 1.192 2.149 2.082 5.243 1.942 10.387-.328 15.539-.284.644-.915 1.591-.951 2.099.233.246.134.17.528.236-.365.447-.737.929-1.15 1.328-.115.255-.305.645-.393.896l-.18.141-.252-.045-.146-.183c.221-.82 1.111-1.739 1.126-2.525-.82-.792-5.861.087-7.357-.023a36.31 36.31 0 0 1-3.486-.395c-1.11.455-3.63 1.005-4.945 1.326-.207-.365-.434-.713-.66-1.067-2.46.034-5.212.046-6.695-2.402-.866-1.43.648-2.883 1.882-2.228 1.18.626 3.023 2.694 4.495 2.191.564-.679.401-4.715.383-5.719-4.876-1.074-9.107-4.684-5.175-10.146.467-.648 1.373-1.083 2.102-1.418 1.027-.99 2.159-.42 2.722-1.163.135-.179-.159-1.381.194-1.91.567-.301 1.835-.361 2.476-.269.711.666.16 1.539.49 2.531l.24.063c.384-.146 1.061-.724 1.319-1.025.81-.945 2.142-.933 2.71-2.057.039-1.834.414-.55 1.129-1.571-.542-.657-2.347-.507-2.976-1.158z" fill="#fec130"/><path d="M87.911 109.92c-.06-.585-.191-1.121.05-1.629.467-.432 1.489-.382 2.191-.437l.046 2.697c2.514.091 7.509 1.615 5.16 4.933-5.455-2.358-5.96-3.436-5.429 3.887 1.648.518 3.546.927 4.875 2.029 3.606 2.99 2.134 7.006-1.447 9.037-1.11.455-3.63 1.005-4.945 1.326l-.66-1.067c-2.46.034-5.212.046-6.695-2.402-.866-1.43.648-2.883 1.882-2.228 1.18.626 3.023 2.694 4.495 2.191.564-.679.401-4.715.383-5.719-4.876-1.074-9.107-4.684-5.175-10.146.467-.648 1.373-1.083 2.102-1.418.742-.167 2.809-.455 3.166-1.053z" fill="#fef08c"/><path d="M90.174 123.082c2.742 1.1 3.338 2.704 1.291 4.966-.465.392-1.103.61-1.673.844.231-1.864.058-3.983.381-5.809z" fill="#fec130"/><path d="M87.618 113.657c.058.022.238.168.297.213.179 1.222-.052 3.529-.16 4.791-.558-.168-1.034-.402-1.562-.645-2.225-1.601-.827-3.699 1.425-4.358z" fill="#fe9714"/><path d="M83.147 97.817c11.54-1.988 19.805 1.924 26.612 10.829.115.15.468.354.654.412-.185.468-.214.948-.057 1.432 1.848 2.768 2.87 6.665 2.828 9.976-.011 1.212-.011 2.225-.147 3.429l-.165 1.842c-.269.977-.571 1.945-.904 2.902l-.672 1.401c-.741.165-1.116 1.235-1.489 1.333-.875.232-5.102 1.164-5.761 1.2.413-.399.785-.882 1.15-1.328-.394-.066-.295.01-.528-.236.036-.507.667-1.455.951-2.099 2.271-5.151 2.41-10.296.328-15.539-.059-.08-1.036-1.883-1.192-2.149l-.206.038c-.638-1.363-2.43-3.344-3.586-4.319-4.68-3.947-8.674-4.759-14.54-4.426l.088-.087-.03-.15c-.524.06-.949.129-1.477.081.408-.892 2.631-1.654 2.797-2.9-.238-.526-.17-.374-.694-.735l-.05-.475c-1.085-.288-2.429-.124-3.911-.432z" fill="url(#B)"/><path d="M105.949 113.371c.279-.033.396-.069.674-.033.535 1.774 1.192 3.376 1.543 5.216.762 4.001-.601 8.451-2.446 11.971l-.522.719c-.394-.066-.295.01-.528-.236.036-.507.667-1.455.951-2.099 2.271-5.151 2.41-10.296.328-15.539z" fill="url(#C)"/><path d="M105.72 130.526l.218.04c.479-.347.62-.503 1.142-.285l-.089.263c.985.535 2.371.322 2.803-.894l.028-.082.669-.246c.453-.187.593-.321.772-.762-.242-.188-.334-.096-.753-.057 1.369-1.477 1.787-2.765 2.528-4.609l-.165 1.842-.904 2.902-.672 1.401c-.741.165-1.116 1.235-1.489 1.333-.875.232-5.102 1.164-5.761 1.2.413-.399.785-.882 1.15-1.328z" fill="#ee7b08"/><path d="M104.756 111.223l.082-.26c.584.656.718.223 1.337.851.218.556.308.948.448 1.525-.278-.037-.396 0-.674.033-.059-.08-1.036-1.883-1.192-2.149z" fill="#fee575"/><path d="M67.373 109.1c1.006-.98 2.246-2.772 3.305-3.899 3.454-3.677 7.477-6.43 12.47-7.384 1.482.308 2.826.145 3.911.432l.05.475c.524.361.456.209.694.735-.165 1.246-2.389 2.008-2.797 2.9.528.047.953-.021 1.477-.081l.03.15-.088.087c-9.331 1.518-14.657 7.323-16.192 16.515.033 2.084.178 6.937 1.33 8.646.177.572.329 1.094.566 1.644.52.543.762 1.497 1.228 2.103l-.237.252c-2.079-.526-3.747-.086-5.662-.07-.402.004-1.115-1.961-1.77-2.616l-.098-.097c-.405-.763-.664-1.883-.899-2.738l-.281-1.853-.094-1.64c-.05-.779-.004-1.941.003-2.748.064-.681.14-1.361.229-2.039.197-1.406 1.089-6.04 2.219-6.889l-.033-.071c.316-.728.442-1.051.639-1.814z" fill="url(#D)"/><path d="M64.319 119.913l.229-2.039c.197-1.406 1.089-6.04 2.219-6.889.324 1.115-2.057 6.344-1.784 8.613.118-.26.194-.409.267-.691 1.297.606 3.332-1.255 4.762-.972.347.642-.128 1.107.03 2.228l.19-1.133c.033 2.084.178 6.937 1.33 8.646l.566 1.644c.52.543.762 1.497 1.228 2.103l-.237.252c-2.079-.526-3.747-.086-5.662-.07-.402.004-1.115-1.961-1.77-2.616l-.098-.097c-.405-.763-.664-1.883-.899-2.738l-.281-1.853-.094-1.64c-.05-.779-.004-1.941.003-2.748z" fill="#fe9714"/><g fill="#f36611"><path d="M64.41 124.301l.112.094c1.392 1.193.711 4.18 2.47 5.291.147.093 1.126.078 1.388.074-.156.183-.77.261-1.069.33l.087-.052.153.182c1.433.082 2.799-.501 4.211-.196.142.031.152.025.295-.002l.244.19c-.243-.572-.242-.372-.17-.891.52.543.762 1.497 1.228 2.103l-.237.252c-2.079-.526-3.747-.086-5.662-.07-.402.004-1.115-1.961-1.77-2.616l-.098-.097c-.405-.763-.664-1.883-.899-2.738z"/><path d="M86.425 102.515c5.866-.333 9.859.479 14.54 4.426 1.156.975 2.947 2.956 3.586 4.319.204.455.649 1.308.637 1.753-.338-.202-.87-1.39-1.265-1.922-2.471-3.323-6.816-5.993-10.872-6.678-.959-.417-2.793-.488-3.853-.48-10.085.082-17.221 7.981-17.581 17.763-.138 1.804.188 3.177.638 4.909.29.842 1.197 3.281 1.867 3.66 1.167 1.165 1.294.786 2.679 1.565.394.221.659.945 1.256 1.335-.867.059-2.096.254-2.768-.175.089-.623-.974-2.392-1.93-1.568-.466-.605-.708-1.56-1.228-2.103-.238-.551-.389-1.073-.566-1.644-1.152-1.709-1.298-6.561-1.33-8.646 1.535-9.192 6.86-14.996 16.192-16.514z"/></g><path d="M71.564 127.675c.512.359 1.217 2.496 1.692 3.196l.37-.588c-.486-.58-1.369-2.798-1.577-3.575l.206-.102c.29.842 1.197 3.281 1.867 3.66 1.167 1.165 1.294.786 2.679 1.565.394.221.659.945 1.256 1.335-.867.059-2.096.254-2.768-.175.089-.623-.974-2.392-1.93-1.568-.466-.605-.708-1.56-1.228-2.103-.238-.551-.389-1.073-.566-1.644z" fill="#ed5511"/><path d="M71.616 121.697l.03.124c.657 2.776.64 7.867 4.196 8.504 3.18.57 6.324 1.131 9.392 2.187.531.187 2.551-.137 3.082-.468-.52-.425-8.936-1.606-9.916-2.039l.011-.168c.151-.013 9.437 1.723 10.002 1.926 1.315-.321 3.836-.871 4.945-1.326 1.382.218 2.164.298 3.486.395 1.496.11 6.537-.768 7.357.023-.015.786-.905 1.706-1.126 2.525l-.062-.081c-1.506-.094-3.857-.022-5.397-.012l-10.068.095c-2.971.03-6.337-.217-9.493-.218-.597-.39-.862-1.113-1.256-1.335-1.384-.779-1.512-.4-2.679-1.565-.671-.378-1.577-2.817-1.867-3.66-.45-1.732-.776-3.105-.638-4.909z" fill="#ee7b08"/><path d="M74.121 130.266c1.866.716 3.629.796 5.612 1.071 1.157.16 4.709 1.346 5.308 1.371 3.633.153 14.448.817 17.737.205.066.101.195.284.235.387-1.506-.094-3.857-.022-5.397-.012l-10.068.095c-2.971.03-6.337-.217-9.493-.218-.597-.39-.862-1.113-1.256-1.335-1.384-.779-1.512-.4-2.679-1.565z" fill="#f36611"/><path d="M110.414 109.058l7.965.373 7.774.431c2.099-.059 4.206.176 6.298.321 9.22.636 34.27 3.329 40.567 9.327.706.673 1.321 1.497 1.344 2.508.026 1.153-.59 2.154-1.164 3.106l-.882.191c-2.431 1.088-6.311 2.93-8.848 3.638-8.833 2.465-18.189 3.895-27.292 4.911-.611.068-4.169.477-4.643.429-2.561.301-5.447.603-8.015.764 1.179-.491 1.901-.194 2.631-.852.179-.542.184-.328.031-.824-.961-.855-5.462.046-7.732-.239-3.648-.011-7.355.396-11.035.261-1.237-.045-2.647.245-3.94.207l.18-.141c.088-.251.279-.641.393-.896.659-.036 4.886-.968 5.761-1.2.372-.099.748-1.169 1.489-1.333l.672-1.401a46.17 46.17 0 0 0 .904-2.902l.165-1.842c.136-1.204.136-2.218.147-3.429.042-3.311-.979-7.208-2.828-9.976-.156-.484-.128-.964.057-1.432z" fill="url(#E)"/><path d="M110.414 109.058l7.965.373 7.774.431c.88 1.083 3.123.67 4.328.622.079.462.079.776.379 1.123 1.079.206 1.788-.014 2.7.263.823.25 1.421-.158 2.145.077-.355.164-1.327.095-1.778.128l6.573.855c4.893.267 20.787 2.9 24.725 5.005-.781.323-.968.849-1.656 1.426a15.31 15.31 0 0 1-4.015 2.38c-3.941.722-8.425.56-12.377.795-3.983.237-7.593.838-11.552.985-1.673.062-2.334.246-4.097.138-1.002-1.373-2.824-.875-4.169-.818-.175.007-.9-.282-1.105-.365l-.279-.121c-.802.281-2.344-.049-3.202-.175-.444-.065-.388-.111-.595-.441l-.121-.184c-.802-.716-.292-1.334-.789-1.811-1.009-.14-1.495.051-1.836-.947-.633-.72-.105-.672-.578-.77-.837.342-2.371 1.174-3.242.912-.51-.154-.539-.12-.998.031-.612.69.154 1.908-1.43 1.494.042-3.311-.979-7.208-2.828-9.976-.156-.484-.128-.964.057-1.432z" fill="url(#F)"/><path d="M110.414 109.058l7.965.373 7.774.431c.88 1.083 3.123.67 4.328.622.079.462.079.776.379 1.123 1.079.206 1.788-.014 2.7.263.823.25 1.421-.158 2.145.077-.355.164-1.327.095-1.778.128-2.365.053-5.71-.403-8.272-.462-.692.065-1.679-.047-2.122.16-.025.103-.081.306-.085.402.573 1.032-.129 2.11.582 3.967-.324.968-.398 1.569-.644 2.512-.053.202-.516.785-.647 1.037l-.682 1.866c-.802-.716-.292-1.334-.789-1.811-1.009-.14-1.495.051-1.836-.947-.633-.72-.105-.672-.578-.77-.837.342-2.371 1.174-3.242.912-.51-.154-.539-.12-.998.031-.612.69.154 1.908-1.43 1.494.042-3.311-.979-7.208-2.828-9.976-.156-.484-.128-.964.057-1.432z" fill="#2a67c9"/><path d="M110.414 109.058l7.965.373 7.774.431c.88 1.083 3.123.67 4.328.622.079.462.079.776.379 1.123 1.079.206 1.788-.014 2.7.263.823.25 1.421-.158 2.145.077-.355.164-1.327.095-1.778.128-2.365.053-5.71-.403-8.272-.462-3.139-.569-8.937-.296-12.31-.591-1.202-.105-2.083-.513-2.987-.534-.156-.484-.128-.964.057-1.432z" fill="#8cbffb"/><path d="M120.883 114.834c.844-.037 1.59-.172 2.244.298-.215 1.342-.339 2.354-.803 3.679-.286.774-.163.873-1.057.934-1.009-.14-1.495.051-1.836-.947-.212-1.691.599-2.514 1.451-3.965z" fill="#bf7a52"/><path d="M125.655 111.614l8.272.462 6.573.855c-1.969 0-1.508-.138-2.746 1.447-.425.387-1.54.505-1.937.862-.881.793-1.595 1.742-2.49 2.538-1.976 1.755-4.633 2.447-7.082 3.276l-1.459.475c-1.068.027-1.545-.013-2.608.213l-.121-.184c.111-.438.507-1.405.682-1.866.131-.252.595-.835.647-1.037l.644-2.512c-.711-1.857-.009-2.935-.582-3.967.004-.096.06-.299.085-.402.443-.206 1.43-.095 2.122-.16z" fill="#345890"/><path d="M126.153 109.862c2.099-.059 4.206.176 6.298.321 9.22.636 34.27 3.329 40.567 9.327.706.673 1.321 1.497 1.344 2.508.026 1.153-.59 2.154-1.164 3.106l-.882.191c-2.431 1.088-6.311 2.93-8.848 3.638-8.833 2.465-18.189 3.895-27.292 4.911-.611.068-4.169.477-4.643.429-1.151-.251-1.66.091-2.591-.079.918-.488.545-.607.611-1.521.659-.603.991.134 1.482-.601.453-.192 6.083-.711 7.035-.846 8.351-1.177 22.717-2.932 29.744-7.392 3.189-2.69-.051-4.718-2.59-5.919-3.938-2.105-19.832-4.738-24.725-5.005-2.224-.382-4.345-.56-6.573-.855.451-.033 1.423.036 1.778-.128-.724-.236-1.322.173-2.145-.077-.912-.277-1.621-.058-2.7-.263-.3-.347-.3-.661-.379-1.123-1.205.048-3.448.46-4.328-.622z" fill="url(#G)"/><path d="M113.184 120.465c1.584.414.818-.804 1.43-1.494.459-.151.488-.185.998-.031.871.262 2.405-.57 3.242-.912.473.098-.055.05.578.77.34.998.826.807 1.836.947.497.478-.013 1.096.789 1.811l.121.184c.207.33.151.376.595.441.858.126 2.399.456 3.202.175l.279.121c-.994 1.028-4.41.195-5.541 2.023a8.22 8.22 0 0 1-.448 1.94l-.188.232-1.863.15c-1.767.968-4.115.339-6.244 1.816l.904-2.902.165-1.842c.136-1.204.136-2.218.147-3.429z" fill="#345890"/><path d="M112.872 125.736c.145-.116.204-.154.28-.322.27-.598 1.187-1.345 1.721-1.786l.371.122c1.125.381 1.716.382 2.9.27l.105.053 2.288.069.175.357a8.22 8.22 0 0 1-.448 1.94l-.188.232-1.863.15c-1.767.968-4.115.339-6.244 1.816l.904-2.902z" fill="#203556"/><path d="M118.25 124.074l2.288.069.175.357a8.22 8.22 0 0 1-.448 1.94l-.188.232-1.863.15c-.109-.976-.089-1.779.037-2.748z" fill="#9c5128"/><path d="M118.145 124.022c.296-1.712 2.022-1.379 2.392.121l-2.288-.069z" fill="#15408e"/><path d="M165.224 117.935c2.539 1.201 5.78 3.229 2.59 5.919l-.064-.473c-.305-.173-4.368.095-5.097.098-5.166.018-10.38-.716-15.524-.593-1.558.037-7.76 1.34-8.709.942-1.22-.702-5.453.78-6.94-.029l.047-.14c1.764.108 2.425-.076 4.097-.138 3.959-.147 7.569-.748 11.552-.985 3.952-.235 8.436-.073 12.377-.795a15.31 15.31 0 0 0 4.015-2.38c.688-.577.876-1.103 1.656-1.426z" fill="#1e3055"/><path d="M126.253 122.477c.205.083.93.373 1.105.365 1.344-.057 3.167-.556 4.169.818l-.047.14c1.487.809 5.72-.672 6.94.029-2.049 1.48-4.868 1.278-7.318 1.904-1.872.478-3.144.903-4.964 1.582-1.299-.273-3.243-.265-4.631-.329-.204-.131-.273-.18-.502-.27l-.158-.06c-.222.016-.38-.106-.582-.216a8.22 8.22 0 0 0 .448-1.94c1.131-1.828 4.547-.996 5.541-2.023z" fill="#1f395b"/><path d="M126.253 122.477c.205.083.93.373 1.105.365 1.344-.057 3.167-.556 4.169.818l-.047.14c-.207.148-5.976 1.262-6.882 1.568-1.573-.262-2.049-.264-3.445.506l-.307.783c-.222.016-.38-.106-.582-.216a8.22 8.22 0 0 0 .448-1.94c1.131-1.828 4.547-.996 5.541-2.023z" fill="#15408e"/><path d="M121.153 125.873c1.396-.77 1.871-.768 3.445-.506-1.048.521-2.382 1.314-3.445.506z" fill="#203556"/><path d="M118.212 126.822c.256-.068 1.481-.117 1.863-.15l.188-.232c.203.11.361.232.582.216l.158.06c.229.089.298.138.502.27 1.388.065 3.332.056 4.631.329a13.58 13.58 0 0 1-4.968.858l-1.556-.799c-1.899.719-4.199 1.951-6.216 2.001-1.704.043-1.032.256-2.025.989l-.074-.325.672-1.401c2.128-1.477 4.476-.848 6.244-1.816z" fill="#1e3055"/><path d="M118.45 133.141c.556-.096 1.272-.151 1.84-.182 3.59-.194 7.165-.594 10.746-.867-.491.735-.823-.002-1.482.601-.066.913.308 1.032-.611 1.521.931.17 1.44-.172 2.591.079-2.561.301-5.447.603-8.015.764 1.179-.491 1.901-.194 2.631-.852.179-.542.184-.328.031-.824-.961-.855-5.462.046-7.732-.239z" fill="#8cbffb"/><path d="M104.048 132.573c.659-.036 4.886-.968 5.761-1.2.372-.099.748-1.169 1.489-1.333l.074.325-1.77 2.695c-2.267.002-3.721.046-5.948.41.088-.251.279-.641.393-.896z" fill="#f36611"/><path d="M52.479 111.55c4.242-.455 10.001-.654 14.255-.635l.033.071c-1.13.849-2.023 5.483-2.219 6.889a54.76 54.76 0 0 0-.229 2.039c-.007.807-.053 1.969-.003 2.748l.094 1.64.281 1.853c.236.855.495 1.975.899 2.738l.098.097c.655.654 1.368 2.619 1.77 2.616 1.916-.016 3.583-.457 5.662.07l.237-.252c.956-.824 2.019.945 1.93 1.568.672.428 1.901.234 2.768.175 3.156.001 6.522.248 9.493.218l10.068-.095c1.539-.01 3.89-.082 5.397.012l.062.081.146.183c-.729.12-2.603.029-3.498.084-3.712.226-7.62-.056-11.274.006-5.254.025-10.72.339-15.964.079-17.367-.863-35.129-1.937-52.088-5.831-1.624-.62-3.389-.907-5.192-1.636l-3.867-1.601c-.883.191-5.402-.403-6.397-.6-.195.323-.139.204-.031.695l-.224.007c-.517-.788-.885-1.542-.98-2.491-.093-.931.164-1.784.77-2.498 3.592-4.229 21.659-7.558 27.355-8.042-.858.859-2.324.112-2.884 1.063l.026.333c1.113.74 3.706-.256 5.071.117 1.16-.023 2.609-.309 3.78-.387 3.628-.24 8.52-1.151 12.082-1.213.678-.012 1.949.002 2.572-.1z" fill="url(#H)"/><path d="M34.045 113.249c1.16-.023 2.609-.309 3.78-.387 3.628-.24 8.52-1.151 12.082-1.213l.08.162.08.358c-.026.836-.025 3.406 1.156 3.375.597.158 1.001.207 1.425.651.489 1.309-2.015 1.916-.742 3.013.994.867-.073 1.038-.002 2.301-2.127 1.153-7.373.266-8.395 1.081l-.06.216c-1.775.227-5.462-.025-6.448.237l-5.88.116c-2.248.071-4.139.245-6.423.107-.888.005-3.44-.058-4.139.186-1.469.328-8.663-.183-9.373.694l-.031.333.185.185c-.883.191-5.402-.403-6.397-.6-.195.323-.139.204-.031.695l-.224.007c-.517-.788-.885-1.542-.98-2.491-.093-.931.164-1.784.77-2.498 3.592-4.229 21.659-7.558 27.355-8.042-.858.859-2.324.112-2.884 1.063l.026.333c1.113.74 3.706-.256 5.071.117z" fill="url(#I)"/><path d="M4.687 124.767c-.517-.788-.885-1.542-.98-2.491-.093-.931.164-1.784.77-2.498 3.592-4.229 21.659-7.558 27.355-8.042-.858.859-2.324.112-2.884 1.063l.026.333c1.113.74 3.706-.256 5.071.117-5.275.817-21.48 2.722-24.622 6.894-.408.542-.655 1.197-.56 1.885.124.896.74 1.456 1.443 1.949.275.192.54.367.847.504l.185.185c-.883.191-5.402-.403-6.397-.6-.195.323-.139.204-.031.695z" fill="url(#J)"/><path d="M24.696 123.268c.475-.156 1.408-.168 1.931-.19-2.081-.734-3.046.064-4.595-.243l.002-.136c1.42-.704 6.87.7 8.608.115l.022-.143-3.189-.269 7.225-.266.608.397c.657-.204 3.934.159 5.295.001l-.428-.298c.331-.1 2.76.289 3.334.356l-.06.216c-1.775.227-5.462-.025-6.448.237l-5.88.116-6.423.107z" fill="#1e3055"/><path d="M52.479 111.55c4.242-.455 10.001-.654 14.255-.635l.033.071c-1.13.849-2.023 5.483-2.219 6.889a54.76 54.76 0 0 0-.229 2.039c-.007.807-.053 1.969-.003 2.748l.094 1.64.281 1.853-.163.366c-.523.323-.186-.242-.925-.284-2.045-.118-4.667-.94-6.598-1.06-.472-.753-.193-1.611-1.218-2.043-.672-.03-1.411.559-1.905.984-.226-.002-.182.003-.391-.071-2.323-.822-4.577-.657-6.979-.828-.932-.067-2.132-.284-3.064-.409l.06-.216c1.022-.815 6.268.072 8.395-1.081-.071-1.264.996-1.435.002-2.301-1.273-1.097 1.231-1.704.742-3.013-.424-.444-.828-.493-1.425-.651-1.181.031-1.182-2.538-1.156-3.375l-.08-.358-.08-.162c.678-.012 1.949.002 2.572-.1z" fill="#2a67c9"/><path d="M51.904 121.511c1.717-1.085.843-2.311 2.334-.87.144.139 2.435.034 2.973.123 2.362.39 4.572 1.718 6.928 1.889l.178.01.094 1.64.281 1.853-.163.366c-.523.323-.186-.242-.925-.284-2.045-.118-4.667-.94-6.598-1.06-.472-.753-.193-1.611-1.218-2.043-.672-.03-1.411.559-1.905.984-.226-.002-.182.003-.391-.071-2.323-.822-4.577-.657-6.979-.828-.932-.067-2.132-.284-3.064-.409l.06-.216c1.022-.815 6.268.072 8.395-1.081z" fill="#15408e"/><path d="M51.962 119.117c.487-1.531 1.651-2.268 3.032-1.219.306.225.505.402.869.525.366-.146.388-.146.642-.437 1.189.026 2.454-.002 3.648.249 1.14.24 3.204 2.002 4.167 1.678l-.003 2.748-.178-.01c-2.355-.171-4.565-1.499-6.928-1.889-.538-.089-2.829.016-2.973-.123-1.491-1.441-.617-.215-2.334.87-.071-1.264.996-1.435.002-2.301z" fill="#345890"/><path d="M51.962 119.117c.487-1.531 1.651-2.268 3.032-1.219.029.509.123.892-.159 1.284-.55.393-.822.325-1.473.218l-1.4-.283z" fill="#bf7a52"/><path d="M49.907 111.65l2.572-.1c-.054 1.421 1.248 2.698.407 3.747-.506.262-1.085.227-1.663.248-1.181.031-1.182-2.538-1.156-3.375l-.08-.358z" fill="#896f6d"/><path d="M49.987 111.812c.783-.051 1.42-.235 1.898.486-.063.421.024.266-.336.553-.498.093-.558.069-1.022-.142l-.46-.539z" fill="#bf7a52"/><path d="M43.448 122.808l3.064.409c2.402.172 4.656.006 6.979.828.21.074.165.069.391.071l-.017.095c-3.187 2.845-4.587.717-6.37 1.78l.035.619.153.063.383-.166c.229.273.14.878.126 1.3-5.794-.405-12.327-3.154-17.917-4.199-1.701-.318-7.279.011-9.718-.154.699-.244 3.251-.181 4.139-.186 2.284.138 4.175-.036 6.423-.107l5.88-.116c.987-.262 4.674-.011 6.448-.237z" fill="#203556"/><path d="M43.448 122.808l3.064.409c2.402.172 4.656.006 6.979.828.21.074.165.069.391.071l-.017.095c-3.187 2.845-4.587.717-6.37 1.78-.385-.05-1.165-.396-1.618-.5-1.625-.374-7.957-1.589-8.877-2.446.987-.262 4.674-.011 6.448-.237z" fill="#1f395b"/><path d="M53.882 124.116c.494-.424 1.233-1.014 1.905-.984 1.024.433.745 1.29 1.218 2.043 1.931.12 4.553.942 6.598 1.06.739.043.402.607.925.284l.163-.366c.236.855.495 1.975.899 2.738l.182.957c-.422-.394-.384-.71-.979-1.278-1.909-.829-5.165.311-6.595-.006-3.791-.841-6.147-.846-10.006-.758.014-.422.103-1.027-.126-1.3l-.383.166-.153-.063-.035-.619c1.783-1.063 3.183 1.066 6.37-1.78z" fill="#1e3055"/><path d="M53.882 124.116c.494-.424 1.233-1.014 1.905-.984 1.024.433.745 1.29 1.218 2.043.098.382.288.89.164 1.234-.789-.028-1.697.38-2.438.247-.485-.912-.282-1.516-.866-2.446z" fill="#9c5128"/><path d="M65.59 128.892l.098.097c.655.654 1.368 2.619 1.77 2.616 1.916-.016 3.583-.457 5.662.07l.237-.252c.956-.824 2.019.945 1.93 1.568.184.079-6.898-.103-7.574-.16-.915-.88-1.315-1.873-1.942-2.982z" fill="#cb5c10"/><path d="M172.316 125.315l.882-.191c-1.362 2.713-2.929 4.842-4.57 7.375l-5.734 9.03a604.22 604.22 0 0 1-16.6 24.726l-6.677 9.208-17.12 24.516c-2.647 3.82-5.704 7.666-8.32 11.561-.841 1.252-2.714 3.577-3.377 4.78-.162-.141-.234-.271-.386-.207l-4.593 1.944c-2.49.989-5.214 1.506-7.819 2.017-1.498.209-3.448.51-4.935.538a56.15 56.15 0 0 1-2.482-.12c2.75-.059 4.862-.186 7.603-.661a44.06 44.06 0 0 0 11.164-3.514l1.276-.596c.992-1.043 2.621-3.407 3.381-4.487-.225-.037-.254-.075-.455-.19-.029-.546.482-.943.492-1.33.022-.892-.264-2.058.013-2.925.149-.467 2.29-3.136 2.174-3.479-.295-.875-2.134-2.486-2.092-3.718.119-3.466 2.318-7.733 3.242-11.14.137-.504-.026-2.175.069-2.988.929-.75.667-1.49.913-2.581.134-.593.485-1.276.539-1.854.285-3.059.727-5.852 2.561-8.408 3.196-4.206 8.277-7.015 12.25-10.427 2.579-2.215 4.661-4.903 7.117-7.233 1.767-1.623 5.719-4.928 8.186-4.661 1.109.12 1.536 1.109 2.273 1.891.344.363.39 1.507.679 2.218.375.371.824.378 1.368.475l.17.275c.836-.335 16.561-25.826 18.605-28.595.322-.437.305-.745.205-1.244z" fill="#15408e"/><path d="M4.911 124.76c-.108-.49-.164-.371.031-.695.995.197 5.513.792 6.397.6l3.867 1.601c1.803.729 3.568 1.016 5.192 1.636 16.96 3.894 34.721 4.968 52.088 5.831 5.244.261 10.71-.054 15.964-.079 3.654-.063 7.562.22 11.274-.006.895-.054 2.769.036 3.498-.084l.252.045c1.293.038 2.703-.252 3.94-.207 3.68.134 7.387-.272 11.035-.261 2.27.286 6.771-.615 7.732.239.153.495.147.281-.031.824-.73.658-1.453.361-2.631.852-4.51.368-10.235.723-14.769.861-1.045.538-2.421.408-3.629.473-6.519.349-13.099.101-19.606.46-.304.368-.911 1.117-1.293 1.336-2.699 1.548-5.094 3.394-7.856 4.864-3.404 1.812-7.117 2.007-10.888 2.098-6.699.162-13.932-.172-19.967-3.357-5.224-2.644-10.625-5.008-15.814-7.7-.537-.354-1.85-1.802-2.421-1.896-6.481-1.072-12.684-2.623-18.744-5.189-1.295-.548-1.314-.185-2.394-1.309z" fill="#5a98ee"/><path d="M11.425 127.751l.506-.342c-.119-.176-.069-.111-.287-.216.908-.128 4.32 1.064 5.471 1.176 1.453.141 1.966-.328 3.283-.466 16.96 3.894 34.721 4.968 52.088 5.831 5.244.261 10.71-.054 15.964-.079 3.654-.063 7.562.22 11.274-.006.895-.054 2.769.036 3.498-.084l.252.045c1.293.038 2.703-.252 3.94-.207 3.68.134 7.387-.272 11.035-.261 2.27.286 6.771-.615 7.732.239.153.495.147.281-.031.824-.73.658-1.453.361-2.631.852-4.51.368-10.235.723-14.769.861-1.955-.08-5.102.161-7.198.228-4.406.149-8.814.227-13.222.234-13.587.042-27.167-.59-40.691-1.894-12.255-1.161-24.572-2.544-36.213-6.735z" fill="url(#K)"/><path d="M6.264 125.643l-.273-.405.136-.202c.739-.044 2.294.681 3.094.982 1.901.716 3.993.606 5.984.249 1.803.729 3.568 1.016 5.192 1.636-1.317.137-1.83.607-3.283.466-1.15-.111-4.563-1.304-5.471-1.176.218.105.168.04.287.216l-.506.342-5.161-2.109z" fill="#8cbffb"/><path d="M73.49 6.338l26.657-.043c-.005 2.232-.284 4.278-.404 6.481l-1.101 18.25-1.494 24.18c-.248 3.776-.167 6.597-.619 10.488 1.295.031 11.528.012 11.874.24-.007.35-.031.555-.297.829-5.019 5.17-9.652 10.777-14.74 15.879-1.802 1.969-4.568 5.487-6.542 6.968-1.984-1.536-5.02-5.017-6.715-6.901l-7.69-8.389c-2.042-2.198-6.113-5.805-7.495-8.155 2.64-.713 8.719-.413 11.659-.449.123-3.978-.431-8.379-.759-12.369-.851-10.341-1.169-20.742-1.899-31.079l-.601-9.239c-.089-1.396-.638-5.614.167-6.689z" fill="url(#L)"/><path d="M39.838 19.357c.537-.04 1.567-.176 2.028.051.315.128.512.737.548 1.051 1.224 10.692 3.311 21.292 4.616 31.979.556 4.557 1.316 9.092 1.985 13.635.332 2.257.617 4.634 1.102 6.856 2.166-.231 9.125-2.074 10.341-1.674.019.087.038.143.036.229-.015.699-11.579 20.965-12.89 23.116-.457.749-.89 1.466-1.511 2.093-2.36-1.189-6.855-4.613-9.047-6.238-2.749-1.739-5.142-3.73-7.769-5.674-2.119-1.568-4.617-3.124-6.61-4.876-.335-.295-.27-.418-.253-.779.847-.779 7.627-1.903 9.192-2.158-.508-2.031-.759-4.324-1.311-6.324l-7.444-26.311-2.911-10.236c-.658-2.284-2.331-6.881-2.218-9.112.523-.813 7.745-2.172 9.312-2.597 4.206-1.141 8.564-1.973 12.805-3.031z" fill="url(#M)"/><path d="M131.267 19.314c2.969-.187 9.853 2.085 13.141 2.721 1.893.366 10.295 2.267 11.304 2.946-.003 1.752-2.661 10.067-3.252 12.077l-7.379 25.605-2.634 9.122c-.441 1.549-1.124 3.721-1.385 5.254 1.644.253 9.309 1.59 10.123 2.489-.122.271-11.597 8.856-12.672 9.568-1.706 1.308-3.848 2.61-5.62 3.865-1.899 1.345-3.875 2.837-5.851 4.039a8.86 8.86 0 0 1-.21-.289c-1.756-2.524-4.164-7.572-5.647-10.343-1.154-2.157-8.421-13.655-8.19-14.914.85-.309 7.982 1.317 9.98 1.39a17.5 17.5 0 0 1 .242-2.014l7.227-46.498c.282-1.733.211-3.351.823-5.018z" fill="url(#N)"/><path d="M84.163 252.918c9.375-2.791 19.486.697 25.15 8.673a22.87 22.87 0 0 1-.092 26.612c-5.72 7.937-15.854 11.353-25.21 8.498-4.105-1.252-7.775-3.636-10.589-6.877a22.87 22.87 0 0 1-5.032-20.048c1.611-7.103 6.508-13.014 13.187-15.916a23.13 23.13 0 0 1 2.586-.942z" fill="url(#O)"/><path d="M87.882 257.408a17.55 17.55 0 0 1 16.502 6.319c3.983 4.95 4.982 11.666 2.612 17.561a17.55 17.55 0 0 1-14.038 10.863c-6.299.814-12.547-1.84-16.336-6.94-1.695-2.281-2.811-4.939-3.252-7.746-1.499-9.541 4.984-18.501 14.512-20.057z" fill="#fe9714"/><path d="M90.522 262.248c.752-.009.768-.127 1.322.202.25.441.166 1.69.196 2.322 2.454.163 4.055.781 5.723 2.593l-1.21 2.288c-.939-.769-2.732-2.317-3.945-1.707-.6.797-.379 3.889-.377 5.118 4.537 1.053 8.091 4.367 5.195 9.401-.98 1.704-3.207 2.178-5.038 2.502l.029 2.622c-.935-.012-1.893.021-2.83.042.107-.894.146-1.812.198-2.711l-.388-.029c-1.916-.154-4.109-.419-5.469-1.959-.696-.787-.932-2.383.001-3.107.862-.668 1.165.393 1.707.896 1.087 1.006 2.79 1.23 4.214 1.424.128-1.953.076-4.085.067-6.054-4.769-1.124-8.05-3.791-5.381-9.199.768-1.557 3.455-1.964 5.067-2.341-.052-.606-.16-1.323-.001-1.897.34-.412.264-.29.919-.407z" fill="#fee575"/><path d="M92.275 276.59c2.142.524 3.167 2.867 1.707 4.62-.521.42-.822.814-1.487.549-.546-.877-.245-3.899-.22-5.169z" fill="#fe9714"/><path d="M90.042 270.192c-.013.599.003 1.436-.143 1.992l-.371.141c-1.882-.28-3.419-4.57.494-4.878l.02 2.745z" fill="#ee7b08"/><path d="M90.022 267.447c.748-.271 1.405.045 2.22.281-.194 1.32-.185 2.439-.202 3.775l-1.778.779-.219-2.09c-.053-.548-.019-2.127-.02-2.745z" fill="#fef08c"/><path d="M84.163 252.918c.773.104 2.734.007 2.944.122.462.838.757 1.698 1 2.621.232.879.486 1.014-.224 1.748-9.528 1.556-16.011 10.516-14.512 20.057-.836.642-3.002-.193-4.218 1.846l-.051.086-.171-.1c-2.097-7.854 1.764-17.67 8.205-22.459.817-.606 4.216-2.292 4.441-2.978a23.13 23.13 0 0 1 2.586-.942z" fill="url(#P)"/><path d="M104.385 263.728l.262-.234c.468.103.55.381.808.756 13.8 20.049-14.68 40.318-29.348 21.075-.186-.245-.335-.558-.325-.867.271.272.518.552.841.754 3.789 5.101 10.037 7.755 16.336 6.94a17.55 17.55 0 0 0 14.038-10.863c2.37-5.895 1.371-12.611-2.612-17.561z" fill="#fee575"/><path d="M73.422 289.824c.975.129 5.03 3.712 6.357 4.304 1.254.558 2.376.892 3.663 1.314l-.055.185-3.639-1.087c.823 1.034 3.433 1.296 4.263 2.162-4.105-1.252-7.775-3.636-10.589-6.877z" fill="#fe9714"/><path d="M98 220.072c2.605-.511 5.329-1.028 7.819-2.017l4.593-1.944c.152-.064.224.066.386.207-.689 4.897-1.315 9.945-1.787 14.874-.143 1.488.128 3.401.082 4.844-1.505.633-7.307 2.742-8.804 2.955-3.715.747-11.225 1.566-14.819.979-4.288.035-12.019-1.364-15.547-4.185.352-4.856-1.068-14.322-2.193-19.165.566-.34 1.259.035 1.836.331 4.744 2.433 9.416 2.631 14.411 3.646 1.918.1 7.404.39 9.089.013 1.487-.028 3.437-.328 4.935-.538z" fill="url(#Q)"/><path d="M67.729 216.62c.566-.34 1.259.035 1.836.331 4.744 2.433 9.416 2.631 14.411 3.646-.816.252-1.231-.004-1.951.207-.267 1.487 1.575 2.76 2.19 3.935.563 1.077.782 2.459 1.314 3.568 1.796 4.843 3.65 6.142 3.416 11.563-1.729-.05-1.766-.187-3.475.1-4.288.035-12.019-1.364-15.547-4.185.352-4.856-1.068-14.322-2.193-19.165z" fill="url(#R)"/><path d="M98 220.072c2.605-.511 5.329-1.028 7.819-2.017l4.593-1.944c.152-.064.224.066.386.207-.689 4.897-1.315 9.945-1.787 14.874-.143 1.488.128 3.401.082 4.844-1.505.633-7.307 2.742-8.804 2.955.168-.431-.083-1.622-.151-2.104-.252-2.231-.836-4.67-.802-6.914.046-3.021-.824-5.665-1.135-8.634-.047-.445-.061-.835-.201-1.267z" fill="#2a67c9"/><path d="M69.922 235.784c3.528 2.821 11.259 4.22 15.547 4.185 3.594.587 11.104-.231 14.819-.979 1.498-.212 7.3-2.322 8.804-2.955-.42 2.222-.585 3.309-3.007 4.238-10.02 3.842-20.079 5.525-30.244.942-2.917-1.315-5.715-1.588-5.919-5.432z" fill="url(#S)"/><path d="M31.832 111.737c.289-.156 3.26-.465 3.829-.533 7.141-.891 14.315-1.489 21.505-1.792 3.415-.16 6.805-.111 10.206-.311-.197.764-.323 1.086-.639 1.814-4.254-.019-10.013.18-14.255.635-.623.102-1.894.088-2.572.1-3.562.062-8.453.973-12.082 1.213-1.17.077-2.62.363-3.78.387-1.364-.373-3.958.623-5.071-.117l-.026-.333c.559-.95 2.026-.203 2.884-1.063z" fill="#8cbffb"/><path d="M47.867 100.678c.537-.064 1.123-.195 1.505.271.851 1.039.991 2.34.956 3.634-.249.418-1.536 1.039-2.048 1.34.001.062-.058.179-.086.248-1.264-.626-.787-3.07-1.839-4.88z" fill="#ed5511"/><path d="M124.32 100.736c.669.008 2.765.226 3.098.773.035.988-.368 2.327-.633 3.298-.103.376-.231.346-.584.49-.461-.022-.567.013-.905-.259-.358-.901.422-1.708-.169-2.345-.514-.128-.972.127-1.469.328.171-.849.262-1.507.662-2.286z" fill-opacity=".608" fill="#cb5c10"/></g></svg><defs ><linearGradient id="U" gradientUnits="userSpaceOnUse"/></defs></svg>