<svg width="1200" height="630" viewBox="0 0 1200 630" fill="none" xmlns="http://www.w3.org/2000/svg">
  <rect width="1200" height="630" rx="36" fill="url(#bg)"/>
  <circle cx="1082" cy="112" r="118" fill="url(#glow)" fill-opacity=".6"/>
  <text x="72" y="108" fill="#FFF5EC" font-size="28" font-family="Arial, sans-serif" letter-spacing="4">THE REHAN KADRI</text>
  <text x="72" y="220" fill="white" font-size="68" font-weight="700" font-family="Arial, sans-serif">How Many YouTube</text>
  <text x="72" y="302" fill="white" font-size="68" font-weight="700" font-family="Arial, sans-serif">Channels Are There</text>
  <text x="72" y="384" fill="white" font-size="68" font-weight="700" font-family="Arial, sans-serif">in 2026?</text>
  <rect x="72" y="446" width="250" height="96" rx="24" fill="rgba(255,255,255,.15)" stroke="rgba(255,255,255,.28)" stroke-width="2"/>
  <text x="108" y="486" fill="#FFF2E7" font-size="22" font-family="Arial, sans-serif">Active channels</text>
  <text x="108" y="526" fill="white" font-size="42" font-weight="700" font-family="Arial, sans-serif">138M</text>
  <rect x="354" y="446" width="250" height="96" rx="24" fill="rgba(255,255,255,.15)" stroke="rgba(255,255,255,.28)" stroke-width="2"/>
  <text x="390" y="486" fill="#FFF2E7" font-size="22" font-family="Arial, sans-serif">Monthly users</text>
  <text x="390" y="526" fill="white" font-size="42" font-weight="700" font-family="Arial, sans-serif">2.85B</text>
  <rect x="848" y="182" width="250" height="250" rx="42" fill="#FFF7F1"/>
  <path d="M921 250C921 234.58 937.81 225.253 950.733 233.495L1035.11 287.33C1047.06 294.955 1047.06 312.377 1035.11 320.002L950.733 373.837C937.81 382.079 921 372.752 921 357.332V250Z" fill="#F15A30"/>
  <text x="885" y="474" fill="#5E2817" font-size="22" font-family="Arial, sans-serif">40+ new stats</text>
  <defs>
    <linearGradient id="bg" x1="1200" y1="0" x2="0" y2="630" gradientUnits="userSpaceOnUse">
      <stop stop-color="#FFB96C"/>
      <stop offset=".48" stop-color="#FF7E46"/>
      <stop offset="1" stop-color="#DA4224"/>
    </linearGradient>
    <radialGradient id="glow" cx="0" cy="0" r="1" gradientUnits="userSpaceOnUse" gradientTransform="translate(1082 112) rotate(90) scale(118)">
      <stop stop-color="#FFF7D7"/>
      <stop offset="1" stop-color="#FFF7D7" stop-opacity="0"/>
    </radialGradient>
  </defs>
</svg>
