<svg xmlns="http://www.w3.org/2000/svg" width="300" height="168.84" xmlns:v="https://vecta.io/nano"><style><![CDATA[.B{fill:#668afb}.C{fill:#3c68f9}.D{fill:#fefefe}.E{fill:#e8578a}.F{fill:#38ceb9}.G{fill:#99a9f7}.H{fill:#f1849b}.I{fill:#2345e0}]]></style><svg><defs><clipPath id="A"><path transform="scale(.14648 .14644)" fill="none" d="M0 0h2048v1153H0z"/></clipPath><linearGradient x1="197.959" y1="112.464" x2="100.238" y2="50.487" id="B" href="#K"><stop offset="0" stop-color="#ebecfc"/><stop offset="1" stop-color="#fff"/></linearGradient><linearGradient x1="188.827" y1="143.976" x2="160.677" y2="138.253" id="C" href="#K"><stop offset="0" stop-color="#96c3f2"/><stop offset="1" stop-color="#5b82fa"/></linearGradient><linearGradient x1="197.663" y1="124.53" x2="207.486" y2="127.479" id="D" href="#K"><stop offset="0" stop-color="#1895a2"/><stop offset="1" stop-color="#24d9ac"/></linearGradient><linearGradient x1="169.816" y1="129.97" x2="164.647" y2="123.423" id="E" href="#K"><stop offset="0" stop-color="#9fd7ed"/><stop offset="1" stop-color="#729df5"/></linearGradient><linearGradient x1="189.154" y1="128.62" x2="180.391" y2="124.198" id="F" href="#K"><stop offset="0" stop-color="#5ee4c9"/><stop offset="1" stop-color="#39a4de"/></linearGradient><linearGradient x1="243.926" y1="134.55" x2="244.433" y2="101.157" id="G" href="#K"><stop offset="0" stop-color="#a34589"/><stop offset="1" stop-color="#d65488"/></linearGradient><linearGradient x1="228.378" y1="95.973" x2="228.942" y2="70.377" id="H" href="#K"><stop offset="0" stop-color="#ee7496"/><stop offset="1" stop-color="#f594a0"/></linearGradient><linearGradient x1="90.037" y1="50.093" x2="89.741" y2="37.338" id="I" href="#K"><stop offset="0" stop-color="#6f85ee"/><stop offset="1" stop-color="#acb9f3"/></linearGradient></defs><g clip-path="url(#A)"><path d="M214.85 37.658c.126-3.653-.021-7.328.057-10.983.16-3.354-1.068-7.347 3.8-7.468 5.707-.142 11.433-.113 17.137.003 4.437.09 3.705 4.461 3.69 7.666l-.041 7.685c-.007.917-.103 1.999.136 2.877.081.297 1.129.243 1.412.241l1.479-.001c4.03-.092 5.626.069 5.629 4.527l.006 18.408-.009 36.741c4.141.775 14.663 1.195 17.534 3.699 1.34.942 2.644 2.021 2.931 3.733.725 4.329-4.063 24.03-6.738 27.676-1.005 1.368-2.508 2.316-4.192 2.547-3.977.545-17.984-2.19-22.701-2.992-3.678-.625-7.994-1.109-11.553-2.142-1.128-.327-1.995-.784-2.928-1.487-.098 2.499-.146 6.01-.012 8.488.92.229 2.884.263 3.93.314l6.759.357c12.123.715 24.781 1.627 36.703 4.163 1.228.261 3.482.819 3.984 2.032-.026.289-.084.491-.29.704-3.747 3.858-46.572 5.803-54.237 6.075a1840.33 1840.33 0 0 1-112.073.605 998.93 998.93 0 0 1-38.384-1.397 442.4 442.4 0 0 1-26.88-2.095c-2.179-.256-14.943-1.42-14.686-3.956 1.365-2.05 9.111-2.686 11.617-3.36-.295-1.749-.299-5.908-.299-7.752l.051-11.962-.028-19.831-.044-9.41c.004-3.842 1.262-2.941 4.231-3.144.122-1.811-.082-4.144.212-5.848 1.691-2.011 5.573-1.438 8.216-1.68l-.022-.4c-.113-2.461-.014-5.83-.014-8.348l.004-16.117.003-16.41c.001-2.427-.331-9.114.595-11.606.163-.439 1.678-.788 2.278-.804 5.695-.148 11.41-.086 17.111-.094l33.001-.021 23.632.007 6.81-.002c1.485-.009 3.042-.058 4.521.053 1.23.092 1.652.527 2.407 1.442.447 2.016.181 6.807.284 9.266l5.081.01 24.057.021z" fill="url(#B)"/><g fill="#c8f2ea"><path d="M49.27 80.689l25.132-.013 6.88-.016 4.516.032c1.238.077 1.826.598 2.258 1.72.31 9.192-.057 18.788.089 28.015.048 3.039-.082 6.244.034 9.258 2.296-3.927 5.366-7.532 9.823-9.021 5.871-2.117 10.634-1.616 16.065 1.469.787.584 1.985 1.425 2.651 2.087l.021 1.924 4.284-3.879-.042-.186 31.644-.023c.173-.565.233-1.638.74-2.011 1.355-.998 5.09-.656 6.725-.656l9.463.002 30.929-.003 2.559-.001 9.804-.017c2.145-.001 5-.342 6.809.781-.602 2.722-1.201 5.437-1.67 8.186-.554 3.235-1.273 5.948 1.302 8.525.41.503.826 1.004 1.214 1.524-.098 2.499-.146 6.01-.012 8.488.92.229 2.884.263 3.93.314l6.759.357c12.123.715 24.781 1.627 36.703 4.163 1.228.261 3.482.819 3.984 2.032-.026.289-.084.491-.29.704-3.747 3.858-46.572 5.803-54.237 6.075a1840.33 1840.33 0 0 1-112.073.605 998.93 998.93 0 0 1-38.384-1.397 442.4 442.4 0 0 1-26.88-2.095c-2.179-.256-14.943-1.42-14.686-3.956 1.365-2.05 9.111-2.686 11.617-3.36-.295-1.749-.299-5.908-.299-7.752l.051-11.962-.028-19.831-.044-9.41c.004-3.842 1.262-2.941 4.231-3.144.122-1.811-.082-4.144.212-5.848 1.691-2.011 5.573-1.438 8.216-1.68z"/><path d="M152.625 112.057c.173-.565.233-1.638.74-2.011 1.355-.998 5.09-.656 6.725-.656l9.463.002 30.929-.003 2.559-.001 9.804-.017c2.145-.001 5-.342 6.809.781l-1.67 8.186c-.554 3.235-1.273 5.948 1.302 8.525l1.214 1.524-.012 8.488c.125 2.063.429 8.257-.598 9.766-.545.394-1.964.542-2.64.545l-14.213.009-28.012-.004-13.217.018c-2.301.004-4.799.105-7.087-.133-1.009-.105-1.724-.556-1.92-1.618-.231-2.475-.097-6.802-.097-9.465l-.018-15.867-.059-7.925z"/></g><path d="M168.737 140.033c5.106 1.685 5.883 1.019 10.088-2.102 1.286-.955 3.952-1.42 5.465-.846 1.282.486 2.515 1.181 3.87 1.563 3.47.978 6.054-2.882 8.625-4.381 7.531-4.391 8.231 6.12 15.713 1.502l.262.56c-.281.163-1.592.88-1.761 1.051-1.953 1.798-5.707-.66-7.312-1.955-4.389-3.541-7.91.92-11.24 3.402-.293.216-2.158.745-2.584.874-1.232 1.301-1.447 1.951-1.406 3.659l16.043-.006c.97 0 5.947-.057 6.615.081-1.548.235-4.698.137-6.375.126l-9.782-.029-36.492-.016c-.171-.011-.259-.054-.428-.108l-.031-.225c.511-.528 2.263-1.209 2.966-1.541 2.87-1.356 4.528-2.16 7.762-1.609z" fill="url(#C)"/><path d="M168.737 140.033c5.106 1.685 5.883 1.019 10.088-2.102 1.286-.955 3.952-1.42 5.465-.846 1.282.486 2.515 1.181 3.87 1.563 3.47.978 6.054-2.882 8.625-4.381 7.531-4.391 8.231 6.12 15.713 1.502l.262.56c-.281.163-1.592.88-1.761 1.051-6.442 1.157-6.082-3.923-11.568-3.463-3.069.257-5.574 4.325-8.429 5.207-3.473 1.264-6.27-2.235-9.037-1.613-6.425 1.445-4.947 5.848-12.921 3.209z" class="F"/><path d="M158.467 143.516c-.171-.011-.259-.054-.428-.108l-.031-.225c.511-.528 2.263-1.209 2.966-1.541 2.87-1.356 4.528-2.16 7.762-1.609l.309.688c-3.713-.834-7.153 1.102-10.579 2.796z" class="C"/><path d="M201.858 122.609c2.799-.05 5.37 1.579 6.117 4.577.081.321-.176.565-.378.772-.753.223-3.731.124-4.714.115-1.711.012-3.996.083-5.738-.053-.313-.024-.437-.327-.561-.558-.089-1.342 1.5-3.105 2.517-3.852.939-.69 1.627-.858 2.757-1.002z" fill="url(#D)"/><path d="M167.178 122.621c3.485-.047 5.527 2.103 5.928 5.436l-5.016.009c-1.734.012-3.993.081-5.752-.052-.347-.026-.456-.302-.589-.554-.064-1.353 1.453-3.068 2.486-3.825 1.011-.741 1.721-.907 2.943-1.014z" fill="url(#E)"/><path d="M184.124 122.605c3.582.003 5.496 2.034 6.032 5.427l-4.816.043-6.517-.013c.491-3.272 1.975-4.957 5.301-5.457z" fill="url(#F)"/><path d="M183.976 114.872c1.806-.158 3.396 1.184 3.541 2.991s-1.21 3.385-3.019 3.517c-1.789.13-3.349-1.207-3.491-2.995s1.182-3.356 2.969-3.513z" class="B"/><path d="M201.993 114.875a3.26 3.26 0 0 1 .375 6.508 3.26 3.26 0 1 1-.375-6.508z" class="C"/><path d="M167.024 114.867a3.26 3.26 0 0 1 3.51 2.933c.173 1.772-1.11 3.354-2.881 3.552a3.26 3.26 0 0 1-3.321-4.601 3.26 3.26 0 0 1 2.692-1.883z" class="B"/><path d="M212.499 135.769c.432-.445 1.096-1.124 1.693-1.235l.29.107c.076.851-1.056 1.323-1.721 1.688z" fill="#b1dfe9"/><path d="M98.002 110.665c5.871-2.117 10.634-1.616 16.065 1.469.787.584 1.985 1.425 2.651 2.087l.021 1.924 4.284-3.879-.042-.186 31.644-.023.003.143c.221.626.066 6.78.059 7.925l.018 15.867c0 2.663-.135 6.99.097 9.465l-.151-.661c-.321-.353-.19-.244-.807-.302-3.568.114-38.631.185-39.464-.152-3.62 1.723-7.708 2.202-11.628 1.363-5.345-1.136-8.933-4.002-11.862-8.49a19.49 19.49 0 0 1-2.046-.047c2.056-1.74.532-2.541.031-4.652-1.124-4.733-.46-8.384 1.305-12.832 2.296-3.927 5.366-7.532 9.823-9.021z" class="D"/><path d="M152.625 112.057l.003.143c.221.626.066 6.78.059 7.925l.018 15.867.097 9.465-.151-.661c-.321-.353-.19-.244-.807-.302-3.568.114-38.631.185-39.464-.152 5.702-2.52 9.564-8.283 10.252-14.399.214-1.901.106-3.325-.097-5.224l-.434-1.953c-.536-1.614-1.014-2.731-1.794-4.231-.155-.202-.662-1.104-.82-1.372.882.058.973-.008 1.6-.554.231-.294 1.436-1.366 1.777-1.682l1.533-1.366c-.541-.419-1.992-.398-2.817-.513l-.556-.783-.042-.186 31.644-.023z" fill="#aab9fc"/><path d="M122.1 122.767a11.82 11.82 0 0 0 1.724.085l.075.004c7.461-.24 15.017.195 22.485-.05.407-.013.864.131 1.223.31.357.431.267.221.319.808-.229.446-.327.545-.882.555l-22.758.124c.951 7.339-1.101 15.288-7.436 19.733l24.796-.003c1.802-.004 9.025-.151 10.195.162-3.568.114-38.631.185-39.464-.152 5.702-2.52 9.564-8.283 10.252-14.399.214-1.901.106-3.325-.097-5.224z" class="G"/><path d="M122.1 122.767a11.82 11.82 0 0 0 1.724.085l.075.004c.132.498.373 1.107.197 1.544-.603.352-1.139.139-1.562.32z" class="B"/><g class="G"><path d="M152.625 112.057l.003.143-.051 2.708c-9.036.167-18.123-.046-27.143.091.065-.238.104-.581.14-.836-.304-.502-.622-.194-1.177-.6-.541-.419-1.992-.398-2.817-.513l-.556-.783-.042-.186 31.644-.023zm-31.539 4.554c.102.165.426.641.439.792.612.794.479 1 1.227 1.105-.151.112-.291.233-.431.357.394 1.379 1.099 2.532 1.504 3.989a11.82 11.82 0 0 1-1.724-.085c-.536-1.614-1.014-2.731-1.794-4.231-.155-.202-.662-1.104-.82-1.372.882.058.973-.008 1.6-.554z"/></g><g class="B"><path d="M121.086 116.611c.102.165.426.641.439.792.186.517.39.795.289 1.259-.685.062-.996-.175-1.508-.125-.155-.202-.662-1.104-.82-1.372.882.058.973-.008 1.6-.554zm3.31-3.048c.555.407.873.099 1.177.6l-.14.836c-.859.02-1.712-.031-2.57-.07z"/></g><g class="C"><path d="M98.002 110.665c5.871-2.117 10.634-1.616 16.065 1.469.787.584 1.985 1.425 2.651 2.087l.021 1.924-.219.181c-.787.601-2.079 1.921-2.588 2.267-2.932-2.682-5.835-4.147-9.937-3.971a12.93 12.93 0 0 0-9.053 4.266c-2.455 2.703-3.616 6.087-3.426 9.722.201 3.433 1.744 6.649 4.295 8.955a13.15 13.15 0 0 0 9.485 3.28c3.552-.203 6.68-1.671 9.038-4.348a13.1 13.1 0 0 0 3.228-9.532c-.199-2.917-1.165-5.085-2.84-7.43.715-.755 1.936-1.802 2.749-2.581.663.022 1.391.009 2.016.21.158.267.665 1.17.82 1.372.78 1.5 1.259 2.617 1.794 4.231l.434 1.953c.203 1.899.311 3.323.097 5.224-.688 6.116-4.55 11.878-10.252 14.399-3.62 1.723-7.708 2.202-11.628 1.363-5.345-1.136-8.933-4.002-11.862-8.49a19.49 19.49 0 0 1-2.046-.047c2.056-1.74.532-2.541.031-4.652-1.124-4.733-.46-8.384 1.305-12.832 2.296-3.927 5.366-7.532 9.823-9.021z"/><path d="M121.024 112.266l.556.783c.825.115 2.276.094 2.817.513l-1.533 1.366-1.777 1.682c-.627.546-.719.612-1.6.554-.625-.201-1.352-.188-2.016-.21l-2.749 2.581-3.954 3.597c.795 1.211 1.284 2.294 1.462 3.755a7.7 7.7 0 0 1-1.591 5.718c-1.279 1.608-3.044 2.665-5.095 2.896a7.97 7.97 0 0 1-6.004-1.756c-1.618-1.327-2.519-3.117-2.712-5.191-.208-2.129.462-4.251 1.857-5.873 3.129-3.665 7.76-3.518 11.262-.48 1.281-1.233 2.656-2.426 3.987-3.61.509-.346 1.8-1.666 2.588-2.267l.219-.181 4.284-3.879z"/></g><path d="M121.024 112.266l.556.783c.825.115 2.276.094 2.817.513l-1.533 1.366-1.777 1.682c-.627.546-.719.612-1.6.554-.625-.201-1.352-.188-2.016-.21l-2.749 2.581-3.954 3.597-3.581 3.18-1.303 1.195c-.561.48-.667.66-1.398.434l-.151-.293c.123-.559.127-.432.548-.906.425-.321 1.082-.972 1.492-1.354l3.573-3.186 3.987-3.61c.509-.346 1.8-1.666 2.588-2.267l.219-.181 4.284-3.879z" class="E"/><g class="D"><path d="M121.024 112.266l.556.783c-.862.808-3.507 3.526-4.394 3.74-.467-.138-.294-.045-.665-.463l.219-.181 4.284-3.879zm-13.838 14.046c.45 1.567.446 3.213-1.233 4.034-.757.362-1.627.407-2.417.124-3.503-1.226-2.156-7.093 2.837-5.083l-1.492 1.354c-.421.474-.424.346-.548.906l.151.293c.731.227.837.046 1.398-.434.226-.275.997-.925 1.303-1.195z"/></g><path d="M36.93 140.317c-.295-1.749-.299-5.908-.299-7.752l.051-11.962-.028-19.831-.044-9.41c.004-3.842 1.262-2.941 4.231-3.144l-.015 31.602-.006 10.263.069 5.508a2.46 2.46 0 0 0 .72 1.497c.866.842 2.087.73 3.221.682 12.754-.542 25.529-.156 38.291-.369 1.042-.017 2.788.069 3.722-.233.754.055 1.289.063 2.046.047 2.93 4.487 6.517 7.353 11.862 8.49 3.92.84 8.008.36 11.628-1.363.833.336 35.895.265 39.464.152.617.058.486-.052.807.302l.151.661c.196 1.062.911 1.513 1.92 1.618 2.288.239 4.786.138 7.087.133l13.217-.018 28.012.004 14.213-.009c.675-.003 2.095-.151 2.64-.545 1.027-1.509.722-7.704.598-9.766.92.229 2.884.263 3.93.314l6.759.357c12.123.715 24.781 1.627 36.703 4.163 1.228.261 3.482.819 3.984 2.032-.026.289-.084.491-.29.704-3.747 3.858-46.572 5.803-54.237 6.075a1840.33 1840.33 0 0 1-112.073.605 998.93 998.93 0 0 1-38.384-1.397 442.4 442.4 0 0 1-26.88-2.095c-2.179-.256-14.943-1.42-14.686-3.956 1.365-2.05 9.111-2.686 11.617-3.36z" class="B"/><path d="M64.903 85.552c4.159-.033 8.107 1.825 10.732 5.05s3.642 7.467 2.764 11.531c-2.064-.401-4.389-.967-6.437-1.464a7.1 7.1 0 0 1-3.503 4.771c.996 1.952 2.112 3.869 3.196 5.775a13.7 13.7 0 0 1-15.537-1.564 13.69 13.69 0 0 1-3.971-15.097c1.957-5.368 7.043-8.956 12.758-9.002z" fill="#c8f2ea"/><path d="M71.654 111.215a13.7 13.7 0 0 1-15.537-1.564 13.69 13.69 0 0 1-3.971-15.097c1.957-5.368 7.043-8.956 12.758-9.002a204.27 204.27 0 0 1-.006 6.584c-2.958.045-5.579 1.919-6.577 4.704a7.1 7.1 0 0 0 2.091 7.809c2.256 1.914 5.463 2.229 8.048.791.996 1.952 2.112 3.869 3.196 5.775z" class="C"/><path d="M64.903 85.552c4.159-.033 8.107 1.825 10.732 5.05s3.642 7.467 2.764 11.531c-2.064-.401-4.389-.967-6.437-1.464a7.1 7.1 0 0 0-1.485-5.961c-1.374-1.659-3.426-2.605-5.58-2.572a204.27 204.27 0 0 0 .006-6.584z" class="F"/><path d="M71.961 100.669l6.437 1.464a13.69 13.69 0 0 1-6.745 9.083l-3.196-5.775a7.1 7.1 0 0 0 3.503-4.771z" class="D"/><path d="M54.357 123.22c7.004-.266 14.309.162 21.337.12.821-.005 2.377.033 2.991.567.139.423.088.495-.02.949-.341.308-.172.222-.698.274-1.065-.039-3.394.172-4.714.185l-13.589.067c-1.199.005-4.676.108-5.677-.127-.897-.658-.642-1.636.37-2.036z" fill="#aab9fc"/><path d="M54.527 117.66l13.974.013c1.308.001 6.788-.222 7.576.365.356.772.283 1.343-.499 1.725l-14.297.026c-2.216.006-4.646.064-6.854-.06-.404-.023-.618-.228-.854-.538-.289-.906.158-1.312.954-1.531z" class="F"/><path d="M54.099 128.88c5.019-.006 13.208-.185 18.449.137.534.033.646 1.223.059 1.921-2.272.003-17.976.183-18.738-.191-.621-.716-.398-1.234.231-1.867z" class="C"/><path d="M49.287 122.786a1.59 1.59 0 0 1 1.901 1.121 1.59 1.59 0 0 1-2.632 1.571 1.59 1.59 0 0 1 .731-2.691z" class="B"/><path d="M49.175 117.224a1.59 1.59 0 0 1 2.021 1.93 1.59 1.59 0 0 1-3.064.006 1.59 1.59 0 0 1 1.043-1.936z" class="F"/><path d="M49.015 128.492c.527-.232 1.139-.16 1.598.188s.693.918.611 1.489-.467 1.051-1.006 1.256c-.804.305-1.704-.085-2.03-.88s.041-1.705.828-2.052z" class="C"/><path d="M214.85 37.658c.126-3.653-.021-7.328.057-10.983.16-3.354-1.068-7.347 3.8-7.468 5.707-.142 11.433-.113 17.137.003 4.437.09 3.705 4.461 3.69 7.666l-.041 7.685c-.007.917-.103 1.999.136 2.877.081.297 1.129.243 1.412.241l1.479-.001c4.03-.092 5.626.069 5.629 4.527l.006 18.408-.009 36.741c4.141.775 14.663 1.195 17.534 3.699 1.34.942 2.644 2.021 2.931 3.733.725 4.329-4.063 24.03-6.738 27.676-1.005 1.368-2.508 2.316-4.192 2.547-3.977.545-17.984-2.19-22.701-2.992-3.678-.625-7.994-1.109-11.553-2.142-1.128-.327-1.995-.784-2.928-1.487-.388-.52-.804-1.021-1.214-1.524-2.575-2.576-1.856-5.29-1.302-8.525.469-2.748 1.068-5.464 1.67-8.186-1.809-1.123-4.664-.782-6.809-.781l-9.804.017-2.559.001-.004-38.379c-.001-2.72.253-15.824-.34-17.706-.899-1.203-1.405-2.084-3.056-2.192-2.272-.149-4.56-.085-6.839-.076l-11.533.004-38.835.028-.009-.098c.213-3.72.029-9.454.017-13.313l5.081.01 24.057.021z" fill="#fbcdaf"/><path d="M225.448 96.509c2.511-1.432 3.954-1.088 6.71-.872l1.553.166c1.03.207 1.106-.013 1.723.076l6.281.669c1.714.338 5.089.466 6.432.803 4.141.775 14.663 1.195 17.534 3.699 1.34.942 2.644 2.021 2.931 3.733.725 4.329-4.063 24.03-6.738 27.676-1.005 1.368-2.508 2.316-4.192 2.547-3.977.545-17.984-2.19-22.701-2.992-3.678-.625-7.994-1.109-11.553-2.142-1.128-.327-1.995-.784-2.928-1.487-.388-.52-.804-1.021-1.214-1.524-2.575-2.576-1.856-5.29-1.302-8.525.469-2.748 1.068-5.464 1.67-8.186.264-1.617 1.578-5.608 2.128-7.336.303-.824.646-1.663.967-2.483.743-1.866 1.129-2.517 2.7-3.826z" class="E"/><path d="M265.682 101.051c1.34.942 2.644 2.021 2.931 3.733.725 4.329-4.063 24.03-6.738 27.676-1.005 1.368-2.508 2.316-4.192 2.547-3.977.545-17.984-2.19-22.701-2.992-3.678-.625-7.994-1.109-11.553-2.142-1.128-.327-1.995-.784-2.928-1.487-.388-.52-.804-1.021-1.214-1.524 3.737 1.44 12.91 2.638 17.218 3.428 5.632.904 11.273 1.921 16.957 2.449 1.783.166 3.535-.297 4.86-1.522.623-.58 1.14-1.263 1.529-2.02 2.474-4.912 5.231-18.271 6.001-24.015.188-1.395-.253-2.739-.179-4.008z" fill="url(#G)"/><path d="M238.05 104.252c.274-.006.561.001.832.052 1.002.187 10.236 8.064 10.891 9.152.27.448.284.968.119 1.456-.407 1.195-6.187 3.264-7.544 3.851-1.8.768-7.522 4.104-8.799 1.872-.204-.357-.296-.767-.267-1.177.06-.917.863-3.907 1.104-4.898l2.023-8.176c.337-1.304.508-1.489 1.641-2.132z" class="D"/><path d="M214.85 37.658c.126-3.653-.021-7.328.057-10.983.16-3.354-1.068-7.347 3.8-7.468 5.707-.142 11.433-.113 17.137.003 4.437.09 3.705 4.461 3.69 7.666l-.041 7.685c-.007.917-.103 1.999.136 2.877.081.297 1.129.243 1.412.241-.419.028-1.05 0-1.339.239-.812 2.301.69 5.155-3.943 5.329-3.35.126-6.741-.022-10.096.033-1.934-.023-7.042.132-8.626-.188-2.445-1.353-2.265-2.936-2.187-5.432z" class="E"/><path d="M228.425 24.435c1.087-.061 5.262-.265 5.843.327.337 1.13.667 5.372-.426 6.049-.482-.064-.341-.055-.776-.434-.211-.578-.135-2.558-.136-3.294-3.331 3.442-5.618 6.014-9.352 9.064-.732.599-3.33 2.935-4.159 1.939.107-.835 1.157-1.664 1.808-2.135 3.911-2.84 7.285-6.426 10.551-9.973-1.085.023-2.906.312-3.634-.524-.019-.637-.035-.425.281-1.02z" class="D"/><path d="M233.711 95.803c.505-.013.908.085 1.191-.189.379-4.534-.371-31.59.39-32.892.816-.305 5.335-.219 6.33-.115.214 11.121.072 22.789.094 33.942-1.783-.33-4.418-.402-6.281-.669-.617-.089-.693.131-1.723-.076z" class="H"/><path d="M225.448 96.509l-.007-17.579.097-8.266c.123-.168.23-.379.426-.403 1.134-.135 5.139-.284 5.984.113.41.879.212 22.82.211 25.261-2.757-.215-4.2-.56-6.71.872z" fill="url(#H)"/><path d="M215.9 102.807l.007-15.536.229-8.057c.662-.387 5.546-.425 6.19-.129.773 1.066-.009 18.153.403 21.116l.019.134-.967 2.483c-1.857-.06-4.002-.011-5.881-.011z" class="H"/><g fill="#e5baa2"><path d="M200.137 53.305c3.823.455 2.912 6.24 2.903 9.03l-.026 9.944.026 37.11-2.559.001-.004-38.379c-.001-2.72.253-15.824-.34-17.706zm-60.255-15.649l5.081.01c-.327.064-.581.104-.896.216-.224.54-.08 11.622-.072 13.054-1.05 0-3.165-.061-4.13.033.213-3.72.029-9.454.017-13.313zm101.16.02l1.479-.001-1.042.195c-.502.862.231 4.532-1.315 5.665-.33.382-.639.761-1.173.872-3.524.731-7.578.331-11.205.397-1.944.036-8.467.219-9.643-.5a2.88 2.88 0 0 1-1.106-1.215c1.585.32 6.693.165 8.626.188 3.354-.054 6.746.093 10.096-.033 4.633-.174 3.132-3.028 3.943-5.329.289-.24.92-.212 1.339-.239z"/></g><path d="M206.454 86.097c1.874-.133 4.712-.058 6.615.005.141 5.31.067 11.357.025 16.691l-6.757.01c.07-4.389-.026-8.795.013-13.186.01-1.169-.044-2.36.104-3.52z" class="H"/><g class="I"><path d="M231.604 49.067c1.153-.007 6.283-.227 6.82.237.519 1.075.853 6.57-.393 7.204l-.335-.141c-.523-.755-.356-3.831-.36-4.944-7.743 8.528-13.629 13.977-24.756 18.276-1.311.466-3.823 1.561-5.093 1.367-.435-.285-.328-.126-.438-.578.517-.532 1.595-.923 2.304-1.139 11.076-3.377 19.434-10.157 26.877-18.862-1.282-.044-4.063.414-4.878-.481-.026-.58-.059-.35.252-.938zM49.27 80.689l-.022-.4-.014-8.348.004-16.117.003-16.41c.001-2.427-.331-9.114.595-11.606.163-.439 1.678-.788 2.278-.804 5.695-.148 11.41-.086 17.111-.094l33.001-.021 23.632.007 6.81-.002c1.485-.009 3.042-.058 4.521.053 1.23.092 1.652.527 2.407 1.442.447 2.016.181 6.807.284 9.266.011 3.859.196 9.593-.017 13.313l.009.098c-8.843.048-17.686.039-26.528-.028l-9.895-.006c-1.551.004-2.479-.065-3.873.688-.989.886-1.372 1.458-1.633 2.794-.226 1.295-.112 7.243-.112 8.963l.009 20.086c-1.253.005-8.896.15-9.544-.108a7.57 7.57 0 0 1-.242-1.043c-.432-1.122-1.02-1.644-2.258-1.72-1.505-.093-3.009-.045-4.516-.032l-6.88.016z"/></g><path d="M94.047 42.873c1.871-.974 4.294-4.89 7.242-5.775 4.451-1.336 5.324 1.483 8.65 3.511.775.473 2.52.398 3.284.764 1.342.348 2.552.388 3.927.493 2.913.222 2.884 1.847 2.802 4.219l-.22 2.753c-4 .014-8.078.438-12.067.297-2.699-.261-5.611-.011-8.263-.166-4.186-.244-7.719.258-11.831.462-6.344.315-12.733 1.001-19.073 1.177-1.551.043-6.858.442-8.083-.008l-.173-.237c.151-.93 1.758-1.748 2.546-1.979.283-.202 1.318-.559 1.693-.672 5.615-1.698 7.358 1.777 12.857-2.165 4.059-3.017 5.765-3.738 10.721-2.089l.27-.224c2.44.834 3.394.476 5.716-.36z" fill="url(#I)"/><path d="M88.331 43.232c2.44.834 3.394.476 5.716-.36-1.906 1.491-3.821 1.529-5.987.584z" class="I"/><path d="M119.732 48.837l.22-2.753.019 4.858 19.894.027.009.098c-8.843.048-17.686.039-26.528-.028l-9.895-.006c-1.551.004-2.479-.065-3.873.688-2.303-.225-8.601-.042-11.262-.037l-22.097.003-6.383.009c-.772.001-3.103.196-3.534-.359.123-.728.775-.95 1.381-1.188.416.218.241.201.666.126l-.031-.05c1.738-.52 3.031-1.66 4.197-1.968l.276.128c-.789.231-2.396 1.049-2.546 1.979l.173.237c1.225.449 6.532.051 8.083.008 6.34-.176 12.729-.862 19.073-1.177 4.112-.204 7.644-.706 11.831-.462 2.652.154 5.564-.095 8.263.166 3.989.14 8.067-.283 12.067-.297z" class="B"/><path d="M57.681 50.149c2.681-1.435 5.484-3.881 8.253-4.814 2.811-.948 5.627 1.673 8.615.449 3.361-1.376 5.067-5.181 8.818-5.478 3.075-.243 5.383 3.105 8.509 2.243 4.194-1.157 5.776-6.187 10.319-6.938 3.148-.52 5.063 1.792 7.402 3.445 5.257 3.715 7.586-2.21 9.288-2.522l.271.194c.055 1.143-2.625 3.297-3.599 3.836-.579.32-1.655.584-2.333.808-.764-.366-2.509-.291-3.284-.764-3.326-2.028-4.199-4.847-8.65-3.511-2.948.885-5.37 4.801-7.242 5.775-2.323.836-3.276 1.194-5.716.36l-.27.224c-4.956-1.649-6.662-.928-10.721 2.089-5.499 3.942-7.242.468-12.857 2.165-.375.113-1.41.471-1.693.672l-.276-.128c-1.167.308-2.459 1.448-4.197 1.968l.031.05c-.425.075-.25.093-.666-.126z" fill="#4aa3eb"/><path d="M77.208 45.393c2.629-2.221 5.26-5.327 8.9-3.364l2.223 1.203-.27.224c-4.956-1.649-6.662-.928-10.721 2.089-5.499 3.942-7.242.468-12.857 2.165-.375.113-1.41.471-1.693.672l-.276-.128a28.89 28.89 0 0 1 1.001-.703c5.929-3.956 7.158 2.234 13.694-2.16z" class="I"/><path d="M55.472 65.948l21.796.002c2.203.011 8.242-.087 10.048.174.534.66.448 1.391-.03 2.069-6.525.149-13.45.069-20.001.078l-7.395.001c-1.119-.001-4.096.199-4.86-.368-.353-.766-.184-1.426.441-1.955z" class="C"/><path d="M64.321 58.056l28.042.015c.513.001.7.121 1.048.443.321.839.118 1.46-.618 1.933l-18.439.017c-3.099.002-6.245.04-9.342-.013-.57-.01-.87-.089-1.251-.515-.342-.775-.185-1.441.56-1.88z" class="B"/><g class="C"><path d="M55.588 71.676l16.591.006c1.633.01 6.06-.538 6.942.706.156.52.068.68-.095 1.181-.394.404-.245.287-.913.356l-14.997.104c-2.322 0-4.786.031-7.113-.056-.497-.019-.624-.105-.951-.387-.316-.829-.287-1.493.537-1.91zm1.732-15.209a2.77 2.77 0 1 1-2.228 1.741 2.77 2.77 0 0 1 2.229-1.741z"/></g><path d="M97.841 83.564l-.009-20.086.112-8.963c.207 3.99.044 9.344.045 13.455l-.063 29.005-.009 8.517c-.007 1.246-.091 4.02.085 5.173-4.458 1.489-7.527 5.093-9.823 9.021-.117-3.014.014-6.219-.034-9.258-.146-9.228.221-18.823-.089-28.015.071.412.122.643.242 1.043.647.258 8.29.113 9.544.108z" class="B"/><path d="M117.93 112.053c.547-.53 1.915-2.011 2.577-2.133.737.363.5 1.396.475 2.16l.042.186-4.284 3.879-.021-1.924.011-.377c.052-.925.491-1.147 1.2-1.79z" class="E"/><path d="M117.93 112.053c-.709.643-1.148.865-1.2 1.79l-.011.377c-.666-.661-1.864-1.502-2.651-2.087l3.862-.081z" class="G"/><path d="M146.625 62c7.942-.665 14.921 5.231 15.589 13.17s-5.227 14.918-13.167 15.589c-7.946.672-14.932-5.225-15.601-13.169s5.233-14.925 13.18-15.59z" class="E"/><path d="M143.482 69.028c.537.017 1.229.306 1.642.626 1.681 1.303 9.607 5.306 10.412 6.687-.347.846-3.404 2.462-4.291 2.992-1.479.795-6.323 4.161-7.484 4.088-.753-.919-.762-13.394-.279-14.393z" class="D"/><path d="M169.639 100.599c1.326-2.175 3.492-2.255 4.809.016.023.542.076 1.124-.004 1.657-1.242 2.309-3.489 2.138-4.805-.006l-41.531.008-14.269-.003c-2.179 0-4.381.012-6.562.022-.519.002-.693-.089-1.049-.373-.189-.546-.176-.314-.047-.881.378-.334.5-.418 1.078-.431l7.291-.008 12.829.009z" class="E"/><path d="M174.448 100.615l11.15-.018c1.129-.002 5.897-.201 6.589.306.303.48.246.261.223.823-.19.241-.376.54-.732.527-5.528-.202-11.779.417-17.234.018.081-.533.028-1.115.004-1.657z" fill="#cfcfee"/></g></svg><defs ><linearGradient id="K" gradientUnits="userSpaceOnUse"/></defs></svg>